<svg id="Capa_1" enable-background="new 0 0 512 512" height="512" viewBox="0 0 512 512" width="512" xmlns="http://www.w3.org/2000/svg"><g><path d="m467 91h-422c-24.81 0-45 20.19-45 45v45l10 15.615-10 14.385v256c0 24.81 20.19 45 45 45h422c24.81 0 45-20.19 45-45 0-11.112 0-256 0-256l-10-15.198 10-14.802c0-23.462 0-40.135 0-45 0-24.81-20.19-45-45-45z" fill="#292f6d"/><path d="m512 136v45l-10 15 10 15v256c0 24.81-20.19 45-45 45h-211v-421h211c24.81 0 45 20.19 45 45z" fill="#161e4c"/><path d="m361 106v80h-30v-80c0-38-6.36-63.64-10.37-76h-129.27c-3.99 12.33-10.36 37.97-10.36 76v80h-30v-80c0-62.72 15.82-96.14 16.5-97.53 2.5-5.18 7.75-8.47 13.5-8.47h150c5.75 0 11 3.29 13.5 8.47.68 1.39 16.5 34.81 16.5 97.53z" fill="#dfe3f4"/><path d="m361 106v80h-30v-80c0-38-6.36-63.64-10.37-76h-64.63v-30h75c5.75 0 11 3.29 13.5 8.47.68 1.39 16.5 34.81 16.5 97.53z" fill="#c7cbe1"/><path d="m91 206v50c0 8.28-6.72 15-15 15s-15-6.72-15-15v-50z" fill="#616a9b"/><path d="m286 421.5h-60c-8.284 0-15 6.716-15 15s6.716 15 15 15h60c8.284 0 15-6.716 15-15s-6.716-15-15-15z" fill="#616a9b"/><path d="m301 436.5c0 8.28-6.72 15-15 15h-30v-30h30c8.28 0 15 6.72 15 15z" fill="#474e8c"/><path d="m0 181h262.154v30h-262.154z" fill="#616a9b"/><path d="m256 181h256v30h-256z" fill="#474e8c"/></g></svg>