<svg id="Capa_1" enable-background="new 0 0 512 512" height="512" viewBox="0 0 512 512" width="512" xmlns="http://www.w3.org/2000/svg"><g><path d="m466.5 61h-61l-105 451h166c8.284 0 15-6.716 15-15v-421c0-8.284-6.716-15-15-15z" fill="#c7cbe1"/><path d="m405.5 61h-360c-8.284 0-15 6.716-15 15v421c0 8.284 6.716 15 15 15h255l120-121v-315c0-8.284-6.716-15-15-15z" fill="#f0f4ff"/><path d="m420.5 76v315l-120 121h-75v-451h180c8.28 0 15 6.72 15 15z" fill="#dfe3f4"/><circle cx="300.5" cy="166" fill="#b7b5f3" r="45"/><path d="m300.5 211c-33.084 0-60 26.916-60 60v15c0 8.284 6.716 15 15 15h90c8.284 0 15-6.716 15-15v-15c0-33.084-26.916-60-60-60z" fill="#b7b5f3"/><g fill="#dfe3f4"><path d="m106 241h90c8.284 0 15-6.716 15-15s-6.716-15-15-15h-90c-8.284 0-15 6.716-15 15s6.716 15 15 15z"/><path d="m196 271h-90c-8.284 0-15 6.716-15 15s6.716 15 15 15h90c8.284 0 15-6.716 15-15s-6.716-15-15-15z"/></g><path d="m345.5 331h-180c-8.284 0-15 6.716-15 15s6.716 15 15 15h180c8.284 0 15-6.716 15-15s-6.716-15-15-15z" fill="#dfe3f4"/><path d="m360.5 346c0 8.28-6.72 15-15 15h-120v-30h120c8.28 0 15 6.72 15 15z" fill="#c7cbe1"/><path d="m256 391h-90.5c-8.284 0-15 6.716-15 15s6.716 15 15 15h90.5c8.284 0 15-6.716 15-15s-6.716-15-15-15z" fill="#dfe3f4"/><path d="m271 406c0 8.28-6.72 15-15 15h-30.5v-30h30.5c8.28 0 15 6.72 15 15z" fill="#c7cbe1"/><path d="m105.5 361c-8.284 0-15-6.716-15-15 0-8.284 6.716-15 15-15 8.284 0 15 6.716 15 15 0 8.284-6.716 15-15 15z" fill="#dfe3f4"/><path d="m105.5 421c-8.284 0-15-6.716-15-15 0-8.284 6.716-15 15-15 8.284 0 15 6.716 15 15 0 8.284-6.716 15-15 15z" fill="#dfe3f4"/><path d="m420.5 391h-105c-8.284 0-15 6.716-15 15v106z" fill="#f0f4ff"/><path d="m121 136c0 8.521 7.145 15.408 15.758 14.981 8.057-.399 14.242-7.351 14.242-15.417v-90.128c0-8.067-6.185-15.018-14.242-15.417-8.613-.427-15.758 6.459-15.758 14.981v16h-30v-15.202c0-25.176 20.602-46.219 45.775-45.792 24.454.415 44.225 20.443 44.225 44.994v90.202c0 25.176-20.602 46.219-45.775 45.792-24.454-.416-44.225-20.443-44.225-44.994v-15.332c0-8.214 6.658-14.872 14.872-14.872 8.118 0 14.736 6.509 14.87 14.626z" fill="#90eb9f"/></g></svg>