<svg id="Capa_1" enable-background="new 0 0 512 512" height="512" viewBox="0 0 512 512" width="512" xmlns="http://www.w3.org/2000/svg"><g><g><path d="m301 408.574v88.41c0 11.35-12.12 18.55-22.07 13.23l-22.89-12.23-22.99 12.24c-9.87 5.25-22.05-1.83-22.05-13.24v-88.41c21.995 31.248 68.067 31.161 90 0z" fill="#f77468"/><path d="m301 408.574v88.41c0 11.35-12.12 18.55-22.07 13.23l-22.89-12.23-.04.02v-66.03c17.02 0 34.03-7.81 45-23.4z" fill="#e63e39"/></g><path d="m480.57 148.88-91.38 50.79h-266.38l-91.38-50.79c-10.27-5.71-10.26-20.52 0-26.22l217.28-120.77c4.53-2.52 10.05-2.52 14.58 0l217.28 120.77c10.27 5.71 10.26 20.52 0 26.22z" fill="#474e8c"/><path d="m480.57 148.88c-.844.469 10.121-5.626-91.38 50.79h-133.19v-199.67c2.51 0 5.02.63 7.29 1.89l217.28 120.77c10.27 5.71 10.26 20.52 0 26.22z" fill="#292f6d"/><path d="m391 246v-95c0-3.978-1.581-7.793-4.394-10.606-5.831-5.831-30.225-19.394-130.556-19.394-100.421 0-124.825 13.563-130.656 19.394-2.813 2.813-4.394 6.628-4.394 10.606v95z" fill="#292f6d"/><path d="m391 151v95h-135v-125c.794.086 109.826-1.394 130.61 19.39 2.81 2.82 4.39 6.63 4.39 10.61z" fill="#161e4c"/><path d="m497 241h-181l-60 10-60-10h-181c-8.284 0-15 6.716-15 15v120c0 8.284 6.716 15 15 15h181l60-10 60 10h181c8.284 0 15-6.716 15-15v-120c0-8.284-6.716-15-15-15z" fill="#f0f4ff"/><path d="m512 256v120c0 8.28-6.72 15-15 15h-181l-60-10v-130l60-10h181c8.28 0 15 6.72 15 15z" fill="#dfe3f4"/><path d="m196 241h120v150h-120z" fill="#b7b5f3"/><path d="m256 241h60v150h-60z" fill="#7c79eb"/><circle cx="256" cy="377" fill="#faca2c" r="64"/><path d="m320 377c0 35.337-28.79 64-64 64v-128c35.29 0 64 28.71 64 64z" fill="#ffa100"/><circle cx="256" cy="377" fill="#fee343" r="32"/><path d="m288 377c0 17.64-14.36 32-32 32v-64c17.64 0 32 14.36 32 32z" fill="#faca2c"/></g></svg>