<svg id="Capa_1" enable-background="new 0 0 512 512" height="512" viewBox="0 0 512 512" width="512" xmlns="http://www.w3.org/2000/svg"><g><path d="m348.102 310.159 8.415 174.526c.385 7.994 6.979 14.277 14.982 14.277h87.845c7.97 0 14.548-6.232 14.978-14.191l9.433-174.612z" fill="#474e8c"/><path d="m483.76 310.16c-.582 10.766-9.129 168.855-9.44 174.61-.43 7.96-7.01 14.19-14.97 14.19h-42.86v-188.8z" fill="#292f6d"/><path d="m27.124 310.159 8.415 174.526c.385 7.994 6.979 14.277 14.982 14.277h87.845c7.97 0 14.548-6.232 14.978-14.191l9.433-174.612z" fill="#474e8c"/><path d="m162.78 310.16c-.551 10.208-8.971 166.114-9.43 174.61-.43 7.96-7.01 14.19-14.98 14.19h-42.86v-188.8z" fill="#292f6d"/><ellipse cx="95.511" cy="60.697" fill="#fddfcc" rx="47.524" ry="47.659"/><path d="m143.04 60.7c0 26.28-21.32 47.66-47.53 47.66v-95.32c26.21 0 47.53 21.38 47.53 47.66z" fill="#fbd2be"/><ellipse cx="416.489" cy="60.697" fill="#fddfcc" rx="47.524" ry="47.659"/><path d="m464.01 60.7c0 26.28-21.32 47.66-47.52 47.66v-95.32c26.2 0 47.52 21.38 47.52 47.66z" fill="#fbd2be"/><path d="m512 171.66v128.5c0 8.28-6.72 15-15 15h-161.02c-8.29 0-15-6.72-15-15v-128.5c0-34.84 28.25-63.18 62.98-63.18h65.05c34.73 0 62.99 28.34 62.99 63.18z" fill="#f0f4ff"/><path d="m512 171.66v128.5c0 8.28-6.72 15-15 15h-80.51v-206.68h32.52c34.73 0 62.99 28.34 62.99 63.18z" fill="#dfe3f4"/><path d="m191.02 171.66v128.5c0 8.28-6.71 15-15 15h-161.02c-8.28 0-15-6.72-15-15v-128.5c0-34.84 28.26-63.18 62.99-63.18h65.05c34.73 0 62.98 28.34 62.98 63.18z" fill="#f0f4ff"/><path d="m191.02 171.66v128.5c0 8.28-6.71 15-15 15h-80.51v-206.68h32.53c34.73 0 62.98 28.34 62.98 63.18z" fill="#dfe3f4"/><path d="m187.613 310.159 8.415 174.526c.385 7.994 6.979 14.277 14.982 14.277h87.845c7.97 0 14.548-6.232 14.978-14.191l9.433-174.612z" fill="#292f6d"/><path d="m323.27 310.16-.27 5-9.17 169.61c-.43 7.96-7 14.19-14.97 14.19h-42.86v-188.8z" fill="#161e4c"/><ellipse cx="257.066" cy="60.697" fill="#fdc2ab" rx="47.524" ry="47.659"/><path d="m304.59 60.7c0 27.857-23.966 49.005-48.59 47.64v-95.28c.36-.02.71-.02 1.07-.02 26.2 0 47.52 21.38 47.52 47.66z" fill="#ffae8d"/><path d="m351.51 171.66v128.5c0 8.28-6.71 15-15 15h-161.02c-8.29 0-15-6.72-15-15v-128.5c0-34.84 28.25-63.18 62.99-63.18h65.04c34.74 0 62.99 28.34 62.99 63.18z" fill="#f0f4ff"/><path d="m351.51 171.66v128.5c0 8.28-6.71 15-15 15h-80.51v-206.68h32.52c34.74 0 62.99 28.34 62.99 63.18z" fill="#dfe3f4"/><path d="m110.51 108.48v105.02c0 8.28-6.71 15-15 15-8.28 0-15-6.72-15-15v-105.02z" fill="#b7b5f3"/><path d="m110.51 108.48v105.02c0 8.28-6.71 15-15 15v-120.02z" fill="#7c79eb"/><path d="m431.49 108.48v105.02c0 8.28-6.72 15-15 15-8.29 0-15-6.72-15-15v-105.02z" fill="#b7b5f3"/><path d="m431.49 108.48v105.02c0 8.28-6.72 15-15 15v-120.02z" fill="#7c79eb"/><path d="m271 108.48v105.02c0 8.28-6.72 15-15 15s-15-6.72-15-15v-105.02z" fill="#b7b5f3"/><path d="m271 108.48v105.02c0 8.28-6.72 15-15 15v-120.02z" fill="#7c79eb"/></g></svg>