<svg id="Capa_1" enable-background="new 0 0 512 512" height="512" viewBox="0 0 512 512" width="512" xmlns="http://www.w3.org/2000/svg"><g><path d="m447 0h-382c-35.841 0-65 29.159-65 65v382c0 35.841 29.159 65 65 65h382c35.841 0 65-29.159 65-65v-382c0-35.841-29.159-65-65-65z" fill="#90eb9f"/><path d="m512 65v382c0 35.84-29.16 65-65 65h-191v-512h191c35.84 0 65 29.16 65 65z" fill="#5bc998"/><path d="m256.254 432.011c-48.881 0-96.018-20.583-129.324-56.473-33.633-36.24-50.125-83.358-46.439-132.674 6.762-91.33 83.756-162.874 175.285-162.874 44.891 0 87.648 16.889 120.396 47.555 32.428 30.367 52.08 71.315 55.336 115.301 3.685 49.297-12.782 96.378-46.367 132.567-33.38 35.969-80.358 56.598-128.887 56.598z" fill="#f0f4ff"/><path d="m256.254 427.011c-98.893 0-178.238-83.96-170.777-183.774 6.57-88.746 81.373-158.247 170.298-158.247 90.778 0 164.25 70.47 170.747 158.225 7.563 101.183-73.537 183.796-170.268 183.796z" fill="#f0f4ff"/><path d="m256.25 427.01h-.25v-342.02c90.67.12 164.04 70.54 170.52 158.22 7.56 101.19-73.54 183.8-170.27 183.8z" fill="#dfe3f4"/><path d="m316.103 294.89-45.103-45.103v-83.787c0-8.284-6.716-15-15-15s-15 6.716-15 15v90c0 3.978 1.581 7.793 4.394 10.606l49.497 49.497c5.857 5.858 15.355 5.859 21.213 0 5.857-5.858 5.857-15.355-.001-21.213z" fill="#f77468"/><path d="m316.1 316.1c-5.85 5.86-15.35 5.86-21.21 0l-38.89-38.88v-126.22c8.28 0 15 6.72 15 15v83.79l45.1 45.1c5.86 5.86 5.86 15.36 0 21.21z" fill="#e63e39"/><path d="m241 106v-20.354c-35.685 3.118-68.494 17.404-94.721 39.424l14.261 14.261c5.86 5.86 5.86 15.35 0 21.21-5.824 5.823-15.327 5.883-21.21 0l-14.266-14.266c-21.916 26.071-36.257 58.77-39.395 94.726h20.331c8.28 0 15 6.72 15 15s-6.72 15-15 15h-20.362c2.998 34.727 16.543 67.582 39.381 94.77l14.311-14.31c5.86-5.86 15.35-5.86 21.21 0s5.86 15.35 0 21.21l-14.336 14.336c26.743 22.538 59.549 36.256 94.796 39.324v-20.331c0-8.28 6.72-15 15-15v-270c-8.28 0-15-6.72-15-15z" fill="none"/><path d="m271 406v20.346c34.734-3.071 67.917-16.902 94.75-39.382l-14.29-14.295c-5.86-5.86-5.86-15.35 0-21.21s15.35-5.86 21.21 0l14.309 14.303c22.893-27.193 36.435-59.938 39.403-94.763h-20.382c-8.28 0-15-6.72-15-15s6.72-15 15-15h20.333c-3.042-34.855-16.842-67.947-39.346-94.777l-14.317 14.318c-5.823 5.823-15.327 5.883-21.21 0-5.86-5.86-5.86-15.35 0-21.21l14.324-14.324c-26.801-22.496-59.882-36.289-94.784-39.339v20.333c0 8.28-6.72 15-15 15v270c8.28 0 15 6.72 15 15z" fill="none"/><path d="m256 391c-8.28 0-15 6.72-15 15v20.33c-35.247-3.068-68.053-16.786-94.796-39.324l14.336-14.336c5.86-5.86 5.86-15.35 0-21.21s-15.35-5.86-21.21 0l-14.311 14.31c-22.838-27.188-36.384-60.044-39.381-94.77h20.362c8.28 0 15-6.72 15-15s-6.72-15-15-15h-20.331c3.138-35.956 17.479-68.655 39.395-94.726l14.266 14.266c5.883 5.883 15.386 5.823 21.21 0 5.86-5.86 5.86-15.35 0-21.21l-14.261-14.261c26.227-22.02 59.036-36.306 94.721-39.424v20.355c0 8.28 6.72 15 15 15l5.011-36.01-5.011-29.993c-105.251-.116-192.723 81.764-200.44 186.003-8.339 111.569 76.041 207.341 185.44 215.44 5.038.377 10.038.546 15 .552l6.012-29.982z" fill="#474e8c"/><path d="m456.44 241c-7.296-98.547-86.179-178.091-185.44-185.44-5.036-.376-10.037-.557-15-.563v29.993 36.01c8.28 0 15-6.72 15-15v-20.333c34.902 3.05 67.983 16.842 94.784 39.339l-14.324 14.324c-5.86 5.86-5.86 15.35 0 21.21 5.883 5.883 15.387 5.823 21.21 0l14.317-14.317c22.504 26.83 36.304 59.922 39.346 94.777h-20.333c-8.28 0-15 6.72-15 15s6.72 15 15 15h20.382c-2.969 34.825-16.51 67.57-39.403 94.763l-14.309-14.303c-5.86-5.86-15.35-5.86-21.21 0s-5.86 15.35 0 21.21l14.29 14.295c-26.832 22.479-60.016 36.31-94.75 39.382v-20.347c0-8.28-6.72-15-15-15v36.01 29.982c115.791.143 209.198-98.821 200.44-215.992z" fill="#292f6d"/></g></svg>