<svg id="Capa_1" enable-background="new 0 0 512 512" height="512" viewBox="0 0 512 512" width="512" xmlns="http://www.w3.org/2000/svg"><g><path d="m497 0h-149c-5.232 0-10.087 2.727-12.81 7.195l-31.566 51.805h-228.624c-8.284 0-15 6.716-15 15v300c0 8.284 6.716 15 15 15h422c8.284 0 15-6.716 15-15v-359c0-8.284-6.716-15-15-15z" fill="#faca2c"/><path d="m512 15v359c0 8.28-6.72 15-15 15h-241v-330h47.62l31.57-51.81c2.72-4.46 7.58-7.19 12.81-7.19h149c8.28 0 15 6.72 15 15z" fill="#ffa100"/><path d="m420 195v302c0 8.284-6.716 15-15 15h-359.992c-24.853 0-45-20.147-45-45v-285.1c22.838-.107 384.503-1.804 404.992-1.9 8.217 0 15 6.656 15 15z" fill="#292f6d"/><path d="m420 195v302c0 8.28-6.72 15-15 15h-149v-331.3c75.65-.35 140.65-.66 149-.7 8.22 0 15 6.66 15 15z" fill="#161e4c"/><path d="m353.289 393.506-181-120c-9.938-6.586-23.289.529-23.289 12.502v120c0 8.284 6.716 15 15 15h181c14.823 0 20.632-19.319 8.289-27.502z" fill="#f0f4ff"/><path d="m345 421.01h-89v-92l97.29 64.5c12.34 8.18 6.53 27.5-8.29 27.5z" fill="#dfe3f4"/><path d="m45 421c-24.853 0-45 20.147-45 45v-300c0-24.853 20.147-45 45-45h30c8.284 0 15 6.716 15 15v270c0 8.284-6.716 15-15 15z" fill="#b7b5f3"/></g></svg>