<svg id="Capa_1" enable-background="new 0 0 512 512" height="512" viewBox="0 0 512 512" width="512" xmlns="http://www.w3.org/2000/svg"><g><path d="m481 434.35v62.65c0 8.28-6.72 15-15 15h-420c-8.28 0-15-6.72-15-15v-62.66c0-54.916 36.068-104.238 90-120l14.97 6.366 15.034-13.02c39.011-8.332 101.761-21.345 101.867-21.367 2.03-.43 4.13-.43 6.16 0 53.168 11.137 83.861 17.539 101.975 21.337l15.376 13.24 14.618-6.536c53.74 15.683 90 64.89 90 119.99z" fill="#5bc998"/><path d="m481 434.35v62.65c0 8.28-6.72 15-15 15h-210v-226c.972 0 65.299 13.133 105.013 21.618l14.525 13.946 15.462-7.204c53.74 15.68 90 64.89 90 119.99z" fill="#288c79"/><path d="m391 314.36v197.64h-270v-197.66c7.263-2.146 11.234-2.655 30-6.67v83.33h210l.013-83.382c18.769 4.023 21.602 4.715 29.987 6.742z" fill="#474e8c"/><path d="m391 314.36v197.64h-135v-121h105l.013-83.382c11.177 2.397 23.294 4.738 29.987 6.742z" fill="#292f6d"/><path d="m376 176v50c0 66.17-53.83 120-120 120s-120-53.83-120-120v-50z" fill="#fddfcc"/><path d="m376 176v50c0 66.109-53.806 120-120 120v-170z" fill="#fbd2be"/><path d="m383.839 116.271-13.453-2.593c-7.17-22.548-21.021-42.738-39.687-57.602-21.582-17.185-48.634-26.431-76.35-26.055-.085 0-.173 0-.259.002-26.983.416-53.323 10.064-74.168 27.168-17.959 14.736-31.326 34.533-38.315 56.504l-13.429 2.572c-7.068 1.354-12.178 7.537-12.178 14.733v35c0 8.284 6.716 15 15 15h250c8.284 0 15-6.716 15-15v-35c0-7.189-5.102-13.368-12.161-14.729z" fill="#fee343"/><path d="m396 131v35c0 8.28-6.72 15-15 15h-125v-150.99c52.709.034 98.661 34.202 114.39 83.67l13.45 2.59c7.06 1.36 12.16 7.54 12.16 14.73z" fill="#faca2c"/><path d="m286 0h-60c-8.284 0-15 6.716-15 15v76c0 8.284 6.716 15 15 15h60c8.284 0 15-6.716 15-15v-76c0-8.284-6.716-15-15-15z" fill="#faca2c"/><path d="m301 15v76c0 8.28-6.72 15-15 15h-30v-106h30c8.28 0 15 6.72 15 15z" fill="#ffa100"/></g></svg>