<svg id="Capa_1" enable-background="new 0 0 512 512" height="512" viewBox="0 0 512 512" width="512" xmlns="http://www.w3.org/2000/svg"><g><path d="m252.999 107.484c.211-.895.174-1.839-.122-2.727l-2.457-7.37-131.799 115.324c-6.378 5.581-6.869 15.347-1.072 21.54l44 47c5.633 6.018 15.051 6.354 21.104.79l43.425-39.932c10.979-54.9 21.766-108.843 26.921-134.625z" fill="#ae2925"/><path d="m394.169 416.55-90 91c-5.88 5.94-15.48 5.92-21.34 0l-90-91c-3.5-3.55-5.02-8.6-4.04-13.49 2.691-13.457 10.43-52.15 10.43-52.15l10.667-12.226-4.773-17.243 10.256-51.281 11.469-13.297-5.576-16.172s6.957-34.787 10.255-51.281l11.82-12.334-5.927-17.135s7.846-39.236 10.718-53.6l45.26-15 45.48 15c3.013 15.064 54.612 273.08 59.34 296.72.02.08.03.15.04.23.891 4.819-.629 9.769-4.079 13.259z" fill="#f77468"/><path d="m394.169 416.55-90 91c-2.94 2.97-6.8 4.45-10.67 4.45v-420.62l45.37 14.96c3.01 15.06 54.61 273.08 59.34 296.72.02.08.03.15.04.23.89 4.82-.63 9.77-4.08 13.26z" fill="#e63e39"/><path d="m338.865 106.339 28.865-86.596c3.233-9.701-3.996-19.743-14.231-19.743h-120c-10.226 0-17.466 10.035-14.23 19.744l28.865 86.596h90.731z" fill="#e63e39"/><path d="m367.729 19.74-28.86 86.6h-45.37v-106.34h60c10.23 0 17.46 10.04 14.23 19.74z" fill="#ae2925"/><path d="m362.369 223.84-130.85-34.43 5.89-29.47 118.41 31.16z" fill="#e63e39"/><path d="m362.369 223.84-68.87-18.12v-31.02l62.32 16.4z" fill="#ae2925"/><path d="m380.309 313.57-164.94-43.41 5.89-29.47 152.5 40.13z" fill="#e63e39"/><path d="m380.309 313.57-86.81-22.85v-31.02l80.26 21.12z" fill="#ae2925"/><path d="m398.249 403.29-199.03-52.38 5.89-29.47 186.6 49.11 6.5 32.51c.02.08.03.15.04.23z" fill="#e63e39"/><path d="m398.249 403.29-104.75-27.57v-31.02l98.21 25.85 6.5 32.51c.02.08.03.15.04.23z" fill="#ae2925"/></g></svg>