<svg id="Capa_1" enable-background="new 0 0 512.033 512.033" height="512" viewBox="0 0 512.033 512.033" width="512" xmlns="http://www.w3.org/2000/svg"><g><path d="m507.817 185.643c-.556-.579-1.143-1.132-1.794-1.621l-241-181c-5.336-4.008-12.68-4.008-18.016 0l-241 181c-.652.49-1.239 1.042-1.794 1.621v287.32h503.604z" fill="#faca2c"/><path d="m507.814 185.646v287.32h-251.8v-472.95c3.17 0 6.34 1 9.01 3.01l77.21 57.99 108.78 81.7 55.01 41.31c.651.49 1.24 1.04 1.79 1.62z" fill="#ffa100"/><path d="m436.014 61.016h-360c-8.284 0-15 6.716-15 15v316.997c0 8.268 6.69 14.977 14.958 15l360 1.004h.042c3.971 0 7.779-1.574 10.592-4.378 2.822-2.814 4.408-6.636 4.408-10.622v-318.001c0-8.284-6.715-15-15-15z" fill="#f0f4ff"/><path d="m451.014 76.016v318c0 3.99-1.59 7.81-4.41 10.62-3.971 3.972-8.334 4.632-13.9 4.37l-176.69-.49v-347.5h180c8.281 0 15 6.72 15 15z" fill="#dfe3f4"/><path d="m136.014 151.016h240c8.284 0 15-6.716 15-15s-6.716-15-15-15h-240c-8.284 0-15 6.716-15 15s6.716 15 15 15z" fill="#b7b5f3"/><path d="m391.014 136.016c0 8.28-6.72 15-15 15h-120v-30h120c8.281 0 15 6.72 15 15z" fill="#7c79eb"/><path d="m376.014 181.016h-240c-8.284 0-15 6.716-15 15s6.716 15 15 15h240c8.284 0 15-6.716 15-15s-6.715-15-15-15z" fill="#b7b5f3"/><path d="m391.014 196.016c0 8.28-6.72 15-15 15h-120v-30h120c8.281 0 15 6.72 15 15z" fill="#7c79eb"/><path d="m346.014 241.016h-180c-8.284 0-15 6.716-15 15s6.716 15 15 15h180c8.284 0 15-6.716 15-15s-6.715-15-15-15z" fill="#b7b5f3"/><path d="m361.014 256.016c0 8.28-6.72 15-15 15h-90v-30h90c8.281 0 15 6.72 15 15z" fill="#7c79eb"/><g><path d="m4.212 185.643c-2.66 2.771-4.198 6.47-4.198 10.373v301c0 8.284 6.716 15 15 15h241v-84.576z" fill="#fee343"/><path d="m507.817 185.643-251.803 241.797v84.576h241c8.284 0 15-6.716 15-15v-301c0-3.902-1.537-7.602-4.197-10.373z" fill="#faca2c"/></g><path d="m507.793 486.584-151-156c-2.826-2.919-6.715-4.567-10.778-4.567h-180c-4.063 0-7.952 1.648-10.778 4.567l-151 156c-9.187 9.492-2.447 25.433 10.778 25.433h482c13.209-.001 19.975-15.93 10.778-25.433z" fill="#faca2c"/><path d="m497.014 512.016h-241v-186h90c4.06 0 7.95 1.65 10.78 4.57l151 156c9.2 9.5 2.43 25.43-10.78 25.43z" fill="#ffa100"/></g></svg>