<svg id="Capa_1" enable-background="new 0 0 512.001 512.001" height="512" viewBox="0 0 512.001 512.001" width="512" xmlns="http://www.w3.org/2000/svg"><g><path d="m497.001 122h-361c-8.284 0-15 6.716-15 15v270c0 8.284 6.716 15 15 15h204.787l85.607 85.606c9.395 9.396 25.606 2.733 25.606-10.606v-75h45c8.284 0 15-6.716 15-15v-270c0-8.284-6.716-15-15-15z" fill="#b7b5f3"/><path d="m512.001 137v270c0 8.28-6.72 15-15 15h-45v75c0 13.34-16.21 20-25.61 10.61l-85.6-85.61h-24.29v-300h180.5c8.28 0 15 6.72 15 15z" fill="#7c79eb"/><path d="m376.001 0h-361c-8.284 0-15 6.716-15 15v270c0 8.284 6.716 15 15 15h45v75c0 13.439 16.24 19.975 25.606 10.606l85.607-85.606h204.787c8.284 0 15-6.716 15-15v-270c0-8.284-6.716-15-15-15z" fill="#f77468"/><path d="m391.001 15v270c0 8.28-6.72 15-15 15h-180.5v-300h180.5c8.28 0 15 6.72 15 15z" fill="#e63e39"/><path d="m75.001 106h241c8.284 0 15-6.716 15-15s-6.716-15-15-15h-241c-8.284 0-15 6.716-15 15s6.715 15 15 15z" fill="#e63e39"/><path d="m331.001 91c0 8.28-6.72 15-15 15h-120.5v-30h120.5c8.28 0 15 6.72 15 15z" fill="#ae2925"/><path d="m76.001 137c-8.284 0-15 6.716-15 15s6.716 15 15 15h105c8.284 0 15-6.716 15-15s-6.716-15-15-15z" fill="#e63e39"/><path d="m316.001 196h-240c-8.284 0-15 6.716-15 15s6.716 15 15 15h240c8.284 0 15-6.716 15-15s-6.716-15-15-15z" fill="#e63e39"/><g fill="#ae2925"><path d="m331.001 211c0 8.28-6.72 15-15 15h-120.5v-30h120.5c8.28 0 15 6.72 15 15z"/><path d="m316.001 137h-75c-8.284 0-15 6.716-15 15s6.716 15 15 15h75c8.284 0 15-6.716 15-15s-6.716-15-15-15z"/></g></g></svg>