<svg id="Capa_1" enable-background="new 0 0 512 512" height="512" viewBox="0 0 512 512" width="512" xmlns="http://www.w3.org/2000/svg"><g><path d="m266.757 425.547 55.453 55.453h23.79c8.28 0 15 6.72 15 15s-6.72 15-15 15h-30c-3.98 0-7.79-1.58-10.61-4.39l-34.39-34.4v23.79c0 8.28-6.72 15-15 15s-15-6.72-15-15v-22.79l-34.39 34.4c-2.82 2.81-6.63 4.39-10.61 4.39h-30c-8.28 0-15-6.72-15-15s6.72-15 15-15h23.79l55.995-55.995z" fill="#292f6d"/><path d="m361 496c0 8.28-6.72 15-15 15h-30c-3.98 0-7.79-1.58-10.61-4.39l-34.39-34.4v23.79c0 8.28-6.72 15-15 15v-85.22l10.76-.23 55.45 55.45h23.79c8.28 0 15 6.72 15 15z" fill="#161e4c"/><path d="m241 430.79v-74.79h30v73.79z" fill="#616a9b"/><path d="m271 356v73.79l-15 .5v-74.29z" fill="#474e8c"/><path d="m481 25v321c0 8.28-6.72 15-15 15h-420c-8.28 0-15-6.72-15-15v-321z" fill="#f0f4ff"/><path d="m481 25v321c0 8.28-6.72 15-15 15h-210v-336z" fill="#dfe3f4"/><path d="m497 0h-482c-8.284 0-15 6.716-15 15s6.716 15 15 15h482c8.284 0 15-6.716 15-15s-6.716-15-15-15z" fill="#292f6d"/><path d="m512 15c0 8.28-6.72 15-15 15h-241v-30h241c8.28 0 15 6.72 15 15z" fill="#161e4c"/><path d="m288.4 192.712-.102.106-65.698-60.678c-3.711 3.303-127.889 113.827-131.6 117.13v36.73c0 8.28 6.72 15 15 15h300c8.28 0 15-6.72 15-15v-231.37c-7.332 7.636-125.272 130.451-132.6 138.082z" fill="#90eb9f"/><path d="m421 54.63v231.37c0 8.28-6.72 15-15 15h-150v-138.01l32.3 29.83.1-.11c7.33-7.63 125.27-130.44 132.6-138.08z" fill="#5bc998"/></g></svg>