<svg id="Capa_1" enable-background="new 0 0 512 512" height="512" viewBox="0 0 512 512" width="512" xmlns="http://www.w3.org/2000/svg"><g><path d="m450 95v92h-132c-3.46 0-6.74 1.84-8.54 4.8l-31.57 51.8c-.9 1.49-2.52 2.4-4.27 2.4h-52.62v-246h134l29.5 65.5z" fill="#f0f4ff"/><path d="m450 95h-80c-8.28 0-15-6.72-15-15v-80z" fill="#dfe3f4"/><path d="m316 95v92.21c-2.69.55-5.09 2.21-6.54 4.59l-31.57 51.8c-.9 1.49-2.52 2.4-4.27 2.4h-212.62v-231c0-8.28 6.72-15 15-15h145l29.5 65.5z" fill="#f0f4ff"/><path d="m316 95v92.21c-2.69.55-5.09 2.21-6.54 4.59l-31.57 51.8c-.9 1.49-2.52 2.4-4.27 2.4h-85.12v-246h32.5l29.5 65.5z" fill="#dfe3f4"/><path d="m316 95h-80c-8.28 0-15-6.72-15-15v-80z" fill="#c7cbe1"/><path d="m136 151h105c8.284 0 15-6.716 15-15s-6.716-15-15-15h-105c-8.284 0-15 6.716-15 15s6.716 15 15 15z" fill="#dfe3f4"/><path d="m256 136c0 8.28-6.72 15-15 15h-52.5v-30h52.5c8.28 0 15 6.72 15 15z" fill="#c7cbe1"/><path d="m241 181h-105c-8.284 0-15 6.716-15 15s6.716 15 15 15h105c8.284 0 15-6.716 15-15s-6.716-15-15-15z" fill="#dfe3f4"/><path d="m256 196c0 8.28-6.72 15-15 15h-52.5v-30h52.5c8.28 0 15 6.72 15 15z" fill="#c7cbe1"/><path d="m467 182h-149c-5.232 0-10.087 2.727-12.81 7.195l-31.565 51.805h-228.625c-8.284 0-15 6.716-15 15v241c0 8.284 6.716 15 15 15h422c8.284 0 15-6.716 15-15v-300c0-8.284-6.716-15-15-15z" fill="#faca2c"/><path d="m482 197v300c0 8.28-6.72 15-15 15h-278.5v-271h85.12l31.57-51.81c2.808-4.597 7.748-7.19 12.81-7.19h149c8.28 0 15 6.72 15 15z" fill="#ffa100"/></g></svg>