<svg id="Capa_1" enable-background="new 0 0 512 512" height="512" viewBox="0 0 512 512" width="512" xmlns="http://www.w3.org/2000/svg"><g><path d="m451 32h-390c-8.284 0-15 6.716-15 15v450c0 8.284 6.716 15 15 15h390c8.284 0 15-6.716 15-15v-450c0-8.284-6.716-15-15-15z" fill="#f0f4ff"/><path d="m466 47v450c0 8.28-6.72 15-15 15h-195v-480h195c8.28 0 15 6.72 15 15z" fill="#dfe3f4"/><path d="m301 0h-90c-24.813 0-45 20.187-45 45v30c0 8.284 6.716 15 15 15h150c8.284 0 15-6.716 15-15v-30c0-24.813-20.187-45-45-45z" fill="#b7b5f3"/><path d="m346 45v30c0 8.28-6.72 15-15 15h-75v-90h45c24.934 0 45 20.328 45 45z" fill="#7c79eb"/><circle cx="166" cy="387" fill="#90eb9f" r="45"/><path d="m366.463 207.75 10.144-10.144c5.858-5.858 5.858-15.355 0-21.213-5.857-5.858-15.355-5.858-21.213 0l-10.144 10.144-10.144-10.144c-5.857-5.858-15.355-5.858-21.213 0s-5.858 15.355 0 21.213l10.144 10.144-10.144 10.144c-5.858 5.858-5.858 15.355 0 21.213 5.857 5.858 15.355 5.859 21.213 0l10.144-10.144 10.144 10.144c5.857 5.858 15.355 5.859 21.213 0 5.858-5.858 5.858-15.355 0-21.213z" fill="#f77468"/><path d="m360.927 355.522c-.442-4.472-2.867-8.51-6.606-11.003l-164.777-109.851 52.456-52.455v8.787c0 8.284 6.716 15 15 15s15-6.716 15-15v-45c0-8.284-6.716-15-15-15h-46c-8.284 0-15 6.716-15 15s6.716 15 15 15h9.787l-65.394 65.394c-3.178 3.178-4.763 7.612-4.32 12.084.442 4.472 2.867 8.51 6.606 11.003l164.776 109.851-77.062 77.062c-5.858 5.858-5.858 15.355 0 21.213 2.929 2.929 6.768 4.393 10.607 4.393s7.678-1.464 10.606-4.394l90-90c3.178-3.177 4.764-7.612 4.321-12.084z" fill="#474e8c"/><g fill="#292f6d"><path d="m356.61 367.61-90 90c-2.93 2.93-6.77 4.39-10.61 4.39v-36.22l66.46-66.45-66.46-44.31v-36.04l98.32 65.54c3.74 2.49 6.16 6.53 6.61 11 .44 4.47-1.15 8.91-4.32 12.09z"/><path d="m257 206c-.34 0-.67-.01-1-.04v-74.96h1c8.28 0 15 6.72 15 15v45c0 8.28-6.72 15-15 15z"/></g></g></svg>