<svg id="Capa_1" enable-background="new 0 0 512 512" height="512" viewBox="0 0 512 512" width="512" xmlns="http://www.w3.org/2000/svg"><g><path d="m184.402 399.608c-37.26 16.143-63.399 53.266-63.399 96.392v1c0 8.284 6.716 15 15 15h239.995c8.284 0 15-6.716 15-15v-1c0-43.168-26.179-80.324-63.499-96.442z" fill="#90eb9f"/><path d="m390.998 496v1c0 8.28-6.72 15-15 15h-119.998v-112.442h71.499c34.777 14.078 63.499 51.563 63.499 96.442z" fill="#5bc998"/><path d="m327.499 399.558v10.69c.01 39.451-32.079 71.551-71.529 71.561h-.02c-39.449 0-71.539-32.081-71.549-71.521v-10.68z" fill="#5bc998"/><path d="m327.499 399.558v10.69c.01 39.441-32.059 71.531-71.499 71.561v-82.252h71.499z" fill="#288c79"/><path d="m297.497 410.251c.007 22.91-18.626 41.554-41.535 41.561-.004 0-.008 0-.013 0-22.903 0-41.54-18.631-41.547-41.532v-33.282h83.094v33.253z" fill="#fbd2be"/><path d="m297.499 376.997c0 35.643.006 33.54-.01 33.851-.32 22.62-18.8 40.941-41.489 40.961v-74.811h41.499z" fill="#ffae8d"/><path d="m338.111 58-46.683-8.144-22.171-41.884c-5.624-10.625-20.886-10.629-26.513 0l-22.171 41.884-46.684 8.144c-11.843 2.066-16.564 16.581-8.193 25.217l32.981 34.029-6.681 46.917c-1.695 11.903 10.65 20.877 21.45 15.585l42.554-20.852 42.554 20.851c10.754 5.271 23.152-3.631 21.45-15.585l-6.681-46.917 32.981-34.029c8.368-8.632 3.655-23.149-8.193-25.216z" fill="#fee343"/><path d="m346.308 83.222-32.989 34.021 6.69 46.921c1.7 11.95-10.7 20.85-21.45 15.58l-42.559-20.851v-158.893c5.22 0 10.44 2.66 13.26 7.97l22.17 41.881 46.679 8.15c11.849 2.07 16.559 16.58 8.199 25.221z" fill="#faca2c"/><path d="m499.573 165.361-33.954-5.923-16.126-30.463c-5.624-10.624-20.887-10.63-26.514 0l-16.125 30.463-33.954 5.923c-11.843 2.066-16.564 16.581-8.193 25.217l23.988 24.75-4.859 34.124c-1.7 11.944 10.706 20.852 21.45 15.585l30.951-15.166 30.951 15.166c10.796 5.29 23.145-3.678 21.45-15.585l-4.859-34.124 23.988-24.75c8.366-8.632 3.654-23.149-8.194-25.217z" fill="#b7b5f3"/><path d="m507.77 190.58-23.99 24.75 4.86 34.12c1.69 11.91-10.66 20.88-21.45 15.59l-30.95-15.17v-128.87c5.22 0 10.44 2.66 13.25 7.97l16.13 30.47 33.95 5.92c11.85 2.07 16.56 16.59 8.2 25.22z" fill="#7c79eb"/><path d="m139.1 165.361-33.954-5.923-16.125-30.463c-5.624-10.625-20.887-10.631-26.514 0l-16.126 30.463-33.954 5.923c-11.843 2.066-16.564 16.581-8.193 25.217l23.988 24.75-4.859 34.124c-1.694 11.901 10.652 20.878 21.45 15.585l30.951-15.166 30.951 15.166c10.754 5.271 23.152-3.631 21.45-15.585l-4.859-34.124 23.988-24.75c8.366-8.632 3.653-23.149-8.194-25.217z" fill="#f77468"/><path d="m147.29 190.58-23.98 24.75 4.85 34.12c1.71 11.96-10.69 20.86-21.45 15.59l-30.95-15.17v-128.87c5.23 0 10.45 2.66 13.26 7.97l16.13 30.47 33.95 5.92c11.85 2.07 16.56 16.59 8.19 25.22z" fill="#e63e39"/><path d="m345.998 330.996c0 49.631-40.369 90.002-89.998 90.002s-89.998-40.371-89.998-90.002c.122-71.013-.311-67.673.35-70.661 2.547 32.047 28.796 60.771 67.079 60.771 2.758 0 5.042-.15 6.37-.15 6.708 0 10.969-5.104 10.95-10.57.386-14.621-1.149-16.947 1.49-19.56 2.898-2.927 2.041-1.007 83.058-1.55 4.75 0 8.78-3.16 10.1-7.48 1.06 3.646.393 2.099.599 49.2z" fill="#fddfcc"/><path d="m345.998 330.996c0 49.462-40.219 90.002-89.998 90.002 0-1.589.003 16.115-.02-120.002h.02v-11.69c5.72-.49 22.11.35 79.298-.03 4.75 0 8.78-3.16 10.1-7.48.38 1.31.54 1.96.59 4.44.01.02.01.05 0 .07.1 4.45-.12 14.72.01 44.69z" fill="#fbd2be"/><path d="m293.461 210.994h-74.921c-28.969 0-52.538 23.569-52.538 52.54 0 18.27 7.175 35.386 20.204 48.194 23.914 23.51 52.392 18.832 55.082 19.266 8.202-.14 14.771-6.844 14.744-15.048l-.05-14.95h75.017c8.284 0 15-6.716 15-15v-22.462c-.001-28.971-23.569-52.54-52.538-52.54z" fill="#292f6d"/><path d="m256 306.976c.019 9.185.056 9.049 0 9.92z" fill="#474e8c"/><path d="m345.998 263.535c0 24.174.006 22.576-.01 22.7.01.02.01.05 0 .07-.16 8.14-6.81 14.69-14.99 14.69h-74.998v-90.002h37.459c28.97.001 52.539 23.572 52.539 52.542z" fill="#161e4c"/></g></svg>