<svg id="Capa_1" enable-background="new 0 0 512 512" height="512" viewBox="0 0 512 512" width="512" xmlns="http://www.w3.org/2000/svg"><g><path d="m373.688 309.881c-91.849-8.267-86.457-7.856-87.738-7.856-63.398.022-60.033-.058-61.347.065l-86.563 8.091c-43.652 4.08-77.09 40.713-77.09 84.631v102.188c0 8.284 6.716 15 15 15h45l19.05-14.077 234.462 1.231 16.488 12.846h45.1c8.284 0 15-6.716 15-15v-102.463c0-43.947-33.517-80.7-77.362-84.656z" fill="#f77468"/><path d="m451.05 394.54v102.46c0 8.28-6.72 15-15 15h-45.1l-16.488-12.846-118.662-.623.17-196.501c39.529 0 12.823-1.597 117.72 7.85 43.84 3.96 77.36 40.71 77.36 84.66z" fill="#e63e39"/><path d="m390.95 390.95v121.05h-270v-121.05c0-8.28 6.72-15 15-15h240c8.28 0 15 6.72 15 15z" fill="#f0f4ff"/><path d="m390.95 390.95v121.05h-134.98v-136.05h119.98c8.28 0 15 6.72 15 15z" fill="#dfe3f4"/><path d="m307.58 496.86v15.14h-103.56v-15.14c0-28.55 23.23-51.78 51.78-51.78s51.78 23.23 51.78 51.78z" fill="#dfe3f4"/><path d="m307.58 496.86v15.14h-51.61v-66.92c28.47.09 51.61 23.29 51.61 51.78z" fill="#c7cbe1"/><path d="m277.58 496.86v15.14h-43.56v-15.14c0-12.01 9.77-21.78 21.78-21.78s21.78 9.77 21.78 21.78z" fill="#f0f4ff"/><path d="m277.58 496.86v15.14h-21.61v-36.92c11.93.09 21.61 9.83 21.61 21.78z" fill="#dfe3f4"/><path d="m395.89 167.74c-.45 16.32-14.24 29.11-30.56 29.11h-4.28v.05c0 40.84-23.75 77.75-60.1 94.97v25.15c0 24.8-20.18 44.98-44.98 44.98-24.79 0-44.97-20.18-44.97-44.98v-25.18c-36.32-17.22-60.05-54.12-60.05-94.94v-.05h-4.95c-16.82 0-30.4-13.87-29.94-30.79.45-16.31 14.24-29.11 30.56-29.11h4.33v-36.5c5.7 2.723 12.194 4.05 15 4.05h107.82c2.06 0 3.92 1.27 4.66 3.2 5.575 14.42 19.444 23.25 34.78 23.25h47.84v6h4.9c16.82 0 30.4 13.87 29.94 30.79z" fill="#fce2c3"/><path d="m395.89 167.74c-.45 16.32-14.24 29.11-30.56 29.11h-4.28v.05c0 40.84-23.75 77.75-60.1 94.97v25.15c0 24.8-20.18 44.98-44.98 44.98v-257.5h17.8c2.06 0 3.92 1.27 4.66 3.2 5.58 14.42 19.44 23.25 34.78 23.25h47.84v6h4.9c16.82 0 30.4 13.87 29.94 30.79z" fill="#fecfa0"/><path d="m306.05 0h-170c-8.284 0-15 6.716-15 15v45.952c0 24.78 18.563 45.609 43.181 48.45 1.631.187-5.14.064 109.539.099 6.14 15.879 21.427 26.45 39.443 26.45h47.838v-80.951c-.001-30.376-24.626-55-55.001-55z" fill="#292f6d"/><path d="m361.05 55v80.95h-47.84c-18.01 0-33.3-10.57-39.44-26.45h-17.8v-109.5h50.08c30.38 0 55 24.62 55 55z" fill="#161e4c"/></g></svg>