<svg id="Capa_1" enable-background="new 0 0 512.001 512.001" height="512" viewBox="0 0 512.001 512.001" width="512" xmlns="http://www.w3.org/2000/svg"><g><path d="m256.002 389.106c174.41-.015 254.599-122.304 254.699-122.382 2.528-5.673 1.298-12.318-3.094-16.71l-240.95-241c-5.856-5.858-15.356-5.859-21.213-.002l-241.05 241c-4.394 4.392-5.624 11.038-3.096 16.712.101.078 80.336 122.382 254.704 122.382z" fill="#dfe3f4"/><path d="m512 260.62c0 2.06-.42 4.14-1.3 6.1-.1.08-80.29 122.37-254.7 122.39h-.07c.003-20.851.057-366.119.06-384.49 3.86-.02 7.72 1.45 10.67 4.39l240.95 241c2.78 2.79 4.3 6.47 4.38 10.25.01.12.01.24.01.36z" fill="#c7cbe1"/><path d="m421 15v401.077h-75v-416.077h60c8.28 0 15 6.72 15 15z" fill="#90eb9f"/><path d="m391 121v295.077h-270v-310.077l106-106h58z" fill="#90eb9f"/><path d="m391 106v310.077h-135v-416.077h29z" fill="#5bc998"/><path d="m136 0h91v46c0 33.14-26.86 60-60 60h-46v-91c0-8.28 6.72-15 15-15z" fill="#5bc998"/><path d="m391 15v91h-46c-33.14 0-60-26.86-60-60v-46h91c8.28 0 15 6.72 15 15z" fill="#288c79"/><circle cx="256" cy="241" fill="#5bc998" r="60"/><path d="m316 241c0 33.08-26.92 60-60 60v-120c33.08 0 60 26.92 60 60z" fill="#288c79"/><circle cx="256" cy="241" fill="#90eb9f" r="30"/><path d="m286 241c0 16.54-13.46 30-30 30v-60c16.54 0 30 13.46 30 30z" fill="#5bc998"/><path d="m256.032 384.106c-.015 0-.015 0-.03 0-102.506 0-194.858-45.461-256.002-123.873v236.767c0 8.284 6.716 15 15 15h482c8.284 0 15-6.716 15-15v-236.752c-61.136 78.397-153.468 123.849-255.968 123.858z" fill="#f0f4ff"/><path d="m512 260.25v236.75c0 8.28-6.72 15-15 15h-241.1c.002-9.169.026-110.619.03-127.89 3.144-.733 152.398 9.043 256.06-123.85z" fill="#dfe3f4"/></g></svg>