<svg id="Capa_1" enable-background="new 0 0 512 512" height="512" viewBox="0 0 512 512" width="512" xmlns="http://www.w3.org/2000/svg"><g><path d="m271 0h-256c-8.284 0-15 6.716-15 15v482c0 8.284 6.716 15 15 15h361c8.284 0 15-6.716 15-15v-377l-73.749-41.606z" fill="#f0f4ff"/><path d="m391 120v377c0 8.28-6.72 15-15 15h-180.5v-512h75.5l46.25 78.39z" fill="#dfe3f4"/><path d="m271 0v105c0 8.284 6.716 15 15 15h105z" fill="#c7cbe1"/><path d="m120.05 451c-41.355 0-75-33.645-75-75s33.645-75 75-75 75 33.645 75 75-33.645 75-75 75zm0-120c-24.813 0-45 20.187-45 45s20.187 45 45 45 45-20.187 45-45-20.187-45-45-45z" fill="#e63e39"/><path d="m49.136 446.814c-5.858-5.858-5.858-15.355 0-21.213l120.208-120.208c5.857-5.857 15.355-5.858 21.213 0s5.858 15.355 0 21.213l-120.208 120.208c-5.858 5.857-15.356 5.858-21.213 0z" fill="#f77468"/><path d="m226.05 151.502h-150c-8.284 0-15-6.716-15-15s6.716-15 15-15h150c8.284 0 15 6.716 15 15s-6.716 15-15 15z" fill="#dfe3f4"/><path d="m241.05 136.5c0 8.29-6.72 15-15 15h-30.55v-30h30.55c8.28 0 15 6.72 15 15z" fill="#c7cbe1"/><path d="m256 214.5h-179.95c-8.284 0-15-6.716-15-15s6.716-15 15-15h179.95c8.284 0 15 6.716 15 15s-6.716 15-15 15z" fill="#dfe3f4"/><path d="m271 199.5c0 8.28-6.72 15-15 15h-60.5v-30h60.5c8.28 0 15 6.72 15 15z" fill="#c7cbe1"/><path d="m255.95 271h-179.95c-8.284 0-15-6.716-15-15s6.716-15 15-15h179.95c8.284 0 15 6.716 15 15s-6.716 15-15 15z" fill="#dfe3f4"/><path d="m270.95 256c0 8.28-6.72 15-15 15h-60.45v-30h60.45c8.28 0 15 6.72 15 15z" fill="#c7cbe1"/><path d="m437.908 290.435c14.278-15.395 22.142-35.436 22.142-56.43 0-45.424-36.482-82.448-81.991-82.999-46.11-.559-84.009 36.877-84.009 82.999 0 20.725 7.687 40.572 21.642 55.881 10.549 11.579 16.358 26.157 16.358 41.049v26.065l45 9.436 45-9.436v-25.035c0-15.768 5.63-30.515 15.858-41.53z" fill="#292f6d"/><path d="m437.91 290.44c-10.23 11.01-15.86 25.76-15.86 41.52v25.04l-43.99 9.23v-215.22c72.339.857 108.262 87.221 59.85 139.43z" fill="#161e4c"/><path d="m422.05 357v50.42c-29.314-3.849-59.621-3.989-90 0v-50.42z" fill="#faca2c"/><path d="m422.05 357v50.42c-14.46-1.9-29.16-2.9-43.99-2.94v-47.48z" fill="#ffa100"/><path d="m242.1 482v15c0 8.284 6.716 15 15 15h239.9c8.284 0 15-6.716 15-15v-15l-134.95-15.462z" fill="#f77468"/><path d="m512 482v15c0 8.28-6.72 15-15 15h-118.94v-45.34z" fill="#e63e39"/><path d="m512 437c0-6.132-3.732-11.647-9.426-13.926-78.6-31.461-172.449-31.461-251.049 0-5.693 2.279-9.426 7.793-9.426 13.926v45h269.901z" fill="#fee343"/><path d="m512 437v45h-133.94v-82.51c42.529.087 85.45 7.944 124.51 23.58 5.7 2.28 9.43 7.8 9.43 13.93z" fill="#faca2c"/></g></svg>