<svg id="Capa_1" enable-background="new 0 0 512.004 512.004" height="512" viewBox="0 0 512.004 512.004" width="512" xmlns="http://www.w3.org/2000/svg"><g><path d="m297.02 31.002v50h-30v-35h-90.04v35h-30v-50c0-8.28 6.71-15 15-15h120.04c8.29 0 15 6.72 15 15z" fill="#292f6d"/><path d="m297.02 31.002v50h-30v-35h-45.02v-30h60.02c8.29 0 15 6.72 15 15z" fill="#161e4c"/><path d="m0 202.572v241.93s6.716 15 15 15h414c8.284 0 15-6.716 15-15v-241.929z" fill="#474e8c"/><path d="m444 202.572v241.93c0 8.28-6.72 15-15 15h-207v-256.93z" fill="#161e4c"/><path d="m39.531 239.689h361.938c21.737 0 39.69-16.158 42.531-37.116v-111.571c0-8.284-6.716-15-15-15h-414c-8.284 0-15 6.716-15 15v111.57c2.841 20.959 17.793 37.117 39.531 37.117z" fill="#faca2c"/><path d="m444 91.002v111.57c-2.84 20.96-20.79 37.12-42.53 37.12h-179.47v-163.69h207c8.28 0 15 6.72 15 15z" fill="#ffa100"/><path d="m242 211.002h-40c-8.284 0-15 6.716-15 15v55c0 8.284 6.716 15 15 15h40c8.284 0 15-6.716 15-15v-55c0-8.284-6.716-15-15-15z" fill="#f0f4ff"/><path d="m257 226.002v55c0 8.28-6.72 15-15 15h-20v-85h20c8.28 0 15 6.72 15 15z" fill="#dfe3f4"/><path d="m378.546 367.96v93.042c0 19.299 15.701 35 35 35s35-15.701 35-35v-93.042l-35-5z" fill="#faca2c"/><path d="m448.55 367.962v93.04c0 19.3-15.7 35-35 35v-133.04z" fill="#ffa100"/><path d="m448.546 321.903c-22.646 8.065-47.338 8.07-70 0v46.057h70z" fill="#292f6d"/><path d="m448.55 321.902v46.06h-35v-40.01c11.84 0 23.67-2.01 35-6.05z" fill="#161e4c"/><circle cx="413.546" cy="234.502" fill="#292f6d" r="98.5"/><path d="m448.55 326.562c-11.25 4.26-23.13 6.39-35 6.39v-196.91c25.22 0 50.45 9.6 69.65 28.81 50.631 50.631 31.673 136.629-34.65 161.71z" fill="#161e4c"/><circle cx="413.546" cy="234.502" fill="#b7b5f3" r="68.5"/><path d="m482.05 234.502c0 37.86-30.64 68.5-68.5 68.5v-137c37.86 0 68.5 30.64 68.5 68.5z" fill="#7c79eb"/></g></svg>