<svg id="Capa_1" enable-background="new 0 0 512 512" height="512" viewBox="0 0 512 512" width="512" xmlns="http://www.w3.org/2000/svg"><g><path d="m497 90h-331c-8.284 0-15 6.716-15 15v392c0 8.284 6.716 15 15 15h331c8.284 0 15-6.716 15-15v-392c0-8.284-6.716-15-15-15z" fill="#f0f4ff"/><path d="m512 105v392c0 8.28-6.72 15-15 15h-165v-422h165c8.28 0 15 6.72 15 15z" fill="#dfe3f4"/><path d="m437 151h-210c-8.284 0-15 6.716-15 15v89c0 8.284 6.716 15 15 15h210c8.284 0 15-6.716 15-15v-89c0-8.284-6.716-15-15-15z" fill="#5bc998"/><path d="m452 166v89c0 8.28-6.72 15-15 15h-105v-119h105c8.28 0 15 6.72 15 15z" fill="#288c79"/><path d="m257 301h-30c-8.284 0-15 6.716-15 15s6.716 15 15 15h30c8.284 0 15-6.716 15-15s-6.716-15-15-15z" fill="#292f6d"/><path d="m347 301h-30c-8.284 0-15 6.716-15 15s6.716 15 15 15h30c8.284 0 15-6.716 15-15s-6.716-15-15-15z" fill="#292f6d"/><path d="m362 316c0 8.28-6.72 15-15 15h-15v-30h15c8.28 0 15 6.72 15 15z" fill="#161e4c"/><path d="m437 301h-30c-8.284 0-15 6.716-15 15s6.716 15 15 15h30c8.284 0 15-6.716 15-15s-6.716-15-15-15z" fill="#161e4c"/><path d="m257 361h-30c-8.284 0-15 6.716-15 15s6.716 15 15 15h30c8.284 0 15-6.716 15-15s-6.716-15-15-15z" fill="#292f6d"/><path d="m347 361h-30c-8.284 0-15 6.716-15 15s6.716 15 15 15h30c8.284 0 15-6.716 15-15s-6.716-15-15-15z" fill="#292f6d"/><path d="m362 376c0 8.28-6.72 15-15 15h-15v-30h15c8.28 0 15 6.72 15 15z" fill="#161e4c"/><path d="m437 361h-30c-8.284 0-15 6.716-15 15s6.716 15 15 15h30c8.284 0 15-6.716 15-15s-6.716-15-15-15z" fill="#161e4c"/><path d="m257 421h-30c-8.284 0-15 6.716-15 15s6.716 15 15 15h30c8.284 0 15-6.716 15-15s-6.716-15-15-15z" fill="#292f6d"/><path d="m347 421h-30c-8.284 0-15 6.716-15 15s6.716 15 15 15h30c8.284 0 15-6.716 15-15s-6.716-15-15-15z" fill="#292f6d"/><path d="m362 436c0 8.28-6.72 15-15 15h-15v-30h15c8.28 0 15 6.72 15 15z" fill="#161e4c"/><path d="m437 421h-30c-8.284 0-15 6.716-15 15s6.716 15 15 15h30c8.284 0 15-6.716 15-15s-6.716-15-15-15z" fill="#161e4c"/><path d="m165 0c-8.284 0-15 6.716-15 15v45c-43.95 0-120.548 0-135 0-8.284 0-15 6.716-15 15v422c0 8.284 6.716 15 15 15h150c8.284 0 15-6.716 15-15v-437-45c0-8.284-6.716-15-15-15z" fill="#faca2c"/><path d="m180 15v482c0 8.28-6.72 15-15 15h-75v-452h60v-45c0-8.28 6.72-15 15-15s15 6.72 15 15z" fill="#ffa100"/></g></svg>