<svg id="Capa_1" enable-background="new 0 0 512 512" height="512" viewBox="0 0 512 512" width="512" xmlns="http://www.w3.org/2000/svg"><g><path d="m451 76v110h-390v-110c0-8.28 6.72-15 15-15h360c8.28 0 15 6.72 15 15z" fill="#292f6d"/><path d="m451 76v110h-195v-125h180c8.28 0 15 6.72 15 15z" fill="#161e4c"/><path d="m391 15v171h-270v-171c0-8.28 6.72-15 15-15h240c8.28 0 15 6.72 15 15z" fill="#f0f4ff"/><path d="m391 15v171h-135v-186h120c8.28 0 15 6.72 15 15z" fill="#dfe3f4"/><path d="m512 241v195c0 8.284-6.716 15-15 15h-482c-8.284 0-15-6.716-15-15v-200c0-30.376 24.624-55 55-55h397c33.137 0 60 26.863 60 60z" fill="#f77468"/><path d="m512 241v195c0 8.284-6.716 15-15 15h-241v-270h196c33.137 0 60 26.863 60 60z" fill="#e63e39"/><path d="m436 335v116h-360v-116c0-8.28 6.72-15 15-15h30l135 14.626 135-14.626h30c8.28 0 15 6.72 15 15z" fill="#292f6d"/><path d="m436 335v116h-180v-116.374l135-14.626h30c8.28 0 15 6.72 15 15z" fill="#161e4c"/><path d="m391 320v177c0 8.28-6.72 15-15 15h-240c-8.28 0-15-6.72-15-15v-177h135z" fill="#f0f4ff"/><path d="m391 320v177c0 8.28-6.72 15-15 15h-120v-192z" fill="#dfe3f4"/><circle cx="406" cy="256" fill="#f77468" r="15"/><circle cx="346" cy="256" fill="#f77468" r="15"/><path d="m196 406h120c8.284 0 15-6.716 15-15s-6.716-15-15-15h-120c-8.284 0-15 6.716-15 15s6.716 15 15 15z" fill="#292f6d"/><path d="m331 391c0 8.28-6.72 15-15 15h-60v-30h60c7.94 0 14.45 6.18 14.96 14 .03.33.04.66.04 1z" fill="#161e4c"/><path d="m316 436h-120c-8.284 0-15 6.716-15 15s6.716 15 15 15h120c8.284 0 15-6.716 15-15s-6.716-15-15-15z" fill="#292f6d"/><path d="m331 451c0 8.28-6.72 15-15 15h-60v-30h60c8.28 0 15 6.72 15 15z" fill="#161e4c"/></g></svg>