<svg id="Capa_1" enable-background="new 0 0 512 512" height="512" viewBox="0 0 512 512" width="512" xmlns="http://www.w3.org/2000/svg"><g><path d="m489.598 324.201-50.925-87.291c15.701-128.254-84.216-236.91-208.861-236.91-116.054 0-210.471 94.417-210.471 210.47 0 55.897 22.011 109.026 61.322 148.517v137.013c0 8.251 6.665 14.954 14.916 15 43.602.243 179.563 1 179.712 1 8.269 0 15-6.705 15-15v-30.14h75.47c24.35 0 44.16-19.796 44.16-44.13v-65.01h60.431c17.094 0 27.921-18.586 19.246-33.519z" fill="#fddfcc"/><path d="m470.353 357.72h-60.43v65.01c0 24.33-19.81 44.13-44.16 44.13h-75.47v30.14c0 8.29-6.73 15-15 15-.06 0-19.24-.11-45.48-.25v-511.75c124.64 0 224.56 108.66 208.86 236.91l50.93 87.29c8.67 14.93-2.16 33.52-19.25 33.52z" fill="#fbd2be"/><path d="m229.341 91c-41.355 0-75 33.645-75 75 0 8.284 6.716 15 15 15s15-6.716 15-15c0-24.813 20.187-45 45-45s45 20.187 45 45-20.187 45-45 45c-8.284 0-15 6.716-15 15v60c0 8.284 6.716 15 15 15s15-6.716 15-15v-46.507c34.19-6.969 60-37.274 60-73.493 0-41.355-33.644-75-75-75z" fill="#f77468"/><path d="m304.343 166c0 36.22-25.81 66.52-60 73.49v46.51c0 8.12-6.47 14.74-14.53 14.99v-89.99c24.59-.26 44.53-20.35 44.53-45s-19.94-44.74-44.53-45v-30c41.14.26 74.53 33.81 74.53 75z" fill="#e63e39"/><circle cx="229.812" cy="346" fill="#f77468" r="15"/><path d="m244.813 346c0 8.28-6.72 15-15 15v-30c8.28 0 15 6.72 15 15z" fill="#e63e39"/></g></svg>