<svg id="Capa_1" enable-background="new 0 0 512 512" height="512" viewBox="0 0 512 512" width="512" xmlns="http://www.w3.org/2000/svg"><g><path d="m362.106 70.416c-.573 1.256-8.045 16.889-30.728 32.366-22.258 15.189-63.987 33.294-136.378 33.294-8.284 0-15 6.716-15 15v150c0 8.284 6.716 15 15 15 72.391 0 114.12 18.105 136.379 33.294 22.683 15.479 30.154 31.11 30.728 32.367 5.784 15.27 28.894 11.193 28.894-5.661v-300c-.001-16.93-23.131-20.878-28.895-5.66z" fill="#f0f4ff"/><path d="m391 226.076v150c0 16.85-23.11 20.93-28.89 5.66-.58-1.26-8.05-16.89-30.73-32.37-22.26-15.18-63.99-33.29-136.38-33.29-8.28 0-15-6.72-15-15v-75z" fill="#dfe3f4"/><path d="m66.43 286.076h-51.43c-8.28 0-15-6.72-15-15v-90c0-8.28 6.72-15 15-15h51.43c-.29 1.62-.43 3.3-.43 5 .142 115.023-.352 110.632.43 115z" fill="#474e8c"/><path d="m66.43 286.076h-51.43c-8.28 0-15-6.72-15-15v-45h66.02c-.02 58.63-.22 56.49.41 60z" fill="#292f6d"/><path d="m181.96 434.916c.667 8.677-6.183 16.16-14.96 16.16h-49c-7.77 0-14.25-5.93-14.94-13.67l-11.26-126.63c3.749.547 36.2.286 92.2.3l-8.86 36.23z" fill="#292f6d"/><path d="m195 136.076h-99c-19.299 0-35 15.701-35 35v110c0 19.299 15.701 35 35 35h99z" fill="#f77468"/><path d="m195 226.076v90h-99c-19.318 0-35-15.724-35-35v-55z" fill="#e63e39"/><path d="m113 226.076v14.924c0 8.284 6.716 15 15 15s15-6.716 15-15v-14.924l-15-5z" fill="#292f6d"/><path d="m143 211c0-8.284-6.716-15-15-15s-15 6.716-15 15v15.076h30z" fill="#474e8c"/><path d="m497 211.076h-30c-8.284 0-15 6.716-15 15s6.716 15 15 15h30c8.284 0 15-6.716 15-15s-6.716-15-15-15z" fill="#fee343"/><path d="m512 226.076c0 8.28-6.72 15-15 15h-30c-8.28 0-15-6.72-15-15z" fill="#faca2c"/><path d="m443.5 149.067 25.981-15c7.174-4.142 9.632-13.316 5.49-20.49s-13.316-9.632-20.49-5.49l-25.981 15c-7.174 4.142-9.632 13.316-5.49 20.49 4.162 7.21 13.35 9.613 20.49 5.49z" fill="#fee343"/><path d="m469.481 318.086-25.981-15c-7.174-4.145-16.35-1.684-20.49 5.49-4.142 7.175-1.684 16.349 5.49 20.49l25.981 15c7.158 4.134 16.339 1.701 20.49-5.49 4.142-7.174 1.684-16.348-5.49-20.49z" fill="#faca2c"/></g></svg>