<svg id="Capa_1" enable-background="new 0 0 512 512" height="512" viewBox="0 0 512 512" width="512" xmlns="http://www.w3.org/2000/svg"><g><path d="m256.5 416.513c-25.052 0-47.061-13.237-59.432-33.076-.207.993-.319 2.021-.319 3.076v110.468c0 11.933 13.321 19.109 23.289 12.502l36.962-24.505 36.962 24.505c9.907 6.568 23.289-.497 23.289-12.502v-111.468c0-1.22-.161-2.4-.436-3.536-12.186 20.647-34.653 34.536-60.315 34.536z" fill="#f77468"/><path d="m317.25 385.511v111.47c0 12.01-13.38 19.07-23.29 12.5l-36.96-24.5v-68.47c21.98-.16 41.58-10.5 54.31-26.53 2.02-2.53 3.86-5.2 5.51-8 .27 1.13.43 2.31.43 3.53z" fill="#e63e39"/><path d="m497 0h-482c-8.284 0-15 6.716-15 15v360c0 8.284 6.716 15 15 15h482c8.284 0 15-6.716 15-15v-360c0-8.284-6.716-15-15-15z" fill="#dfe3f4"/><path d="m512 15v360c0 8.28-6.72 15-15 15h-240v-390h240c8.28 0 15 6.72 15 15z" fill="#c7cbe1"/><path d="m30 30h452v330h-452z" fill="#f0f4ff"/><path d="m257 30h225v330h-225z" fill="#dfe3f4"/><circle cx="256.5" cy="346.532" fill="#faca2c" r="75"/><path d="m331.5 346.53c0 4.6-.42 9.1-1.21 13.47-2.01 11.02-6.43 21.21-12.7 30-.11.16-.23.32-.34.47-13.55 18.68-35.5 30.9-60.25 31.05v-149.98c41.12.26 74.5 33.81 74.5 74.99z" fill="#ffa100"/><circle cx="256.5" cy="346.532" fill="#fee343" r="45"/><path d="m301.5 346.53c0 4.69-.72 9.22-2.06 13.47-4.59 14.6-16.44 26.02-31.3 30-3.56.96-7.29 1.49-11.14 1.53v-90c24.58.27 44.5 20.36 44.5 45z" fill="#faca2c"/><path d="m196 91h120c8.284 0 15-6.716 15-15s-6.716-15-15-15h-120c-8.284 0-15 6.716-15 15s6.716 15 15 15z" fill="#616a9b"/><path d="m331 76c0 8.28-6.72 15-15 15h-59v-30h59c8.28 0 15 6.72 15 15z" fill="#474e8c"/><path d="m106 181h300c8.284 0 15-6.716 15-15s-6.716-15-15-15h-300c-8.284 0-15 6.716-15 15s6.716 15 15 15z" fill="#dfe3f4"/><path d="m421 166c0 8.28-6.72 15-15 15h-149v-30h149c8.28 0 15 6.72 15 15z" fill="#c7cbe1"/><path d="m406 211h-300c-8.284 0-15 6.716-15 15s6.716 15 15 15h300c8.284 0 15-6.716 15-15s-6.716-15-15-15z" fill="#dfe3f4"/><path d="m421 226c0 8.28-6.72 15-15 15h-149v-30h149c8.28 0 15 6.72 15 15z" fill="#c7cbe1"/></g></svg>