<svg id="Capa_1" enable-background="new 0 0 512 512" height="512" viewBox="0 0 512 512" width="512" xmlns="http://www.w3.org/2000/svg"><g><g><path d="m143.144 415.929-56.534-56.539c-5.86-5.85-15.36-5.85-21.22 0l-61 61c-2.81 2.82-4.39 6.63-4.39 10.61v66c0 8.28 6.72 15 15 15h45.824z" fill="#5bc998"/><path d="m507.61 420.39-61-61c-5.86-5.85-15.36-5.85-21.22 0l-56.626 56.63 82.105 95.98h46.131c8.28 0 15-6.72 15-15v-66c0-3.98-1.58-7.79-4.39-10.61z" fill="#288c79"/></g><path d="m271 282.461v-146.461l-14.911-5-15.089 5v146.461z" fill="#474e8c"/><path d="m271 136v146.46h-15v-151.43l.09-.03z" fill="#161e4c"/><path d="m388.993 113.504-25.756-44.644 25.875-46.576c5.546-9.982-1.686-22.284-13.112-22.284h-120c-8.284 0-15 6.716-15 15v121h135c11.501 0 18.772-12.479 12.993-22.496z" fill="#f77468"/><path d="m376 136h-120v-136h120c11.43 0 18.66 12.3 13.11 22.28l-25.87 46.58 25.75 44.64c5.78 10.02-1.49 22.5-12.99 22.5z" fill="#e63e39"/><path d="m468.57 512c-3.922-4.585-61.154-71.488-113.13-132.247l-198.933-.103-113.407 132.35z" fill="#90eb9f"/><path d="m468.57 512h-212.57v-132.3l99.44.05c51.98 60.76 109.21 127.67 113.13 132.25z" fill="#5bc998"/><path d="m255.835 385 44.358 50 55.247-55.247c-40.99-47.917-78.713-92.014-84.44-98.709h-30c-.048.056-40.305 47.037-84.493 98.606l54.518 54.518z" fill="#f0f4ff"/><path d="m355.44 379.75-55.25 55.25-44.19-49.81v-104.15h15c5.73 6.7 43.45 50.8 84.44 98.71z" fill="#dfe3f4"/></g></svg>