<svg id="Capa_1" enable-background="new 0 0 512 512" height="512" viewBox="0 0 512 512" width="512" xmlns="http://www.w3.org/2000/svg"><g><g><path d="m191 443.916v53.083c0 8.285 6.716 15.001 15 15.001h100c8.284 0 15-6.716 15-15.001v-53.083z" fill="#f0f4ff"/><path d="m321 443.916v53.083c0 8.28-6.72 15.001-15 15.001h-50v-68.084z" fill="#dfe3f4"/></g><path d="m387.827 53.416c-17.641-58.666-94.751-72.761-131.827-23.381-37.077-49.381-114.186-35.284-131.827 23.381-59.765 9.51-84.39 83.009-41.72 126.566-42.278 43.156-18.624 116.83 41.565 126.538 9.793 33.62 41.031 54.693 72.106 53.971 19.262-.058 97.702-.061 119.875.001 33.812 0 62.718-22.171 71.981-53.972 60.123-9.697 83.907-83.317 41.565-126.538 42.687-43.572 18.019-117.06-41.718-126.566z" fill="#fdc2ab"/><path d="m429.55 179.982c42.34 43.222 18.55 116.836-41.57 126.537-9.26 31.802-38.17 53.973-71.98 53.973-10.93-.03-35.55-.04-60-.04v-330.418c37.08-49.383 114.19-35.282 131.83 23.381 59.73 9.51 84.4 82.994 41.72 126.567z" fill="#ffae8d"/><path d="m195.944 330.49c-32.446-.04-56.748-33.997-38.708-69.215 3.951 1.796 8.024 3.311 12.205 4.507 8.001 2.285 16.278-2.368 18.546-10.299 2.277-7.966-2.333-16.269-10.298-18.547-11.809-3.377-22.368-10.508-29.897-20.088-5.121-6.514-14.552-7.642-21.063-2.523-6.513 5.12-7.642 14.551-2.522 21.064 2.492 3.17 5.207 6.148 8.105 8.943-5.576 9.961-9.114 20.39-10.536 30.837-37.084-12.394-41.83-63.058-7.548-82.069 10.283-5.702 10.29-20.532 0-26.238-34.161-18.943-29.628-69.523 7.426-82.027.473 3.594 1.198 7.147 2.185 10.628 2.26 7.971 10.555 12.599 18.522 10.34 7.97-2.26 12.6-10.553 10.339-18.524-8.143-28.716 13.519-57.305 43.3-57.305 24.813 0 45 20.188 45 45.002v255.138z" fill="#fddfcc"/><path d="m397.774 193.101c34.189 18.959 29.637 69.641-7.548 82.069-1.422-10.443-4.958-20.869-10.531-30.826 3.765-3.63 7.203-7.584 10.276-11.843 4.848-6.719 3.331-16.095-3.387-20.943s-16.093-3.332-20.941 3.387c-7.706 10.682-18.91 18.439-31.332 21.991-7.965 2.277-12.575 10.581-10.298 18.547 2.271 7.941 10.555 12.581 18.546 10.299 4.181-1.196 8.253-2.71 12.205-4.507 17.947 35.039-6.116 69.215-38.764 69.215h-45c0-3.738 0-241.886 0-255.514 0-24.814 20.187-45.002 45-45.002 30.674 0 52.524 30.256 42.635 59.45-2.658 7.847 1.548 16.363 9.395 19.021 7.844 2.657 16.361-1.547 19.02-9.395 1.567-4.625 2.661-9.38 3.297-14.215 37.017 12.488 41.631 63.061 7.428 82.028-10.284 5.702-10.291 20.532-.001 26.238z" fill="#fbd2be"/><path d="m196 80.976c-8.284 0-15 6.716-15 15.001 0 15.362-5.823 18.176-17.424 23.781-10.981 5.306-27.576 13.325-27.576 36.222 0 8.285 6.716 15.001 15 15.001s15-6.716 15-15.001c0-3.291 0-4.073 10.628-9.209 12.855-6.211 34.372-16.607 34.372-50.794 0-8.284-6.716-15.001-15-15.001z" fill="#fdc2ab"/><path d="m348.424 119.758c-11.601-5.605-17.424-8.419-17.424-23.781 0-8.285-6.716-15.001-15-15.001s-15 6.716-15 15.001c0 34.186 21.517 44.583 34.372 50.795 10.628 5.135 10.628 5.917 10.628 9.208 0 8.285 6.716 15.001 15 15.001s15-6.716 15-15.001c0-22.897-16.595-30.916-27.576-36.222z" fill="#ffae8d"/><g fill="#fee343"><path d="m45.603 181.032c0-8.285-6.716-15.001-15-15.001h-15.603c-8.284 0-15 6.716-15 15.001s6.716 15.001 15 15.001h15.603c8.284-.001 15-6.717 15-15.001z"/><path d="m43.192 56.586c6.072 5.661 15.561 5.307 21.201-.74 5.649-6.059 5.318-15.551-.74-21.201l-11.411-10.642c-6.06-5.65-15.551-5.318-21.201.74-5.649 6.059-5.318 15.551.74 21.201z"/><path d="m43.193 303.377-11.411 10.641c-6.06 5.651-6.391 15.142-.741 21.201 5.651 6.06 15.142 6.39 21.2.741l11.411-10.641c6.06-5.651 6.391-15.142.741-21.201-5.65-6.058-15.142-6.39-21.2-.741z"/></g><g fill="#faca2c"><path d="m497 163.931h-15.603c-8.284 0-15 6.716-15 15.001s6.716 15.001 15 15.001h15.603c8.284 0 15-6.716 15-15.001s-6.716-15.001-15-15.001z"/><path d="m468.807 303.377c-6.057-5.649-15.549-5.318-21.2.741-5.649 6.059-5.318 15.551.741 21.201l11.411 10.641c6.06 5.651 15.551 5.317 21.2-.741 5.649-6.059 5.318-15.551-.741-21.201z"/><path d="m468.808 56.586 11.411-10.642c6.059-5.65 6.39-15.142.74-21.201-5.651-6.06-15.141-6.39-21.201-.74l-11.411 10.642c-6.059 5.65-6.39 15.142-.74 21.201 5.652 6.06 15.141 6.39 21.201.74z"/></g><path d="m332.852 448.916c23.231 0 43.148-18.436 43.148-42.422v-76.004h-240v76.004c0 23.983 19.913 42.422 43.148 42.422 5.203 0 158.7 0 153.704 0z" fill="#dfe3f4"/><path d="m376 330.49v76c0 23.988-19.917 42.43-43.156 42.429l-76.844-.003v-118.426z" fill="#c7cbe1"/></g></svg>