<svg id="Capa_1" enable-background="new 0 0 512.029 512.029" height="512" viewBox="0 0 512.029 512.029" width="512" xmlns="http://www.w3.org/2000/svg"><g><g fill="#dfe3f4"><path d="m105.013 0h-90c-8.284 0-15 6.716-15 15v121c0 8.284 6.716 15 15 15h90c8.284 0 15-6.716 15-15v-121c0-8.284-6.716-15-15-15z"/><path d="m105.013 180.5h-90c-8.284 0-15 6.716-15 15v121c0 8.284 6.716 15 15 15h90c8.284 0 15-6.716 15-15v-121c0-8.284-6.716-15-15-15z"/><path d="m105.013 361h-90c-8.284 0-15 6.716-15 15v121c0 8.284 6.716 15 15 15h90c8.284 0 15-6.716 15-15v-121c0-8.284-6.716-15-15-15z"/></g><path d="m499.472 45.228-34.845-5.789-16.273-31.35c-5.589-10.767-21.035-10.772-26.627 0l-16.272 31.35-34.844 5.789c-11.957 1.987-16.752 16.67-8.229 25.323l24.786 25.165-5.262 34.928c-1.802 11.966 10.655 21.092 21.542 15.65l31.592-15.797 31.594 15.797c10.785 5.395 23.356-3.6 21.541-15.65l-5.262-34.927 24.786-25.165c8.506-8.636 3.753-23.333-8.227-25.324z" fill="#faca2c"/><path d="m499.472 409.351-34.845-5.789-16.273-31.351c-5.585-10.758-21.032-10.779-26.627.001l-16.272 31.35-34.844 5.789c-11.958 1.987-16.751 16.669-8.229 25.323l24.786 25.164-5.262 34.928c-1.805 11.982 10.674 21.084 21.542 15.65l31.592-15.798 31.593 15.798c10.884 5.444 23.343-3.695 21.542-15.65l-5.262-34.928 24.786-25.164c8.506-8.637 3.753-23.332-8.227-25.323z" fill="#faca2c"/><path d="m208.091 95.716-5.262 34.927c-1.802 11.966 10.655 21.092 21.542 15.65l31.592-15.797 31.592 15.797c10.788 5.394 23.357-3.6 21.542-15.65l-5.262-34.927 24.786-25.165c8.506-8.635 3.753-23.332-8.228-25.323l-34.845-5.789-16.272-31.35c-5.589-10.767-21.035-10.772-26.627 0l-16.273 31.35-34.844 5.789c-11.958 1.987-16.752 16.67-8.229 25.324z" fill="#fee343"/><path d="m328.622 70.55-24.79 25.17 5.26 34.92c1.82 12.05-10.75 21.05-21.54 15.65l-31.59-15.79v-130.49c5.26 0 10.51 2.69 13.31 8.08l16.28 31.35 34.84 5.79c11.98 1.99 16.73 16.69 8.23 25.32z" fill="#faca2c"/><path d="m320.393 227.289-34.845-5.789-16.272-31.35c-5.589-10.767-21.035-10.772-26.627 0l-16.273 31.35-34.844 5.789c-11.958 1.987-16.752 16.67-8.229 25.324l24.787 25.165-5.262 34.928c-1.805 11.982 10.674 21.084 21.542 15.65l31.592-15.798 31.592 15.798c10.884 5.444 23.343-3.695 21.542-15.65l-5.262-34.928 24.786-25.165c8.507-8.636 3.754-23.333-8.227-25.324z" fill="#fee343"/><path d="m328.622 252.61-24.79 25.17 5.26 34.93c1.8 11.95-10.65 21.09-21.54 15.65l-31.59-15.8v-130.49c5.26 0 10.51 2.69 13.31 8.08l16.28 31.35 34.84 5.79c11.98 1.99 16.73 16.69 8.23 25.32z" fill="#faca2c"/><path d="m320.393 409.351-34.845-5.789-16.272-31.35c-5.584-10.759-21.031-10.78-26.627-.001l-16.273 31.351-34.844 5.789c-11.958 1.987-16.752 16.67-8.229 25.323l24.787 25.164-5.262 34.928c-1.805 11.982 10.674 21.084 21.542 15.65l31.592-15.798 31.592 15.798c10.884 5.444 23.343-3.695 21.542-15.65l-5.262-34.928 24.786-25.164c8.506-8.637 3.754-23.332-8.227-25.323z" fill="#fee343"/><path d="m328.622 434.67-24.79 25.17 5.26 34.93c1.8 11.95-10.65 21.09-21.54 15.65l-31.59-15.8v-130.49c5.26 0 10.52 2.7 13.31 8.08l16.28 31.35 34.84 5.79c11.98 1.99 16.73 16.69 8.23 25.32z" fill="#faca2c"/></g></svg>