<svg id="Capa_1" enable-background="new 0 0 512 512" height="512" viewBox="0 0 512 512" width="512" xmlns="http://www.w3.org/2000/svg"><g><path d="m61 166v331c0 8.284 6.716 15 15 15h360c8.284 0 15-6.716 15-15v-331l-195.025-10z" fill="#f0f4ff"/><path d="m451 166v331c0 8.28-6.72 15-15 15h-180v-356z" fill="#dfe3f4"/><path d="m451 47c0-8.284-6.716-15-15-15h-360c-8.284 0-15 6.716-15 15v119h390z" fill="#f77468"/><path d="m451 47v119h-195v-134h180c8.28 0 15 6.72 15 15z" fill="#e63e39"/><path d="m271.025 233h-30.101c-8.284 0-15 6.716-15 15s6.716 15 15 15h30.101c8.284 0 15-6.716 15-15s-6.715-15-15-15z" fill="#dfe3f4"/><path d="m286.03 248c0 8.28-6.72 15-15 15h-15.03v-30h15.03c8.28 0 15 6.72 15 15z" fill="#c7cbe1"/><path d="m330.925 263h30.101c8.284 0 15-6.716 15-15s-6.716-15-15-15h-30.101c-8.284 0-15 6.716-15 15s6.716 15 15 15z" fill="#c7cbe1"/><path d="m181.025 293h-30.101c-8.284 0-15 6.716-15 15s6.716 15 15 15h30.101c8.284 0 15-6.716 15-15s-6.715-15-15-15z" fill="#dfe3f4"/><path d="m271.025 293h-30.101c-8.284 0-15 6.716-15 15s6.716 15 15 15h30.101c8.284 0 15-6.716 15-15s-6.715-15-15-15z" fill="#dfe3f4"/><path d="m286.03 308c0 8.28-6.72 15-15 15h-15.03v-30h15.03c8.28 0 15 6.72 15 15z" fill="#c7cbe1"/><path d="m361.025 293h-30.101c-8.284 0-15 6.716-15 15s6.716 15 15 15h30.101c8.284 0 15-6.716 15-15s-6.715-15-15-15z" fill="#c7cbe1"/><path d="m181.025 353h-30.101c-8.284 0-15 6.716-15 15s6.716 15 15 15h30.101c8.284 0 15-6.716 15-15s-6.715-15-15-15z" fill="#dfe3f4"/><path d="m271.025 353h-30.101c-8.284 0-15 6.716-15 15s6.716 15 15 15h30.101c8.284 0 15-6.716 15-15s-6.715-15-15-15z" fill="#dfe3f4"/><path d="m286.03 368c0 8.28-6.72 15-15 15h-15.03v-30h15.03c8.28 0 15 6.72 15 15z" fill="#c7cbe1"/><path d="m361.025 353h-30.101c-8.284 0-15 6.716-15 15s6.716 15 15 15h30.101c8.284 0 15-6.716 15-15s-6.715-15-15-15z" fill="#c7cbe1"/><path d="m181.037 412.938-30.101-.024c-.004 0-.008 0-.012 0-8.278 0-14.993 6.708-15 14.988-.007 8.284 6.703 15.005 14.988 15.012l30.101.024h.012c8.278 0 14.993-6.708 15-14.988.007-8.284-6.703-15.005-14.988-15.012z" fill="#dfe3f4"/><path d="m271.038 413.013-30.101-.025c-.005 0-.009 0-.013 0-8.278 0-14.993 6.708-15 14.987-.007 8.284 6.703 15.006 14.987 15.013l30.101.025h.013c8.278 0 14.993-6.708 15-14.987.007-8.285-6.703-15.006-14.987-15.013z" fill="#dfe3f4"/><path d="m286.03 428.03c-.01 8.193-6.646 14.98-15.02 14.98l-15.01-.01v-30l15.04.01c8.28.01 14.99 6.73 14.99 15.02z" fill="#c7cbe1"/><path d="m135.95 0c-8.284 0-15 6.716-15 15v58.939c0 8.284 6.716 15 15 15s15-6.716 15-15v-58.939c0-8.284-6.716-15-15-15z" fill="#f0f4ff"/><path d="m375.925 0c-8.284 0-15 6.716-15 15v58.939c0 8.284 6.716 15 15 15s15-6.716 15-15v-58.939c0-8.284-6.716-15-15-15z" fill="#dfe3f4"/><path d="m255.95 0c-8.284 0-15 6.716-15 15v58.939c0 8.284 6.716 15 15 15s15-6.716 15-15v-58.939c0-8.284-6.716-15-15-15z" fill="#f0f4ff"/><path d="m270.95 15v58.94c0 8.28-6.72 15-15 15v-88.94c8.28 0 15 6.72 15 15z" fill="#dfe3f4"/></g></svg>