<svg id="Capa_1" enable-background="new 0 0 512 512" height="512" viewBox="0 0 512 512" width="512" xmlns="http://www.w3.org/2000/svg"><g><path d="m271.05 265.15v44.77c-9.582-3.891-20.399-3.899-30 0v-44.77c9.68 1.1 19.77 1.16 30 0z" fill="#474e8c"/><path d="m271.05 265.15v44.77c-4.81-1.95-9.93-2.93-15.05-2.92v-41c4.96 0 9.99-.28 15.05-.85z" fill="#292f6d"/><path d="m150.02 211.5h-59.02v98.82c-9.619-4.209-20.482-4.364-30-.77v-113.05c0-8.28 6.72-15 15-15h57.92c4.06 10.74 9.5 20.81 16.1 30z" fill="#474e8c"/><path d="m452.05 196.5v113.42c-9.582-3.891-20.399-3.899-30 0v-98.42h-59.97c6.6-9.19 12.04-19.26 16.1-30h58.87c8.28 0 15 6.72 15 15z" fill="#292f6d"/><circle cx="256.05" cy="135.5" fill="#dfe3f4" r="135.5"/><path d="m391.55 135.5c0 69.64-52.82 127.18-120.5 134.67-7.68.858-12.743.766-15.05.83v-271h.05c74.71 0 135.5 60.79 135.5 135.5z" fill="#c7cbe1"/><path d="m361.55 135.5c0 29.66-12.3 56.5-32.08 75.67-19 18.46-44.9 29.83-73.42 29.83-28.6 0-54.58-11.44-73.59-29.99-19.68-19.17-31.91-45.94-31.91-75.51 0-58.17 47.33-105.5 105.5-105.5s105.5 47.33 105.5 105.5z" fill="#f0f4ff"/><path d="m361.55 135.5c0 29.66-12.3 56.5-32.08 75.67-33.617 32.661-73.243 29.783-73.47 29.83v-211h.05c58.17 0 105.5 47.33 105.5 105.5z" fill="#dfe3f4"/><circle cx="256" cy="106" fill="#fdc2ab" r="45"/><path d="m301 106c0 24.81-20.19 45-45 45v-90c24.81 0 45 20.19 45 45z" fill="#ffae8d"/><path d="m329.47 211.17c-19 18.46-44.9 29.83-73.42 29.83-28.6 0-54.58-11.44-73.59-29.99 6.96-34.19 37.26-60.01 73.49-60.01 36.28 0 66.63 25.9 73.52 60.17z" fill="#f77468"/><path d="m329.47 211.17c-33.617 32.661-73.243 29.783-73.47 29.83v-90c36.26.02 66.58 25.92 73.47 60.17z" fill="#e63e39"/><path d="m75 392c-41.355 0-75 33.645-75 75v30c0 8.284 6.716 15 15 15h120c8.284 0 15-6.716 15-15v-30c0-41.355-33.645-75-75-75z" fill="#5bc998"/><path d="m437 392c-41.355 0-75 33.645-75 75v30c0 8.284 6.716 15 15 15h120c8.284 0 15-6.716 15-15v-30c0-41.355-33.645-75-75-75z" fill="#288c79"/><circle cx="75.05" cy="347" fill="#fce2c3" r="45"/><circle cx="437.05" cy="347" fill="#fecfa0" r="45"/><circle cx="256.05" cy="347" fill="#fce2c3" r="45"/><path d="m301.05 347c0 24.81-20.19 45-45 45h-.05v-90c.937.082 7.139-.237 15.05 2.58 17.46 6.18 30 22.87 30 42.42z" fill="#fecfa0"/><path d="m256 392c-41.355 0-75 33.645-75 75v30c0 8.284 6.716 15 15 15h120c8.284 0 15-6.716 15-15v-30c0-41.355-33.645-75-75-75z" fill="#5bc998"/><path d="m331 467v30c0 8.28-6.72 15-15 15h-60v-120h.05c41.34.03 74.95 33.66 74.95 75z" fill="#288c79"/></g></svg>