<svg id="Capa_1" enable-background="new 0 0 512.1 512.1" height="512" viewBox="0 0 512.1 512.1" width="512" xmlns="http://www.w3.org/2000/svg"><g><path d="m497.05 0h-58.95c-5.858 5.858-9.142 9.142-15 15v482l15 15h58.95c8.284 0 15-6.716 15-15v-482c0-8.284-6.716-15-15-15z" fill="#dfe3f4"/><path d="m211.666 512h224.984c8.284 0 15-6.716 15-15v-482c0-8.284-6.716-15-15-15h-70.753l-.666 356.641z" fill="#c7cbe1"/><path d="m390.7 15v347l-94.203 59-55.797 91h-225.65c-8.28 0-15-6.72-15-15v-482c0-8.28 6.72-15 15-15h360.65c8.28 0 15 6.72 15 15z" fill="#f0f4ff"/><path d="m390.7 15v347l-94.2 59-55.8 91h-45.33v-512h180.33c8.28 0 15 6.72 15 15z" fill="#dfe3f4"/><path d="m390.7 362-150.1 150.1v-135.1c0-8.28 6.72-15 15-15z" fill="#f0f4ff"/><path d="m316.1 181h-238.868c-8.284 0-15 6.716-15 15s6.716 15 15 15h238.868c8.284 0 15-6.716 15-15s-6.716-15-15-15z" fill="#dfe3f4"/><path d="m331.1 196c0 8.28-6.72 15-15 15h-120.73v-30h120.73c8.28 0 15 6.72 15 15z" fill="#c7cbe1"/><path d="m77.232 151h238.868c8.284 0 15-6.716 15-15s-6.716-15-15-15h-238.868c-8.284 0-15 6.716-15 15s6.715 15 15 15z" fill="#dfe3f4"/><path d="m331.1 136c0 8.28-6.72 15-15 15h-120.73v-30h120.73c8.28 0 15 6.72 15 15z" fill="#c7cbe1"/><path d="m315.6 241h-238.368c-8.284 0-15 6.716-15 15s6.716 15 15 15h238.368c8.284 0 15-6.716 15-15s-6.716-15-15-15z" fill="#dfe3f4"/><path d="m330.6 256c0 8.28-6.72 15-15 15h-120.23v-30h120.23c8.28 0 15 6.72 15 15z" fill="#c7cbe1"/><path d="m315.6 301h-238.368c-8.284 0-15 6.716-15 15s6.716 15 15 15h238.368c8.284 0 15-6.716 15-15s-6.716-15-15-15z" fill="#dfe3f4"/><path d="m330.6 316c0 8.28-6.72 15-15 15h-120.23v-30h120.23c8.28 0 15 6.72 15 15z" fill="#c7cbe1"/><g fill="#dfe3f4"><path d="m181.666 361h-105.566c-8.284 0-15 6.716-15 15s6.716 15 15 15h105.566c8.284 0 15-6.716 15-15s-6.716-15-15-15z"/><path d="m181.666 421h-105.566c-8.284 0-15 6.716-15 15s6.716 15 15 15h105.566c8.284 0 15-6.716 15-15s-6.716-15-15-15z"/><path d="m136.383 91h119.667c8.284 0 15-6.716 15-15s-6.716-15-15-15h-119.667c-8.284 0-15 6.716-15 15s6.716 15 15 15z"/></g><path d="m271.05 76c0 8.28-6.72 15-15 15h-60.68v-30h60.68c8.28 0 15 6.72 15 15z" fill="#c7cbe1"/></g></svg>