<svg id="Capa_1" enable-background="new 0 0 512 512" height="512" viewBox="0 0 512 512" width="512" xmlns="http://www.w3.org/2000/svg"><g><path d="m210.85 286.092v-46.092h90.1v46.092c10.707 4.574 20.58 10.729 29.334 18.165.428-1.394.666-2.871.666-4.405v-89.852l-75.05-9.359-75.05 9.359v89.429c0 1.65.271 3.247.752 4.756 8.732-7.404 18.576-13.534 29.248-18.093z" fill="#fee343"/><path d="m330.95 210c-.241 93.436.574 90.212-.67 94.26-8.75-7.44-18.62-13.59-29.33-18.17v-46.09h-45.05v-39.36c1.348.168-8.991-1.121 75.05 9.36z" fill="#faca2c"/><path d="m451.79 0-120.84 210.24-5.68-1.55-71.18-125.45 46.33-83.24z" fill="#ae2925"/><path d="m330.95 210.24h-150.1l-120.64-210.24h149.36z" fill="#f77468"/><path d="m330.95 210.24h-75.05v-129.99c8.222 14.241 66.9 115.874 75.05 129.99z" fill="#e63e39"/><circle cx="255.9" cy="391.95" fill="#faca2c" r="120.05"/><path d="m375.95 391.95c0 66.2-53.85 120.05-120.05 120.05v-240.1c65.852 0 120.05 53.536 120.05 120.05z" fill="#ffa100"/><circle cx="255.9" cy="391.95" fill="#fee343" r="90.05"/><path d="m345.95 391.95c0 49.65-40.4 90.05-90.05 90.05v-180.1c49.65 0 90.05 40.4 90.05 90.05z" fill="#faca2c"/><path d="m308.862 381.344-42.355-42.355c-5.857-5.857-15.355-5.857-21.213 0l-42.355 42.355c-5.858 5.857-5.858 15.355 0 21.213l42.355 42.355c5.859 5.858 15.355 5.858 21.213 0l42.355-42.355c5.858-5.858 5.858-15.356 0-21.213z" fill="#faca2c"/><path d="m308.86 402.56-42.35 42.35c-2.93 2.93-6.77 4.39-10.61 4.39v-114.7c3.84 0 7.68 1.46 10.61 4.39l42.35 42.35c5.86 5.86 5.86 15.36 0 21.22z" fill="#ffa100"/></g></svg>