<svg id="Capa_1" enable-background="new 0 0 512 512" height="512" viewBox="0 0 512 512" width="512" xmlns="http://www.w3.org/2000/svg"><g><path d="m450.361 353.584-41.421-71c12.382-106.459-70.422-196.875-174.475-196.875-96.888 0-175.711 78.823-175.711 175.711 0 46.288 18.083 90.316 50.418 123.205v111.552c0 8.252 6.665 14.954 14.917 15 135.023.751 147.6.822 147.77.822 8.282 0 15-6.72 15-15v-22.113h59.382c21.491 0 38.975-17.473 38.975-38.951v-50.782h47.017c16.085.002 26.308-17.491 18.128-31.569z" fill="#fddfcc"/><path d="m432.233 385.158h-47.021v50.781c0 21.48-17.48 38.951-38.97 38.951h-59.381v22.11c0 8.28-6.72 15-15 15-.1 0-4.6-.02-36.691-.21v-426.086c103.898.426 186.11 90.833 173.772 196.883l41.421 71.001c8.181 14.07-2.049 31.57-18.13 31.57z" fill="#fbd2be"/><path d="m367.682 36.284-31.896-31.895c-5.907-5.911-15.428-5.794-21.218 0l-31.896 31.895c-5.858 5.858-5.858 15.356 0 21.213 5.858 5.858 15.355 5.858 21.213 0l6.292-6.291v212.175c0 41.356-33.645 75.001-75.001 75.001s-75.001-33.645-75.001-75.001c0-51.91 51.682-88.056 100.259-70.627 7.797 2.802 16.387-1.255 19.185-9.052 2.798-7.798-1.255-16.387-9.052-19.185-68.149-24.46-140.392 26.319-140.392 98.864 0 57.898 47.103 105.001 105.001 105.001s105.001-47.103 105.001-105.001v-212.175l6.292 6.291c5.859 5.859 15.355 5.858 21.213 0 5.858-5.857 5.858-15.355 0-21.213z" fill="#f77468"/><path d="m260.431 192.756c-8.42-3.02-16.94-4.43-25.26-4.43v-30.03c11.65 0 23.58 1.98 35.391 6.22 7.8 2.8 11.85 11.39 9.06 19.19-2.801 7.79-11.391 11.85-19.191 9.05z" fill="#e63e39"/><path d="m367.683 57.494c-5.86 5.86-15.36 5.86-21.21 0l-6.3-6.29v212.173c0 57.901-47.101 105.001-105.001 105.001v-30c41.361 0 75.001-33.64 75.001-75.001v-212.173l-6.29 6.29c-5.85 5.86-15.35 5.86-21.21 0-5.86-5.85-5.86-15.35 0-21.21l31.9-31.891c5.79-5.8 15.31-5.91 21.21 0l31.9 31.891c5.86 5.859 5.86 15.36 0 21.21z" fill="#e63e39"/><circle cx="235.175" cy="263.381" fill="#faca2c" r="45.001"/><path d="m280.171 263.377c0 24.82-20.18 45.001-45.001 45.001v-90.001c24.821-.001 45.001 20.189 45.001 45z" fill="#ffa100"/></g></svg>