<svg id="Capa_1" enable-background="new 0 0 512.005 512.005" height="512" viewBox="0 0 512.005 512.005" width="512" xmlns="http://www.w3.org/2000/svg"><g><path d="m497 .002h-482c-8.284 0-15 6.716-15 15v270c0 8.284 6.716 15 15 15h482c8.284 0 15-6.716 15-15v-270c0-8.284-6.716-15-15-15z" fill="#90eb9f"/><g fill="#5bc998"><path d="m512.005 15.002v270c0 8.28-6.72 15-15 15h-240.98v-300h240.98c8.28 0 15 6.72 15 15z"/><path d="m15.005.002h90v15c0 49.71-40.3 90-90 90h-15v-90c0-8.28 6.71-15 15-15z"/><path d="m105.005 285.002v15h-90c-8.29 0-15-6.72-15-15v-90h15c49.7 0 90 40.29 90 90z"/></g><path d="m512.005 15.002v90h-14.96c-49.7 0-89.99-40.29-89.99-90v-15h89.95c8.28 0 15 6.72 15 15z" fill="#288c79"/><path d="m497.045 195.002h14.96v90c0 8.28-6.72 15-15 15h-89.95v-15c0-49.71 40.29-90 89.99-90z" fill="#288c79"/><circle cx="256.025" cy="149.977" fill="#5bc998" r="75.025"/><path d="m331.045 149.972c0 41.37-33.65 75.03-75.02 75.03v-150.05c41.37 0 75.02 33.66 75.02 75.02z" fill="#288c79"/><path d="m256.025 195.002c-24.827 0-45.025-20.198-45.025-45.025 0-24.826 20.198-45.024 45.025-45.024s45.025 20.198 45.025 45.024c0 24.827-20.198 45.025-45.025 45.025z" fill="#90eb9f"/><path d="m301.045 149.972c0 24.83-20.19 45.03-45.02 45.03v-90.05c24.83 0 45.02 20.2 45.02 45.02z" fill="#5bc998"/><path d="m136.05 134.977h-30c-8.284 0-15 6.716-15 15s6.716 15 15 15h30c8.284 0 15-6.716 15-15s-6.716-15-15-15z" fill="#5bc998"/><path d="m406.05 134.977h-30.1c-8.284 0-15 6.716-15 15s6.716 15 15 15h30.1c8.284 0 15-6.716 15-15s-6.716-15-15-15z" fill="#288c79"/><circle cx="316.075" cy="422.002" fill="#faca2c" r="90"/><circle cx="316.075" cy="422.002" fill="#ffa100" r="60"/><circle cx="196.075" cy="421.903" fill="#fee343" r="90"/><circle cx="196.075" cy="421.903" fill="#faca2c" r="60"/></g></svg>