<svg id="Capa_1" enable-background="new 0 0 512.003 512.003" height="512" viewBox="0 0 512.003 512.003" width="512" xmlns="http://www.w3.org/2000/svg"><g><path d="m451.002 345.993c-.03-60.03-38.16-113.15-94.96-132.41-.4 140.959-.4 140.959-.4 140.959l5.45 6.461h59.91v45c0 8.284 6.716 15 15 15s15-6.716 15-15c0-3.838 0-63.836 0-60.005-.001-.002 0-.004 0-.005z" fill="#ae2925"/><path d="m156.562 353.772s-.52-49.079-.52-140.219c-56.85 19.24-95.01 72.38-95.04 132.44-.001 2.959 0-15.543 0 60.01 0 8.284 6.716 15 15 15s15-6.716 15-15v-45h60.1z" fill="#e63e39"/><path d="m310.252 467.323c-14.49 31.35-47.83 43.34-49.24 43.84-3.2 1.12-6.72 1.12-9.92 0-1.41-.5-34.66-12.46-49.17-43.71-7.25-15.6-8.6-32.87-4.02-51.45h116.3c4.56 18.54 3.24 35.74-3.95 51.32z" fill="#faca2c"/><path d="m310.252 467.323c-14.49 31.35-47.83 43.34-49.24 43.84-1.62.57-3.31.85-5.01.84v-96h58.2c4.31 17.658 3.607 34.946-3.95 51.32z" fill="#ffa100"/><path d="m331.102 421.003h-150.1c-11.15 0-18.39-11.75-13.42-21.71l21.65-43.29h133.65l21.64 43.29c4.98 9.97-2.29 21.71-13.42 21.71z" fill="#b7b5f3"/><path d="m331.102 421.003h-75.1v-65h66.88c22.111 44.233 21.577 43.165 21.64 43.29 4.98 9.97-2.29 21.71-13.42 21.71z" fill="#7c79eb"/><path d="m151.049 203.766c0-.123 0-.217 0-.282z" fill="none"/><path d="m361.092 361.003h-209.99l-.022-60 3.994-14.386-4.005-15.614-.011-30 3.994-15.616-4.005-14.384-.016-45 104.95-31.03 105.05 31.03c.005 15.659.01 30.677.015 45l-4.996 13.537 5.005 16.463c.003 10.465.006 20.473.009 30l-4.995 15.537 5.004 14.463c.009 24.586.015 44.806.019 60z" fill="#f0f4ff"/><path d="m361.092 361.001h-105.09v-226.02l105.03 31.02c.01 15.66.01 30.68.02 45l-5 13.54 5 16.46c.01 10.47.01 20.47.01 30l-4.99 15.54 5 14.46c.01 24.59.02 44.81.02 60z" fill="#dfe3f4"/><path d="m361.092 361.003h-105.09v-226.02c.1.03 105.03 31.02 105.03 31.02l.014 45-4.996 14.307 5.005 15.693.009 30-5.995 14.768 6.005 15.232z" fill="none"/><path d="m76.101 452.003c-8.284 0-15 6.716-15 15v30c0 8.284 6.716 15 15 15s15-6.716 15-15v-30c0-8.285-6.716-15-15-15z" fill="#dfe3f4"/><path d="m436.002 452.003c-8.284 0-15 6.716-15 15v30c0 8.284 6.716 15 15 15s15-6.716 15-15v-30c0-8.285-6.716-15-15-15z" fill="#c7cbe1"/><path d="m211.052 286.003c0 8.28-6.72 15-15 15h-44.97l-.01-30h44.98c8.28 0 15 6.72 15 15z" fill="#dfe3f4"/><path d="m211.052 226.003c0 8.28-6.72 15-15 15h-44.99l-.005-15.386-.005-14.614h45c8.28 0 15 6.72 15 15z" fill="#dfe3f4"/><path d="m361.062 241.003h-45.11c-8.28 0-15-6.72-15-15s6.72-15 15-15h45.1z" fill="#c7cbe1"/><path d="m361.082 301.003h-45.13c-8.28 0-15-6.72-15-15s6.72-15 15-15h45.12z" fill="#c7cbe1"/><path d="m361.032 162.063c-.02-67.655-37.945-129.589-98.1-160.39-4.3-2.22-9.4-2.23-13.71-.03-60.324 30.855-98.21 92.89-98.19 160.56 0 1.291.001 2.554.001 3.8h210c0-1.311-.001-2.612-.001-3.94z" fill="#faca2c"/><path d="m361.032 162.063v3.94h-105.03v-166c2.38-.01 4.76.55 6.93 1.67 60.16 30.8 98.08 92.729 98.1 160.39z" fill="#ffa100"/><circle cx="256.002" cy="166.003" fill="#b7b5f3" r="45"/><path d="m301.002 166.003c0 24.81-20.19 45-45 45v-90c24.915 0 45 20.311 45 45z" fill="#7c79eb"/></g></svg>