<svg id="Capa_1" enable-background="new 0 0 512.003 512.003" height="512" viewBox="0 0 512.003 512.003" width="512" xmlns="http://www.w3.org/2000/svg"><g><path d="m219.36 292.647c-20.802-20.802-8.599-55.87 18.965-61.007l-60.498-60.498-69.399 69.399c30.262 5.316 43.976 43.683 21.079 66.581-22.782 22.782-61.249 9.261-66.588-21.071l-58.129 58.128c-6.387 6.387-6.387 16.743 0 23.13l46.818 46.818c-29.677 5.963-42.69 43.861-20.139 66.411 22.658 22.658 60.471 9.469 66.403-20.147l46.818 46.818c6.387 6.387 16.743 6.387 23.13 0l57.781-57.782c5.909 29.731 43.861 42.782 66.427 20.216 22.681-22.682 9.445-60.541-20.224-66.419l69.052-69.052-60.498-60.498c-5.121 27.509-40.09 39.881-60.998 18.973z" fill="#f77468"/><path d="m292.03 469.64c-22.57 22.57-60.52 9.52-66.43-20.21l-57.78 57.78c-6.39 6.39-16.74 6.39-23.13 0l-46.82-46.82c-5.93 29.62-43.74 42.81-66.4 20.15l187.89-187.89c20.91 20.91 55.88 8.53 61-18.97l60.5 60.49-69.05 69.06c29.66 5.87 42.9 43.73 20.22 66.41z" fill="#e63e39"/><path d="m507.21 144.691-47.334-47.334c30.586-5.1 44.307-43.784 21.433-66.658-22.99-22.99-61.573-9.076-66.65 21.441l-47.35-47.35c-6.387-6.387-16.743-6.387-23.13 0l-55.021 55.021c0 .002.001.004.001.006l-.003-.003.002-.002c-4.177-31.518-43.653-45.972-66.857-22.768-23.319 23.319-8.665 62.688 22.776 66.849l.002-.003.003.004c-.002 0-.004-.001-.006-.001l-67.25 67.25 60.498 60.498c-27.564 5.137-39.767 40.205-18.965 61.007 20.908 20.908 55.877 8.536 61-18.972l60.498 60.498 68.508-68.508c-33.352-2.134-49.577-43.136-25.578-67.135 23.883-23.883 65.009-7.874 67.135 25.578l56.287-56.287c6.388-6.388 6.388-16.744.001-23.131z" fill="#90eb9f"/><path d="m507.21 167.82-56.29 56.29c-2.12-33.45-43.25-49.46-67.13-25.58-24 24-7.78 65 25.58 67.14l-68.51 68.5-60.5-60.49c-5.12 27.5-40.09 39.88-61 18.97l261.95-261.95c22.87 22.87 9.15 61.56-21.43 66.66l47.33 47.33c6.39 6.39 6.39 16.74 0 23.13z" fill="#5bc998"/></g></svg>