<svg id="Capa_1" enable-background="new 0 0 512 512" height="512" viewBox="0 0 512 512" width="512" xmlns="http://www.w3.org/2000/svg"><g><path d="m15.51 166v300c0 8.284 6.716 15 15 15h360c8.284 0 15-6.716 15-15v-300l-195.022-26.38z" fill="#f0f4ff"/><path d="m405.51 166v300c0 8.28-6.72 15-15 15h-179.97v-341.37z" fill="#dfe3f4"/><path d="m405.51 47c0-8.284-6.716-15-15-15h-360c-8.284 0-15 6.716-15 15v119h390z" fill="#f77468"/><path d="m405.51 47v119h-194.97v-134h179.97c8.28 0 15 6.72 15 15z" fill="#e63e39"/><path d="m195.438 241h30.1c8.284 0 15-6.716 15-15s-6.716-15-15-15h-30.1c-8.284 0-15 6.716-15 15s6.715 15 15 15z" fill="#dfe3f4"/><path d="m240.54 226c0 8.28-6.72 15-15 15h-15v-30h15c8.28 0 15 6.72 15 15z" fill="#c7cbe1"/><path d="m315.537 211h-30.1c-8.284 0-15 6.716-15 15s6.716 15 15 15h30.1c8.284 0 15-6.716 15-15s-6.716-15-15-15z" fill="#c7cbe1"/><path d="m135.537 271h-30.1c-8.284 0-15 6.716-15 15s6.716 15 15 15h30.1c8.284 0 15-6.716 15-15s-6.716-15-15-15z" fill="#dfe3f4"/><path d="m195.438 301h30.1c8.284 0 15-6.716 15-15s-6.716-15-15-15h-30.1c-8.284 0-15 6.716-15 15s6.715 15 15 15z" fill="#dfe3f4"/><path d="m240.54 286c0 8.28-6.72 15-15 15h-15v-30h15c8.28 0 15 6.72 15 15z" fill="#c7cbe1"/><path d="m135.537 331h-30.1c-8.284 0-15 6.716-15 15s6.716 15 15 15h30.1c8.284 0 15-6.716 15-15s-6.716-15-15-15z" fill="#dfe3f4"/><path d="m240.487 331h-45.05c-8.284 0-15 6.716-15 15s6.716 15 15 15h45.05c8.284 0 15-6.716 15-15s-6.715-15-15-15z" fill="#dfe3f4"/><path d="m255.49 346c0 8.28-6.72 15-15 15h-29.95v-30h29.95c8.28 0 15 6.72 15 15z" fill="#c7cbe1"/><path d="m135.549 390.938-30.1-.024c-.004 0-.008 0-.012 0-8.278 0-14.993 6.708-15 14.988-.007 8.284 6.703 15.005 14.988 15.012.117 0 30.219.024 30.111.024 8.278 0 14.993-6.708 15-14.988.008-8.284-6.702-15.005-14.987-15.012z" fill="#dfe3f4"/><path d="m240.496 391.013c-3.567-.002-47.175-.027-45.059-.025-8.28 0-14.995 6.71-15 14.991-.005 8.284 6.707 15.004 14.991 15.009.102 0 45.159.025 45.059.025 8.28 0 14.995-6.71 15-14.991.005-8.285-6.707-15.004-14.991-15.009z" fill="#dfe3f4"/><path d="m255.49 406.02c-.01 8.28-6.72 14.99-15 14.99 0 0-16.86-.01-29.95-.02v-30c12.29.01 27.88.02 29.96.02 8.28.01 14.99 6.73 14.99 15.01z" fill="#c7cbe1"/><circle cx="361.487" cy="377" fill="#474e8c" r="135"/><path d="m496.49 377c0 74.44-60.56 135-135 135v-270c74.44 0 135 60.56 135 135z" fill="#292f6d"/><circle cx="361.487" cy="377" fill="#f0f4ff" r="105"/><path d="m466.49 377c0 57.9-47.11 105-105 105v-210c57.89 0 105 47.1 105 105z" fill="#dfe3f4"/><path d="m376.487 311c-8.284 0-15 6.716-15 15v45h-30.95c-8.284 0-15 6.716-15 15s6.716 15 15 15h45.95c8.284 0 15-6.716 15-15v-60c0-8.284-6.715-15-15-15z" fill="#90eb9f"/><path d="m391.49 326v60c0 8.28-6.72 15-15 15h-15v-75c0-8.28 6.71-15 15-15 8.28 0 15 6.72 15 15z" fill="#5bc998"/><path d="m90.463 0c-8.284 0-15 6.716-15 15v48.939c0 8.284 6.716 15 15 15s15-6.716 15-15v-48.939c0-8.284-6.716-15-15-15z" fill="#f0f4ff"/><path d="m210.537 0c-8.284 0-15 6.716-15 15v48.939c0 8.284 6.716 15 15 15s15-6.716 15-15v-48.939c0-8.284-6.716-15-15-15z" fill="#f0f4ff"/><g fill="#dfe3f4"><path d="m225.54 15v48.94c0 8.28-6.72 15-15 15v-78.94c8.28 0 15 6.72 15 15z"/><path d="m330.438 0c-8.284 0-15 6.716-15 15v48.939c0 8.284 6.716 15 15 15s15-6.716 15-15v-48.939c0-8.284-6.716-15-15-15z"/></g></g></svg>