<svg id="Capa_1" enable-background="new 0 0 512 512" height="512" viewBox="0 0 512 512" width="512" xmlns="http://www.w3.org/2000/svg"><g><path d="m390.978 119.993v377.008c0 8.28-6.72 14.999-14.999 14.999h-360.98c-8.279 0-14.999-6.72-14.999-14.999v-481.972c0-8.279 6.72-14.999 14.999-14.999h256.016l42.814 75.996z" fill="#f0f4ff"/><path d="m390.978 119.993v377.008c0 8.28-6.72 14.999-14.999 14.999h-180.49v-511.97h75.526l42.818 75.996z" fill="#dfe3f4"/><path d="m391.008 120.023h-105.024c-8.28 0-14.999-6.72-14.999-14.999v-105.024z" fill="#c7cbe1"/><path d="m451.025 277.064v29.948h-29.998v-29.948c0-2.76-2.24-5-5-5h-80.456c-2.5 0-4.54 2.04-4.54 4.54v30.408h-29.998v-30.408c0-19.039 15.499-34.538 34.538-34.538h80.456c19.299 0 34.998 15.699 34.998 34.998z" fill="#474e8c"/><path d="m451.025 277.064v29.948h-29.998v-29.948c0-2.76-2.24-5-5-5h-39.298v-29.998h39.298c19.299 0 34.998 15.699 34.998 34.998z" fill="#292f6d"/><path d="m241.937 390.07v76.933c0 24.812 20.186 44.997 44.998 44.997h180.04c24.812 0 44.997-20.185 44.997-44.997v-76.928z" fill="#474e8c"/><path d="m511.972 390.077v76.925c0 24.809-20.189 44.997-44.997 44.997h-90.245v-121.932c152.036.011 133.762.01 135.242.01z" fill="#292f6d"/><path d="m511.972 390.074v-73.063c0-8.284-6.715-14.999-14.999-14.999h-240.037c-8.284 0-14.999 6.715-14.999 14.999v73.058l135.092 16.886z" fill="#292f6d"/><path d="m511.972 317.011v73.066c-137.407 17.219-121.221 15.156-135.243 16.839v-104.904h120.243c8.28 0 15 6.72 15 14.999z" fill="#161e4c"/><path d="m376.729 376.908c-8.284 0-14.999 6.715-14.999 14.999v30.048c0 8.284 6.715 14.999 14.999 14.999s14.999-6.715 14.999-14.999v-30.048c0-8.283-6.715-14.999-14.999-14.999z" fill="#dfe3f4"/><path d="m391.728 421.955c0 8.28-6.72 14.999-14.999 14.999v-60.047c7.66 0 13.979 5.75 14.879 13.169.216 1.616.08.621.12 31.879z" fill="#c7cbe1"/><circle cx="195.489" cy="136.072" fill="#fdc2ab" r="44.997"/><path d="m240.487 136.072c0 24.808-20.189 44.997-44.998 44.997v-89.994c24.809 0 44.998 20.188 44.998 44.997z" fill="#ffae8d"/><path d="m195.489 181.545c-41.353 0-74.996 33.643-74.996 74.996 0 8.284 6.715 14.999 14.999 14.999h119.993c8.284 0 14.999-6.715 14.999-14.999.001-41.354-33.642-74.996-74.995-74.996z" fill="#f77468"/><path d="m270.485 256.545c0 8.28-6.72 14.999-14.999 14.999h-59.997v-89.995c41.348 0 74.996 33.638 74.996 74.996z" fill="#e63e39"/><path d="m120.968 332.011h75.071c8.284 0 14.999-6.715 14.999-14.999s-6.715-14.999-14.999-14.999h-75.071c-8.284 0-14.999 6.715-14.999 14.999s6.716 14.999 14.999 14.999z" fill="#dfe3f4"/><path d="m211.038 317.011c0 8.28-6.72 14.999-14.999 14.999h-.55v-29.998h.55c8.28 0 14.999 6.72 14.999 14.999z" fill="#c7cbe1"/><path d="m196.039 361.009h-75.071c-8.284 0-14.999 6.715-14.999 14.999s6.715 14.999 14.999 14.999h75.071c8.284 0 14.999-6.715 14.999-14.999s-6.715-14.999-14.999-14.999z" fill="#dfe3f4"/><path d="m211.038 376.008c0 8.28-6.72 14.999-14.999 14.999h-.55v-29.998h.55c8.28 0 14.999 6.719 14.999 14.999z" fill="#c7cbe1"/><path d="m196.039 420.956h-75.071c-8.284 0-14.999 6.715-14.999 14.999s6.715 14.999 14.999 14.999h75.071c8.284 0 14.999-6.715 14.999-14.999s-6.715-14.999-14.999-14.999z" fill="#dfe3f4"/><path d="m211.038 435.954c0 8.28-6.72 14.999-14.999 14.999h-.55v-29.998h.55c8.28 0 14.999 6.72 14.999 14.999z" fill="#c7cbe1"/><g fill="#dfe3f4"><circle cx="75.34" cy="316.012" r="14.949"/><circle cx="75.34" cy="376.008" r="14.949"/><circle cx="75.34" cy="435.954" r="14.949"/></g></g></svg>