<svg id="Capa_1" enable-background="new 0 0 512 512" height="512" viewBox="0 0 512 512" width="512" xmlns="http://www.w3.org/2000/svg"><g><path d="m151.05 346v141h-91.32v-141c0-8.28 6.72-15 15-15h61.32c8.28 0 15 6.72 15 15z" fill="#fee343"/><path d="m271.71 256v231h-91.32v-231c0-8.28 6.72-15 15-15h61.32c8.28 0 15 6.72 15 15z" fill="#faca2c"/><path d="m391.61 256v231h-91.32v-231c0-8.28 6.72-15 15-15h61.32c8.28 0 15 6.72 15 15z" fill="#ffa100"/><path d="m512 196v286l-2.887 5h-88.433v-291c0-8.28 6.72-15 15-15h61.32c8.28 0 15 6.72 15 15z" fill="#5bc998"/><path d="m512 482h-482v-466.576c0-8.077-6.207-15.027-14.275-15.407-8.614-.406-15.725 6.458-15.725 14.983v482c0 8.284 6.716 15 15 15h482c8.284 0 15-6.716 15-15z" fill="#292f6d"/><path d="m512 482v15c0 8.28-6.72 15-15 15h-211v-30z" fill="#161e4c"/><path d="m465.95 31h-58.9c-8.284 0-15 6.716-15 15s6.716 15 15 15h22.681l-89.991 90h-113.69c-3.24 0-6.4 1.05-9 3l-120.05 90c-6.63 4.97-7.97 14.37-3 21 4.952 6.619 14.354 7.972 21 3l116.05-87h114.9c3.98 0 7.79-1.58 10.61-4.39l94.39-94.39v23.78c0 8.284 6.716 15 15 15s15-6.716 15-15v-60c0-8.284-6.716-15-15-15z" fill="#b7b5f3"/><path d="m480.95 46v60c0 8.28-6.72 15-15 15s-15-6.72-15-15v-23.78l-94.39 94.39c-2.82 2.81-6.63 4.39-10.61 4.39h-59.95v-30h53.74l89.99-90h-22.68c-8.28 0-15-6.72-15-15s6.72-15 15-15h58.9c8.28 0 15 6.72 15 15z" fill="#7c79eb"/></g></svg>