<svg id="Capa_1" enable-background="new 0 0 512 512" height="512" viewBox="0 0 512 512" width="512" xmlns="http://www.w3.org/2000/svg"><g><path d="m180.993 413.88v83.12c0 8.28-6.72 15-14.999 15h-89.997c-8.28 0-14.999-6.72-14.999-15v-141.69c0-1.2.14-2.39.43-3.53 31.069 32.78 72.807 55.35 119.565 62.1z" fill="#faca2c"/><path d="m360.887 351.51v145.49c0 8.28-6.72 15-14.999 15h-89.897c-8.28 0-14.999-6.72-14.999-15v-83.26c47.008-7.03 88.867-30.04 119.856-63.32.029.36.039.72.039 1.09z" fill="#faca2c"/><ellipse cx="210.492" cy="210.5" fill="#f77468" rx="210.492" ry="210.5"/><path d="m420.985 210.72c-.111 115.535-94.066 210.28-210.493 210.28-115.995 0-210.372-94.31-210.492-210.28z" fill="#e63e39"/><ellipse cx="210.492" cy="210.5" fill="#f0f4ff" rx="180.493" ry="180.5"/><path d="m390.986 210.72c-.1 99.242-80.883 180.28-180.494 180.28-99.456 0-180.373-80.85-180.493-180.28z" fill="#dfe3f4"/><ellipse cx="210.492" cy="210.725" fill="#f77468" rx="150.27" ry="150.275"/><path d="m360.767 210.72c0 82.856-67.401 150.28-150.275 150.28-82.857 0-150.275-67.41-150.275-150.28z" fill="#e63e39"/><ellipse cx="210.492" cy="210.725" fill="#f0f4ff" rx="120.271" ry="120.275"/><path d="m330.768 210.72c0 66.022-53.677 120.28-120.276 120.28-66.318 0-120.276-53.96-120.276-120.28z" fill="#dfe3f4"/><ellipse cx="210.492" cy="210.725" fill="#f77468" rx="90.272" ry="90.275"/><path d="m300.769 210.72c0 49.652-40.375 90.28-90.277 90.28-49.778 0-90.277-40.5-90.277-90.28z" fill="#e63e39"/><path d="m210.492 271c-33.235 0-60.273-27.039-60.273-60.275 0-33.235 27.038-60.274 60.273-60.274s60.273 27.039 60.273 60.274c.001 33.236-27.038 60.275-60.273 60.275z" fill="#f0f4ff"/><path d="m270.77 210.72c0 33.104-26.9 60.28-60.278 60.28-33.239 0-60.278-27.04-60.278-60.28z" fill="#dfe3f4"/><path d="m352.647 216.25 6.28 9.47h-148.435c-8.28 0-14.999-6.71-14.999-15 0-8.28 6.72-15 14.999-15h148.525l-6.33 9.43c-2.26 3.37-2.27 7.72-.04 11.1z" fill="#292f6d"/><path d="m358.927 225.72h-148.435c-8.28 0-14.999-6.71-14.999-15h155.494c-.025 4.8 2.983 6.844 7.94 15z" fill="#161e4c"/><path d="m484.238 210.371 25.032-35.771c6.942-9.918-.163-23.601-12.289-23.601h-105.995c-5 0-9.672 2.491-12.457 6.645l-29.999 44.725c-3.373 5.028-3.391 11.593-.047 16.641l29.999 45.275c2.778 4.193 7.473 6.715 12.503 6.715h105.996c12.001 0 19.154-13.451 12.425-23.401z" fill="#b7b5f3"/><path d="m496.982 271h-105.996c-5.006 0-9.724-2.514-12.5-6.71-32.665-49.313-32.499-47.822-32.499-53.57h138.495l24.929 36.88c6.72 9.95-.43 23.4-12.429 23.4z" fill="#7c79eb"/></g></svg>