<svg id="Capa_1" enable-background="new 0 0 512 512" height="512" viewBox="0 0 512 512" width="512" xmlns="http://www.w3.org/2000/svg"><g><path d="m271.05 120v111h-30v-111l15-6z" fill="#292f6d"/><path d="m271.05 120v111h-15.05v-116.98l.05-.02z" fill="#161e4c"/><path d="m388.122 96.705-24.389-36.746 24.38-36.651c6.622-9.953-.53-23.308-12.489-23.308h-119.574c-8.284 0-15 6.716-15 15v105h30 104.574c11.937 0 19.112-13.328 12.498-23.295z" fill="#f77468"/><path d="m388.12 96.71c6.601 9.925-.531 23.29-12.5 23.29h-119.62v-120h119.62c11.937 0 19.135 13.332 12.49 23.31l-24.38 36.65z" fill="#e63e39"/><path d="m165.667 512h-165.667v-181c0-8.284 6.716-15 15-15h150.667l10 98z" fill="#fee343"/><path d="m175.67 414-10 98h-82.84v-196h82.84z" fill="#faca2c"/><path d="m512 512h-165.667l-10-83 10-83h150.667c8.284 0 15 6.716 15 15z" fill="#fee343"/><path d="m512 361v151h-82.83v-166h67.83c8.28 0 15 6.72 15 15z" fill="#faca2c"/><path d="m346.333 512h-180.666v-271c0-8.284 6.716-15 15-15h150.667c8.284 0 15 6.716 15 15v271z" fill="#90eb9f"/><path d="m346.33 241v271h-90.33v-286h75.33c8.29 0 15 6.72 15 15z" fill="#5bc998"/><path d="m276 331h-5v-45c0-8.284-6.716-15-15-15h-18.571c-8.284 0-15 6.716-15 15s6.716 15 15 15h3.571v30h-8.571c-8.284 0-15 6.716-15 15s6.716 15 15 15h43.571c8.284 0 15-6.716 15-15s-6.716-15-15-15z" fill="#f0f4ff"/><path d="m291 346c0 8.28-6.72 15-15 15h-20v-90c8.28 0 15 6.72 15 15v45h5c8.28 0 15 6.72 15 15z" fill="#dfe3f4"/></g></svg>