<svg id="Capa_1" enable-background="new 0 0 512 512" height="512" viewBox="0 0 512 512" width="512" xmlns="http://www.w3.org/2000/svg"><g><path d="m436 0h-360c-8.284 0-15 6.716-15 15v482c0 8.284 6.716 15 15 15h360c8.284 0 15-6.716 15-15v-482c0-8.284-6.716-15-15-15z" fill="#f0f4ff"/><path d="m451 15v482c0 8.28-6.72 15-15 15h-180v-512h180c8.28 0 15 6.72 15 15z" fill="#dfe3f4"/><path d="m255.95 150.95c33.084 0 60 26.916 60 60h60c0-66.168-53.832-120-120-120z" fill="#e63e39"/><path d="m195.95 210.95c0-33.084 26.916-60 60-60v-60c-66.168 0-120 53.832-120 120 0 29.328 10.582 56.228 28.121 77.096l45.944-38.552c-8.769-10.434-14.065-23.88-14.065-38.544z" fill="#fee343"/><path d="m315.95 210.95c0 33.084-26.916 60-60 60-18.42 0-34.92-8.35-45.935-21.456l-45.944 38.552c22.03 26.212 55.04 42.904 91.879 42.904 66.168 0 120-53.832 120-120z" fill="#90eb9f"/><path d="m375.95 210.95c0 66.15-53.8 119.97-119.95 120v-60c33.06-.03 59.95-26.94 59.95-60z" fill="#5bc998"/><path d="m136 390.95h44.9c8.284 0 15-6.716 15-15s-6.716-15-15-15h-44.9c-8.284 0-15 6.716-15 15s6.716 15 15 15z" fill="#dfe3f4"/><path d="m270.85 420.95h-134.85c-8.284 0-15 6.716-15 15s6.716 15 15 15h134.85c8.284 0 15-6.716 15-15s-6.716-15-15-15z" fill="#dfe3f4"/><path d="m285.85 435.95c0 8.28-6.72 15-15 15h-14.85v-30h14.85c8.28 0 15 6.72 15 15z" fill="#c7cbe1"/><path d="m241 390.95h134.9c8.284 0 15-6.716 15-15s-6.716-15-15-15h-134.9c-8.284 0-15 6.716-15 15s6.716 15 15 15z" fill="#dfe3f4"/><path d="m390.9 375.95c0 8.28-6.72 15-15 15h-119.9v-30h119.9c8.28 0 15 6.72 15 15z" fill="#c7cbe1"/><path d="m376 420.95h-45.05c-8.284 0-15 6.716-15 15s6.716 15 15 15h45.05c8.284 0 15-6.716 15-15s-6.716-15-15-15z" fill="#c7cbe1"/><path d="m166.05 61h-30.1c-8.284 0-15 6.716-15 15s6.716 15 15 15h30.1c8.284 0 15-6.716 15-15s-6.716-15-15-15z" fill="#dfe3f4"/></g></svg>