<svg id="Capa_1" enable-background="new 0 0 512 512" height="512" viewBox="0 0 512 512" width="512" xmlns="http://www.w3.org/2000/svg"><g><path d="m292.49 307.87c-.602-.095-.856-.151-2.027-.182-.148-.004-.294-.018-.443-.018h-.598c-.415-.005-67.835-.056-69.053.108-.308.031-.615.063-.92.112l-2.042.34c-.314.05-47.235 7.866-89.606 14.924-38.578 6.426-66.852 39.802-66.852 78.912v94.934c0 8.284 6.716 15 15 15h360.1c8.284 0 15-6.716 15-15v-94.937c0-39.108-28.275-72.484-66.851-78.912z" fill="#f0f4ff"/><path d="m451.05 402.045v94.955c0 8.284-6.716 15-15 15h-179.86c0-.19-.07-204.2-.07-204.32l33.9-.01c1.011 0 50.363 8.173 94.162 15.461 38.585 6.419 66.868 39.799 66.868 78.914z" fill="#dfe3f4"/><path d="m211 337 9.851 45.629 35.114 4.985 35.189-5.015 9.796-45.599-44.975-5z" fill="#5bc998"/><path d="m300.95 337-9.8 45.6-35.01 4.99c0 .461 0-5.689-.02-55.57z" fill="#288c79"/><path d="m302.41 512h-92.43l10.87-129.37 70.3-.03z" fill="#90eb9f"/><path d="m302.41 512h-46.22c0-.516.004 9.225-.05-129.39l35.01-.01z" fill="#5bc998"/><path d="m400.9 166.9c0 16.54-13.41 29.95-29.95 29.95h-9.9v.05c0 39.23-25.09 72.6-60.1 84.94v55.16h-89.95v-55.18c-34.98-12.35-60.05-45.71-60.05-84.92v-.05h-9.95c-16.54 0-29.95-13.41-29.95-29.95s13.41-29.95 29.95-29.95h9.95v-22.36c21.203 17.894 44.482 16.265 45.02 16.36 5.5-.01 9.98-4.49 9.98-10v-15c0-2.76 2.24-5 5-5h145.682l4.418 5v31h9.9c16.54 0 29.95 13.41 29.95 29.95z" fill="#fce2c3"/><path d="m400.9 166.9c0 16.54-13.41 29.95-29.95 29.95h-9.9v.05c0 39.23-25.09 72.6-60.1 84.94v55.16h-44.82c-.098-252.767-.089-234.012-.09-236.05h100.59l4.42 5v31h9.9c16.54 0 29.95 13.41 29.95 29.95z" fill="#fecfa0"/><path d="m300.448 0h-119.423c-33.123 0-59.975 26.852-59.975 59.975v1.175c0 41.098 33.243 74.802 74.798 74.8h.127c8.271 0 14.975-6.705 14.975-14.975v-15.025h150.1v-45.348c0-33.47-27.132-60.602-60.602-60.602z" fill="#292f6d"/><path d="m361.05 60.6v45.35h-105.01c-.032-112.786-.03-105.59-.03-105.95h44.44c33.47 0 60.6 27.13 60.6 60.6z" fill="#161e4c"/></g></svg>