<svg id="Capa_1" enable-background="new 0 0 512 512" height="512" viewBox="0 0 512 512" width="512" xmlns="http://www.w3.org/2000/svg"><g><path d="m435.95 0h-179.95c-8.28 0-15 6.72-15 15v36.05h30v-21.05h89.95v392h-254.85c-24.81 0-45 20.19-45 45s20.19 45 45 45h225.57c32.69 0 59.28-26.59 59.28-59.28v-.72h15c24.81 0 45-20.19 45-45v-392c0-8.28-6.72-15-15-15zm-75 452.72c0 16.14-13.14 29.28-29.28 29.28h-225.57c-8.27 0-15-6.73-15-15s6.73-15 15-15h254.85zm60-45.72c0 8.27-6.73 15-15 15h-15v-392h30z" fill="#292f6d"/><path d="m435.95 0h-179.95v51.05h15v-21.05h89.95v392h-104.95v30h104.95v.72c0 16.14-13.14 29.28-29.28 29.28h-75.67v30h75.67c32.69 0 59.28-26.59 59.28-59.28v-.72h15c24.81 0 45-20.19 45-45v-392c0-8.28-6.72-15-15-15zm-15 407c0 8.27-6.73 15-15 15h-15v-392h30z" fill="#161e4c"/><path d="m497 91h-482c-8.284 0-15 6.716-15 15v270.587c0 8.284 6.716 15 15 15h482c8.284 0 15-6.716 15-15v-270.587c0-8.284-6.716-15-15-15z" fill="#f0f4ff"/><path d="m512 106v270.59c0 8.28-6.72 15-15 15h-241v-300.59h241c8.28 0 15 6.72 15 15z" fill="#dfe3f4"/><ellipse cx="135.95" cy="195.925" fill="#fdc2ab" rx="44.925" ry="44.925" transform="matrix(.987 -.16 .16 .987 -29.628 24.307)"/><path d="m135.975 241c-41.341 0-74.975 33.634-74.975 75 0 8.284 6.716 15 15 15h119.95c8.284 0 15-6.741 15-15.025 0-41.341-33.634-74.975-74.975-74.975z" fill="#f77468"/><g fill="#c7cbe1"><path d="m271 195.95h164.95c8.284 0 15-6.716 15-15s-6.716-15-15-15h-164.95c-8.284 0-15 6.716-15 15s6.716 15 15 15z"/><path d="m271 255.8h164.95c8.284 0 15-6.716 15-15s-6.716-15-15-15h-164.95c-8.284 0-15 6.716-15 15s6.716 15 15 15z"/><path d="m436.05 285.95h-165.05c-8.284 0-15 6.716-15 15s6.716 15 15 15h165.05c8.284 0 15-6.716 15-15s-6.716-15-15-15z"/></g><path d="m285.95 46.05h-59.9c-8.284 0-15 6.716-15 15v59.9c0 8.284 6.716 15 15 15h59.9c8.284 0 15-6.716 15-15v-59.9c0-8.284-6.716-15-15-15z" fill="#dfe3f4"/><path d="m300.95 61.05v59.9c0 8.28-6.72 15-15 15h-29.95v-89.9h29.95c8.28 0 15 6.72 15 15z" fill="#c7cbe1"/></g></svg>