<svg id="Capa_1" enable-background="new 0 0 512 512" height="512" viewBox="0 0 512 512" width="512" xmlns="http://www.w3.org/2000/svg"><g><path d="m356.05 0h-200.1c-35.841 0-65 29.159-65 65v382c0 35.841 29.159 65 65 65h200.1c35.841 0 65-29.159 65-65v-382c0-35.841-29.159-65-65-65z" fill="#5bc998"/><path d="m421.05 65v382c0 35.84-29.16 65-65 65h-100.05v-512h100.05c35.84 0 65 29.16 65 65z" fill="#288c79"/><path d="m391.05 447c0 19.299-15.701 35-35 35h-200.1c-19.299 0-35-15.701-35-35v-382c0-19.299 15.701-35 35-35h200.1c19.299 0 35 15.701 35 35z" fill="#f0f4ff"/><path d="m391.05 65v382c0 19.3-15.7 35-35 35h-100.05v-452h100.05c19.3 0 35 15.7 35 35z" fill="#f0f4ff"/><path d="m356.665 65.402c-2.814-2.818-6.633-4.402-10.615-4.402h-180.1c-8.284 0-15 6.716-15 15v60c0 8.284 6.716 15 15 15h180c8.274 0 14.986-6.7 15-14.976l.1-60c.007-3.982-1.571-7.803-4.385-10.622z" fill="#90eb9f"/><path d="m361.05 76.02-.1 60c-.01 8.28-6.73 14.98-15 14.98h-89.95v-90h90.05c8.345 0 15.021 6.783 15 15.02z" fill="#5bc998"/><path d="m346.05 181h-180c-8.284 0-15 6.716-15 15v240c0 8.284 6.716 15 15 15h180c8.284 0 15-6.716 15-15v-240c0-8.284-6.716-15-15-15z" fill="#dfe3f4"/><path d="m361 196v240c0 8.28-6.72 15-15 15h-90v-270h90c8.28 0 15 6.72 15 15z" fill="#c7cbe1"/><path d="m241.05 391.739h30v29.261h-30z" fill="#b7b5f3"/><path d="m256 391.74h15.05v29.26h-15.05z" fill="#7c79eb"/><path d="m241.05 331h30v30.739h-30z" fill="#b7b5f3"/><path d="m256 331h15.05v30.74h-15.05z" fill="#7c79eb"/><g fill="#b7b5f3"><path d="m181.05 271h30v30h-30z"/><path d="m181.05 331h30v30.739h-30z"/><path d="m241.05 271h30v30h-30z"/></g><path d="m256 271h15.05v30h-15.05z" fill="#7c79eb"/><path d="m241.05 211h30v30h-30z" fill="#b7b5f3"/><path d="m256 211h15.05v30h-15.05z" fill="#7c79eb"/><path d="m301.05 271h30v30h-30z" fill="#7c79eb"/><path d="m301.05 211h30v30h-30z" fill="#7c79eb"/><path d="m181.05 211h30v30h-30z" fill="#b7b5f3"/><path d="m181.05 391.739h30v29.261h-30z" fill="#b7b5f3"/><path d="m301.05 331h30v90h-30z" fill="#ffa100"/></g></svg>