<svg id="Capa_1" enable-background="new 0 0 512 512" height="512" viewBox="0 0 512 512" width="512" xmlns="http://www.w3.org/2000/svg"><g><path d="m300.9 0h-89.9c-33.084 0-60 26.916-60 60s26.916 60 60 60h89.9c33.084 0 60-26.916 60-60s-26.916-60-60-60zm0 90h-89.9c-16.542 0-30-13.458-30-30s13.458-30 30-30h89.9c16.542 0 30 13.458 30 30s-13.458 30-30 30z" fill="#faca2c"/><path d="m300.9 0h-44.9v30h44.9c16.54 0 30 13.46 30 30 0 16.599-13.536 30-30 30h-44.9v30c48.127 0 45.385.006 45.9-.01 32.62-.53 59-27.24 59-59.99 0-33.08-26.92-60-60-60z" fill="#ffa100"/><path d="m301.9 76v56.61c-30.627-7.641-62.176-7.256-91-.2v-56.41c0-8.28 6.72-15 15-15h61c8.28 0 15 6.72 15 15z" fill="#dfe3f4"/><path d="m301.9 76v56.61c-15.22-3.8-30.67-5.61-45.9-5.61v-66h30.9c8.28 0 15 6.72 15 15z" fill="#c7cbe1"/><path d="m158.2 154.16c-26.04 15.69-48.02 37.45-63.98 63.3l-34.89-34.89c-5.86-5.86-5.86-15.36 0-21.21l42.43-42.43c5.85-5.86 15.35-5.86 21.21 0z" fill="#5bc998"/><path d="m452.67 182.57-34.89 34.89c-15.96-25.85-37.94-47.61-63.98-63.3l35.23-35.23c5.86-5.86 15.36-5.86 21.21 0l42.43 42.43c5.86 5.85 5.86 15.35 0 21.21z" fill="#e63e39"/><circle cx="256" cy="317" fill="#f0f4ff" r="195"/><path d="m451 317c0 107.52-87.48 195-195 195v-390c107.293 0 195 87.248 195 195z" fill="#dfe3f4"/><circle cx="256" cy="317" fill="#292f6d" r="165"/><path d="m421 317c0 90.98-74.02 165-165 165v-330c90.98 0 165 74.02 165 165z" fill="#161e4c"/><path d="m391 317h-135v-135c74.44 0 135 60.56 135 135z" fill="#ffa100"/><g fill="#dfe3f4"><path d="m209.592 205.921c-4.143-7.176-13.317-9.635-20.49-5.492-7.175 4.143-9.634 13.315-5.492 20.49l9.71 16.82c4.164 7.211 13.349 9.615 20.49 5.492 7.175-4.143 9.634-13.315 5.492-20.49z"/><path d="m145.321 270.191 16.7 9.64c7.152 4.127 16.334 1.707 20.49-5.492 4.142-7.175 1.683-16.349-5.492-20.49l-16.7-9.64c-7.175-4.142-16.349-1.684-20.49 5.492-4.141 7.175-1.683 16.349 5.492 20.49z"/><path d="m171 317c0-8.284-6.716-15-15-15h-19.2c-8.284 0-15 6.716-15 15s6.716 15 15 15h19.2c8.284 0 15-6.716 15-15z"/><path d="m182.512 359.661c-4.143-7.174-13.313-9.635-20.49-5.492l-16.7 9.64c-7.175 4.142-9.634 13.315-5.492 20.49 4.153 7.194 13.331 9.624 20.49 5.492l16.7-9.64c7.174-4.141 9.633-13.315 5.492-20.49z"/><path d="m213.81 390.769c-7.172-4.142-16.349-1.683-20.49 5.492l-9.71 16.82c-4.142 7.175-1.683 16.348 5.492 20.49 7.144 4.124 16.33 1.714 20.49-5.492l9.71-16.82c4.141-7.175 1.682-16.348-5.492-20.49z"/><path d="m256.4 402c-8.284 0-15 6.716-15 15v19.6c0 8.284 6.716 15 15 15s15-6.716 15-15v-19.6c0-8.284-6.715-15-15-15z"/></g><path d="m271.4 417v19.6c0 9.062-8.009 15.573-15.4 14.99v-49.58c7.514-.579 15.4 6.018 15.4 14.99z" fill="#c7cbe1"/><path d="m319.281 395.912c-4.143-7.176-13.317-9.636-20.489-5.493-7.175 4.141-9.635 13.314-5.493 20.489l9.91 17.17c4.162 7.211 13.348 9.616 20.489 5.493 7.175-4.141 9.635-13.314 5.493-20.489z" fill="#c7cbe1"/><path d="m367.479 363.809-17.29-9.979c-7.175-4.141-16.349-1.685-20.489 5.493-4.142 7.175-1.682 16.349 5.493 20.489l17.29 9.979c7.158 4.131 16.338 1.701 20.489-5.493 4.141-7.175 1.681-16.349-5.493-20.489z" fill="#c7cbe1"/></g></svg>