<svg id="Capa_1" enable-background="new 0 0 512 512" height="512" viewBox="0 0 512 512" width="512" xmlns="http://www.w3.org/2000/svg"><g><path d="m459.297 307.584c-7.046-7.045-97.231-97.219-159.216-159.199l-20.34-61.021c-1.51-4.51-5.07-8.05-9.59-9.52l-77.746-1.014-92.009 52.813-56.436 94.972c17.442 63.782 15.533 64.92 20.277 69.755-.021.021-.048.048-.068.068 8.973 8.973 183.498 183.493 192.206 192.201 13.179 13.177 34.546 13.177 47.724 0 11.245-11.243 12.887-28.444 4.943-41.437 13.468 11.508 33.737 10.902 46.477-1.837 13.088-13.087 13.373-34.118.869-47.561l3.147 3.146c13.387 13.386 35.092 13.386 48.479 0 11.54-11.539 13.123-29.252 4.768-42.497 13.246 12.015 33.732 11.633 46.516-1.149 13.178-13.178 13.178-34.543-.001-47.72z" fill="#b65d49"/><path d="m355.518 443.361c-12.74 12.74-33.01 13.35-46.48 1.84 7.95 12.99 6.3 30.19-4.94 41.44-13.18 13.17-34.55 13.17-47.72 0-8.71-8.71-183.239-183.228-192.209-192.208.02-.02.05-.04.07-.07-4.75-4.83-2.84-5.97-20.28-69.75l52.65-88.59 18.12 18.12 241.66 241.658c12.5 13.441 12.22 34.481-.871 47.56z" fill="#c56d59"/><path d="m192.402 76.828-39.892-39.888c-5.859-5.857-15.356-5.857-21.213 0l-126.905 126.891c-5.854 5.854-5.858 15.357 0 21.215l39.567 39.563z" fill="#161e4c"/><path d="m114.729 154.144-70.77 70.47-39.57-39.57c-5.85-5.86-5.85-15.36 0-21.21l60.02-60.01z" fill="#292f6d"/><path d="m466.461 208.284-38.495 68.126-134.73-134.74c-10.924 10.924-64.06 64.06-64.06 64.06-13.836 13.856-36.334 13.816-50.14.01-13.878-13.899-13.875-36.265 0-50.14l76.291-76.19s44.15-9.652 65.585-20.116l87.291 59.88z" fill="#fce2c3"/><path d="m466.461 208.284-38.49 68.13-88.08-88.09c7.036-7.036 61.635-61.635 68.64-68.64z" fill="#fecfa0"/><path d="m466.457 208.279 41.151-41.146c5.854-5.854 5.858-15.357 0-21.215l-126.058-126.046c-5.859-5.857-15.354-5.857-21.213 0l-39.423 39.419z" fill="#474e8c"/><path d="m507.611 167.134-41.15 41.15-72.41-74.12c13.742-13.742 41.807-41.807 50.9-50.9l62.66 62.65c5.851 5.86 5.851 15.37 0 21.22z" fill="#292f6d"/><path d="m233.254 464.687-11.298 11.297c-11.699 11.698-30.667 11.698-42.366 0-11.699-11.698-11.699-30.664 0-42.362l11.298-11.297c11.699-11.698 30.667-11.698 42.366 0 11.699 11.698 11.699 30.664 0 42.362z" fill="#fecfa0"/><path d="m211.294 401.78-31.774 31.771c-11.699 11.698-30.667 11.698-42.366 0-11.699-11.698-11.699-30.664 0-42.362l31.774-31.771c11.699-11.698 30.667-11.698 42.366 0 11.699 11.698 11.699 30.664 0 42.362z" fill="#fecfa0"/><g fill="#fce2c3"><path d="m179.448 348.756-42.366 42.362c-11.699 11.698-30.667 11.698-42.366 0-11.699-11.698-11.699-30.664 0-42.362l42.366-42.362c11.699-11.698 30.667-11.698 42.366 0 11.699 11.699 11.699 30.665 0 42.362z"/><path d="m105.237 338.095-10.592 10.59c-11.699 11.698-30.667 11.698-42.366 0-11.699-11.698-11.699-30.664 0-42.362l10.592-10.59c11.699-11.698 30.667-11.698 42.366 0 11.699 11.698 11.699 30.664 0 42.362z"/></g></g></svg>