<svg id="Capa_1" enable-background="new 0 0 512 512" height="512" viewBox="0 0 512 512" width="512" xmlns="http://www.w3.org/2000/svg"><g><path d="m481.006 76v310h-449.912v-310c0-8.28 6.719-15 14.997-15h419.918c8.278 0 14.997 6.72 14.997 15z" fill="#dfe3f4"/><path d="m481.006 76v310h-225.006v-325h210.009c8.278 0 14.997 6.72 14.997 15z" fill="#c7cbe1"/><path d="m61.088 91h389.924v260h-389.924z" fill="#f0f4ff"/><path d="m256 91h195.012v260h-195.012z" fill="#dfe3f4"/><path d="m497.003 381h-185.964l-55.039 5-55.039-5h-185.964c-8.282 0-14.997 6.716-14.997 15v40c0 8.284 6.715 15 14.997 15h482.006c8.283 0 14.997-6.716 14.997-15v-40c0-8.284-6.715-15-14.997-15z" fill="#474e8c"/><path d="m512 396v40c0 8.28-6.719 15-14.997 15h-241.003v-65l55.039-5h185.964c8.278 0 14.997 6.72 14.997 15z" fill="#292f6d"/><path d="m165.968 211h-59.889c-8.283 0-14.997 6.716-14.997 15v80c0 8.284 6.715 15 14.997 15h59.889c8.283 0 14.997-6.716 14.997-15v-80c0-8.284-6.715-15-14.997-15z" fill="#f77468"/><path d="m285.894 166.05h-59.888c-8.283 0-14.997 6.716-14.997 15v124.95c0 8.284 6.715 15 14.997 15h59.888c8.283 0 14.997-6.716 14.997-15v-124.95c0-8.284-6.714-15-14.997-15z" fill="#fee343"/><path d="m300.891 181.05v124.95c0 8.28-6.719 15-14.997 15h-29.894v-154.95h29.894c8.278 0 14.997 6.72 14.997 15z" fill="#faca2c"/><path d="m405.921 121h-59.889c-8.283 0-14.997 6.716-14.997 15v170c0 8.284 6.715 15 14.997 15h59.889c8.283 0 14.997-6.716 14.997-15v-170c0-8.284-6.715-15-14.997-15z" fill="#5bc998"/><g><path d="m200.961 381h110.078v34.55h-110.078z" fill="#616a9b"/></g><g><path d="m256 381h55.039v34.55h-55.039z" fill="#474e8c"/></g></g></svg>