<svg id="Capa_1" enable-background="new 0 0 512 512" height="512" viewBox="0 0 512 512" width="512" xmlns="http://www.w3.org/2000/svg"><g><path d="m497.05 136.74v50h-90v-50c0-8.29 6.72-15 15-15h60c8.28 0 15 6.71 15 15z" fill="#dfe3f4"/><path d="m497.05 136.74v50h-45v-65h30c8.28 0 15 6.71 15 15z" fill="#c7cbe1"/><path d="m135.025 275.917-2.471-.18-132.554 10.001v89.975c0 74.453 60.572 135.024 135.025 135.024s135.025-60.571 135.025-135.024v-89.975z" fill="#faca2c"/><path d="m135.025 275.917v234.82c74.453 0 135.025-60.571 135.025-135.024v-89.975z" fill="#ffa100"/><path d="m467 316.74v112.27c0 22.03-8.58 42.73-24.15 58.31-15.57 15.57-36.28 24.14-58.3 24.14h-.01c-45.46 0-82.44-36.99-82.44-82.45v-322.43c0-41.93-34.11-76.04-76.04-76.04-41.92 0-76.04 34.11-76.04 76.04v19.16h-30v-19.16c0-58.47 47.57-106.04 106.04-106.04s106.04 47.57 106.04 106.04v322.43c0 28.92 23.53 52.45 52.44 52.45h.01c14.01 0 27.18-5.45 37.09-15.36 9.9-9.9 15.36-23.08 15.36-37.09v-112.27c0-8.29 6.72-15 15-15s15 6.71 15 15z" fill="#161e4c"/><path d="m497 181.737h-89.9c-8.284 0-15 6.716-15 15v90c0 24.813 20.187 45 45 45h29.9c24.813 0 45-20.187 45-45v-90c0-8.284-6.716-15-15-15z" fill="#f0f4ff"/><path d="m512 196.74v90c0 24.81-20.19 45-45 45h-14.95v-150h45c8.26.03 14.95 6.73 14.95 15z" fill="#dfe3f4"/><g><path d="m65 120.737c-35.841 0-65 29.159-65 65v100h135.025v-165z" fill="#f77468"/><path d="m270.05 185.737c0-35.841-29.159-65-65-65h-70.025v165h135.025z" fill="#e63e39"/></g><g><path d="m135 163.237c-8.284 0-15 6.716-15 15v50c0 8.284 6.716 15 15 15 .008 0 .016-.001.025-.001v-79.998c-.009.001-.017-.001-.025-.001z" fill="#f0f4ff"/><path d="m135.025 163.239v79.998c8.273-.014 14.975-6.723 14.975-14.999v-50c0-8.276-6.703-14.986-14.975-14.999z" fill="#dfe3f4"/></g></g></svg>