<svg id="Layer_1" data-name="Layer 1" xmlns="http://www.w3.org/2000/svg" viewBox="0 0 64 64"><defs><style>.cls-1{fill:#0795ff;}.cls-2{fill:#156cdd;}.cls-3{fill:#fff;}</style></defs><title>agriculture, organic, wheat, crop</title><path class="cls-1" d="M56,37.85a47.16,47.16,0,0,0-4.15-19.77,8,8,0,0,1-.56-4.91,3.69,3.69,0,0,0-1-3.65c-1.21-1-3.09-.87-4.8.18a6.79,6.79,0,0,1-4.42,1,72.13,72.13,0,0,0-18.1,0,6.79,6.79,0,0,1-4.42-1c-1.71-1-3.59-1.19-4.8-.18a3.69,3.69,0,0,0-1,3.65,8,8,0,0,1-.56,4.91A47.16,47.16,0,0,0,8,37.85a50.83,50.83,0,0,0,.63,8,11.31,11.31,0,0,1-.08,4.6,3.85,3.85,0,0,0,.93,4,3.8,3.8,0,0,0,4,.23A9.37,9.37,0,0,1,19,54a70,70,0,0,0,13,1.19A70,70,0,0,0,45,54a9.37,9.37,0,0,1,5.52.73,3.8,3.8,0,0,0,4-.23,3.85,3.85,0,0,0,.93-4,11.31,11.31,0,0,1-.08-4.6A50.83,50.83,0,0,0,56,37.85Z"/><path class="cls-2" d="M35.87,52.18h0a2.68,2.68,0,0,0,2.92,2.66Q42,54.55,45,54a9.35,9.35,0,0,1,5.51.73,3.8,3.8,0,0,0,4-.23,3.85,3.85,0,0,0,.93-4,10.57,10.57,0,0,1-.12-4.34v-.06a5.94,5.94,0,0,0-1.67-5.16L38.23,25.45l-6,5.47v9.41l-5.6,1.52,8.44,8.44A2.67,2.67,0,0,1,35.87,52.18Z"/><path class="cls-3" d="M34.31,30.36H35a3.3,3.3,0,0,0,3.3-3.3V25.64a.3.3,0,0,0-.3-.3H35.3A3.29,3.29,0,0,0,32,28.12a0,0,0,0,1-.08,0,3.29,3.29,0,0,0-3.26-2.78H26a.3.3,0,0,0-.3.3v1.42a3.3,3.3,0,0,0,3.3,3.3h.69a1.46,1.46,0,0,1,1.46,1.46v.85a3.29,3.29,0,0,0-2.45-1.09H26a.3.3,0,0,0-.3.3V33.3A3.3,3.3,0,0,0,29,36.6h.69a1.46,1.46,0,0,1,1.46,1.46v.85a3.29,3.29,0,0,0-2.45-1.09H26a.3.3,0,0,0-.3.3v1.42a3.3,3.3,0,0,0,3.3,3.3h.69a1.46,1.46,0,0,1,1.46,1.46V45a.85.85,0,1,0,1.7,0V44.3a1.46,1.46,0,0,1,1.46-1.46H35a3.3,3.3,0,0,0,3.3-3.3V38.12a.3.3,0,0,0-.3-.3H35.3a3.29,3.29,0,0,0-2.45,1.09v-.85a1.46,1.46,0,0,1,1.46-1.46H35a3.3,3.3,0,0,0,3.3-3.3V31.88a.3.3,0,0,0-.3-.3H35.3a3.29,3.29,0,0,0-2.45,1.09v-.85A1.46,1.46,0,0,1,34.31,30.36Z"/><path class="cls-3" d="M31.13,25a1.23,1.23,0,0,0,1.74,0l.53-.54a3.55,3.55,0,0,0,0-5l-1.16-1.16a.33.33,0,0,0-.48,0L30.6,19.4a3.55,3.55,0,0,0,0,5Z"/></svg>