<svg id="Layer_1" data-name="Layer 1" xmlns="http://www.w3.org/2000/svg" viewBox="0 0 64 64"><defs><style>.cls-1{fill:#0795ff;}.cls-2{fill:#fff;}.cls-3{fill:#156cdd;}</style></defs><title>angry, emoji, emoticon, emotion</title><circle class="cls-1" cx="32" cy="32" r="16.41" transform="translate(-6.5 55.79) rotate(-76.72)"/><path class="cls-2" d="M22.54,26.39l-1.63-1a1.06,1.06,0,0,1-.32-1.53,14.11,14.11,0,0,1,10.25-5.83A1.07,1.07,0,0,1,32,19.1V21a1,1,0,0,1-.93,1,10.09,10.09,0,0,0-7.16,4.08A1,1,0,0,1,22.54,26.39Z"/><path class="cls-2" d="M21,32H19.1a1.06,1.06,0,0,1-1.05-1.15l0-.38a1.06,1.06,0,0,1,1.25-.93l1.88.36A1,1,0,0,1,22.05,31v0A1,1,0,0,1,21,32Z"/><path class="cls-3" d="M25,30.61a7.43,7.43,0,0,1,3.06,2.47,4.2,4.2,0,0,0-2.56-3.14,4.32,4.32,0,0,0-3.79,0A7.39,7.39,0,0,1,25,30.61Z"/><path class="cls-3" d="M39,30.61A7.37,7.37,0,0,0,36,33.08a4.2,4.2,0,0,1,2.56-3.14,4.32,4.32,0,0,1,3.79,0A7.39,7.39,0,0,0,39,30.61Z"/><ellipse class="cls-3" cx="37.27" cy="33.41" rx="1.32" ry="1.9"/><ellipse class="cls-3" cx="26.73" cy="33.41" rx="1.32" ry="1.9"/><path class="cls-3" d="M35.94,40.33c0,.59-1.76-.57-3.94-.57s-3.94,1.16-3.94.57S29.82,37.9,32,37.9,35.94,39.74,35.94,40.33Z"/></svg>