<svg id="Layer_1" data-name="Layer 1" xmlns="http://www.w3.org/2000/svg" viewBox="0 0 64 64"><defs><style>.cls-1{fill:#0795ff;}</style></defs><title>arrows, directions, arrow</title><rect class="cls-1" x="18.04" y="22.94" width="43.67" height="2.37" transform="translate(-5.38 35.26) rotate(-45)"/><path class="cls-1" d="M54.4,7.92a4.31,4.31,0,0,1-6.09,0L46.63,9.6l7.77,7.77,1.68-1.68a4.31,4.31,0,0,1,0-6.09l.07-.07L54.47,7.85Z"/><path class="cls-1" d="M27.25,38.43l-.07.07a6.68,6.68,0,0,1-9.45,0l1.68-1.68a4.31,4.31,0,0,0,6.09,0l.07-.07Z"/><path class="cls-1" d="M27.18,44.59,25.5,46.27a6.68,6.68,0,0,1,0-9.45l.07-.07,1.68,1.68-.07.07A4.31,4.31,0,0,0,27.18,44.59Z"/><path class="cls-1" d="M22.31,43.37l-.07.07a6.7,6.7,0,0,1-9.45,0l1.68-1.68a4.31,4.31,0,0,0,6.09,0l.07-.07Z"/><path class="cls-1" d="M22.24,49.53l-1.68,1.68a6.7,6.7,0,0,1,0-9.45l.07-.07,1.68,1.68-.07.07A4.31,4.31,0,0,0,22.24,49.53Z"/><path class="cls-1" d="M17.37,48.31l-.07.07a6.7,6.7,0,0,1-9.45,0L9.53,46.7a4.31,4.31,0,0,0,6.09,0l.07-.07Z"/><path class="cls-1" d="M17.3,54.47l-1.68,1.68a6.7,6.7,0,0,1,0-9.45l.07-.07,1.68,1.68-.07.07A4.31,4.31,0,0,0,17.3,54.47Z"/><rect class="cls-1" x="22.94" y="2.29" width="2.37" height="43.67" transform="translate(-9.99 24.13) rotate(-45)"/><path class="cls-1" d="M7.92,9.6a4.31,4.31,0,0,1,0,6.09L9.6,17.37,17.37,9.6,15.69,7.92a4.31,4.31,0,0,1-6.09,0l-.07-.07L7.85,9.53Z"/><path class="cls-1" d="M38.43,36.75l.07.07a6.68,6.68,0,0,1,0,9.45l-1.68-1.68a4.31,4.31,0,0,0,0-6.09l-.07-.07Z"/><path class="cls-1" d="M44.59,36.82l1.68,1.68a6.68,6.68,0,0,1-9.45,0l-.07-.07,1.68-1.68.07.07A4.31,4.31,0,0,0,44.59,36.82Z"/><path class="cls-1" d="M43.37,41.69l.07.07a6.68,6.68,0,0,1,0,9.45l-1.68-1.68a4.31,4.31,0,0,0,0-6.09l-.07-.07Z"/><path class="cls-1" d="M49.53,41.76l1.68,1.68a6.7,6.7,0,0,1-9.45,0l-.07-.07,1.68-1.68.07.07A4.31,4.31,0,0,0,49.53,41.76Z"/><path class="cls-1" d="M48.31,46.63l.07.07a6.68,6.68,0,0,1,0,9.45L46.7,54.47a4.31,4.31,0,0,0,0-6.09l-.07-.07Z"/><path class="cls-1" d="M54.47,46.7l1.68,1.68a6.7,6.7,0,0,1-9.45,0l-.07-.07,1.68-1.68.07.07A4.31,4.31,0,0,0,54.47,46.7Z"/></svg>