<svg id="Layer_1" data-name="Layer 1" xmlns="http://www.w3.org/2000/svg" viewBox="0 0 64 64"><defs><style>.cls-1{fill:#0795ff;}</style></defs><title>arrow, direction, minimize, arrows</title><polygon class="cls-1" points="30.19 30.19 17.44 30.19 17.44 26.19 26.19 26.19 26.19 17.44 30.19 17.44 30.19 30.19"/><rect class="cls-1" x="16.73" y="5.35" width="4" height="26.75" transform="translate(-7.76 18.73) rotate(-45)"/><polygon class="cls-1" points="37.81 46.56 33.81 46.56 33.81 33.81 46.56 33.81 46.56 37.81 37.81 37.81 37.81 46.56"/><rect class="cls-1" x="43.27" y="31.89" width="4" height="26.75" transform="translate(-18.75 45.27) rotate(-45)"/><polygon class="cls-1" points="30.19 46.56 26.19 46.56 26.19 37.81 17.44 37.81 17.44 33.81 30.19 33.81 30.19 46.56"/><rect class="cls-1" x="5.35" y="43.27" width="26.75" height="4" transform="translate(-26.53 26.5) rotate(-45)"/><polygon class="cls-1" points="46.56 30.19 33.81 30.19 33.81 17.44 37.81 17.44 37.81 26.19 46.56 26.19 46.56 30.19"/><rect class="cls-1" x="31.89" y="16.73" width="26.75" height="4" transform="translate(0.02 37.5) rotate(-45)"/></svg>