<svg id="Layer_1" data-name="Layer 1" xmlns="http://www.w3.org/2000/svg" viewBox="0 0 64 64"><defs><style>.cls-1{fill:#dfe8f4;}.cls-2{fill:#0795ff;}</style></defs><title>arrow, pointer, left, move, direction</title><rect class="cls-1" x="8" y="8" width="48" height="48" rx="4.54" transform="translate(64 64) rotate(180)"/><path class="cls-2" d="M31.15,48.81a.75.75,0,0,0,.6.31h11.5a.75.75,0,0,0,.61-1.19L32.56,32.44a.75.75,0,0,1,0-.88l11.3-15.49a.75.75,0,0,0-.61-1.19H31.75a.75.75,0,0,0-.6.31L19.22,31.56a.75.75,0,0,0,0,.88Z"/></svg>