<svg id="Layer_1" data-name="Layer 1" xmlns="http://www.w3.org/2000/svg" viewBox="0 0 64 64"><defs><style>.cls-1{fill:#0795ff;}.cls-2{fill:#156cdd;}</style></defs><title>arrow, arrows, switch, exchange</title><path class="cls-1" d="M8.37,23.06,19.23,36.15a.68.68,0,0,0,1.21-.43V31.91C27.61,34.2,32,37.26,32,40.63V23.8c0-3.37-4.39-6.44-11.56-8.73V11.15a.68.68,0,0,0-1.15-.49L8.5,20.86A1.62,1.62,0,0,0,8.37,23.06Z"/><path class="cls-2" d="M55.63,40.94,44.77,27.85a.68.68,0,0,0-1.21.43v3.81C36.39,29.8,32,26.74,32,23.37V40.2c0,3.37,4.39,6.44,11.56,8.73v3.92a.68.68,0,0,0,1.15.49L55.5,43.14A1.62,1.62,0,0,0,55.63,40.94Z"/></svg>