<svg id="Layer_1" data-name="Layer 1" xmlns="http://www.w3.org/2000/svg" viewBox="0 0 64 64"><defs><style>.cls-1{fill:#0795ff;}</style></defs><title>arrow, point, pointer, direction</title><rect class="cls-1" x="4.45" y="41.16" width="33.54" height="3.25" transform="translate(-24.04 27.53) rotate(-45)"/><path class="cls-1" d="M10.6,55.69a5.91,5.91,0,0,1,8.35,0l2.3-2.29L10.6,42.75l-2.29,2.3a5.91,5.91,0,0,1,0,8.35l-.1.09,2.3,2.3Z"/><path class="cls-1" d="M29.22,32.49l.09-.1a9.17,9.17,0,0,1,13,0L40,34.69a5.91,5.91,0,0,0-8.35,0l-.1.09Z"/><path class="cls-1" d="M29.31,24l2.3-2.3a9.17,9.17,0,0,1,0,13l-.1.09-2.29-2.29.09-.1A5.91,5.91,0,0,0,29.31,24Z"/><path class="cls-1" d="M36,25.72l.1-.1a9.16,9.16,0,0,1,12.94,0l-2.29,2.3a5.91,5.91,0,0,0-8.35,0l-.1.1Z"/><path class="cls-1" d="M36.08,17.27,38.38,15a9.16,9.16,0,0,1,0,12.94l-.1.1L36,25.72l.1-.1A5.91,5.91,0,0,0,36.08,17.27Z"/><path class="cls-1" d="M42.75,19l.1-.09a9.16,9.16,0,0,1,12.94,0l-2.3,2.29a5.91,5.91,0,0,0-8.35,0l-.09.1Z"/><path class="cls-1" d="M42.85,10.51l2.29-2.3a9.16,9.16,0,0,1,0,12.94l-.09.1L42.75,19l.1-.09A5.91,5.91,0,0,0,42.85,10.51Z"/></svg>