<svg id="Layer_1" data-name="Layer 1" xmlns="http://www.w3.org/2000/svg" viewBox="0 0 64 64"><defs><style>.cls-1{fill:#156cdd;}.cls-2{fill:#b8c4d1;}.cls-3{fill:#cad0d8;}.cls-4{fill:#ccd8e5;}.cls-5{fill:#dfe8f4;}.cls-6{fill:#fff;}.cls-7{fill:#0795ff;}</style></defs><title>avatar, man, person, graduate, user</title><path class="cls-1" d="M44.31,45.52H41a2.79,2.79,0,0,1-2.79-2.79v-3.5H25.82v3.5A2.79,2.79,0,0,1,23,45.52H19.69A11.36,11.36,0,0,0,8.4,56H55.6A11.36,11.36,0,0,0,44.31,45.52Z"/><path class="cls-2" d="M32,50.92a14.44,14.44,0,0,0,6.69-6.59,2.79,2.79,0,0,1-.51-1.6v-3.5H25.82v3.5a2.79,2.79,0,0,1-.51,1.6A14.44,14.44,0,0,0,32,50.92Z"/><ellipse class="cls-1" cx="32" cy="23.11" rx="14.34" ry="13.48"/><path class="cls-3" d="M44.87,32.36H44.3V24.63h1A1.69,1.69,0,0,1,47,26.49l-.46,4.36A1.68,1.68,0,0,1,44.87,32.36Z"/><path class="cls-3" d="M19.13,32.36h.57V24.63h-1A1.69,1.69,0,0,0,17,26.49l.46,4.36A1.69,1.69,0,0,0,19.13,32.36Z"/><path class="cls-4" d="M45.05,31.59V24.11a12,12,0,0,0-6-10.42l-1-.58a12,12,0,0,0-12,0l-1,.58a12,12,0,0,0-6,10.42v7.48a11.09,11.09,0,0,0,5.55,9.6L27.6,43a8.81,8.81,0,0,0,8.8,0l3.1-1.79A11.09,11.09,0,0,0,45.05,31.59Z"/><path class="cls-5" d="M21.79,21.29a.8.8,0,0,1-.3-.06.75.75,0,0,1-.39-1,9.84,9.84,0,0,1,4.12-4.64.74.74,0,0,1,1,.27.75.75,0,0,1-.27,1,8.34,8.34,0,0,0-3.49,3.93A.76.76,0,0,1,21.79,21.29Z"/><path class="cls-3" d="M32,33.86a9.25,9.25,0,0,1-1.08-.06.38.38,0,0,0-.31.66A2.08,2.08,0,0,0,32,35a2,2,0,0,0,1.38-.51.38.38,0,0,0-.31-.66A9.2,9.2,0,0,1,32,33.86Z"/><path class="cls-2" d="M33.51,34.09a.37.37,0,0,0-.42-.29,9.66,9.66,0,0,1-2.15,0,.38.38,0,0,0-.42.29.4.4,0,0,0,.42.29,8.29,8.29,0,0,1,2.15,0A.39.39,0,0,0,33.51,34.09Z"/><path class="cls-5" d="M32,33.37a6.49,6.49,0,0,1,.77.05.28.28,0,0,0,.22-.48,1.56,1.56,0,0,0-2,0,.28.28,0,0,0,.23.48A6.23,6.23,0,0,1,32,33.37Z"/><path class="cls-1" d="M34.72,36.87c-.86.06-1.77.1-2.72.1s-1.86,0-2.72-.1a5.13,5.13,0,0,0,5.44,0Z"/><path class="cls-1" d="M18,23.58l.49,3.26c.14.88,1.06,1,1.31.17l.83-4.65Z"/><path class="cls-1" d="M46,23.58l-.5,3.26c-.13.88-1.05,1-1.3.17l-.83-4.65Z"/><path class="cls-6" d="M26.39,27.34a3.36,3.36,0,0,0-2.64,1.48.39.39,0,0,0,0,.47,3.25,3.25,0,0,0,2.63,1A3.3,3.3,0,0,0,29,29.34a.47.47,0,0,0,0-.56A3.39,3.39,0,0,0,26.39,27.34Z"/><path class="cls-1" d="M26.38,26.62a8.1,8.1,0,0,1,2.19.3.28.28,0,0,0,.2-.52,5.4,5.4,0,0,0-2.39-.58A5.33,5.33,0,0,0,24,26.4a.28.28,0,0,0,.2.52A8,8,0,0,1,26.38,26.62Z"/><path class="cls-1" d="M27.62,28.81a1.24,1.24,0,1,1-1.23-1.24A1.23,1.23,0,0,1,27.62,28.81Z"/><path class="cls-7" d="M26.66,28.12a.71.71,0,1,1-.9,0A.65.65,0,0,1,26.66,28.12Z"/><path class="cls-7" d="M27.16,29.1c.07.09,0,.25-.12.37s-.31.13-.38.05,0-.26.12-.37S27.09,29,27.16,29.1Z"/><path class="cls-6" d="M37.63,27.34A3.36,3.36,0,0,0,35,28.82a.39.39,0,0,0,0,.47,3.26,3.26,0,0,0,2.63,1,3.3,3.3,0,0,0,2.59-.93.47.47,0,0,0,0-.56A3.37,3.37,0,0,0,37.63,27.34Z"/><path class="cls-1" d="M37.62,26.62a8,8,0,0,1,2.19.3.28.28,0,0,0,.2-.52,5.19,5.19,0,0,0-4.77,0,.28.28,0,0,0,.2.52A8,8,0,0,1,37.62,26.62Z"/><path class="cls-1" d="M38.86,28.81a1.24,1.24,0,1,1-1.23-1.24A1.23,1.23,0,0,1,38.86,28.81Z"/><path class="cls-7" d="M37.9,28.12a.71.71,0,1,1-.9,0A.65.65,0,0,1,37.9,28.12Z"/><path class="cls-7" d="M38.4,29.1c.07.09,0,.25-.12.37s-.31.13-.38.05,0-.26.12-.37S38.33,29,38.4,29.1Z"/><path class="cls-1" d="M22.33,11,19.5,13.35a.6.6,0,0,0-.22.36l-1.83,8.81a.65.65,0,0,0,.51.76l13.92,2.6a.49.49,0,0,0,.24,0L46,23.28a.65.65,0,0,0,.51-.76l-1.83-8.81a.6.6,0,0,0-.22-.36L41.67,11a.59.59,0,0,0-.4-.15H22.73A.59.59,0,0,0,22.33,11Z"/><path class="cls-1" d="M52.35,12.85,34.71,17.2a11.29,11.29,0,0,1-5.42,0L11.65,12.85A.92.92,0,0,1,11.73,11L31.48,8a3.62,3.62,0,0,1,1,0l19.75,3A.92.92,0,0,1,52.35,12.85Z"/><path class="cls-7" d="M52.27,11l-.12,0-17.44,4.3a11.29,11.29,0,0,1-5.42,0L11.85,11l-.12,0a.92.92,0,0,0-.08,1.81L29.29,17.2a11.29,11.29,0,0,0,5.42,0l17.64-4.35A.92.92,0,0,0,52.27,11Z"/><path class="cls-2" d="M15.39,20.11a.5.5,0,0,1-.5-.5V15.26a3.22,3.22,0,0,1,2.76-3.21l7.59-1.15a.5.5,0,0,1,.57.42.51.51,0,0,1-.42.57L17.8,13a2.23,2.23,0,0,0-1.91,2.22v4.35A.5.5,0,0,1,15.39,20.11Z"/><path class="cls-2" d="M14.3,19.9a.78.78,0,0,0-.54.53,5.6,5.6,0,0,0-.26,1.75,7,7,0,0,0,.05.8.72.72,0,0,0,.44.57,4,4,0,0,0,1.37.24,3.93,3.93,0,0,0,1.37-.24.7.7,0,0,0,.44-.57,5.29,5.29,0,0,0,.06-.8,5.69,5.69,0,0,0-.29-1.82.68.68,0,0,0-.45-.44,3.77,3.77,0,0,0-1.13-.17A4,4,0,0,0,14.3,19.9Z"/><path class="cls-2" d="M16.26,19.75a.82.82,0,1,1-.82-.82A.82.82,0,0,1,16.26,19.75Z"/></svg>