<svg id="Layer_1" data-name="Layer 1" xmlns="http://www.w3.org/2000/svg" viewBox="0 0 64 64"><defs><style>.cls-1{fill:#156cdd;}.cls-2{fill:#ccd8e5;}.cls-3{fill:#b8c4d1;}.cls-4{fill:#0795ff;}.cls-5{fill:#fff;}.cls-6{fill:#cad0d8;}.cls-7{fill:#dfe8f4;}</style></defs><title>avatar, user, person, cook, woman</title><path class="cls-1" d="M16.67,29.24A15.36,15.36,0,0,0,31.82,44.68h.36A15.36,15.36,0,0,0,47.33,29.24V23.12H16.67Z"/><path class="cls-1" d="M16.67,36.21a7.44,7.44,0,0,0,5.44,7.2A38.07,38.07,0,0,0,32,44.68a38.2,38.2,0,0,0,9.9-1.27,7.44,7.44,0,0,0,5.43-7.2V23.12H16.67Z"/><path class="cls-2" d="M44.31,45.52H41a2.79,2.79,0,0,1-2.79-2.79V39.22H25.82v3.51A2.79,2.79,0,0,1,23,45.52H19.69A11.36,11.36,0,0,0,8.4,56H55.6A11.36,11.36,0,0,0,44.31,45.52Z"/><path class="cls-3" d="M55.6,56A11.36,11.36,0,0,0,44.31,45.52H41a2.79,2.79,0,0,1-2.79-2.79v-.39l-7.66,3.93,1.79,2.67h1.57a2.62,2.62,0,0,1,2.62,2.62V56Z"/><path class="cls-2" d="M53.24,38.29c-2.13-1.08-4.6-.51-6.06,2.38a6.6,6.6,0,0,0-.5,5.2,4.47,4.47,0,0,1-.11,3.62L43.27,56h2l2.9-5.71A4.47,4.47,0,0,1,51,48.06a6.56,6.56,0,0,0,3.9-3.47C56.37,41.71,55.38,39.38,53.24,38.29Z"/><path class="cls-3" d="M39.1,44.79h0a2.78,2.78,0,0,1-.92-2.06V39.22H25.82v3.51a2.78,2.78,0,0,1-.92,2.06h0A8.13,8.13,0,0,0,39.1,44.79Z"/><path class="cls-4" d="M31.19,47.65a2.23,2.23,0,0,0-1.48-1.34,8,8,0,0,1-4.05-2.71,2.77,2.77,0,0,1-.76,1.19,8,8,0,0,0,6.79,4.15Z"/><path class="cls-4" d="M32.81,47.65l-.5,1.29a8,8,0,0,0,6.79-4.15,2.77,2.77,0,0,1-.76-1.19,8,8,0,0,1-4.05,2.71A2.23,2.23,0,0,0,32.81,47.65Z"/><path class="cls-5" d="M35.06,51.79a.52.52,0,1,1-.52-.52A.52.52,0,0,1,35.06,51.79Z"/><path class="cls-5" d="M35.06,54.41a.52.52,0,1,1-1,0,.52.52,0,1,1,1,0Z"/><path class="cls-5" d="M30,51.79a.52.52,0,1,1-.52-.52A.52.52,0,0,1,30,51.79Z"/><path class="cls-5" d="M30,54.41a.52.52,0,0,1-1,0,.52.52,0,0,1,1,0Z"/><path class="cls-3" d="M53.32,44.1c-.91,1.8-2.73,2.71-4.06,2s-1.67-2.68-.75-4.48S51,39.5,52.29,40.17,54.24,42.3,53.32,44.1Z"/><ellipse class="cls-1" cx="32" cy="24.04" rx="15.33" ry="14.41"/><path class="cls-1" d="M46,31.65c0,5.57-6.25,8-14,8s-14-2.45-14-8,6.26-12.14,14-12.14S46,26.09,46,31.65Z"/><path class="cls-6" d="M44.87,32.36H44.3V24.63h1A1.69,1.69,0,0,1,47,26.49l-.46,4.36A1.68,1.68,0,0,1,44.87,32.36Z"/><path class="cls-6" d="M19.13,32.36h.57V24.63h-1A1.69,1.69,0,0,0,17,26.49l.46,4.36A1.69,1.69,0,0,0,19.13,32.36Z"/><path class="cls-2" d="M45.05,30.24V24.11a12.07,12.07,0,0,0-6-10.43l-1-.58a12,12,0,0,0-12,0l-1,.58a12.07,12.07,0,0,0-6,10.43v6.13a13.42,13.42,0,0,0,6.72,11.62L27.6,43a8.81,8.81,0,0,0,8.8,0l1.93-1.12A13.42,13.42,0,0,0,45.05,30.24Z"/><path class="cls-7" d="M21.05,24.86a.75.75,0,0,1-.75-.75,9.18,9.18,0,0,1,.07-1.17.75.75,0,0,1,1.49.18,8.22,8.22,0,0,0-.06,1A.74.74,0,0,1,21.05,24.86Z"/><path class="cls-7" d="M21.79,21.29a.66.66,0,0,1-.3-.07.74.74,0,0,1-.39-1,9.84,9.84,0,0,1,4.12-4.64.74.74,0,0,1,1,.27.75.75,0,0,1-.27,1,8.34,8.34,0,0,0-3.49,3.93A.76.76,0,0,1,21.79,21.29Z"/><path class="cls-5" d="M26.28,27.46a3.38,3.38,0,0,0-2.63,1.47.41.41,0,0,0,0,.48,3.26,3.26,0,0,0,2.63,1,3.32,3.32,0,0,0,2.59-.93.44.44,0,0,0,0-.56A3.35,3.35,0,0,0,26.28,27.46Z"/><path class="cls-1" d="M26.28,26.55a4.26,4.26,0,0,1,2.39.73,3,3,0,0,0-4.77,0A4.23,4.23,0,0,1,26.28,26.55Z"/><path class="cls-1" d="M27.52,28.92a1.24,1.24,0,1,1-1.24-1.23A1.24,1.24,0,0,1,27.52,28.92Z"/><path class="cls-4" d="M26.55,28.23a.71.71,0,1,1-.89,0A.63.63,0,0,1,26.55,28.23Z"/><path class="cls-4" d="M27.06,29.22c.07.09,0,.25-.12.36s-.31.14-.39.05,0-.25.12-.36S27,29.13,27.06,29.22Z"/><path class="cls-5" d="M37.73,27.46a3.38,3.38,0,0,0-2.63,1.47.39.39,0,0,0,0,.48,3.26,3.26,0,0,0,2.63,1,3.32,3.32,0,0,0,2.59-.93.44.44,0,0,0,0-.56A3.35,3.35,0,0,0,37.73,27.46Z"/><path class="cls-1" d="M37.73,26.55a4.26,4.26,0,0,1,2.39.73,3,3,0,0,0-4.77,0A4.23,4.23,0,0,1,37.73,26.55Z"/><path class="cls-1" d="M39,28.92a1.24,1.24,0,1,1-1.24-1.23A1.24,1.24,0,0,1,39,28.92Z"/><path class="cls-4" d="M38,28.23a.71.71,0,1,1-.89,0A.63.63,0,0,1,38,28.23Z"/><path class="cls-4" d="M38.51,29.22c.07.09,0,.25-.12.36s-.31.14-.39.05,0-.25.12-.36S38.43,29.13,38.51,29.22Z"/><path class="cls-6" d="M32,33.86a9.19,9.19,0,0,1-1.08-.07.39.39,0,0,0-.31.67A2.07,2.07,0,0,0,32,35a2,2,0,0,0,1.38-.5.39.39,0,0,0-.31-.67A9.16,9.16,0,0,1,32,33.86Z"/><path class="cls-3" d="M33.51,34.08a.39.39,0,0,0-.42-.29,8.29,8.29,0,0,1-2.15,0,.4.4,0,0,0-.42.29.38.38,0,0,0,.42.29,9.66,9.66,0,0,1,2.15,0A.37.37,0,0,0,33.51,34.08Z"/><path class="cls-7" d="M32,33.37a6.51,6.51,0,0,1,.77,0,.27.27,0,0,0,.22-.47,1.56,1.56,0,0,0-2,0,.28.28,0,0,0,.23.47A6.29,6.29,0,0,1,32,33.37Z"/><path class="cls-1" d="M32,36.58a36.69,36.69,0,0,1-4.25-.24.23.23,0,0,0-.22.35,5.21,5.21,0,0,0,8.94,0,.23.23,0,0,0-.22-.35A36.69,36.69,0,0,1,32,36.58Z"/><path class="cls-4" d="M32,39.22a5.19,5.19,0,0,0,2.3-.54,3.12,3.12,0,0,0-4.6,0A5.19,5.19,0,0,0,32,39.22Z"/><polygon class="cls-1" points="18.04 23.52 18.98 28.25 20.67 23.11 18.04 23.52"/><polygon class="cls-1" points="45.99 23.52 45.05 28.25 43.36 23.11 45.99 23.52"/><path class="cls-2" d="M43.71,10.25c-6.61-3-18.08-2.39-20-1.52-3.12,1.4-11.53,3-12.13,6.49s5.28,4.84,5.28,4.84l30,.66C59.23,14.23,47.88,12.17,43.71,10.25Z"/><path class="cls-3" d="M32,17c-8.65,0-15.67,1.19-15.67,2.66v6a.46.46,0,0,0,.68.41c2-1.09,7.93-1.89,15-1.89s13,.8,15,1.89a.46.46,0,0,0,.68-.41v-6C47.67,18.2,40.65,17,32,17Z"/></svg>