<svg id="Layer_1" data-name="Layer 1" xmlns="http://www.w3.org/2000/svg" viewBox="0 0 64 64"><defs><style>.cls-1{fill:#156cdd;}.cls-2{fill:#0795ff;}.cls-3{fill:#b8c4d1;}.cls-4{fill:#cad0d8;}.cls-5{fill:#ccd8e5;}.cls-6{fill:#dfe8f4;}.cls-7{fill:#fff;}</style></defs><title>avatar, user, person, woman, construction, worker</title><path class="cls-1" d="M22.62,24.49a11.07,11.07,0,0,0-4.8,1.12,26.36,26.36,0,0,1,.4,4.48,14.25,14.25,0,0,1-1.82,7.57A2.22,2.22,0,0,0,17.7,41a22.34,22.34,0,0,0,4.92.5C28.9,41.51,34,39.44,34,34.74S28.9,24.49,22.62,24.49Z"/><path class="cls-1" d="M41.38,24.49a11.07,11.07,0,0,1,4.8,1.12,26.36,26.36,0,0,0-.4,4.48,14.25,14.25,0,0,0,1.82,7.57A2.22,2.22,0,0,1,46.3,41a22.34,22.34,0,0,1-4.92.5C35.1,41.51,30,39.44,30,34.74S35.1,24.49,41.38,24.49Z"/><path class="cls-1" d="M44.31,45.52H41a2.79,2.79,0,0,1-2.79-2.79v-3.5H25.82v3.5A2.79,2.79,0,0,1,23,45.52H19.69A11.36,11.36,0,0,0,8.4,56H55.6A11.36,11.36,0,0,0,44.31,45.52Z"/><path class="cls-2" d="M23.64,45.61a9.65,9.65,0,0,0,16.72,0l.08-.14a2.79,2.79,0,0,1-2.26-2.74v-3.5H25.82v3.5a2.79,2.79,0,0,1-2.26,2.74Zm3.68-2.88v-2h9.36v2a4.25,4.25,0,0,0,.58,2.15,6.68,6.68,0,0,1-10.52,0A4.19,4.19,0,0,0,27.32,42.73Z"/><path class="cls-3" d="M39.06,44.88l0-.09a2.78,2.78,0,0,1-.92-2.06v-3.5H25.82v3.5a2.78,2.78,0,0,1-.92,2.06l0,.09A8.16,8.16,0,0,0,39.06,44.88Z"/><path class="cls-2" d="M22.11,47.44q-.21-1-.36-1.92H19.69a11.31,11.31,0,0,0-9.21,4.77A29.79,29.79,0,0,0,10.59,56H25.24A31.93,31.93,0,0,1,22.11,47.44Z"/><path class="cls-2" d="M53.41,56a29.79,29.79,0,0,0,.11-5.71,11.31,11.31,0,0,0-9.21-4.77H42.25q-.15,1-.36,1.92A31.93,31.93,0,0,1,38.76,56Z"/><path class="cls-3" d="M17.67,45.73a11.21,11.21,0,0,0-6.25,3.43A30.3,30.3,0,0,0,14.12,56h7A32.28,32.28,0,0,1,18,47.44C17.86,46.86,17.76,46.29,17.67,45.73Z"/><path class="cls-3" d="M46.33,45.73c-.09.56-.19,1.13-.31,1.71A32.28,32.28,0,0,1,42.88,56h7a30.3,30.3,0,0,0,2.7-6.84A11.21,11.21,0,0,0,46.33,45.73Z"/><ellipse class="cls-1" cx="32" cy="24.04" rx="15.33" ry="14.41"/><path class="cls-1" d="M46,31.66c0,5.56-6.25,8-14,8s-14-2.45-14-8,6.26-12.14,14-12.14S46,26.09,46,31.66Z"/><path class="cls-4" d="M44.87,32.36H44.3V24.63h1A1.69,1.69,0,0,1,47,26.49l-.46,4.36A1.68,1.68,0,0,1,44.87,32.36Z"/><path class="cls-4" d="M19.13,32.36h.57V24.63h-1A1.69,1.69,0,0,0,17,26.49l.46,4.36A1.69,1.69,0,0,0,19.13,32.36Z"/><path class="cls-5" d="M45.05,30.24V24.11a12,12,0,0,0-6-10.42l-1-.58a12,12,0,0,0-12,0l-1,.58a12,12,0,0,0-6,10.42v6.13a13.42,13.42,0,0,0,6.72,11.63L27.6,43a8.81,8.81,0,0,0,8.8,0l1.93-1.11A13.42,13.42,0,0,0,45.05,30.24Z"/><path class="cls-6" d="M21.05,24.87a.76.76,0,0,1-.75-.76A9,9,0,0,1,20.37,23a.76.76,0,0,1,.83-.66.74.74,0,0,1,.66.83,8.35,8.35,0,0,0-.06,1A.75.75,0,0,1,21.05,24.87Z"/><path class="cls-6" d="M21.79,21.29a.8.8,0,0,1-.3-.06.75.75,0,0,1-.39-1,9.84,9.84,0,0,1,4.12-4.64A.75.75,0,0,1,26,16.9a8.34,8.34,0,0,0-3.49,3.93A.76.76,0,0,1,21.79,21.29Z"/><path class="cls-7" d="M26.28,27.46a3.36,3.36,0,0,0-2.63,1.48.39.39,0,0,0,0,.47,3.26,3.26,0,0,0,2.63,1,3.29,3.29,0,0,0,2.59-.93.44.44,0,0,0,0-.56A3.35,3.35,0,0,0,26.28,27.46Z"/><path class="cls-1" d="M26.28,26.55a4.26,4.26,0,0,1,2.39.73,3,3,0,0,0-4.77,0A4.23,4.23,0,0,1,26.28,26.55Z"/><path class="cls-1" d="M27.52,28.93a1.24,1.24,0,1,1-1.24-1.24A1.24,1.24,0,0,1,27.52,28.93Z"/><path class="cls-2" d="M26.55,28.24a.63.63,0,0,1-.17.87.58.58,0,1,1,.17-.87Z"/><path class="cls-2" d="M27.06,29.22c.07.09,0,.25-.12.37s-.31.13-.39,0,0-.25.12-.36S27,29.13,27.06,29.22Z"/><path class="cls-7" d="M37.73,27.46a3.36,3.36,0,0,0-2.63,1.48.38.38,0,0,0,0,.47,3.26,3.26,0,0,0,2.63,1,3.29,3.29,0,0,0,2.59-.93.44.44,0,0,0,0-.56A3.35,3.35,0,0,0,37.73,27.46Z"/><path class="cls-1" d="M37.73,26.55a4.26,4.26,0,0,1,2.39.73,3,3,0,0,0-4.77,0A4.23,4.23,0,0,1,37.73,26.55Z"/><path class="cls-1" d="M39,28.93a1.24,1.24,0,1,1-1.24-1.24A1.24,1.24,0,0,1,39,28.93Z"/><path class="cls-2" d="M38,28.24a.63.63,0,0,1-.17.87.58.58,0,1,1,.17-.87Z"/><path class="cls-2" d="M38.51,29.22c.07.09,0,.25-.12.37s-.31.13-.39,0,0-.25.12-.36S38.43,29.13,38.51,29.22Z"/><path class="cls-4" d="M32,33.86a9.25,9.25,0,0,1-1.08-.06.38.38,0,0,0-.31.66A2.08,2.08,0,0,0,32,35a2,2,0,0,0,1.38-.51.38.38,0,0,0-.31-.66A9.2,9.2,0,0,1,32,33.86Z"/><path class="cls-3" d="M33.51,34.09a.37.37,0,0,0-.42-.29,9.66,9.66,0,0,1-2.15,0,.38.38,0,0,0-.42.29.4.4,0,0,0,.42.29,8.29,8.29,0,0,1,2.15,0A.39.39,0,0,0,33.51,34.09Z"/><path class="cls-6" d="M32,33.37a6.49,6.49,0,0,1,.77.05.28.28,0,0,0,.22-.48,1.56,1.56,0,0,0-2,0,.28.28,0,0,0,.23.48A6.23,6.23,0,0,1,32,33.37Z"/><path class="cls-1" d="M32,36.58a36.82,36.82,0,0,1-4.25-.23.22.22,0,0,0-.22.34,5.2,5.2,0,0,0,8.94,0,.22.22,0,0,0-.22-.34A36.82,36.82,0,0,1,32,36.58Z"/><path class="cls-2" d="M32,39.23a5.2,5.2,0,0,0,2.3-.55,3.14,3.14,0,0,0-4.6,0A5.2,5.2,0,0,0,32,39.23Z"/><polygon class="cls-1" points="18.04 23.52 18.98 28.25 20.67 23.12 18.04 23.52"/><polygon class="cls-1" points="45.99 23.52 45.05 28.25 43.36 23.12 45.99 23.52"/><path class="cls-2" d="M18.73,19.93h5.51C24,17,22.23,14.69,20,14.69s-4.26,2.6-4.26,5.81c0,2.59,1.25,4.76,3,5.51Z"/><path class="cls-2" d="M45.27,19.93H39.76c.21-2.94,2-5.24,4.22-5.24s4.26,2.6,4.26,5.81c0,2.59-1.25,4.76-3,5.51Z"/><path class="cls-2" d="M46.18,23.89V16.41a4.73,4.73,0,0,0-1.54-3.53A19,19,0,0,0,32,8.52a19,19,0,0,0-12.64,4.36,4.73,4.73,0,0,0-1.54,3.53v7.48Z"/><path class="cls-1" d="M41.17,10.58A20.71,20.71,0,0,0,32,8.52a20.71,20.71,0,0,0-9.17,2.06v4.95a1.8,1.8,0,0,0,1.8,1.8H39.37a1.8,1.8,0,0,0,1.8-1.8Z"/><path class="cls-2" d="M32,22.29a57.29,57.29,0,0,1,8.28.57V10.64a1.34,1.34,0,0,0-.83-1.25,20.66,20.66,0,0,0-14.9,0,1.34,1.34,0,0,0-.83,1.25V22.86A57.29,57.29,0,0,1,32,22.29Z"/><path class="cls-1" d="M46.18,23.89v-3.5a1.14,1.14,0,0,0-.82-1.09A51.37,51.37,0,0,0,32,17.78,51.37,51.37,0,0,0,18.64,19.3a1.14,1.14,0,0,0-.82,1.09v3.5h.31V22.72a1.14,1.14,0,0,1,1.13-1.13H44.74a1.14,1.14,0,0,1,1.13,1.13v1.17Z"/><path class="cls-2" d="M32,19C22.27,19,14.39,21,14.39,23.34c0,1,1.4,1.94,3.74,2.68V22.81H45.87V26c2.34-.74,3.74-1.67,3.74-2.68C49.61,21,41.73,19,32,19Z"/><path class="cls-3" d="M49.61,23.89C49.61,22.29,41.73,21,32,21s-17.61,1.29-17.61,2.89a.65.65,0,0,0,.25.46h0l.07.06.07.06L19,28.08V25.29a.67.67,0,0,1,.66-.66H44.39a.67.67,0,0,1,.66.66v2.79l4.18-3.61.07-.06.07-.06h0A.65.65,0,0,0,49.61,23.89Z"/></svg>