<svg id="Layer_1" data-name="Layer 1" xmlns="http://www.w3.org/2000/svg" viewBox="0 0 64 64"><defs><style>.cls-1{fill:#dfe8f4;}.cls-2{fill:#ccd8e5;}.cls-3{fill:#0795ff;}</style></defs><title>bell, alert, notification, ring</title><path class="cls-1" d="M48.9,29.69V27.86c0-10.1-8.27-18.25-18.34-17.41A16.9,16.9,0,0,0,15.1,27.29v2.4a13,13,0,0,1-4.59,10.12A5.62,5.62,0,0,0,8.06,44c0,5.29,10.72,9.58,23.94,9.58S55.94,49.32,55.94,44a5.62,5.62,0,0,0-2.45-4.22A13,13,0,0,1,48.9,29.69Z"/><path class="cls-2" d="M50,44.55c0,3-8,5.34-18,5.34S14,47.5,14,44.55s8.05-5.33,18-5.33S50,41.61,50,44.55Z"/><path class="cls-3" d="M32,39.22a58.07,58.07,0,0,0-7,.41,7.94,7.94,0,0,0,13.92,0A58.07,58.07,0,0,0,32,39.22Z"/></svg>