<svg id="Layer_1" data-name="Layer 1" xmlns="http://www.w3.org/2000/svg" viewBox="0 0 64 64"><defs><style>.cls-1{fill:#156cdd;}.cls-2{fill:#0795ff;}.cls-3{fill:#dfe8f4;}.cls-4{fill:#ccd8e5;}</style></defs><title>bomb, explosive, explosion, danger</title><circle class="cls-1" cx="27.75" cy="36.25" r="19.75"/><path class="cls-2" d="M17.64,36.25h-6A16.14,16.14,0,0,1,27.75,20.13v6A10.13,10.13,0,0,0,17.64,36.25Z"/><path class="cls-3" d="M49,18.79l-9.39,9.38a2.67,2.67,0,0,1-3.79,0h0a2.67,2.67,0,0,1,0-3.79L45.21,15A2.7,2.7,0,0,1,49,15h0A2.7,2.7,0,0,1,49,18.79Z"/><path class="cls-4" d="M39.67,20.53l-3.84,3.85a2.67,2.67,0,0,0,0,3.79h0a2.67,2.67,0,0,0,3.79,0l3.85-3.84A20.11,20.11,0,0,0,39.67,20.53Z"/><path class="cls-3" d="M46.55,12.33h0a.74.74,0,0,1-.73-.74V8.74A.74.74,0,0,1,46.55,8h0a.74.74,0,0,1,.74.74v2.85A.74.74,0,0,1,46.55,12.33Z"/><path class="cls-3" d="M44,13h0a.75.75,0,0,1-1-.27l-1.43-2.48a.73.73,0,0,1,.27-1h0a.73.73,0,0,1,1,.27L44.27,12A.75.75,0,0,1,44,13Z"/><path class="cls-3" d="M51.28,25.63h0a.75.75,0,0,1-1-.27l-1.43-2.48a.73.73,0,0,1,.27-1h0a.74.74,0,0,1,1,.27l1.43,2.47A.75.75,0,0,1,51.28,25.63Z"/><path class="cls-3" d="M42.12,14.89h0a.73.73,0,0,1-1,.27l-2.48-1.43a.75.75,0,0,1-.27-1h0a.75.75,0,0,1,1-.27l2.47,1.43A.74.74,0,0,1,42.12,14.89Z"/><path class="cls-3" d="M54.73,22.17h0a.73.73,0,0,1-1,.27L51.25,21A.75.75,0,0,1,51,20h0a.75.75,0,0,1,1-.27l2.47,1.43A.73.73,0,0,1,54.73,22.17Z"/><path class="cls-3" d="M56,17.45h0a.74.74,0,0,1-.74.73H52.41a.74.74,0,0,1-.74-.73h0a.74.74,0,0,1,.74-.74h2.85A.74.74,0,0,1,56,17.45Z"/><path class="cls-3" d="M54.73,12.72h0a.73.73,0,0,1-.27,1L52,15.16a.75.75,0,0,1-1-.27h0a.75.75,0,0,1,.27-1l2.48-1.43A.73.73,0,0,1,54.73,12.72Z"/><path class="cls-3" d="M51.28,9.27h0a.73.73,0,0,1,.27,1l-1.43,2.48a.75.75,0,0,1-1,.27h0a.75.75,0,0,1-.27-1l1.43-2.47A.73.73,0,0,1,51.28,9.27Z"/></svg>