<svg id="Layer_1" data-name="Layer 1" xmlns="http://www.w3.org/2000/svg" viewBox="0 0 64 64"><defs><style>.cls-1{fill:#dfe8f4;}.cls-2{fill:#ccd8e5;}.cls-3{fill:#fff;}</style></defs><title>book, note, pamphlet, notebook</title><path class="cls-1" d="M32,54.09,8.7,47A1,1,0,0,1,8,46V10.89A1,1,0,0,1,9.36,10L32,19.26Z"/><path class="cls-2" d="M32,54.09,55.3,47A1,1,0,0,0,56,46V10.89A1,1,0,0,0,54.64,10L32,19.26Z"/><polygon class="cls-3" points="13.46 24.64 26.54 29.32 26.54 27.7 13.46 23.02 13.46 24.64"/><polygon class="cls-3" points="13.46 30.47 26.54 34.81 26.54 33.19 13.46 28.84 13.46 30.47"/><polygon class="cls-3" points="13.46 36.01 26.54 40.3 26.54 38.68 13.46 34.38 13.46 36.01"/><polygon class="cls-1" points="50.53 24.64 37.47 29.32 37.47 27.7 50.53 23.02 50.53 24.64"/><polygon class="cls-1" points="50.53 30.47 37.47 34.81 37.47 33.19 50.53 28.84 50.53 30.47"/><polygon class="cls-1" points="50.53 36.01 37.47 40.3 37.47 38.68 50.53 34.38 50.53 36.01"/></svg>