<svg id="Layer_1" data-name="Layer 1" xmlns="http://www.w3.org/2000/svg" viewBox="0 0 64 64"><defs><style>.cls-1{fill:#0795ff;}.cls-2{fill:#156cdd;}.cls-3{fill:#dfe8f4;}.cls-4{fill:#ccd8e5;}</style></defs><title>bookmark, book, textbook, notebook</title><path class="cls-1" d="M14.94,8H50.36a4.22,4.22,0,0,1,4.22,4.22V54.49A1.51,1.51,0,0,1,53.07,56H14.94a5.52,5.52,0,0,1-5.52-5.52v-37A5.52,5.52,0,0,1,14.94,8Z"/><path class="cls-2" d="M17.22,8V27.73A1.44,1.44,0,0,0,19.34,29l6.12-3.31a1.43,1.43,0,0,1,1.36,0L32.94,29a1.44,1.44,0,0,0,2.11-1.27V8Z"/><path class="cls-3" d="M12.27,49.43a3.91,3.91,0,0,0,3.9,3.9H54.58V45.54H16.17A3.9,3.9,0,0,0,12.27,49.43Z"/><path class="cls-4" d="M14.5,49.43a2,2,0,0,0,2.05,2h38V47.39h-38A2,2,0,0,0,14.5,49.43Z"/></svg>