<svg id="Layer_1" data-name="Layer 1" xmlns="http://www.w3.org/2000/svg" viewBox="0 0 64 64"><defs><style>.cls-1{fill:#dfe8f4;}.cls-2{fill:#ccd8e5;}.cls-3{fill:#0795ff;}.cls-4{fill:#156cdd;}</style></defs><title>bookmark, save, favourite, real estate</title><rect class="cls-1" x="11.67" y="8" width="40.67" height="48" rx="4.82"/><path class="cls-2" d="M47.52,8h-3L36,21.94,52.33,38.25V12.82A4.81,4.81,0,0,0,47.52,8Z"/><path class="cls-3" d="M19.17,8H16.48a4.81,4.81,0,0,0-4.81,4.82V51.18A4.81,4.81,0,0,0,16.48,56h2.69Z"/><rect class="cls-2" x="19.17" y="8" width="1.75" height="48"/><path class="cls-4" d="M41.65,17.52,46,21.88a.47.47,0,0,0,.8-.33V8h-11V21.55a.47.47,0,0,0,.81.33L41,17.52A.48.48,0,0,1,41.65,17.52Z"/><path class="cls-4" d="M39.46,30.63h3.39a.21.21,0,0,1,.21.21v8.27a0,0,0,0,1,0,0H39.25a0,0,0,0,1,0,0V30.84A.21.21,0,0,1,39.46,30.63Z"/><path class="cls-3" d="M34.89,27.76,24.67,38a.33.33,0,0,0,.23.57H45.36A.33.33,0,0,0,45.6,38L35.37,27.76A.34.34,0,0,0,34.89,27.76Z"/><rect class="cls-3" x="27.2" y="37.67" width="15.86" height="10.15"/><path class="cls-4" d="M37.61,47.82h-5V43.94a2.48,2.48,0,0,1,2.48-2.48h0a2.48,2.48,0,0,1,2.48,2.48Z"/></svg>