<svg id="Layer_1" data-name="Layer 1" xmlns="http://www.w3.org/2000/svg" viewBox="0 0 64 64"><defs><style>.cls-1{fill:#0795ff;}.cls-2{fill:#156cdd;}.cls-3{fill:#ccd8e5;}.cls-4{fill:#fff;}</style></defs><title>box, package, favourite, heart</title><rect class="cls-1" x="8" y="11.38" width="48" height="41.25" rx="2.25"/><path class="cls-2" d="M53.75,52.62A2.25,2.25,0,0,0,56,50.37V13.63a2.25,2.25,0,0,0-2.25-2.25H30.15l-5.1,11,25,25a7.31,7.31,0,0,1,2.14,5.16h1.52Z"/><path class="cls-3" d="M24.72,11.38H39.28a0,0,0,0,1,0,0V21.66a1,1,0,0,1-1,1H25.75a1,1,0,0,1-1-1V11.38A0,0,0,0,1,24.72,11.38Z"/><path class="cls-4" d="M32.43,32.29l-.43.43-.43-.43a3.34,3.34,0,0,0-4.73,0h0a3.35,3.35,0,0,0,0,4.74l.42.42h0l4.32,4.32a.6.6,0,0,0,.84,0l4.32-4.32.42-.42a3.35,3.35,0,0,0,0-4.74h0A3.34,3.34,0,0,0,32.43,32.29Z"/></svg>