<svg id="Layer_1" data-name="Layer 1" xmlns="http://www.w3.org/2000/svg" viewBox="0 0 64 64"><defs><style>.cls-1{fill:#156cdd;}.cls-2{fill:#dfe8f4;}.cls-3{fill:#ccd8e5;}.cls-4{fill:#0795ff;}</style></defs><title>box, package, parcel, open, unbox</title><path class="cls-1" d="M54.51,34.12H36.76L32,26.29H51.23l4,6.57A.83.83,0,0,1,54.51,34.12Z"/><rect class="cls-2" x="12.77" y="26.29" width="19.23" height="19.25"/><path class="cls-3" d="M12.77,29.92v4.2L18.66,40A18.84,18.84,0,0,0,32,45.54h0V26.29H23.16Z"/><rect class="cls-4" x="31.99" y="26.29" width="19.23" height="19.25"/><path class="cls-1" d="M51.22,29.92v4.2L45.33,40A18.86,18.86,0,0,1,32,45.54h0V26.29H51.23Z"/><path class="cls-3" d="M32,26.29H12.77l-4-6.57a.83.83,0,0,1,.71-1.26H26.78a.83.83,0,0,1,.71.4Z"/><path class="cls-2" d="M9.49,34.12H26.78a.83.83,0,0,0,.71-.4L32,26.29H12.77l-4,6.57A.83.83,0,0,0,9.49,34.12Z"/><path class="cls-1" d="M32,26.29H51.23l4-6.57a.83.83,0,0,0-.71-1.26H37.22a.83.83,0,0,0-.71.4Z"/></svg>