<svg id="Layer_1" data-name="Layer 1" xmlns="http://www.w3.org/2000/svg" viewBox="0 0 64 64"><defs><style>.cls-1{fill:#156cdd;}.cls-2{fill:#0795ff;}.cls-3{fill:#dfe8f4;}.cls-4{fill:#ccd8e5;}</style></defs><title>brush, teeth, hygiene, clean</title><path class="cls-1" d="M55.77,43.09H51.15a.23.23,0,0,1-.23-.23h0a2.12,2.12,0,0,0-2.11-2.11H9.28A1.28,1.28,0,0,0,8,42v2.69a6.54,6.54,0,0,0,6.53,6.54h31A5.38,5.38,0,0,0,48.93,50a4.67,4.67,0,0,1,3-1.13h3.89a.23.23,0,0,0,.23-.23V43.32A.23.23,0,0,0,55.77,43.09Z"/><path class="cls-2" d="M9,40.75H49a1.89,1.89,0,0,1,1.89,1.89v3.22a5.41,5.41,0,0,1-5.41,5.41H14.3A6.3,6.3,0,0,1,8,45V41.8A1,1,0,0,1,9,40.75Z"/><path class="cls-3" d="M11.29,27.26H12a1.66,1.66,0,0,1,1.66,1.66V40.75a0,0,0,0,1,0,0h-4a0,0,0,0,1,0,0V28.92A1.66,1.66,0,0,1,11.29,27.26Z"/><rect class="cls-4" x="9.63" y="39.26" width="4" height="1.49"/><path class="cls-3" d="M17.12,27.26h.67a1.66,1.66,0,0,1,1.66,1.66V40.75a0,0,0,0,1,0,0h-4a0,0,0,0,1,0,0V28.92A1.66,1.66,0,0,1,17.12,27.26Z"/><rect class="cls-4" x="15.46" y="39.26" width="4" height="1.49"/><path class="cls-3" d="M23,27.26h.67a1.66,1.66,0,0,1,1.66,1.66V40.75a0,0,0,0,1,0,0h-4a0,0,0,0,1,0,0V28.92A1.66,1.66,0,0,1,23,27.26Z"/><rect class="cls-4" x="21.29" y="39.26" width="4" height="1.49"/><path class="cls-3" d="M28.79,27.26h.67a1.66,1.66,0,0,1,1.66,1.66V40.75a0,0,0,0,1,0,0h-4a0,0,0,0,1,0,0V28.92A1.66,1.66,0,0,1,28.79,27.26Z"/><rect class="cls-4" x="27.13" y="39.26" width="4" height="1.49"/><path class="cls-3" d="M34.62,27.26h.67A1.66,1.66,0,0,1,37,28.92V40.75a0,0,0,0,1,0,0H33a0,0,0,0,1,0,0V28.92A1.66,1.66,0,0,1,34.62,27.26Z"/><rect class="cls-4" x="32.96" y="39.26" width="4" height="1.49"/><path class="cls-3" d="M40.45,27.26h.67a1.66,1.66,0,0,1,1.66,1.66V40.75a0,0,0,0,1,0,0h-4a0,0,0,0,1,0,0V28.92A1.66,1.66,0,0,1,40.45,27.26Z"/><rect class="cls-4" x="38.79" y="39.26" width="4" height="1.49"/><path class="cls-3" d="M46.29,27.26H47a1.66,1.66,0,0,1,1.66,1.66V40.75a0,0,0,0,1,0,0h-4a0,0,0,0,1,0,0V28.92A1.66,1.66,0,0,1,46.29,27.26Z"/><rect class="cls-4" x="44.63" y="39.26" width="4" height="1.49"/><path class="cls-2" d="M40.13,16.57H18.25a10.22,10.22,0,0,1-7.82-3.64h0a.53.53,0,0,0-.93.34V17.8a10.24,10.24,0,0,0,4.21,8.28h0a6.13,6.13,0,0,0,3.63,1.18H44.6a4,4,0,0,0,3.53-5.94h0A9.12,9.12,0,0,0,40.13,16.57Z"/></svg>