<svg id="Layer_1" data-name="Layer 1" xmlns="http://www.w3.org/2000/svg" viewBox="0 0 64 64"><defs><style>.cls-1{fill:#156cdd;}.cls-2{fill:#0795ff;}.cls-3{fill:#ccd8e5;}.cls-4{fill:#fff;}</style></defs><title>cd, dvd, disk, storage, multimedia</title><circle class="cls-1" cx="32" cy="32" r="24"/><path class="cls-2" d="M15.84,36.92l-4,1.23A21.12,21.12,0,0,0,25.85,52.2l1.23-4A16.84,16.84,0,0,1,15.84,36.92Z"/><path class="cls-2" d="M46.93,17.07a20.88,20.88,0,0,0-8.78-5.27l-1.23,4A16.84,16.84,0,0,1,48.16,27.08l4-1.23A20.88,20.88,0,0,0,46.93,17.07Z"/><path class="cls-2" d="M21.66,35.15l-2.59.79a13.5,13.5,0,0,0,9,9l.79-2.59a10.74,10.74,0,0,1-7.19-7.19Z"/><path class="cls-2" d="M41.56,22.44a13.53,13.53,0,0,0-5.62-3.37l-.79,2.59a10.74,10.74,0,0,1,7.19,7.19l2.59-.79A13.53,13.53,0,0,0,41.56,22.44Z"/><circle class="cls-2" cx="32" cy="32" r="8.55"/><circle class="cls-3" cx="32" cy="32" r="8.55"/><circle class="cls-4" cx="32" cy="32" r="3.21"/></svg>