<svg id="Layer_1" data-name="Layer 1" xmlns="http://www.w3.org/2000/svg" viewBox="0 0 64 64"><defs><style>.cls-1{fill:#dfe8f4;}.cls-2{fill:#ccd8e5;}.cls-3{fill:#0795ff;}.cls-4{fill:#156cdd;}</style></defs><title>charts, chart, analytics, statistics</title><path class="cls-1" d="M12.92,10.46A2.46,2.46,0,1,1,10.46,8,2.46,2.46,0,0,1,12.92,10.46Z"/><path class="cls-1" d="M12.92,16.62a2.46,2.46,0,1,1-2.46-2.47A2.46,2.46,0,0,1,12.92,16.62Z"/><path class="cls-2" d="M12.92,22.77a2.46,2.46,0,1,1-2.46-2.46A2.46,2.46,0,0,1,12.92,22.77Z"/><path class="cls-2" d="M12.92,28.92a2.46,2.46,0,1,1-2.46-2.46A2.46,2.46,0,0,1,12.92,28.92Z"/><path class="cls-2" d="M12.92,35.08a2.46,2.46,0,1,1-2.46-2.46A2.46,2.46,0,0,1,12.92,35.08Z"/><path class="cls-3" d="M12.92,41.23a2.46,2.46,0,1,1-2.46-2.46A2.46,2.46,0,0,1,12.92,41.23Z"/><path class="cls-3" d="M12.92,47.38a2.46,2.46,0,1,1-2.46-2.46A2.47,2.47,0,0,1,12.92,47.38Z"/><path class="cls-4" d="M12.92,53.54a2.46,2.46,0,1,1-2.46-2.46A2.46,2.46,0,0,1,12.92,53.54Z"/><path class="cls-1" d="M19.08,10.46A2.47,2.47,0,1,1,16.62,8,2.46,2.46,0,0,1,19.08,10.46Z"/><path class="cls-1" d="M19.08,16.62a2.47,2.47,0,1,1-2.46-2.47A2.47,2.47,0,0,1,19.08,16.62Z"/><path class="cls-1" d="M19.08,22.77a2.47,2.47,0,1,1-2.46-2.46A2.46,2.46,0,0,1,19.08,22.77Z"/><path class="cls-2" d="M19.08,28.92a2.47,2.47,0,1,1-2.46-2.46A2.46,2.46,0,0,1,19.08,28.92Z"/><path class="cls-2" d="M19.08,35.08a2.47,2.47,0,1,1-2.46-2.46A2.46,2.46,0,0,1,19.08,35.08Z"/><path class="cls-2" d="M19.08,41.23a2.47,2.47,0,1,1-2.46-2.46A2.46,2.46,0,0,1,19.08,41.23Z"/><path class="cls-4" d="M19.08,47.38a2.47,2.47,0,1,1-2.46-2.46A2.47,2.47,0,0,1,19.08,47.38Z"/><path class="cls-4" d="M19.08,53.54a2.47,2.47,0,1,1-2.46-2.46A2.46,2.46,0,0,1,19.08,53.54Z"/><path class="cls-1" d="M25.23,10.46A2.46,2.46,0,1,1,22.77,8,2.46,2.46,0,0,1,25.23,10.46Z"/><path class="cls-1" d="M25.23,16.62a2.46,2.46,0,1,1-2.46-2.47A2.46,2.46,0,0,1,25.23,16.62Z"/><path class="cls-1" d="M25.23,22.77a2.46,2.46,0,1,1-2.46-2.46A2.46,2.46,0,0,1,25.23,22.77Z"/><path class="cls-1" d="M25.23,28.92a2.46,2.46,0,1,1-2.46-2.46A2.46,2.46,0,0,1,25.23,28.92Z"/><path class="cls-3" d="M25.23,35.08a2.46,2.46,0,1,1-2.46-2.46A2.46,2.46,0,0,1,25.23,35.08Z"/><path class="cls-3" d="M25.23,41.23a2.46,2.46,0,1,1-2.46-2.46A2.46,2.46,0,0,1,25.23,41.23Z"/><path class="cls-3" d="M25.23,47.38a2.46,2.46,0,1,1-2.46-2.46A2.47,2.47,0,0,1,25.23,47.38Z"/><path class="cls-4" d="M25.23,53.54a2.46,2.46,0,1,1-2.46-2.46A2.46,2.46,0,0,1,25.23,53.54Z"/><path class="cls-1" d="M31.38,10.46A2.46,2.46,0,1,1,28.92,8,2.46,2.46,0,0,1,31.38,10.46Z"/><path class="cls-1" d="M31.38,16.62a2.46,2.46,0,1,1-2.46-2.47A2.46,2.46,0,0,1,31.38,16.62Z"/><path class="cls-1" d="M31.38,22.77a2.46,2.46,0,1,1-2.46-2.46A2.46,2.46,0,0,1,31.38,22.77Z"/><path class="cls-2" d="M31.38,28.92a2.46,2.46,0,1,1-2.46-2.46A2.46,2.46,0,0,1,31.38,28.92Z"/><path class="cls-2" d="M31.38,35.08a2.46,2.46,0,1,1-2.46-2.46A2.46,2.46,0,0,1,31.38,35.08Z"/><path class="cls-3" d="M31.38,41.23a2.46,2.46,0,1,1-2.46-2.46A2.46,2.46,0,0,1,31.38,41.23Z"/><path class="cls-4" d="M31.38,47.38a2.46,2.46,0,1,1-2.46-2.46A2.47,2.47,0,0,1,31.38,47.38Z"/><path class="cls-4" d="M31.38,53.54a2.46,2.46,0,1,1-2.46-2.46A2.46,2.46,0,0,1,31.38,53.54Z"/><path class="cls-1" d="M37.54,10.46A2.46,2.46,0,1,1,35.08,8,2.46,2.46,0,0,1,37.54,10.46Z"/><path class="cls-1" d="M37.54,16.62a2.46,2.46,0,1,1-2.46-2.47A2.46,2.46,0,0,1,37.54,16.62Z"/><path class="cls-2" d="M37.54,22.77a2.46,2.46,0,1,1-2.46-2.46A2.46,2.46,0,0,1,37.54,22.77Z"/><path class="cls-3" d="M37.54,28.92a2.46,2.46,0,1,1-2.46-2.46A2.46,2.46,0,0,1,37.54,28.92Z"/><path class="cls-3" d="M37.54,35.08a2.46,2.46,0,1,1-2.46-2.46A2.46,2.46,0,0,1,37.54,35.08Z"/><path class="cls-3" d="M37.54,41.23a2.46,2.46,0,1,1-2.46-2.46A2.46,2.46,0,0,1,37.54,41.23Z"/><path class="cls-3" d="M37.54,47.38a2.46,2.46,0,1,1-2.46-2.46A2.47,2.47,0,0,1,37.54,47.38Z"/><path class="cls-4" d="M37.54,53.54a2.46,2.46,0,1,1-2.46-2.46A2.46,2.46,0,0,1,37.54,53.54Z"/><path class="cls-1" d="M43.69,10.46A2.46,2.46,0,1,1,41.23,8,2.46,2.46,0,0,1,43.69,10.46Z"/><path class="cls-1" d="M43.69,16.62a2.46,2.46,0,1,1-2.46-2.47A2.46,2.46,0,0,1,43.69,16.62Z"/><path class="cls-1" d="M43.69,22.77a2.46,2.46,0,1,1-2.46-2.46A2.46,2.46,0,0,1,43.69,22.77Z"/><path class="cls-2" d="M43.69,28.92a2.46,2.46,0,1,1-2.46-2.46A2.46,2.46,0,0,1,43.69,28.92Z"/><path class="cls-3" d="M43.69,35.08a2.46,2.46,0,1,1-2.46-2.46A2.46,2.46,0,0,1,43.69,35.08Z"/><path class="cls-3" d="M43.69,41.23a2.46,2.46,0,1,1-2.46-2.46A2.46,2.46,0,0,1,43.69,41.23Z"/><path class="cls-3" d="M43.69,47.38a2.46,2.46,0,1,1-2.46-2.46A2.47,2.47,0,0,1,43.69,47.38Z"/><path class="cls-4" d="M43.69,53.54a2.46,2.46,0,1,1-2.46-2.46A2.46,2.46,0,0,1,43.69,53.54Z"/><path class="cls-1" d="M49.85,10.46A2.47,2.47,0,1,1,47.38,8,2.47,2.47,0,0,1,49.85,10.46Z"/><path class="cls-3" d="M49.85,16.62a2.47,2.47,0,1,1-2.47-2.47A2.47,2.47,0,0,1,49.85,16.62Z"/><path class="cls-3" d="M49.85,22.77a2.47,2.47,0,1,1-2.47-2.46A2.47,2.47,0,0,1,49.85,22.77Z"/><path class="cls-3" d="M49.85,28.92a2.47,2.47,0,1,1-2.47-2.46A2.47,2.47,0,0,1,49.85,28.92Z"/><path class="cls-3" d="M49.85,35.08a2.47,2.47,0,1,1-2.47-2.46A2.47,2.47,0,0,1,49.85,35.08Z"/><path class="cls-4" d="M49.85,41.23a2.47,2.47,0,1,1-2.47-2.46A2.47,2.47,0,0,1,49.85,41.23Z"/><path class="cls-4" d="M49.85,47.38a2.47,2.47,0,1,1-2.47-2.46A2.48,2.48,0,0,1,49.85,47.38Z"/><path class="cls-4" d="M49.85,53.54a2.47,2.47,0,1,1-2.47-2.46A2.47,2.47,0,0,1,49.85,53.54Z"/><path class="cls-3" d="M56,10.46A2.46,2.46,0,1,1,53.54,8,2.46,2.46,0,0,1,56,10.46Z"/><path class="cls-3" d="M56,16.62a2.46,2.46,0,1,1-2.46-2.47A2.46,2.46,0,0,1,56,16.62Z"/><path class="cls-3" d="M56,22.77a2.46,2.46,0,1,1-2.46-2.46A2.46,2.46,0,0,1,56,22.77Z"/><path class="cls-3" d="M56,28.92a2.46,2.46,0,1,1-2.46-2.46A2.46,2.46,0,0,1,56,28.92Z"/><path class="cls-4" d="M56,35.08a2.46,2.46,0,1,1-2.46-2.46A2.46,2.46,0,0,1,56,35.08Z"/><path class="cls-4" d="M56,41.23a2.46,2.46,0,1,1-2.46-2.46A2.46,2.46,0,0,1,56,41.23Z"/><path class="cls-4" d="M56,47.38a2.46,2.46,0,1,1-2.46-2.46A2.47,2.47,0,0,1,56,47.38Z"/><path class="cls-4" d="M56,53.54a2.46,2.46,0,1,1-2.46-2.46A2.46,2.46,0,0,1,56,53.54Z"/></svg>