<svg id="Layer_1" data-name="Layer 1" xmlns="http://www.w3.org/2000/svg" viewBox="0 0 64 64"><defs><style>.cls-1{fill:#156cdd;}.cls-2{fill:#0795ff;}.cls-3{fill:#dfe8f4;}</style></defs><title>charts, chart, statistics, analytics, arrow</title><rect class="cls-1" x="14.06" y="39" width="6.25" height="15.25"/><rect class="cls-2" x="24.31" y="30.63" width="6.25" height="23.63"/><rect class="cls-2" x="34.56" y="35.09" width="6.25" height="19.16"/><rect class="cls-2" x="44.81" y="25.95" width="6.25" height="28.3"/><path class="cls-3" d="M55.87,54.14,54.75,53a.43.43,0,0,0-.74.31v.38H10.29V10h.38A.43.43,0,0,0,11,9.25L9.86,8.13a.43.43,0,0,0-.61,0L8.13,9.25a.43.43,0,0,0,.31.74h.38V55.18H54v.38a.43.43,0,0,0,.74.31l1.12-1.12A.43.43,0,0,0,55.87,54.14Z"/><rect class="cls-2" x="13.99" y="34.19" width="0.5" height="1" transform="translate(-20.67 20.99) rotate(-46.26)"/><path class="cls-2" d="M15.44,34.16l-.73-.69.67-.7.72.69Zm1.33-1.4-.72-.69.67-.7.72.69Zm1.34-1.39-.73-.7.67-.7.73.7ZM19.44,30l-.72-.69.67-.7.72.69Zm1.34-1.4-.73-.69.67-.7.73.69Zm1.33-1.4-.72-.69.67-.7.72.69Zm1.34-1.4-.72-.69.66-.7.73.7Zm1.33-1.39-.72-.69.67-.7.72.69ZM26.12,23l-.72-.69.66-.7.73.69Z"/><polygon class="cls-2" points="27.45 21.58 26.73 20.89 27.37 20.22 28.13 20.74 27.57 21.57 27.51 21.53 27.45 21.58"/><path class="cls-2" d="M36.14,27.42l-.86-.58.56-.83.86.58Zm-1.72-1.17-.85-.58.56-.83.86.58Zm-1.71-1.17-.86-.58.57-.83.85.58ZM31,23.91l-.86-.58.56-.83.86.58Zm-1.72-1.17-.85-.58.56-.83.86.58Z"/><polygon class="cls-2" points="37.75 28.52 36.99 28.01 37.56 27.18 37.63 27.23 37.69 27.17 38.39 27.88 37.75 28.52"/><path class="cls-2" d="M39.07,27.2l-.71-.71.68-.67.71.7Zm1.35-1.35-.71-.71.68-.68.71.71Zm1.35-1.35-.7-.71.67-.68.71.71Zm1.35-1.36-.7-.7.67-.68.71.71Zm1.36-1.35-.71-.7.68-.68.7.71Zm1.35-1.35-.71-.71.68-.67.7.71Zm1.35-1.35-.71-.71.68-.67.71.7Z"/><rect class="cls-2" x="48.1" y="16.71" width="0.5" height="1" transform="translate(2 39.24) rotate(-45)"/><polygon class="cls-1" points="49.53 20.07 47.53 20.07 47.53 18.03 45.49 18.03 45.49 16.03 49.53 16.03 49.53 20.07"/></svg>