<svg id="Layer_1" data-name="Layer 1" xmlns="http://www.w3.org/2000/svg" viewBox="0 0 64 64"><defs><style>.cls-1{fill:#0795ff;}.cls-2{fill:#ccd8e5;}.cls-3{fill:#156cdd;}.cls-4{fill:#dfe8f4;}.cls-5{fill:#fff;}</style></defs><title>chart, charts, statistics, analytics</title><polygon class="cls-1" points="49.38 41.96 42.94 35.52 38.78 39.68 14.83 15.73 14.83 47.71 14.83 55.25 56 55.25 56 41.96 49.38 41.96"/><polygon class="cls-2" points="49.14 31.72 40.71 23.29 26.68 37.32 23.84 34.48 14.83 43.48 14.83 55.25 56 56 56 24.52 49.14 31.72"/><polygon class="cls-3" points="37.15 38.04 35.17 36.06 15.98 55.25 19.94 55.25 37.15 38.04"/><polygon class="cls-3" points="24.69 35.33 23.84 34.48 14.83 43.48 14.83 45.18 24.69 35.33"/><polygon class="cls-3" points="32.64 33.54 14.83 51.34 14.83 55.25 14.88 55.25 34.62 35.51 32.64 33.54"/><polygon class="cls-3" points="32.09 32.98 31.55 32.45 26.68 37.32 25.24 35.88 14.83 46.29 14.83 47.71 14.83 50.24 32.09 32.98"/><polygon class="cls-3" points="43.83 36.41 42.94 35.52 38.78 39.68 37.7 38.59 21.04 55.25 25 55.25 43.83 36.41"/><polygon class="cls-3" points="48.89 41.47 46.91 39.49 31.16 55.25 35.11 55.25 48.89 41.47"/><polygon class="cls-3" points="56 54.59 56 50.64 51.39 55.25 55.34 55.25 56 54.59"/><polygon class="cls-3" points="56 49.53 56 45.58 46.33 55.25 50.28 55.25 56 49.53"/><polygon class="cls-3" points="46.36 38.94 44.38 36.97 26.1 55.25 30.05 55.25 46.36 38.94"/><polygon class="cls-3" points="56 44.48 56 41.96 54.56 41.96 41.27 55.25 45.23 55.25 56 44.48"/><polygon class="cls-3" points="53.46 41.96 49.5 41.96 36.21 55.25 40.17 55.25 53.46 41.96"/><rect class="cls-4" x="8" y="8" width="1.5" height="48"/><rect class="cls-4" x="31.25" y="31.25" width="1.5" height="48" transform="translate(87.25 23.25) rotate(90)"/><rect class="cls-4" x="10.83" y="8" width="2.12" height="0.79"/><rect class="cls-4" x="10.83" y="10.31" width="1.06" height="0.79"/><rect class="cls-4" x="10.83" y="12.63" width="2.12" height="0.79"/><rect class="cls-4" x="10.83" y="14.94" width="1.06" height="0.79"/><rect class="cls-4" x="10.83" y="17.25" width="2.12" height="0.79"/><rect class="cls-4" x="10.83" y="19.56" width="1.06" height="0.79"/><rect class="cls-4" x="10.83" y="21.88" width="2.12" height="0.79"/><rect class="cls-4" x="10.83" y="24.19" width="1.06" height="0.79"/><rect class="cls-4" x="10.83" y="26.5" width="2.12" height="0.79"/><rect class="cls-4" x="10.83" y="28.81" width="1.06" height="0.79"/><rect class="cls-4" x="10.83" y="31.13" width="2.12" height="0.79"/><rect class="cls-4" x="10.83" y="33.44" width="1.06" height="0.79"/><rect class="cls-4" x="10.83" y="35.75" width="2.12" height="0.79"/><rect class="cls-4" x="10.83" y="38.06" width="1.06" height="0.79"/><rect class="cls-4" x="10.83" y="40.38" width="2.12" height="0.79"/><rect class="cls-4" x="10.83" y="42.69" width="1.06" height="0.79"/><rect class="cls-4" x="10.83" y="45" width="2.12" height="0.79"/><rect class="cls-4" x="10.83" y="47.31" width="1.06" height="0.79"/><rect class="cls-4" x="10.83" y="49.63" width="2.12" height="0.79"/><rect class="cls-4" x="10.83" y="51.94" width="1.06" height="0.79"/><path class="cls-4" d="M32.69,32.45a1.11,1.11,0,1,1-1.11-1.11A1.11,1.11,0,0,1,32.69,32.45Z"/><path class="cls-5" d="M31.58,31.34a1.11,1.11,0,1,1,0,2.21,1.11,1.11,0,0,1,0-2.21m0-1a2.11,2.11,0,1,0,2.11,2.11,2.11,2.11,0,0,0-2.11-2.11Z"/><path class="cls-4" d="M39.9,39.64a1.11,1.11,0,1,1-2.21,0,1.11,1.11,0,0,1,2.21,0Z"/><path class="cls-5" d="M38.79,38.54a1.11,1.11,0,1,1-1.1,1.1,1.11,1.11,0,0,1,1.1-1.1m0-1a2.11,2.11,0,1,0,2.11,2.1,2.1,2.1,0,0,0-2.11-2.1Z"/><circle class="cls-1" cx="40.69" cy="23.32" r="1.1"/><path class="cls-5" d="M40.69,22.21a1.11,1.11,0,1,1,0,2.21,1.11,1.11,0,0,1,0-2.21m0-1a2.11,2.11,0,1,0,2.11,2.11,2.11,2.11,0,0,0-2.11-2.11Z"/></svg>