<svg id="Layer_1" data-name="Layer 1" xmlns="http://www.w3.org/2000/svg" viewBox="0 0 64 64"><defs><style>.cls-1{fill:#dfe8f4;}.cls-2{fill:#ccd8e5;}.cls-3{fill:#0795ff;}.cls-4{fill:#156cdd;}.cls-5{fill:#fff;}</style></defs><title>clipboard, chart, money, finance, dollar</title><rect class="cls-1" x="13.33" y="13.36" width="37.33" height="42.64" rx="4.42"/><path class="cls-2" d="M21.5,13.56H42.17a0,0,0,0,1,0,0v1.83a2.49,2.49,0,0,1-2.49,2.49H24a2.49,2.49,0,0,1-2.49-2.49V13.56A0,0,0,0,1,21.5,13.56Z"/><path class="cls-3" d="M39.68,11.07H37.13A2.83,2.83,0,0,1,34.7,9.58a3.1,3.1,0,0,0-5.4,0,2.82,2.82,0,0,1-2.43,1.49H24.33a2.58,2.58,0,0,0-2.83,2.49v.84a1.26,1.26,0,0,0,1.26,1.26H40.91a1.27,1.27,0,0,0,1.26-1.26v-.84A2.48,2.48,0,0,0,39.68,11.07Z"/><path class="cls-4" d="M34.7,9.58a3.1,3.1,0,0,0-5.4,0,2.82,2.82,0,0,1-2.43,1.49H37.13A2.83,2.83,0,0,1,34.7,9.58Z"/><path class="cls-5" d="M32,35a1.42,1.42,0,0,1,0-2.83,1.4,1.4,0,0,1,1.22.7,1.34,1.34,0,0,0,1.13.72h0a1.57,1.57,0,0,0,1.33-2.42A4.39,4.39,0,0,0,34,29.68a1,1,0,0,1-.5-.88h0A1.5,1.5,0,0,0,32,27.3h0a1.5,1.5,0,0,0-1.5,1.5h0a1,1,0,0,1-.52.88A4.47,4.47,0,0,0,28.25,36,4.2,4.2,0,0,0,32,38a1.42,1.42,0,0,1,0,2.83,1.4,1.4,0,0,1-1.22-.7,1.34,1.34,0,0,0-1.13-.72h0a1.58,1.58,0,0,0-1.29,2.48A4.44,4.44,0,0,0,30,43.32a1,1,0,0,1,.5.88h0A1.5,1.5,0,0,0,32,45.7h0a1.5,1.5,0,0,0,1.5-1.5h0a1,1,0,0,1,.52-.88A4.49,4.49,0,0,0,35.7,36.9,4.2,4.2,0,0,0,32,35Z"/></svg>