<svg id="Layer_1" data-name="Layer 1" xmlns="http://www.w3.org/2000/svg" viewBox="0 0 64 64"><defs><style>.cls-1{fill:#ccd8e5;}.cls-2{fill:#dfe8f4;}.cls-3{fill:#0795ff;}.cls-4{fill:#156cdd;}</style></defs><title>computer, pc, monitor, device, electronics</title><path class="cls-1" d="M24.08,52.46h0a1,1,0,0,1-1-1V50.11H20.38V51.5a1,1,0,0,1-1,1h0A1.52,1.52,0,0,0,17.9,54h0a.76.76,0,0,0,.77.76h6.16A.76.76,0,0,0,25.6,54h0A1.52,1.52,0,0,0,24.08,52.46Z"/><path class="cls-1" d="M24.65,52.46h-5.8a1,1,0,0,0-1,.94V54a.76.76,0,0,0,.77.76h6.16A.76.76,0,0,0,25.6,54V53.4A1,1,0,0,0,24.65,52.46Z"/><rect class="cls-1" x="8" y="31.35" width="27.5" height="19.48" rx="1.15"/><path class="cls-2" d="M10,32.72H33.49a.64.64,0,0,1,.64.64V49.22a1,1,0,0,1-1,1H10.41a1,1,0,0,1-1-1V33.36A.64.64,0,0,1,10,32.72Z"/><rect class="cls-1" x="9.37" y="47.61" width="24.75" height="0.58"/><path class="cls-1" d="M8,48.09v1.59a1.15,1.15,0,0,0,1.15,1.15h25.2a1.15,1.15,0,0,0,1.15-1.15V48.09Z"/><path class="cls-3" d="M32,11.07V52.7a1.81,1.81,0,0,0,1.81,1.81H35a1.82,1.82,0,0,0,1.7-1.18l.12-.33a1.82,1.82,0,0,1,1.7-1.18h11A1.82,1.82,0,0,1,51.19,53l.12.33A1.82,1.82,0,0,0,53,54.51h1.18A1.81,1.81,0,0,0,56,52.7V11.07a1.81,1.81,0,0,0-1.81-1.81H33.81A1.81,1.81,0,0,0,32,11.07Z"/><rect class="cls-4" x="37.31" y="29.77" width="13.38" height="2.11"/><rect class="cls-4" x="37.31" y="34.86" width="13.38" height="2.11"/><circle class="cls-4" cx="44" cy="22.76" r="2"/></svg>