<svg id="Layer_1" data-name="Layer 1" xmlns="http://www.w3.org/2000/svg" viewBox="0 0 64 64"><defs><style>.cls-1{fill:#156cdd;}.cls-2{fill:#dfe8f4;}.cls-3{fill:#0795ff;}.cls-4{fill:#ccd8e5;}</style></defs><title>delivery, man, box, package, man</title><path class="cls-1" d="M24.9,12.26H22.05V11H24.9a.65.65,0,0,1,.65.65h0A.66.66,0,0,1,24.9,12.26Z"/><path class="cls-2" d="M23.29,14.11V11a2.08,2.08,0,0,0-1.05-1.81l-1.61-.94a2.13,2.13,0,0,0-2.1,0l-1.61.94A2.08,2.08,0,0,0,15.87,11v3.12a3.24,3.24,0,0,0,1.63,2.82l.52.3a3.11,3.11,0,0,0,3.12,0l.52-.3A3.24,3.24,0,0,0,23.29,14.11Z"/><path class="cls-3" d="M19.58,12a22.39,22.39,0,0,1,3.71.3V11a2.08,2.08,0,0,0-1.05-1.81l-1.61-.94a2.13,2.13,0,0,0-2.1,0l-1.61.94A2.08,2.08,0,0,0,15.87,11v1.27A22.3,22.3,0,0,1,19.58,12Z"/><path class="cls-2" d="M15.76,20.31,9.54,26.67a2.35,2.35,0,0,0-.68,1.67h0a2.39,2.39,0,0,0,2.39,2.39h4.88Z"/><path class="cls-2" d="M19.44,18.79c-3.27,0-6,2.34-7,11.94H15.7a.92.92,0,0,1,.92.92h0a.92.92,0,0,1-.92.92H14.39a2.19,2.19,0,0,0-2.2,2.09c0,1.31-.08,2.71-.08,4.23v15.9a1.25,1.25,0,0,0,2.46.28L18.06,40a1.42,1.42,0,0,1,1.38-1.1h0A1.42,1.42,0,0,1,20.82,40l3.49,15.08a1.25,1.25,0,0,0,2.46-.28V38.89C26.77,22.38,23.49,18.79,19.44,18.79Z"/><path class="cls-2" d="M19.44,18.79c-3.27,0-6,2.34-7,11.94H15.7a.92.92,0,0,1,.92.92h0a.92.92,0,0,1-.92.92H14.39a2.19,2.19,0,0,0-2.2,2.09c0,1.31-.08,2.71-.08,4.23v15.9a1.25,1.25,0,0,0,2.46.28L18.06,40a1.42,1.42,0,0,1,1.38-1.1h0A1.42,1.42,0,0,1,20.82,40l3.49,15.08a1.25,1.25,0,0,0,2.46-.28V38.89C26.77,22.38,23.49,18.79,19.44,18.79Z"/><polygon class="cls-4" points="19.59 19.73 14.52 27.96 20.24 30.38 23.52 27.96 19.59 19.73"/><path class="cls-4" d="M26,27.69l-10.32,3a.92.92,0,0,1,0,1.84H14.39a2.44,2.44,0,0,0-.48,0H26.58C26.45,30.75,26.26,29.11,26,27.69Z"/><path class="cls-2" d="M34.11,27.89l-2-.63a11.66,11.66,0,0,1-4.59-2.72l-4.67-4.49,2,8.48,1.35.32h0l-.12-.8a1,1,0,0,1,1-1.14h0a1,1,0,0,1,1,.83l.12.73a1,1,0,0,0,.85.85,24.12,24.12,0,0,0,2.82.17h2.06a.81.81,0,0,0,.81-.82A.83.83,0,0,0,34.11,27.89Z"/><rect class="cls-3" x="19.44" y="19.33" width="12.58" height="11.4" rx="0.9"/><path class="cls-1" d="M23.92,19.33h3.62a0,0,0,0,1,0,0V22a.61.61,0,0,1-.61.61H24.53a.61.61,0,0,1-.61-.61V19.33A0,0,0,0,1,23.92,19.33Z"/><path class="cls-4" d="M16.72,31.65a.92.92,0,0,1-.92.92H14.49a2.19,2.19,0,0,0-2.2,2.09c-.06,1.31-.09,2.71-.09,4.23v15.9a1.25,1.25,0,0,0,2.46.28L18.16,40a1.42,1.42,0,0,1,1.38-1.1h0a2.82,2.82,0,0,1-2.82-2.82Z"/><path class="cls-2" d="M20.25,30.73H14.52V28l5.83.57a1.1,1.1,0,0,1,1,1.1h0A1.1,1.1,0,0,1,20.25,30.73Z"/><path class="cls-4" d="M16.62,31.65a.92.92,0,0,1-.92.92H14.39a2.19,2.19,0,0,0-2.2,2.09c0,1.31-.08,2.71-.08,4.23v15.9a1.25,1.25,0,0,0,2.46.28L18.06,40a1.42,1.42,0,0,1,1.38-1.1h0A1.42,1.42,0,0,1,20.82,40l3.49,15.08a1.25,1.25,0,0,0,2.46-.28V38.89c0-3-.11-5.56-.31-7.77h-10A.92.92,0,0,1,16.62,31.65Z"/><path class="cls-3" d="M30.88,44.64H42.56a0,0,0,0,1,0,0V56a0,0,0,0,1,0,0H30.88a.9.9,0,0,1-.9-.9V45.53A.9.9,0,0,1,30.88,44.64Z"/><path class="cls-1" d="M34.47,44.64h3.62a0,0,0,0,1,0,0v2.63a.61.61,0,0,1-.61.61H35.08a.61.61,0,0,1-.61-.61V44.64A0,0,0,0,1,34.47,44.64Z"/><path class="cls-1" d="M42.56,44.64H54.25a.9.9,0,0,1,.9.9v9.61a.9.9,0,0,1-.9.9H42.56a0,0,0,0,1,0,0V44.64A0,0,0,0,1,42.56,44.64Z"/><path class="cls-3" d="M47,44.64h3.62a0,0,0,0,1,0,0v2.63a.61.61,0,0,1-.61.61H47.66a.61.61,0,0,1-.61-.61V44.64A0,0,0,0,1,47,44.64Z"/><path class="cls-3" d="M39,33.24H49.77a.9.9,0,0,1,.9.9v10.5a0,0,0,0,1,0,0H38.08a0,0,0,0,1,0,0V34.13A.9.9,0,0,1,39,33.24Z"/><path class="cls-1" d="M42.56,33.24h3.62a0,0,0,0,1,0,0v2.63a.61.61,0,0,1-.61.61H43.18a.61.61,0,0,1-.61-.61V33.24A0,0,0,0,1,42.56,33.24Z"/></svg>