<svg id="Layer_1" data-name="Layer 1" xmlns="http://www.w3.org/2000/svg" viewBox="0 0 64 64"><defs><style>.cls-1{fill:#dfe8f4;}.cls-2{fill:#ccd8e5;}.cls-3{fill:#0795ff;}.cls-4{fill:#156cdd;}</style></defs><title>dollar, finance, money, cash, payment</title><rect class="cls-1" x="16.49" y="26" width="39.5" height="24" rx="2.62"/><circle class="cls-2" cx="36.24" cy="38" r="7.04"/><circle class="cls-2" cx="21.4" cy="45.07" r="1.38"/><circle class="cls-2" cx="51.08" cy="30.93" r="1.38"/><rect class="cls-3" x="8.01" y="14" width="39.5" height="24" rx="2.62"/><path class="cls-4" d="M44.89,14H10.63A2.62,2.62,0,0,0,8,16.62V35.38A2.62,2.62,0,0,0,10.63,38H44.89a2.62,2.62,0,0,0,2.62-2.62V16.62A2.62,2.62,0,0,0,44.89,14ZM16.26,33.79a5.42,5.42,0,0,0-4-4.05A1.61,1.61,0,0,1,11,28.18V18.62A1.62,1.62,0,0,1,12.63,17H37.7a1.59,1.59,0,0,1,1.56,1.21,5.43,5.43,0,0,0,4,4.05,1.6,1.6,0,0,1,1.21,1.56v9.56A1.61,1.61,0,0,1,42.89,35H17.82A1.61,1.61,0,0,1,16.26,33.79Z"/><path class="cls-4" d="M27.75,25a1,1,0,1,1,.87-1.49.93.93,0,0,0,.79.5h0a1.1,1.1,0,0,0,.93-1.69,3.23,3.23,0,0,0-1.18-1.05.68.68,0,0,1-.35-.61h0a1,1,0,0,0-1-1.05h0a1,1,0,0,0-1,1.05h0a.7.7,0,0,1-.37.62,3.13,3.13,0,0,0-1.21,4.43,3,3,0,0,0,2.64,1.39,1,1,0,0,1,0,2,1,1,0,0,1-.85-.49.94.94,0,0,0-.79-.5h0a1.1,1.1,0,0,0-.9,1.73,3.17,3.17,0,0,0,1.14,1,.67.67,0,0,1,.36.61h0a1,1,0,0,0,1,1h0a1,1,0,0,0,1-1h0a.71.71,0,0,1,.36-.62,3.13,3.13,0,0,0,1.18-4.49A2.94,2.94,0,0,0,27.75,25Z"/></svg>