<svg id="Layer_1" data-name="Layer 1" xmlns="http://www.w3.org/2000/svg" viewBox="0 0 64 64"><defs><style>.cls-1{fill:#ccd8e5;}.cls-2{fill:#dfe8f4;}.cls-3{fill:#0795ff;}.cls-4{fill:#156cdd;}.cls-5{fill:#fff;}</style></defs><title>emoji, emoticon, emotion, cowboy</title><circle class="cls-1" cx="32" cy="34.2" r="14.2" transform="translate(-6.89 60.31) rotate(-80.78)"/><path class="cls-2" d="M23.81,29.34,22.4,28.5a.91.91,0,0,1-.28-1.32A12.22,12.22,0,0,1,31,22.12.92.92,0,0,1,32,23v1.66a.89.89,0,0,1-.81.89A8.74,8.74,0,0,0,25,29.11.9.9,0,0,1,23.81,29.34Z"/><path class="cls-3" d="M32,15.59H32c-5.47,0-10,.67-9,2.66,1.37,2.71,0,3.42,0,3.42l9,.45H32l9-.45s-1.37-.71,0-3.42C42,16.26,37.5,15.6,32,15.59Z"/><path class="cls-2" d="M22.48,34.2H20.83a.91.91,0,0,1-.91-1l0-.33A.93.93,0,0,1,21,32.07l1.62.32a.89.89,0,0,1,.73,1v0A.9.9,0,0,1,22.48,34.2Z"/><path class="cls-4" d="M32,38a20.93,20.93,0,0,1-7.65-1.24.68.68,0,0,0-.92.81,8.83,8.83,0,0,0,17.14,0,.68.68,0,0,0-.92-.81A20.89,20.89,0,0,1,32,38Z"/><path class="cls-5" d="M23.93,39.05A19.94,19.94,0,0,0,32,40.48a19.94,19.94,0,0,0,8.07-1.43,8.75,8.75,0,0,0,.5-1.44.68.68,0,0,0-.92-.81A20.89,20.89,0,0,1,32,38a20.93,20.93,0,0,1-7.65-1.24.68.68,0,0,0-.92.81A8.75,8.75,0,0,0,23.93,39.05Z"/><path class="cls-4" d="M28.28,32c0,1.19-.48,2.16-1.08,2.16s-1.08-1-1.08-2.16.48-2.17,1.08-2.17S28.28,30.84,28.28,32Z"/><path class="cls-4" d="M37.88,32c0,1.19-.48,2.16-1.08,2.16s-1.08-1-1.08-2.16.48-2.17,1.08-2.17S37.88,30.84,37.88,32Z"/><polyline class="cls-4" points="32 23.5 32 23.5 32 23.5 32 23.5"/><path class="cls-4" d="M45.17,18.83c-1,.28-2,.54-3,.78a43.17,43.17,0,0,1-20.34,0c-1-.24-2-.5-3-.78-5.91-1.66-8.39,8.33-.46,11.37a10.4,10.4,0,0,1,6.24-6.87A10.15,10.15,0,0,1,30,23a12.87,12.87,0,0,0,4.29,0,10.06,10.06,0,0,1,5.15.38,10.4,10.4,0,0,1,6.24,6.87C53.56,27.16,51.08,17.17,45.17,18.83Z"/></svg>