<svg id="Layer_1" data-name="Layer 1" xmlns="http://www.w3.org/2000/svg" viewBox="0 0 64 64"><defs><style>.cls-1{fill:#ccd8e5;}.cls-2{fill:#dfe8f4;}.cls-3{fill:#156cdd;}.cls-4{fill:#fff;}</style></defs><title>emoji, emoticon, emotion, sad, sick</title><circle class="cls-1" cx="32" cy="32" r="16.41" transform="translate(-6.5 55.79) rotate(-76.72)"/><path class="cls-2" d="M22.54,26.39l-1.63-1a1.06,1.06,0,0,1-.32-1.53,14.11,14.11,0,0,1,10.25-5.83A1.07,1.07,0,0,1,32,19.1V21a1,1,0,0,1-.93,1,10.09,10.09,0,0,0-7.16,4.08A1,1,0,0,1,22.54,26.39Z"/><path class="cls-2" d="M21,32H19.1a1.06,1.06,0,0,1-1.05-1.15l0-.38a1.06,1.06,0,0,1,1.25-.93l1.88.36A1,1,0,0,1,22.05,31v0A1,1,0,0,1,21,32Z"/><ellipse class="cls-3" cx="37.27" cy="32" rx="1.32" ry="1.9"/><ellipse class="cls-3" cx="26.73" cy="32" rx="1.32" ry="1.9"/><path class="cls-3" d="M36.25,27.41a13.3,13.3,0,0,0,2.43,1.86,6.1,6.1,0,0,0,1.37.57,5.49,5.49,0,0,0,1.53.16,3.22,3.22,0,0,1-1.6.22,4.29,4.29,0,0,1-1.55-.51,5.61,5.61,0,0,1-1.26-1A4.88,4.88,0,0,1,36.25,27.41Z"/><path class="cls-3" d="M29.36,40a5.22,5.22,0,0,1,2.24-.88,6.14,6.14,0,0,1,2.45.09,5.93,5.93,0,0,1,2.23,1A5.58,5.58,0,0,1,37.86,42a20.51,20.51,0,0,0-2-1.14,8.69,8.69,0,0,0-2-.74A13,13,0,0,0,29.36,40Z"/><path class="cls-2" d="M15.85,29.17a15.95,15.95,0,0,0,.69,8.29A88.63,88.63,0,0,1,30,28.29a89.29,89.29,0,0,1,14.6-6.76,16.36,16.36,0,0,0-7.33-5,103.9,103.9,0,0,0-9.44,4.73A95.42,95.42,0,0,0,15.85,29.17Z"/><path class="cls-4" d="M48.33,30.46a16.37,16.37,0,0,0-3.51-8.69,104.24,104.24,0,0,0-10.74-3c-3.2-.7-6.29-1.24-9.13-1.61A16.48,16.48,0,0,0,17.67,24,88.79,88.79,0,0,1,34.08,26.2,93.61,93.61,0,0,1,48.33,30.46Z"/></svg>