<svg id="Layer_1" data-name="Layer 1" xmlns="http://www.w3.org/2000/svg" viewBox="0 0 64 64"><defs><style>.cls-1{fill:#ccd8e5;}.cls-2{fill:#dfe8f4;}.cls-3{fill:#156cdd;}.cls-4{fill:#fff;}</style></defs><title>emoticon, emoji, emotion, liar</title><circle class="cls-1" cx="31.97" cy="32" r="16.41" transform="translate(-6.52 55.76) rotate(-76.72)"/><path class="cls-2" d="M22.51,26.39l-1.64-1a1.06,1.06,0,0,1-.31-1.53,14.09,14.09,0,0,1,10.25-5.83A1.07,1.07,0,0,1,32,19.1V21A1,1,0,0,1,31,22a10.09,10.09,0,0,0-7.15,4.08A1,1,0,0,1,22.51,26.39Z"/><path class="cls-2" d="M21,32H19.06a1.06,1.06,0,0,1-1-1.15c0-.13,0-.25,0-.38a1.06,1.06,0,0,1,1.25-.93l1.87.36A1,1,0,0,1,22,31v0A1,1,0,0,1,21,32Z"/><path class="cls-3" d="M38.22,29.77c0,1.05-.59,1.9-1.32,1.9s-1.32-.85-1.32-1.9.59-1.91,1.32-1.91S38.22,28.72,38.22,29.77Z"/><ellipse class="cls-3" cx="27.69" cy="29.77" rx="1.32" ry="1.9"/><path class="cls-3" d="M34.44,41.86c0,.45-.61.17-2,.17s-3,.78-3,.33,1.61-1.74,3-1.74S34.44,41.42,34.44,41.86Z"/><path class="cls-3" d="M24.13,27.16a3.35,3.35,0,0,1,.58-1.37,4.79,4.79,0,0,1,1-1.1A4.16,4.16,0,0,1,27.08,24a2.62,2.62,0,0,1,1.52.05c-.46.24-.84.44-1.22.67s-.71.49-1.05.76C25.63,26,25,26.6,24.13,27.16Z"/><path class="cls-3" d="M40.45,25.61c-.84-.57-1.5-1.15-2.19-1.69-.34-.27-.7-.5-1.06-.75s-.76-.43-1.22-.67a2.54,2.54,0,0,1,1.52-.05,4.09,4.09,0,0,1,1.37.68,4.79,4.79,0,0,1,1,1.1A3.52,3.52,0,0,1,40.45,25.61Z"/><path class="cls-1" d="M33.44,29.52a5.06,5.06,0,0,0,4.44,4.23c3.92.42,10.13-.67,10.07,2s-1.65,4.54-8.9,3.46-5.61-.09-5.61-.09"/><path class="cls-4" d="M33.44,29.52a5.17,5.17,0,0,0,2.44,3.31,7.7,7.7,0,0,0,4.07.64c1.44,0,2.88-.08,4.36,0a11.83,11.83,0,0,1,2.25.28l.58.2a5.45,5.45,0,0,1,.57.32c.17.18.38.3.48.55l.18.34.05.37a4.4,4.4,0,0,1-.08,1.22,4.17,4.17,0,0,1-.43,1.16A3.6,3.6,0,0,1,46,39.41a10.14,10.14,0,0,1-4.48.41c-1.47-.13-2.89-.43-4.31-.66-.71-.13-1.42-.24-2.14-.33-.35,0-.71-.08-1.07-.09a3.14,3.14,0,0,0-.53,0c-.07,0-.18,0-.2.11s.07.15.14.2-.17-.09-.17-.2.13-.15.21-.19a2.65,2.65,0,0,1,.55-.1c.36,0,.73,0,1.09,0,.73,0,1.46.06,2.18.12,1.45.13,2.88.34,4.3.38a10.68,10.68,0,0,0,4.07-.52,2.77,2.77,0,0,0,1.39-1.16,3.42,3.42,0,0,0,.37-1.8c0-.06,0-.11,0-.17s0-.09-.07-.14-.16-.17-.23-.26a3.1,3.1,0,0,0-.36-.21l-.45-.16a11,11,0,0,0-2-.27c-1.42-.1-2.86,0-4.32-.13-.73,0-1.46-.09-2.19-.19a5,5,0,0,1-4.31-4.53Z"/></svg>