<svg id="Layer_1" data-name="Layer 1" xmlns="http://www.w3.org/2000/svg" viewBox="0 0 64 64"><defs><style>.cls-1{fill:#0795ff;}.cls-2{fill:#dfe8f4;}.cls-3{fill:#ccd8e5;}</style></defs><title>fence, real, estate, picket</title><rect class="cls-1" x="13.58" y="25.22" width="36.81" height="5.43"/><rect class="cls-1" x="13.58" y="37.13" width="36.81" height="5.43"/><path class="cls-2" d="M11.62,15,8.73,16.67A1.42,1.42,0,0,0,8,17.9V49.19h8.61V17.9a1.44,1.44,0,0,0-.7-1.23L13,15A1.42,1.42,0,0,0,11.62,15Z"/><path class="cls-2" d="M24.74,15l-2.9,1.67a1.42,1.42,0,0,0-.71,1.23V49.19h8.62V17.9A1.42,1.42,0,0,0,29,16.67L26.15,15A1.42,1.42,0,0,0,24.74,15Z"/><path class="cls-2" d="M37.85,15,35,16.67a1.42,1.42,0,0,0-.71,1.23V49.19h8.62V17.9a1.42,1.42,0,0,0-.71-1.23L39.26,15A1.42,1.42,0,0,0,37.85,15Z"/><path class="cls-2" d="M51,15l-2.9,1.67a1.44,1.44,0,0,0-.7,1.23V49.19H56V17.9a1.42,1.42,0,0,0-.71-1.23L52.38,15A1.42,1.42,0,0,0,51,15Z"/><path class="cls-3" d="M13.42,27.94a1.1,1.1,0,1,1-1.09-1.1A1.09,1.09,0,0,1,13.42,27.94Z"/><path class="cls-3" d="M13.42,39.84a1.1,1.1,0,1,1-1.09-1.09A1.09,1.09,0,0,1,13.42,39.84Z"/><path class="cls-3" d="M26.54,27.94a1.1,1.1,0,1,1-1.1-1.1A1.09,1.09,0,0,1,26.54,27.94Z"/><path class="cls-3" d="M26.54,39.84a1.1,1.1,0,1,1-1.1-1.09A1.1,1.1,0,0,1,26.54,39.84Z"/><path class="cls-3" d="M39.65,27.94a1.1,1.1,0,1,1-1.09-1.1A1.09,1.09,0,0,1,39.65,27.94Z"/><path class="cls-3" d="M39.65,39.84a1.1,1.1,0,1,1-1.09-1.09A1.09,1.09,0,0,1,39.65,39.84Z"/><path class="cls-3" d="M52.77,27.94a1.1,1.1,0,1,1-1.1-1.1A1.09,1.09,0,0,1,52.77,27.94Z"/><path class="cls-3" d="M52.77,39.84a1.1,1.1,0,1,1-1.1-1.09A1.1,1.1,0,0,1,52.77,39.84Z"/><rect class="cls-3" x="8.02" y="45.32" width="8.61" height="3.86"/><rect class="cls-3" x="21.13" y="45.32" width="8.61" height="3.86"/><rect class="cls-3" x="34.25" y="45.32" width="8.61" height="3.86"/><rect class="cls-3" x="47.37" y="45.32" width="8.61" height="3.86"/></svg>