<svg id="Layer_1" data-name="Layer 1" xmlns="http://www.w3.org/2000/svg" viewBox="0 0 64 64"><defs><style>.cls-1{fill:#0795ff;}.cls-2{fill:#156cdd;}.cls-3{fill:#dfe8f4;}</style></defs><title>filing, box, package, office</title><path class="cls-1" d="M16.44,36.88H47.56a0,0,0,0,1,0,0V53.75A2.25,2.25,0,0,1,45.31,56H18.69a2.25,2.25,0,0,1-2.25-2.25V36.88A0,0,0,0,1,16.44,36.88Z"/><rect class="cls-2" x="16.44" y="36.88" width="31.13" height="2"/><rect class="cls-3" x="14.42" y="32" width="35.17" height="4.88" rx="1.52"/><rect class="cls-2" x="27.96" y="48.42" width="8.08" height="3.17" rx="1.37"/><path class="cls-1" d="M16.44,12.88H47.56a0,0,0,0,1,0,0V29.75A2.25,2.25,0,0,1,45.31,32H18.69a2.25,2.25,0,0,1-2.25-2.25V12.88A0,0,0,0,1,16.44,12.88Z"/><rect class="cls-2" x="16.44" y="12.88" width="31.13" height="2"/><rect class="cls-3" x="14.42" y="8" width="35.17" height="4.88" rx="1.52"/><rect class="cls-2" x="27.96" y="24.42" width="8.08" height="3.17" rx="1.37"/></svg>