<svg id="Layer_1" data-name="Layer 1" xmlns="http://www.w3.org/2000/svg" viewBox="0 0 64 64"><defs><style>.cls-1{fill:#dfe8f4;}.cls-2{fill:#0795ff;}.cls-3{fill:#ccd8e5;}.cls-4{fill:#156cdd;}</style></defs><title>gambling, game, dice</title><path class="cls-1" d="M30.63,13.12,27.19,29.78A4.4,4.4,0,0,0,30.61,35l16.67,3.43A4.39,4.39,0,0,0,52.47,35l3.44-16.67a4.4,4.4,0,0,0-3.42-5.2L35.82,9.7A4.39,4.39,0,0,0,30.63,13.12Z"/><path class="cls-2" d="M8.51,37,16.42,52a4.4,4.4,0,0,0,5.94,1.85L37.42,46A4.4,4.4,0,0,0,39.27,40L31.36,25a4.4,4.4,0,0,0-5.94-1.85L10.35,31A4.39,4.39,0,0,0,8.51,37Z"/><path class="cls-3" d="M31.36,25a4.38,4.38,0,0,0-2.73-2.18l-1.44,7A4.4,4.4,0,0,0,30.61,35l6.73,1.39Z"/><path class="cls-4" d="M28.72,38.51a4.84,4.84,0,1,1-4.83-4.84A4.83,4.83,0,0,1,28.72,38.51Z"/><path class="cls-2" d="M41.15,17.22a2.13,2.13,0,1,1-1.66-2.5A2.12,2.12,0,0,1,41.15,17.22Z"/><path class="cls-2" d="M39.84,23.71a2.13,2.13,0,1,1-1.66-2.51A2.12,2.12,0,0,1,39.84,23.71Z"/><path class="cls-2" d="M38.53,30.19a2.13,2.13,0,1,1-4.17-.84,2.13,2.13,0,0,1,4.17.84Z"/><path class="cls-2" d="M48.74,18.76a2.13,2.13,0,0,1-4.17-.84,2.13,2.13,0,1,1,4.17.84Z"/><path class="cls-2" d="M47.43,25.25a2.13,2.13,0,1,1-1.66-2.51A2.13,2.13,0,0,1,47.43,25.25Z"/><path class="cls-2" d="M46.12,31.73a2.13,2.13,0,1,1-1.67-2.51A2.13,2.13,0,0,1,46.12,31.73Z"/></svg>