<svg id="Layer_1" data-name="Layer 1" xmlns="http://www.w3.org/2000/svg" viewBox="0 0 64 64"><defs><style>.cls-1{fill:#0795ff;}.cls-2{fill:#156cdd;}.cls-3{fill:#dfe8f4;}.cls-4{fill:#ccd8e5;}</style></defs><title>gambling, game, cards, hearts</title><rect class="cls-1" x="19.46" y="11.22" width="32.85" height="44.83" rx="3.21"/><path class="cls-2" d="M22.66,56.05H42.44a2.11,2.11,0,0,0,2.1-2.11V25.29H19.46V52.84A3.22,3.22,0,0,0,22.66,56.05Z"/><path class="cls-2" d="M49.1,11.22H47.38L25.62,23.78l1.07,1.87L50.81,11.73A3.15,3.15,0,0,0,49.1,11.22Z"/><path class="cls-2" d="M52.31,14.42v0L25.62,29.78l1.07,1.87L52.31,16.86Z"/><polygon class="cls-2" points="52.31 20.38 25.62 35.78 26.69 37.65 52.31 22.86 52.31 20.38"/><polygon class="cls-2" points="52.31 26.38 25.62 41.78 26.69 43.65 52.31 28.86 52.31 26.38"/><polygon class="cls-2" points="52.31 32.38 25.62 47.78 26.69 49.65 52.31 34.86 52.31 32.38"/><polygon class="cls-2" points="52.31 38.38 25.62 53.78 26.69 55.65 52.31 40.86 52.31 38.38"/><polygon class="cls-2" points="36.4 56.05 52.31 46.86 52.31 44.38 32.09 56.05 36.4 56.05"/><path class="cls-2" d="M42.48,56.05h4.31l5.51-3.19V50.38Z"/><rect class="cls-3" x="11.69" y="7.95" width="32.85" height="44.83" rx="3.21"/><path class="cls-4" d="M22.66,11.22a3.21,3.21,0,0,0-3.2,3.2V52.78H41.34a3.21,3.21,0,0,0,3.2-3.2V11.22Z"/><path class="cls-2" d="M36,23.74h0a4.82,4.82,0,0,0-6.83,0l-1,1-1-1a4.82,4.82,0,0,0-6.83,0h0a4.83,4.83,0,0,0,0,6.82l1,1,6.83,6.82L36,30.56A4.83,4.83,0,0,0,36,23.74Z"/><path class="cls-1" d="M18.54,13.53a1.42,1.42,0,1,1-1.42-1.41A1.42,1.42,0,0,1,18.54,13.53Z"/><path class="cls-1" d="M40.54,47.2a1.42,1.42,0,1,1-1.42-1.42A1.43,1.43,0,0,1,40.54,47.2Z"/></svg>