<svg id="Layer_1" data-name="Layer 1" xmlns="http://www.w3.org/2000/svg" viewBox="0 0 64 64"><defs><style>.cls-1{fill:#156cdd;}.cls-2{fill:#0795ff;}.cls-3{fill:#ccd8e5;}.cls-4{fill:#dfe8f4;}</style></defs><title>gift, present, holiday, celebration, christmas</title><path class="cls-1" d="M28.83,18.85A10.87,10.87,0,0,1,39.68,8a9.6,9.6,0,0,1,0,19.19H28.83Zm6.34,0v2h4.51a3.25,3.25,0,0,0,0-6.49A4.51,4.51,0,0,0,35.17,18.85Z"/><path class="cls-2" d="M35.17,27.19H24.32A9.6,9.6,0,0,1,24.32,8,10.87,10.87,0,0,1,35.17,18.85ZM24.32,14.35a3.25,3.25,0,0,0,0,6.49h4.51v-2A4.51,4.51,0,0,0,24.32,14.35Z"/><path class="cls-3" d="M11.83,30.11H52.17a0,0,0,0,1,0,0V55a1,1,0,0,1-1,1H12.88a1,1,0,0,1-1-1V30.11a0,0,0,0,1,0,0Z"/><path class="cls-4" d="M11.83,31.68v1.89a.95.95,0,0,0,0-1.89Z"/><circle class="cls-4" cx="15.19" cy="32.62" r="0.94"/><circle class="cls-4" cx="18.56" cy="32.62" r="0.94"/><circle class="cls-4" cx="21.92" cy="32.62" r="0.94"/><circle class="cls-4" cx="25.28" cy="32.62" r="0.94"/><circle class="cls-4" cx="28.64" cy="32.62" r="0.94"/><circle class="cls-4" cx="32" cy="32.62" r="0.94"/><circle class="cls-4" cx="35.36" cy="32.62" r="0.94"/><circle class="cls-4" cx="38.72" cy="32.62" r="0.94"/><circle class="cls-4" cx="42.08" cy="32.62" r="0.94"/><circle class="cls-4" cx="45.44" cy="32.62" r="0.94"/><circle class="cls-4" cx="48.81" cy="32.62" r="0.94"/><path class="cls-4" d="M51.23,32.62a1,1,0,0,0,.94,1V31.68A.94.94,0,0,0,51.23,32.62Z"/><path class="cls-4" d="M13.51,35.22v1.89a.95.95,0,0,0,0-1.89Z"/><circle class="cls-4" cx="16.87" cy="36.17" r="0.94"/><path class="cls-4" d="M14.45,36.17a.94.94,0,1,1-.94-1A.94.94,0,0,1,14.45,36.17Z"/><circle class="cls-4" cx="20.24" cy="36.17" r="0.94"/><circle class="cls-4" cx="23.6" cy="36.17" r="0.94"/><circle class="cls-4" cx="26.96" cy="36.17" r="0.94"/><circle class="cls-4" cx="30.32" cy="36.17" r="0.94"/><circle class="cls-4" cx="33.68" cy="36.17" r="0.94"/><circle class="cls-4" cx="37.04" cy="36.17" r="0.94"/><circle class="cls-4" cx="40.4" cy="36.17" r="0.94"/><circle class="cls-4" cx="43.76" cy="36.17" r="0.94"/><path class="cls-4" d="M48.07,36.17a.95.95,0,0,1-1.89,0,.95.95,0,1,1,1.89,0Z"/><path class="cls-4" d="M51.43,36.17a.94.94,0,1,1-.94-1A.94.94,0,0,1,51.43,36.17Z"/><path class="cls-4" d="M13.51,42.31v1.88a.94.94,0,1,0,0-1.88Z"/><circle class="cls-4" cx="16.87" cy="43.25" r="0.94"/><path class="cls-4" d="M14.45,43.25a.94.94,0,1,1-.94-.94A.94.94,0,0,1,14.45,43.25Z"/><circle class="cls-4" cx="20.24" cy="43.25" r="0.94"/><circle class="cls-4" cx="23.6" cy="43.25" r="0.94"/><circle class="cls-4" cx="26.96" cy="43.25" r="0.94"/><circle class="cls-4" cx="30.32" cy="43.25" r="0.94"/><circle class="cls-4" cx="33.68" cy="43.25" r="0.94"/><circle class="cls-4" cx="37.04" cy="43.25" r="0.94"/><circle class="cls-4" cx="40.4" cy="43.25" r="0.94"/><circle class="cls-4" cx="43.76" cy="43.25" r="0.94"/><path class="cls-4" d="M48.07,43.25a.95.95,0,1,1-.94-.94A.94.94,0,0,1,48.07,43.25Z"/><path class="cls-4" d="M51.43,43.25a.94.94,0,1,1-.94-.94A.94.94,0,0,1,51.43,43.25Z"/><path class="cls-4" d="M13.51,49.39v1.88a.94.94,0,1,0,0-1.88Z"/><circle class="cls-4" cx="16.87" cy="50.33" r="0.94"/><path class="cls-4" d="M14.45,50.33a.94.94,0,1,1-.94-.94A.94.94,0,0,1,14.45,50.33Z"/><circle class="cls-4" cx="20.24" cy="50.33" r="0.94"/><circle class="cls-4" cx="23.6" cy="50.33" r="0.94"/><circle class="cls-4" cx="26.96" cy="50.33" r="0.94"/><circle class="cls-4" cx="30.32" cy="50.33" r="0.94"/><circle class="cls-4" cx="33.68" cy="50.33" r="0.94"/><circle class="cls-4" cx="37.04" cy="50.33" r="0.94"/><circle class="cls-4" cx="40.4" cy="50.33" r="0.94"/><circle class="cls-4" cx="43.76" cy="50.33" r="0.94"/><path class="cls-4" d="M48.07,50.33a.95.95,0,1,1-.94-.94A.94.94,0,0,1,48.07,50.33Z"/><path class="cls-4" d="M51.43,50.33a.94.94,0,1,1-.94-.94A.94.94,0,0,1,51.43,50.33Z"/><path class="cls-4" d="M11.83,38.77v1.88a.94.94,0,1,0,0-1.88Z"/><circle class="cls-4" cx="15.19" cy="39.71" r="0.94"/><circle class="cls-4" cx="18.56" cy="39.71" r="0.94"/><circle class="cls-4" cx="21.92" cy="39.71" r="0.94"/><circle class="cls-4" cx="25.28" cy="39.71" r="0.94"/><circle class="cls-4" cx="28.64" cy="39.71" r="0.94"/><circle class="cls-4" cx="32" cy="39.71" r="0.94"/><circle class="cls-4" cx="35.36" cy="39.71" r="0.94"/><circle class="cls-4" cx="38.72" cy="39.71" r="0.94"/><circle class="cls-4" cx="42.08" cy="39.71" r="0.94"/><circle class="cls-4" cx="45.44" cy="39.71" r="0.94"/><circle class="cls-4" cx="48.81" cy="39.71" r="0.94"/><path class="cls-4" d="M51.23,39.71a.94.94,0,0,0,.94.94V38.77A.94.94,0,0,0,51.23,39.71Z"/><path class="cls-4" d="M11.83,45.85v1.88a.94.94,0,1,0,0-1.88Z"/><circle class="cls-4" cx="15.19" cy="46.79" r="0.94"/><circle class="cls-4" cx="18.56" cy="46.79" r="0.94"/><circle class="cls-4" cx="21.92" cy="46.79" r="0.94"/><circle class="cls-4" cx="25.28" cy="46.79" r="0.94"/><circle class="cls-4" cx="28.64" cy="46.79" r="0.94"/><circle class="cls-4" cx="32" cy="46.79" r="0.94"/><circle class="cls-4" cx="35.36" cy="46.79" r="0.94"/><circle class="cls-4" cx="38.72" cy="46.79" r="0.94"/><circle class="cls-4" cx="42.08" cy="46.79" r="0.94"/><circle class="cls-4" cx="45.44" cy="46.79" r="0.94"/><circle class="cls-4" cx="48.81" cy="46.79" r="0.94"/><path class="cls-4" d="M51.23,46.79a.94.94,0,0,0,.94.94V45.85A.94.94,0,0,0,51.23,46.79Z"/><path class="cls-4" d="M11.83,52.93v1.89a.95.95,0,0,0,0-1.89Z"/><circle class="cls-4" cx="15.19" cy="53.87" r="0.94"/><circle class="cls-4" cx="18.56" cy="53.87" r="0.94"/><circle class="cls-4" cx="21.92" cy="53.87" r="0.94"/><circle class="cls-4" cx="25.28" cy="53.87" r="0.94"/><circle class="cls-4" cx="28.64" cy="53.87" r="0.94"/><circle class="cls-4" cx="32" cy="53.87" r="0.94"/><circle class="cls-4" cx="35.36" cy="53.87" r="0.94"/><circle class="cls-4" cx="38.72" cy="53.87" r="0.94"/><circle class="cls-4" cx="42.08" cy="53.87" r="0.94"/><circle class="cls-4" cx="45.44" cy="53.87" r="0.94"/><circle class="cls-4" cx="48.81" cy="53.87" r="0.94"/><path class="cls-4" d="M51.23,53.87a1,1,0,0,0,.94,1V52.93A.94.94,0,0,0,51.23,53.87Z"/><rect class="cls-4" x="8" y="20.8" width="48" height="9.31" rx="0.89"/><rect class="cls-3" x="35.17" y="20.8" width="1.62" height="9.31"/><rect class="cls-1" x="28.83" y="30.11" width="6.34" height="25.89"/><rect class="cls-2" x="28.83" y="20" width="6.34" height="10.11"/></svg>