<svg id="Layer_1" data-name="Layer 1" xmlns="http://www.w3.org/2000/svg" viewBox="0 0 64 64"><defs><style>.cls-1{fill:#dfe8f4;}.cls-2{fill:#ccd8e5;}.cls-3{fill:#0795ff;}</style></defs><title>give, love, spread, heart</title><path class="cls-1" d="M19.22,13.92v-2.2A3.71,3.71,0,0,0,17.36,8.5h0a3.69,3.69,0,0,0-3.72,0h0a3.71,3.71,0,0,0-1.86,3.22v2.2a3.26,3.26,0,0,0,1.63,2.83h0a4.16,4.16,0,0,0,4.18,0h0A3.26,3.26,0,0,0,19.22,13.92Z"/><path class="cls-1" d="M15.36,18.62C11.29,18.62,8,22.22,8,38.79H22.72C22.72,22.22,19.42,18.62,15.36,18.62Z"/><path class="cls-1" d="M9.25,56h0A1.25,1.25,0,0,1,8,54.75v-16h6.23L10.47,55A1.25,1.25,0,0,1,9.25,56Z"/><path class="cls-1" d="M21.46,56h0a1.25,1.25,0,0,0,1.26-1.25v-16H16.49L20.25,55A1.24,1.24,0,0,0,21.46,56Z"/><path class="cls-1" d="M15.36,18.62C11.29,18.62,8,22.22,8,38.79v16a1.25,1.25,0,0,0,2.47.28L14,39.89a1.41,1.41,0,0,1,1.38-1.1h0a1.42,1.42,0,0,1,1.38,1.1L20.25,55a1.24,1.24,0,0,0,1.21,1,1.25,1.25,0,0,0,1.26-1.25v-16C22.72,22.22,19.42,18.62,15.36,18.62Z"/><path class="cls-1" d="M52.5,13.92v-2.2A3.71,3.71,0,0,0,50.64,8.5h0a3.69,3.69,0,0,0-3.72,0h0a3.71,3.71,0,0,0-1.86,3.22v2.2a3.26,3.26,0,0,0,1.63,2.83h0a4.16,4.16,0,0,0,4.18,0h0A3.26,3.26,0,0,0,52.5,13.92Z"/><path class="cls-1" d="M48.64,18.62c-4.06,0-7.36,3.6-7.36,20.17H56C56,22.22,52.71,18.62,48.64,18.62Z"/><path class="cls-1" d="M42.54,56h0a1.25,1.25,0,0,1-1.26-1.25v-16h6.23L43.75,55A1.24,1.24,0,0,1,42.54,56Z"/><path class="cls-1" d="M54.75,56h0A1.25,1.25,0,0,0,56,54.75v-16H49.77L53.53,55A1.25,1.25,0,0,0,54.75,56Z"/><path class="cls-1" d="M48.64,18.62c-4.06,0-7.36,3.6-7.36,20.17v16A1.25,1.25,0,0,0,42.54,56a1.24,1.24,0,0,0,1.21-1l3.51-15.14a1.42,1.42,0,0,1,1.38-1.1h0A1.41,1.41,0,0,1,50,39.89L53.53,55A1.25,1.25,0,0,0,56,54.75v-16C56,22.22,52.71,18.62,48.64,18.62Z"/><path class="cls-1" d="M25.89,29.28,19.6,20.8,20,33.25h3.88a2.49,2.49,0,0,0,2.5-2.49A2.55,2.55,0,0,0,25.89,29.28Z"/><path class="cls-2" d="M25.89,29.28l-6-8.13v6.27a2.46,2.46,0,0,0,2.45,2.46h3.9A2.46,2.46,0,0,0,25.89,29.28Z"/><path class="cls-3" d="M42,16a6.86,6.86,0,0,0-9.36.51l-.59.58-.59-.58A6.86,6.86,0,0,0,22.05,16a6.62,6.62,0,0,0-.26,9.6l9.27,9.26a1.33,1.33,0,0,0,1.88,0l9.27-9.26A6.62,6.62,0,0,0,42,16Z"/><path class="cls-2" d="M22.57,33.25H19.19a1,1,0,0,0-1,1h0a1,1,0,0,0,1,1h3.47C22.63,34.53,22.61,33.87,22.57,33.25Z"/><path class="cls-2" d="M45.06,31.49V27.42l-3.31,2.14c-.2,1.64-.33,3.52-.41,5.65h0A3.72,3.72,0,0,0,45.06,31.49Z"/><path class="cls-1" d="M44.4,20.81,41,26.09a7.39,7.39,0,0,1-6.21,3.39h0a1.88,1.88,0,0,0-1.88,1.88h0a1.88,1.88,0,0,0,1.88,1.89H36a17.48,17.48,0,0,0,7.55-1.71l3.26-1.6Z"/></svg>