<svg id="Layer_1" data-name="Layer 1" xmlns="http://www.w3.org/2000/svg" viewBox="0 0 64 64"><defs><style>.cls-1{fill:#ccd8e5;}.cls-2{fill:#cad0d8;}.cls-3{fill:#156cdd;}.cls-4{fill:#0795ff;}</style></defs><title>gmail, social, media, network, email</title><rect class="cls-1" x="8.03" y="14.61" width="47.94" height="34.78" rx="3.14"/><polygon class="cls-2" points="32 36.96 10.68 21.41 10.53 21.3 8.03 19.48 8.03 21.33 9.75 22.58 9.9 22.69 31.22 38.24 32 36.96"/><path class="cls-2" d="M56,18.72,38.41,31.55l-6.91,5h0L14,49.39h1.64l13.75-10a5,5,0,0,1,5.89,0l10.67,7.79a11.77,11.77,0,0,0,6.92,2.25A3.13,3.13,0,0,0,56,46.25V19.92h0Z"/><path class="cls-3" d="M56,17.75v28.5a2.89,2.89,0,0,1-.13.88,3.13,3.13,0,0,1-3,2.26h0a2.32,2.32,0,0,1-2.32-2.32V16.2l.15-.11,2-1.48h.14A3.15,3.15,0,0,1,56,17.75Z"/><path class="cls-4" d="M52.83,14.61h0a.43.43,0,0,0-.26.09l-1.91,1.39-.15.11L32.56,29.31a.68.68,0,0,1-.79,0L13.49,16,11.75,14.7a.38.38,0,0,0-.25-.09h-.33A3.15,3.15,0,0,0,8,17.75v28.5a2.89,2.89,0,0,0,.13.88,3.13,3.13,0,0,0,3,2.26h0a2.32,2.32,0,0,0,2.32-2.32V23.44L27,33.34l4.45,3.25a1.41,1.41,0,0,0,1.66,0l4.29-3.14,13.07-9.54.15-.11L56,19.92V17.75A3.15,3.15,0,0,0,52.83,14.61Z"/><polygon class="cls-3" points="13.49 23.46 10.68 21.41 10.53 21.3 8.03 19.48 8.03 21.33 9.75 22.58 9.9 22.69 13.49 25.31 13.49 23.46"/></svg>