<svg id="Layer_1" data-name="Layer 1" xmlns="http://www.w3.org/2000/svg" viewBox="0 0 64 64"><defs><style>.cls-1{fill:#ccd8e5;}.cls-2{fill:#dfe8f4;}.cls-3{fill:#0795ff;}</style></defs><title>hand, gesture, move, touch, arrows</title><path class="cls-1" d="M54.55,32.58h-24v1.34l-1.84.64a5.17,5.17,0,0,0-3.48,4.64L25,43.33a12,12,0,0,0,5,10.38A2.82,2.82,0,0,1,31.22,56H52.11v-.84a7.74,7.74,0,0,1,1.09-4,9.83,9.83,0,0,0,1.35-5Z"/><path class="cls-2" d="M40.55,56H37.06A12.05,12.05,0,0,1,25,43.33l.21-4.13a5.17,5.17,0,0,1,3.48-4.64l4.76-1.65Z"/><path class="cls-2" d="M33.55,42.62h0a3,3,0,0,1-3-3V16.37a3,3,0,0,1,3-3h0a3,3,0,0,1,3,3V39.62A3,3,0,0,1,33.55,42.62Z"/><path class="cls-1" d="M35.05,13.78V30a3,3,0,0,0,1.5,2.59V16.37A3,3,0,0,0,35.05,13.78Z"/><path class="cls-2" d="M39.55,41.37h0a3,3,0,0,1-3-3V15.12a3,3,0,0,1,3-3h0a3,3,0,0,1,3,3V38.37A3,3,0,0,1,39.55,41.37Z"/><path class="cls-2" d="M45.55,55.71h0a3,3,0,0,1-3-3V29.45a3,3,0,0,1,3-3h0a3,3,0,0,1,3,3V52.71A3,3,0,0,1,45.55,55.71Z"/><path class="cls-2" d="M51.55,47.82h0a3,3,0,0,1-3-3V31.57a3,3,0,0,1,3-3h0a3,3,0,0,1,3,3V44.82A3,3,0,0,1,51.55,47.82Z"/><path class="cls-2" d="M30.55,32.58h24a0,0,0,0,1,0,0V46.21A9.78,9.78,0,0,1,44.77,56h-8.6a5.62,5.62,0,0,1-5.62-5.62V32.58A0,0,0,0,1,30.55,32.58Z"/><path class="cls-1" d="M30.55,40.35l-1.41.49-.25.1a1.58,1.58,0,0,0-.71,2.31h0a1.29,1.29,0,0,0,2.37-.71Z"/><rect class="cls-3" x="16.89" y="10.69" width="2" height="11.52"/><polygon class="cls-3" points="14.94 10.97 20.85 10.97 17.89 8.01 14.94 10.97"/><polygon class="cls-3" points="20.85 21.94 14.94 21.94 17.89 24.9 20.85 21.94"/><rect class="cls-3" x="12.14" y="15.45" width="11.52" height="2"/><polygon class="cls-3" points="23.38 13.49 23.38 19.41 26.34 16.45 23.38 13.49"/><polygon class="cls-3" points="12.41 19.41 12.41 13.49 9.45 16.45 12.41 19.41"/></svg>