<svg id="Layer_1" data-name="Layer 1" xmlns="http://www.w3.org/2000/svg" viewBox="0 0 64 64"><defs><style>.cls-1{fill:#0795ff;}.cls-2{fill:#ccd8e5;}.cls-3{fill:#dfe8f4;}.cls-4{fill:#fff;}</style></defs><title>hand, gesture, touch, home, move</title><path class="cls-1" d="M34.54,20h-2a9.84,9.84,0,0,0-19.67,0h-2a11.84,11.84,0,0,1,23.67,0Z"/><path class="cls-2" d="M40.71,32.59h-24v1.34l-1.84.64a5.2,5.2,0,0,0-3.49,4.64l-.2,4.13a12,12,0,0,0,5,10.38A2.81,2.81,0,0,1,17.37,56h20.9v-.84a7.82,7.82,0,0,1,1.08-4,9.67,9.67,0,0,0,1.36-5Z"/><path class="cls-3" d="M26.71,56H23.22a12,12,0,0,1-12-12.66l.2-4.13a5.2,5.2,0,0,1,3.49-4.64l4.75-1.65Z"/><path class="cls-3" d="M19.71,42.64h0a3,3,0,0,1-3-3V16.38a3,3,0,0,1,3-3h0a3,3,0,0,1,3,3V39.64A3,3,0,0,1,19.71,42.64Z"/><path class="cls-2" d="M21.21,13.8V30a3,3,0,0,0,1.5,2.59V16.38A3,3,0,0,0,21.21,13.8Z"/><path class="cls-3" d="M25.71,41.39h0a3,3,0,0,1-3-3V15.13a3,3,0,0,1,3-3h0a3,3,0,0,1,3,3V38.39A3,3,0,0,1,25.71,41.39Z"/><path class="cls-3" d="M31.71,55.72h0a3,3,0,0,1-3-3V29.46a3,3,0,0,1,3-3h0a3,3,0,0,1,3,3V52.72A3,3,0,0,1,31.71,55.72Z"/><path class="cls-3" d="M37.71,47.83h0a3,3,0,0,1-3-3V31.58a3,3,0,0,1,3-3h0a3,3,0,0,1,3,3V44.83A3,3,0,0,1,37.71,47.83Z"/><path class="cls-3" d="M16.71,32.59h24a0,0,0,0,1,0,0V46.23A9.78,9.78,0,0,1,30.93,56h-8.6a5.62,5.62,0,0,1-5.62-5.62V32.59A0,0,0,0,1,16.71,32.59Z"/><path class="cls-2" d="M16.71,40.36l-1.41.49L15,41a1.57,1.57,0,0,0-.7,2.31h0a1.29,1.29,0,0,0,2.37-.71Z"/><circle class="cls-1" cx="45.15" cy="15.97" r="7.98" transform="translate(19.19 56.22) rotate(-76.67)"/><path class="cls-4" d="M48.6,16.81h-4V11.12a.5.5,0,0,1,.5-.5.5.5,0,0,1,.5.5v4.69h3a.5.5,0,0,1,.5.5A.5.5,0,0,1,48.6,16.81Z"/></svg>