<svg id="Layer_1" data-name="Layer 1" xmlns="http://www.w3.org/2000/svg" viewBox="0 0 64 64"><defs><style>.cls-1{fill:#ccd8e5;}.cls-2{fill:#dfe8f4;}.cls-3{fill:#0795ff;}</style></defs><title>hand, gestures, move, arrow, up</title><path class="cls-1" d="M50.36,32.58h-24v1.35l-1.84.64A5.17,5.17,0,0,0,21,39.21l-.21,4.13a12,12,0,0,0,5,10.38A2.82,2.82,0,0,1,27,56H47.92v-.84a7.89,7.89,0,0,1,1.08-4,9.67,9.67,0,0,0,1.36-5Z"/><path class="cls-2" d="M36.36,56H32.87a12,12,0,0,1-12-12.66L21,39.21a5.17,5.17,0,0,1,3.48-4.64l4.76-1.65Z"/><path class="cls-2" d="M29.36,42.63h0a3,3,0,0,1-3-3V16.38a3,3,0,0,1,3-3h0a3,3,0,0,1,3,3V39.63A3,3,0,0,1,29.36,42.63Z"/><path class="cls-2" d="M35.36,54h0a3,3,0,0,1-3-3V27.75a3,3,0,0,1,3-3h0a3,3,0,0,1,3,3V51A3,3,0,0,1,35.36,54Z"/><path class="cls-2" d="M41.36,55.71h0a3,3,0,0,1-3-3V29.46a3,3,0,0,1,3-3h0a3,3,0,0,1,3,3V52.71A3,3,0,0,1,41.36,55.71Z"/><path class="cls-2" d="M47.36,47.82h0a3,3,0,0,1-3-3V31.57a3,3,0,0,1,3-3h0a3,3,0,0,1,3,3V44.82A3,3,0,0,1,47.36,47.82Z"/><path class="cls-2" d="M26.36,32.58h24a0,0,0,0,1,0,0V46.22A9.78,9.78,0,0,1,40.58,56H32a5.62,5.62,0,0,1-5.62-5.62V32.58A0,0,0,0,1,26.36,32.58Z"/><path class="cls-1" d="M26.36,40.36,25,40.85l-.25.1a1.56,1.56,0,0,0-.71,2.3h0a1.29,1.29,0,0,0,2.37-.71Z"/><rect class="cls-3" x="15.6" y="10.69" width="2" height="11.52"/><polygon class="cls-3" points="13.64 10.96 19.56 10.96 16.6 8 13.64 10.96"/></svg>