<svg id="Layer_1" data-name="Layer 1" xmlns="http://www.w3.org/2000/svg" viewBox="0 0 64 64"><defs><style>.cls-1{fill:#0795ff;}.cls-2{fill:#156cdd;}.cls-3{fill:#dfe8f4;}.cls-4{fill:#ccd8e5;}</style></defs><title>heart, growth, romance, valentine, plant</title><path class="cls-1" d="M22.56,32.79h2.95a5.77,5.77,0,0,1,5.77,5.77v3.65a0,0,0,0,1,0,0H27.64a5.77,5.77,0,0,1-5.77-5.77V33.49a.7.7,0,0,1,.7-.7Z"/><path class="cls-2" d="M27.2,37.46A39.07,39.07,0,0,0,22,33.07a.7.7,0,0,0-.16.42v2.95a5.77,5.77,0,0,0,5.78,5.77h3.65A40.2,40.2,0,0,0,27.2,37.46Z"/><path class="cls-1" d="M38.49,32.79h3.65a0,0,0,0,1,0,0v3.65a5.77,5.77,0,0,1-5.77,5.77H33.42a.7.7,0,0,1-.7-.7V38.56A5.77,5.77,0,0,1,38.49,32.79Z" transform="translate(74.85 75) rotate(180)"/><path class="cls-2" d="M36.8,37.46A39.07,39.07,0,0,1,42,33.07a.7.7,0,0,1,.16.42v2.95a5.77,5.77,0,0,1-5.78,5.77H32.71A40.2,40.2,0,0,1,36.8,37.46Z"/><rect class="cls-3" x="22.28" y="42.19" width="19.45" height="3.96" rx="1.02"/><path class="cls-4" d="M36,56H28a1.59,1.59,0,0,1-1.51-1.12l-2.61-8.73H40.12l-2.61,8.73A1.59,1.59,0,0,1,36,56Z"/><path class="cls-1" d="M45.63,10.2a9.33,9.33,0,0,0-12.71.64l-.33.33a.85.85,0,0,1-1.18,0l-.33-.33a9.33,9.33,0,0,0-12.71-.64A9.11,9.11,0,0,0,18,23.45a29.91,29.91,0,0,0,7.09,5.25l4.57,2.45h0A2.6,2.6,0,0,1,31,33.52v8.69h2V33.52a2.6,2.6,0,0,1,1.38-2.36h0L39,28.7A29.91,29.91,0,0,0,46,23.45,9.11,9.11,0,0,0,45.63,10.2Z"/><path class="cls-2" d="M27.84,17.43a2.92,2.92,0,0,1,3.89.28l.05.05a.31.31,0,0,0,.44,0l.05-.05a2.92,2.92,0,0,1,3.89-.28,2.84,2.84,0,0,1,.2,4.2L36,22l-3.36,3.36a.92.92,0,0,1-1.3,0L28,22l-.35-.35A2.84,2.84,0,0,1,27.84,17.43Z"/></svg>