<svg id="Layer_1" data-name="Layer 1" xmlns="http://www.w3.org/2000/svg" viewBox="0 0 64 64"><defs><style>.cls-1{fill:#dfe8f4;}.cls-2{fill:#ccd8e5;}.cls-3{fill:#0795ff;}.cls-4{fill:#156cdd;}.cls-5{fill:none;}.cls-6{fill:#fff;}</style></defs><title>honey, organic, jar, food</title><path class="cls-1" d="M46,15.4v-.11H18.05v.11a2.72,2.72,0,0,1-1.51,2.37,5.41,5.41,0,0,0-2.86,4.77V48.42A7.57,7.57,0,0,0,21.25,56h21.5a7.57,7.57,0,0,0,7.57-7.58V22.54a5.41,5.41,0,0,0-2.86-4.77A2.72,2.72,0,0,1,46,15.4Z"/><path class="cls-2" d="M47.37,17.73A2.59,2.59,0,0,1,46,15.37v-.08H18.05v.08a2.59,2.59,0,0,1-1.42,2.36,3.82,3.82,0,0,0-.48.29,3.4,3.4,0,0,0,.57.15,4.64,4.64,0,0,0,1.93-.08,5.28,5.28,0,0,1,2.5,0,4.84,4.84,0,0,0,2.39,0,4.73,4.73,0,0,1,2.42,0,4.92,4.92,0,0,0,2.41,0,4.84,4.84,0,0,1,2.42,0,5,5,0,0,0,2.42,0,4.73,4.73,0,0,1,2.42,0,4.91,4.91,0,0,0,2.38,0,5.66,5.66,0,0,1,2.62,0,4.46,4.46,0,0,0,1,.12,4.81,4.81,0,0,0,1-.11,5.91,5.91,0,0,1,2.71,0,4.67,4.67,0,0,0,1.9.07,3.68,3.68,0,0,0,.57-.15A3.82,3.82,0,0,0,47.37,17.73Z"/><path class="cls-3" d="M44.36,12H14.81v1.47a2.78,2.78,0,0,0,2.24,2.77,2.67,2.67,0,0,0,2.2-.61,1,1,0,0,1,1.35,0,2.65,2.65,0,0,0,1.74.65,2.69,2.69,0,0,0,1.74-.65,1,1,0,0,1,1.35,0,2.65,2.65,0,0,0,3.48,0,1,1,0,0,1,1.35,0,2.65,2.65,0,0,0,3.48,0,1,1,0,0,1,1.35,0,2.65,2.65,0,0,0,3.48,0,1,1,0,0,1,1.35,0,2.69,2.69,0,0,0,1.74.65,2.65,2.65,0,0,0,1.74-.65,1,1,0,0,1,1.35,0,2.67,2.67,0,0,0,2.2.61,2.78,2.78,0,0,0,2.24-2.77V12Z"/><path class="cls-4" d="M17.61,8H46.39a2.8,2.8,0,0,1,2.8,2.8v2a0,0,0,0,1,0,0H14.81a0,0,0,0,1,0,0v-2A2.8,2.8,0,0,1,17.61,8Z"/><polygon class="cls-3" points="37.55 30.4 37.55 23.99 32 20.78 26.45 23.99 26.45 30.4 32 33.6 37.55 30.4"/><polygon class="cls-3" points="43.1 40.01 43.1 33.6 37.55 30.4 32 33.6 32 40.01 37.55 43.22 43.1 40.01"/><polygon class="cls-4" points="32 39.97 32 33.55 26.45 30.35 20.9 33.55 20.9 39.97 26.45 43.17 32 39.97"/><polygon class="cls-5" points="36.73 29.92 36.73 24.46 32 21.74 27.27 24.46 27.27 29.92 32 32.65 36.73 29.92"/><polygon class="cls-5" points="32.83 39.53 37.55 42.26 42.28 39.53 42.28 34.08 37.55 31.35 32.83 34.08 32.83 39.53"/><polygon class="cls-5" points="21.72 34.08 21.72 39.53 26.45 42.26 31.18 39.53 31.18 34.08 26.45 31.35 21.72 34.08"/><polygon class="cls-3" points="32.83 34.08 32.83 34.08 37.55 31.35 37.55 31.35 32.83 34.08"/><polygon class="cls-3" points="26.45 31.35 26.45 31.35 31.18 34.08 31.18 34.08 26.45 31.35"/><polygon class="cls-3" points="32 32.65 36.73 29.92 36.73 29.92 32 32.65 32 32.65"/><polygon class="cls-3" points="27.27 29.92 27.27 29.92 32 32.65 32 32.65 27.27 29.92"/><polygon class="cls-3" points="32 32.65 32 32.65 32 32.65 32 32.65 32 32.65"/><path class="cls-6" d="M43.72,32.89l-5.14-3V24a.84.84,0,0,0-.41-.72l-5.55-3.2a.82.82,0,0,0-.83,0l-5.55,3.2a.82.82,0,0,0-.41.72V30.4a.8.8,0,0,0,.41.71l.41.24h0L31.17,34v.12h0l.21.12V40a.84.84,0,0,0,.41.72l.31.18L32,41l5.14,3a.87.87,0,0,0,.41.11.84.84,0,0,0,.41-.11l5.55-3.2a.83.83,0,0,0,.42-.72V33.6A2,2,0,0,0,43.72,32.89Zm-1.44,6.65-4.73,2.72L33,39.65V34.08l-.41.24a.88.88,0,0,1-.42.11l-.1,0a.8.8,0,0,0,.31-.09l.42-.24h0l.2-.48c0-.29-.36-.57-.62-.71l-.31-.18.1-.06-4.72-2.73h0V24.47l4.72-2.73,4.73,2.73v5.45h0L32.2,32.65l.42.24a.82.82,0,0,1,.41.71v.48l4.62-2.67,4.63,2.67Z"/><path class="cls-6" d="M31.17,40v-.47l-4.72,2.72-4.73-2.72.21-5.46,4.72-2.73L26,31.11a.81.81,0,0,1-.42-.71v-.48l-5.13,3a.81.81,0,0,0-.42.71V40a.83.83,0,0,0,.42.72L26,43.93a.84.84,0,0,0,.41.11.87.87,0,0,0,.41-.11L32,41l-.41-.23A.83.83,0,0,1,31.17,40Z"/></svg>