<svg id="Layer_1" data-name="Layer 1" xmlns="http://www.w3.org/2000/svg" viewBox="0 0 64 64"><defs><style>.cls-1{fill:#0795ff;}.cls-2{fill:#156cdd;}.cls-3{fill:#dfe8f4;}.cls-4{fill:#ccd8e5;}</style></defs><title>house, flag, real estate, home</title><path class="cls-1" d="M44.06,13.51H55a1,1,0,0,1,1,1V22.3a1,1,0,0,1-1,1H45a1,1,0,0,1-1-1V13.51A0,0,0,0,1,44.06,13.51Z"/><path class="cls-2" d="M44.06,22.3a1,1,0,0,0,1,1h0a1.86,1.86,0,0,0,1.32-.55L49.1,20l-5-2.36Z"/><path class="cls-3" d="M36.87,31.91H35.29V8.82A.79.79,0,0,1,36.08,8h0a.79.79,0,0,1,.79.79Z"/><path class="cls-1" d="M36.87,10.21H48.13a1,1,0,0,1,1,1V20a0,0,0,0,1,0,0H36.87a0,0,0,0,1,0,0V10.21A0,0,0,0,1,36.87,10.21Z"/><path class="cls-2" d="M32.21,25.2h6a.37.37,0,0,1,.37.37V40.21a0,0,0,0,1,0,0H31.83a0,0,0,0,1,0,0V25.57A.37.37,0,0,1,32.21,25.2Z"/><rect class="cls-3" x="10.7" y="38" width="27.88" height="17.97"/><path class="cls-4" d="M38.58,39.58,25,26a.46.46,0,0,0-.65,0L10.7,39.58Z"/><path class="cls-1" d="M40.66,36,26.11,21.49a2.07,2.07,0,0,0-2.93,0L8.63,36a2.07,2.07,0,0,0,1.46,3.54h0a1.53,1.53,0,0,0,1.05-.43L24.21,26.07a.6.6,0,0,1,.86,0L38.15,39.15a1.5,1.5,0,0,0,1,.43h0A2.08,2.08,0,0,0,40.66,36Z"/><path class="cls-1" d="M29,56H20.25V49.1a4.4,4.4,0,0,1,4.39-4.39h0A4.39,4.39,0,0,1,29,49.1Z"/></svg>