<svg id="Layer_1" data-name="Layer 1" xmlns="http://www.w3.org/2000/svg" viewBox="0 0 64 64"><defs><style>.cls-1{fill:#dfe8f4;}.cls-2{fill:#ccd8e5;}.cls-3{fill:#0795ff;}.cls-4{fill:#fff;}</style></defs><title>information, info, map, location</title><path class="cls-1" d="M55.15,15.65,43,10.7a3.91,3.91,0,0,0-2.93,0L27,16V53.58l13-5.29a3.91,3.91,0,0,1,2.93,0l11.14,4.53A1.37,1.37,0,0,0,56,51.55V16.92A1.37,1.37,0,0,0,55.15,15.65Z"/><path class="cls-2" d="M40,48.29l1.47-.6V10.42A3.92,3.92,0,0,0,40,10.7L27,16V53.58l13-5.29Z"/><path class="cls-3" d="M8,16H25.51A1.51,1.51,0,0,1,27,17.5V52.07a1.51,1.51,0,0,1-1.51,1.51H8a0,0,0,0,1,0,0V16A0,0,0,0,1,8,16Z" transform="translate(35.02 69.58) rotate(180)"/><path class="cls-4" d="M18.76,39.35V32a.31.31,0,0,0-.31-.31H15a.31.31,0,0,0-.31.31v1.89a.3.3,0,0,0,.31.3H16a.31.31,0,0,1,.31.31v4.89a.31.31,0,0,1-.31.31H15a.31.31,0,0,0-.31.31v1.89a.31.31,0,0,0,.31.31h5a.31.31,0,0,0,.31-.31V40a.31.31,0,0,0-.31-.31h-.94A.31.31,0,0,1,18.76,39.35Z"/><rect class="cls-4" x="15.75" y="27.41" width="3.01" height="3.01" rx="0.96" transform="translate(-11.66 46.17) rotate(-90)"/></svg>