<svg id="Layer_1" data-name="Layer 1" xmlns="http://www.w3.org/2000/svg" viewBox="0 0 64 64"><defs><style>.cls-1{fill:#156cdd;}.cls-2{fill:#0795ff;}.cls-3{fill:#dfe8f4;}.cls-4{fill:#ccd8e5;}</style></defs><title>instagram, social, media, network</title><path class="cls-1" d="M40.73,10.4H23.27A12.88,12.88,0,0,0,10.4,23.27V40.73A12.88,12.88,0,0,0,23.27,53.6H40.73A12.88,12.88,0,0,0,53.6,40.73V23.27A12.88,12.88,0,0,0,40.73,10.4Z"/><circle class="cls-2" cx="32" cy="32" r="9.54"/><path class="cls-2" d="M41.7,8H22.3A14.31,14.31,0,0,0,8,22.3V41.7A14.31,14.31,0,0,0,22.3,56H41.7A14.31,14.31,0,0,0,56,41.7V22.3A14.31,14.31,0,0,0,41.7,8Zm9.47,33.7a9.47,9.47,0,0,1-9.47,9.47H22.3a9.47,9.47,0,0,1-9.47-9.47V22.3a9.47,9.47,0,0,1,9.47-9.47H41.7a9.47,9.47,0,0,1,9.47,9.47Zm0,0"/><path class="cls-3" d="M32,19.59A12.41,12.41,0,1,0,44.41,32,12.41,12.41,0,0,0,32,19.59Zm0,20A7.59,7.59,0,1,1,39.59,32,7.59,7.59,0,0,1,32,39.59Zm0,0"/><path class="cls-4" d="M46.2,19.68a1.76,1.76,0,1,1-1.76-1.76,1.76,1.76,0,0,1,1.76,1.76Zm0,0"/></svg>