<svg id="Layer_1" data-name="Layer 1" xmlns="http://www.w3.org/2000/svg" viewBox="0 0 64 64"><defs><style>.cls-1{fill:#dfe8f4;}.cls-2{fill:#0795ff;}.cls-3{fill:#156cdd;}.cls-4{fill:#ccd8e5;}.cls-5{fill:#fff;}</style></defs><title>laptop, computer, payment, online, electronics</title><path class="cls-1" d="M15.21,16H48.79a3,3,0,0,1,3,3V42.69a0,0,0,0,1,0,0H12.17a0,0,0,0,1,0,0V19A3,3,0,0,1,15.21,16Z"/><path class="cls-2" d="M9.13,42.69H54.87A1.13,1.13,0,0,1,56,43.82v.65A3.55,3.55,0,0,1,52.45,48H12.2A4.2,4.2,0,0,1,8,43.82v0A1.13,1.13,0,0,1,9.13,42.69Z"/><path class="cls-3" d="M26.23,43.76a2.31,2.31,0,0,0,1.95,1.08h7.64a2.31,2.31,0,0,0,2-1.08,2.32,2.32,0,0,1,1.95-1.07H24.28A2.32,2.32,0,0,1,26.23,43.76Z"/><rect class="cls-4" x="12.17" y="40.27" width="39.58" height="2.42"/><path class="cls-5" d="M31.94,27.84a1.42,1.42,0,1,1,1.24-2.13,1.35,1.35,0,0,0,1.13.71h0A1.57,1.57,0,0,0,35.63,24,4.44,4.44,0,0,0,34,22.51a1,1,0,0,1-.51-.88h0A1.5,1.5,0,0,0,32,20.13h0a1.5,1.5,0,0,0-1.5,1.5h0a1,1,0,0,1-.52.89,4.47,4.47,0,0,0-1.73,6.33,4.21,4.21,0,0,0,3.77,2,1.42,1.42,0,0,1,0,2.83,1.4,1.4,0,0,1-1.22-.7,1.33,1.33,0,0,0-1.14-.71h0a1.57,1.57,0,0,0-1.28,2.47A4.46,4.46,0,0,0,30,36.16a1,1,0,0,1,.5.88h0A1.5,1.5,0,0,0,32,38.53h0A1.49,1.49,0,0,0,33.45,37h0a1,1,0,0,1,.52-.88,4.48,4.48,0,0,0,1.69-6.42A4.2,4.2,0,0,0,31.94,27.84Z"/></svg>