<svg id="Layer_1" data-name="Layer 1" xmlns="http://www.w3.org/2000/svg" viewBox="0 0 64 64"><defs><style>.cls-1{fill:#dfe8f4;}.cls-2{fill:#ccd8e5;}.cls-3{fill:#0795ff;}.cls-4{fill:#156cdd;}.cls-5{fill:#fff;}</style></defs><title>lightbulb, microchip, electronic, device</title><path class="cls-1" d="M15.16,40.66v4.61h-4.9A2.3,2.3,0,0,1,8,43H8a2.31,2.31,0,0,1,2.3-2.31Z"/><rect class="cls-2" x="13.49" y="40.66" width="1.68" height="4.61"/><path class="cls-1" d="M15.16,33.35V38h-4.9A2.3,2.3,0,0,1,8,35.66H8a2.3,2.3,0,0,1,2.3-2.31Z"/><rect class="cls-2" x="13.49" y="33.35" width="1.68" height="4.61"/><path class="cls-1" d="M15.16,26v4.61h-4.9A2.3,2.3,0,0,1,8,28.34H8a2.3,2.3,0,0,1,2.3-2.3Z"/><rect class="cls-2" x="13.49" y="26.04" width="1.68" height="4.61"/><path class="cls-1" d="M15.16,18.73v4.61h-4.9A2.31,2.31,0,0,1,8,21H8a2.3,2.3,0,0,1,2.3-2.3Z"/><rect class="cls-2" x="13.49" y="18.73" width="1.68" height="4.61"/><path class="cls-1" d="M48.84,23.34V18.73h4.9A2.3,2.3,0,0,1,56,21h0a2.31,2.31,0,0,1-2.3,2.31Z"/><rect class="cls-2" x="48.84" y="18.73" width="1.68" height="4.61"/><path class="cls-1" d="M48.84,30.65V26h4.9a2.3,2.3,0,0,1,2.3,2.3h0a2.3,2.3,0,0,1-2.3,2.31Z"/><rect class="cls-2" x="48.84" y="26.04" width="1.68" height="4.61"/><path class="cls-1" d="M48.84,38V33.35h4.9A2.3,2.3,0,0,1,56,35.66h0a2.3,2.3,0,0,1-2.3,2.3Z"/><rect class="cls-2" x="48.84" y="33.35" width="1.68" height="4.61"/><path class="cls-1" d="M48.84,45.27V40.66h4.9A2.31,2.31,0,0,1,56,43h0a2.3,2.3,0,0,1-2.3,2.3Z"/><rect class="cls-2" x="48.84" y="40.66" width="1.68" height="4.61"/><path class="cls-1" d="M23.34,15.16H18.73v-4.9A2.3,2.3,0,0,1,21,8h0a2.31,2.31,0,0,1,2.31,2.3Z"/><rect class="cls-2" x="18.73" y="13.49" width="4.61" height="1.68"/><path class="cls-1" d="M30.65,15.16H26v-4.9A2.3,2.3,0,0,1,28.34,8h0a2.3,2.3,0,0,1,2.31,2.3Z"/><rect class="cls-2" x="26.04" y="13.49" width="4.61" height="1.68"/><path class="cls-1" d="M38,15.16H33.35v-4.9A2.3,2.3,0,0,1,35.66,8h0a2.3,2.3,0,0,1,2.3,2.3Z"/><rect class="cls-2" x="33.35" y="13.49" width="4.61" height="1.68"/><path class="cls-1" d="M45.27,15.16H40.66v-4.9A2.31,2.31,0,0,1,43,8h0a2.3,2.3,0,0,1,2.3,2.3Z"/><rect class="cls-2" x="40.66" y="13.49" width="4.61" height="1.68"/><path class="cls-1" d="M40.66,48.84h4.61v4.9A2.3,2.3,0,0,1,43,56h0a2.31,2.31,0,0,1-2.31-2.3Z"/><rect class="cls-2" x="40.66" y="48.84" width="4.61" height="1.68"/><path class="cls-1" d="M33.35,48.84H38v4.9a2.3,2.3,0,0,1-2.3,2.3h0a2.3,2.3,0,0,1-2.31-2.3Z"/><rect class="cls-2" x="33.35" y="48.84" width="4.61" height="1.68"/><path class="cls-1" d="M26,48.84h4.61v4.9A2.3,2.3,0,0,1,28.34,56h0a2.3,2.3,0,0,1-2.3-2.3Z"/><rect class="cls-2" x="26.04" y="48.84" width="4.61" height="1.68"/><path class="cls-1" d="M18.73,48.84h4.61v4.9A2.31,2.31,0,0,1,21,56h0a2.3,2.3,0,0,1-2.3-2.3Z"/><rect class="cls-2" x="18.73" y="48.84" width="4.61" height="1.68"/><rect class="cls-3" x="15.13" y="15.12" width="33.7" height="33.7" rx="3.72"/><circle class="cls-4" cx="31.99" cy="40.43" r="1.82"/><path class="cls-5" d="M39.81,29.94A7.82,7.82,0,1,0,27,36a4.52,4.52,0,0,1,1.65,3.48V40a1.12,1.12,0,0,0,1.12,1.12h4.37A1.12,1.12,0,0,0,35.29,40v-.49A4.46,4.46,0,0,1,36.94,36,7.81,7.81,0,0,0,39.81,29.94Z"/><path class="cls-4" d="M28.2,39a4.89,4.89,0,0,1,0,.54v.55A1.27,1.27,0,0,0,29.5,41.4h5a1.27,1.27,0,0,0,1.27-1.27v-.55a4.89,4.89,0,0,1,0-.54Z"/></svg>