<svg id="Layer_1" data-name="Layer 1" xmlns="http://www.w3.org/2000/svg" viewBox="0 0 64 64"><defs><style>.cls-1{fill:#0795ff;}.cls-2{fill:#ccd8e5;}</style></defs><title>lotus, flower, floral, spa</title><path class="cls-1" d="M32,32a14.42,14.42,0,0,1,6.3-10.91c0-.34,0-.69,0-1A14.44,14.44,0,0,0,32,8.09a14.44,14.44,0,0,0-6.34,12c0,.35,0,.7,0,1A14.42,14.42,0,0,1,32,32Z"/><path class="cls-1" d="M32,32a14.42,14.42,0,0,1-6.3,10.91c0,.34,0,.69,0,1a14.44,14.44,0,0,0,6.34,12,14.44,14.44,0,0,0,6.34-12c0-.35,0-.7,0-1A14.42,14.42,0,0,1,32,32Z"/><path class="cls-1" d="M32,32a14.45,14.45,0,0,1-6.3-10.91c-.28-.19-.58-.38-.88-.56a14.44,14.44,0,0,0-13.53-.48,14.41,14.41,0,0,0,7.19,11.46c.3.18.61.34.92.49A14.43,14.43,0,0,1,32,32Z"/><path class="cls-2" d="M32,32a14.42,14.42,0,0,0-6.3-10.91A14.45,14.45,0,0,0,32,32Z"/><path class="cls-1" d="M45.52,32.49c-.3-.18-.61-.34-.92-.49A14.43,14.43,0,0,1,32,32a14.45,14.45,0,0,1,6.3,10.91c.28.19.58.38.88.56A14.44,14.44,0,0,0,52.71,44,14.41,14.41,0,0,0,45.52,32.49Z"/><path class="cls-2" d="M32,32a14.42,14.42,0,0,0,6.3,10.91A14.45,14.45,0,0,0,32,32Z"/><path class="cls-1" d="M32,32a14.43,14.43,0,0,1-12.6,0c-.31.15-.62.31-.92.49A14.41,14.41,0,0,0,11.29,44a14.44,14.44,0,0,0,13.53-.48c.3-.18.6-.37.88-.56A14.45,14.45,0,0,1,32,32Z"/><path class="cls-2" d="M32,32a14.45,14.45,0,0,0-6.3,10.91A14.42,14.42,0,0,0,32,32Z"/><path class="cls-2" d="M32,32a14.43,14.43,0,0,0-12.6,0A14.43,14.43,0,0,0,32,32Z"/><path class="cls-1" d="M32,32a14.43,14.43,0,0,1,12.6,0c.31-.15.62-.31.92-.49a14.41,14.41,0,0,0,7.19-11.46,14.44,14.44,0,0,0-13.53.48c-.3.18-.6.37-.88.56A14.45,14.45,0,0,1,32,32Z"/><path class="cls-2" d="M32,32a14.45,14.45,0,0,0,6.3-10.91A14.42,14.42,0,0,0,32,32Z"/><path class="cls-2" d="M32,32a14.43,14.43,0,0,0,12.6,0A14.43,14.43,0,0,0,32,32Z"/></svg>