<svg id="Layer_1" data-name="Layer 1" xmlns="http://www.w3.org/2000/svg" viewBox="0 0 64 64"><defs><style>.cls-1{fill:#ccd8e5;}.cls-2{fill:#0795ff;}.cls-3{fill:#156cdd;}.cls-4{fill:#fff;}</style></defs><title>map, pin, drink, bar, beverage</title><path class="cls-1" d="M42.25,51.54C42.25,54,37.66,56,32,56s-10.25-2-10.25-4.46S26.34,47.08,32,47.08,42.25,49.08,42.25,51.54Z"/><path class="cls-2" d="M49.43,25.43A17.44,17.44,0,0,0,31.14,8c-8.3.4-16,7.93-16.53,16.22A17.37,17.37,0,0,0,21.08,39,37.72,37.72,0,0,1,31.13,50.93l.5,1a.42.42,0,0,0,.74,0l.29-.57A38.33,38.33,0,0,1,42.87,39,17.36,17.36,0,0,0,49.43,25.43Z"/><path class="cls-1" d="M41.55,22.58a3.92,3.92,0,1,1-3.92-3.91A3.92,3.92,0,0,1,41.55,22.58Z"/><path class="cls-3" d="M32,47.08a23.29,23.29,0,0,0-3.08.21,32.65,32.65,0,0,1,2.21,3.64l.5,1a.42.42,0,0,0,.74,0l.29-.57a37.42,37.42,0,0,1,2.45-4A23.63,23.63,0,0,0,32,47.08Z"/><path class="cls-1" d="M29.21,30.52a1,1,0,0,1-1-.88L26.88,18.89a.47.47,0,0,0-.47-.41h-1.7a1,1,0,0,1,0-2h3a1,1,0,0,1,1,.88l1.5,12a1,1,0,0,1-.87,1.12Z"/><path class="cls-4" d="M35.32,36.25H28.68a.83.83,0,0,1-.81-.71l-1.49-12a.82.82,0,0,1,.81-.92h9.63a.82.82,0,0,1,.8.92l-1.49,12A.83.83,0,0,1,35.32,36.25Z"/></svg>