<svg id="Layer_1" data-name="Layer 1" xmlns="http://www.w3.org/2000/svg" viewBox="0 0 64 64"><defs><style>.cls-1{fill:#dfe8f4;}.cls-2{fill:#ccd8e5;}.cls-3{fill:#0795ff;}.cls-4{fill:#fff;}.cls-5{fill:#156cdd;}</style></defs><title>map, pins, location, navigation</title><rect class="cls-1" x="13.49" y="20" width="36" height="36" rx="3.39"/><rect class="cls-2" x="21.43" y="20" width="1.05" height="36"/><rect class="cls-2" x="30.97" y="20" width="1.05" height="36"/><rect class="cls-2" x="40.51" y="20" width="1.05" height="36"/><rect class="cls-2" x="30.97" y="10.46" width="1.05" height="36" transform="translate(59.95 -3.03) rotate(90)"/><rect class="cls-2" x="30.97" y="20" width="1.05" height="36" transform="translate(69.49 6.51) rotate(90)"/><rect class="cls-2" x="30.97" y="29.54" width="1.05" height="36" transform="translate(79.03 16.05) rotate(90)"/><path class="cls-2" d="M46.1,20H41V32h8.46V23.39A3.39,3.39,0,0,0,46.1,20Z"/><path class="cls-3" d="M50.51,17.48A9.48,9.48,0,0,0,40.56,8a9.92,9.92,0,0,0-9,8.82,9.47,9.47,0,0,0,3.52,8,20.7,20.7,0,0,1,5.47,6.49l.27.53a.23.23,0,0,0,.4,0l.16-.31a20.85,20.85,0,0,1,5.55-6.69A9.41,9.41,0,0,0,50.51,17.48Z"/><path class="cls-4" d="M44.23,17.72A3.2,3.2,0,1,1,41,14.53,3.2,3.2,0,0,1,44.23,17.72Z"/><path class="cls-3" d="M23.37,33.42A1.42,1.42,0,1,1,22,32,1.41,1.41,0,0,1,23.37,33.42Z"/><path class="cls-3" d="M32.91,47.54a1.42,1.42,0,1,1-1.42-1.42A1.41,1.41,0,0,1,32.91,47.54Z"/><path class="cls-5" d="M42.45,38A1.42,1.42,0,1,1,41,36.58,1.41,1.41,0,0,1,42.45,38Z"/></svg>