<svg id="Layer_1" data-name="Layer 1" xmlns="http://www.w3.org/2000/svg" viewBox="0 0 64 64"><defs><style>.cls-1{fill:#dfe8f4;}.cls-2{fill:#ccd8e5;}.cls-3{fill:#0795ff;}.cls-4{fill:#fff;}.cls-5{fill:#156cdd;}</style></defs><title>map, pin, navigation, shopping, store</title><path class="cls-1" d="M52,56H11.08A2.64,2.64,0,0,1,8.56,52.6L17,24.49a2.65,2.65,0,0,1,2.52-1.88H43.58a2.63,2.63,0,0,1,2.52,1.88L54.53,52.6A2.63,2.63,0,0,1,52,56Z"/><path class="cls-1" d="M52,56H11.08A2.64,2.64,0,0,1,8.56,52.6L17,24.49a2.65,2.65,0,0,1,2.52-1.88H43.58a2.63,2.63,0,0,1,2.52,1.88L54.53,52.6A2.63,2.63,0,0,1,52,56Z"/><path class="cls-2" d="M45.5,43.05a2,2,0,0,0-1-1.32l-11-5.93V22.61h-4v5.3H16l-1.2,4H29.55v3.58l-20,20a2.57,2.57,0,0,0,1.52.51h3.63L31.47,39.22,41.8,44.81,44.3,56h4.09Z"/><path class="cls-3" d="M52.17,27.72l-7.62,7.62a.78.78,0,0,1-1.1,0l-7.61-7.62a11.55,11.55,0,0,1,0-16.33h0a11.55,11.55,0,0,1,16.33,0h0A11.55,11.55,0,0,1,52.17,27.72Z"/><path class="cls-4" d="M45.25,38A1.25,1.25,0,1,1,44,36.72,1.25,1.25,0,0,1,45.25,38Z"/><path class="cls-5" d="M47.07,23.1H41.22a.62.62,0,0,1-.61-.47l-1-4.22a.62.62,0,0,1,.6-.77h8a.62.62,0,0,1,.61.77l-1.06,4.22A.61.61,0,0,1,47.07,23.1Z"/><path class="cls-5" d="M42.51,25.14a.94.94,0,1,1-.94-.94A.94.94,0,0,1,42.51,25.14Z"/><path class="cls-5" d="M47.65,25.14a.94.94,0,1,1-.93-.94A.93.93,0,0,1,47.65,25.14Z"/><path class="cls-5" d="M41.44,20.2l-1-4.21h0a.59.59,0,0,0-.57-.45H37.91a.61.61,0,1,0,0,1.21h.89a.45.45,0,0,1,.43.33L40,20.2a.62.62,0,0,0,.6.47h1.44A.62.62,0,0,1,41.44,20.2Z"/></svg>