<svg id="Layer_1" data-name="Layer 1" xmlns="http://www.w3.org/2000/svg" viewBox="0 0 64 64"><defs><style>.cls-1{fill:#0795ff;}.cls-2{fill:#dfe8f4;}</style></defs><title>medical, folder, plus, healthcare</title><path class="cls-1" d="M26.55,17.87V16.06a1.25,1.25,0,0,0-1.25-1.25H12.77a1.25,1.25,0,0,0-1.25,1.25V47.63a1.56,1.56,0,0,0,1.56,1.56H50.92a1.56,1.56,0,0,0,1.56-1.56V19.26A1.25,1.25,0,0,0,51.23,18H26.69A.14.14,0,0,1,26.55,17.87Z"/><path class="cls-2" d="M51.3,49.19H12.7A1.34,1.34,0,0,1,11.37,48L8.2,24.26a1.34,1.34,0,0,1,1.33-1.52H54.47a1.34,1.34,0,0,1,1.33,1.52L52.63,48A1.34,1.34,0,0,1,51.3,49.19Z"/><rect class="cls-1" x="29.15" y="29.75" width="5.7" height="12.42" rx="0.43"/><rect class="cls-1" x="29.15" y="29.75" width="5.7" height="12.42" rx="0.43" transform="translate(67.96 3.96) rotate(90)"/></svg>