<svg id="Layer_1" data-name="Layer 1" xmlns="http://www.w3.org/2000/svg" viewBox="0 0 64 64"><defs><style>.cls-1{fill:#dfe8f4;}.cls-2{fill:#ccd8e5;}.cls-3{fill:#0795ff;}.cls-4{fill:#fff;}</style></defs><title>medical, blood, type, o, negative</title><path class="cls-1" d="M28.76,13.45,26.86,9.5C26,7.66,24.35,7.66,23.8,8.8l-2.24,4.65A70.64,70.64,0,0,1,12,27.84,17,17,0,0,0,8,39.23c.22,8.56,7.92,16.37,16.48,16.7A17.15,17.15,0,0,0,37.75,27.14,55,55,0,0,1,28.76,13.45Z"/><path class="cls-2" d="M32,54.5A17.17,17.17,0,0,0,41.52,44H32Z"/><circle class="cls-3" cx="44" cy="43.98" r="12"/><path class="cls-4" d="M18.18,31.23A2,2,0,0,1,16.65,28a21.81,21.81,0,0,0,3-4.54,2,2,0,1,1,3.6,1.74,25.73,25.73,0,0,1-3.56,5.36A2,2,0,0,1,18.18,31.23Z"/><path class="cls-4" d="M14.75,36.52a2,2,0,0,1-2-2,2,2,0,0,1,.58-1.41,2.08,2.08,0,0,1,2.83,0,2,2,0,0,1,.58,1.41,2,2,0,0,1-2,2Z"/><path class="cls-4" d="M46.27,48.58H41.73l-1-1V40.39l1-1h4.54l1,1v7.19Zm-3.54-2h2.54V41.39H42.73Z"/><path class="cls-4" d="M20.72,39.54h0a.76.76,0,0,1,.77-.76h7.34a.76.76,0,0,1,.77.76h0a.76.76,0,0,1-.77.77H21.49A.76.76,0,0,1,20.72,39.54Z"/></svg>