<svg id="Layer_1" data-name="Layer 1" xmlns="http://www.w3.org/2000/svg" viewBox="0 0 64 64"><defs><style>.cls-1{fill:#156cdd;}.cls-2{fill:#0795ff;}.cls-3{fill:#dfe8f4;}.cls-4{fill:#ccd8e5;}.cls-5{fill:#fff;}</style></defs><title>monitor, computer, percentage, electronics</title><path class="cls-1" d="M37.45,50.67h0a2.24,2.24,0,0,1-2.24-2.25V45.17H28.79v3.25a2.24,2.24,0,0,1-2.24,2.25h0A3.55,3.55,0,0,0,23,54.22h0A1.79,1.79,0,0,0,24.79,56H39.21A1.79,1.79,0,0,0,41,54.22h0A3.55,3.55,0,0,0,37.45,50.67Z"/><path class="cls-2" d="M37.45,50.67H26.55A3.55,3.55,0,0,0,23,54.22h0A1.79,1.79,0,0,0,24.79,56H39.21A1.79,1.79,0,0,0,41,54.22h0A3.55,3.55,0,0,0,37.45,50.67Z"/><rect class="cls-3" x="8" y="13.17" width="48" height="34" rx="4.04"/><path class="cls-4" d="M18.81,21.58H45.19a0,0,0,0,1,0,0v5.94A4.47,4.47,0,0,1,40.71,32H23.29a4.47,4.47,0,0,1-4.47-4.47V21.58A0,0,0,0,1,18.81,21.58Z"/><path class="cls-2" d="M8,41.38v1.75a4,4,0,0,0,4,4H52a4,4,0,0,0,4-4V41.38Z"/><rect class="cls-4" x="8" y="39.31" width="48" height="2.06"/><path class="cls-1" d="M41.72,8H22.28a3.46,3.46,0,0,0-3.47,3.46V24.54A3.46,3.46,0,0,0,22.28,28h4.28A3.49,3.49,0,0,1,29,29l2.36,2.36a.88.88,0,0,0,1.24,0L35,29a3.49,3.49,0,0,1,2.46-1h4.28a3.46,3.46,0,0,0,3.47-3.46V11.46A3.46,3.46,0,0,0,41.72,8Z"/><path class="cls-1" d="M29,29l2.36,2.36a.88.88,0,0,0,1.24,0L35,29a3.49,3.49,0,0,1,2.46-1H26.56A3.49,3.49,0,0,1,29,29Z"/><path class="cls-5" d="M30.86,15.2a1.66,1.66,0,1,1-1.66-1.66A1.65,1.65,0,0,1,30.86,15.2Z"/><path class="cls-5" d="M36.45,20.79a1.66,1.66,0,1,1-1.65-1.66A1.66,1.66,0,0,1,36.45,20.79Z"/><path class="cls-5" d="M29.09,21.66a.75.75,0,0,1-.53-.22.74.74,0,0,1,0-1.06l5.82-5.83a.75.75,0,0,1,1.06,0,.74.74,0,0,1,0,1.06l-5.82,5.83A.79.79,0,0,1,29.09,21.66Z"/></svg>