<svg id="Layer_1" data-name="Layer 1" xmlns="http://www.w3.org/2000/svg" viewBox="0 0 64 64"><defs><style>.cls-1{fill:#156cdd;}.cls-2{fill:#0795ff;}.cls-3{fill:#dfe8f4;}.cls-4{fill:#ccd8e5;}.cls-5{fill:#fff;}</style></defs><title>monitor, computer, confirm, cancel, choice</title><path class="cls-1" d="M37.45,48.08h0a2.24,2.24,0,0,1-2.24-2.24V42.58H28.79v3.26a2.24,2.24,0,0,1-2.24,2.24h0A3.55,3.55,0,0,0,23,51.63h0a1.79,1.79,0,0,0,1.79,1.79H39.21A1.79,1.79,0,0,0,41,51.63h0A3.55,3.55,0,0,0,37.45,48.08Z"/><path class="cls-2" d="M38.79,48.08H25.21A2.21,2.21,0,0,0,23,50.29v1.34a1.79,1.79,0,0,0,1.79,1.79H39.21A1.79,1.79,0,0,0,41,51.63V50.29A2.21,2.21,0,0,0,38.79,48.08Z"/><rect class="cls-3" x="8" y="10.58" width="48" height="34" rx="4.04"/><path class="cls-2" d="M8,38.79v1.75a4,4,0,0,0,4,4H52a4,4,0,0,0,4-4V38.79Z"/><rect class="cls-4" x="8" y="36.73" width="48" height="2.06"/><circle class="cls-1" cx="32" cy="41.69" r="1.03"/><circle class="cls-1" cx="22.34" cy="25.31" r="7.5" transform="translate(-7.43 41.24) rotate(-76.72)"/><circle class="cls-2" cx="41.66" cy="25.31" r="7.5" transform="translate(-5.7 36.87) rotate(-45)"/><rect class="cls-5" x="41.29" y="22.13" width="1.87" height="6.36" rx="0.53" transform="translate(30.27 -22.44) rotate(45.01)"/><rect class="cls-5" x="39.14" y="24.6" width="1.87" height="3.47" rx="0.53" transform="translate(87.03 16.62) rotate(135)"/><rect class="cls-5" x="21.41" y="22.13" width="1.87" height="6.36" rx="0.53" transform="translate(24.44 -8.38) rotate(45)"/><rect class="cls-5" x="21.41" y="22.13" width="1.87" height="6.36" rx="0.53" transform="translate(56.04 27.41) rotate(135)"/></svg>