<svg id="Layer_1" data-name="Layer 1" xmlns="http://www.w3.org/2000/svg" viewBox="0 0 64 64"><defs><style>.cls-1{fill:#156cdd;}.cls-2{fill:#0795ff;}.cls-3{fill:#dfe8f4;}.cls-4{fill:#ccd8e5;}.cls-5{fill:#fff;}</style></defs><title>monitor, computer, store, shop, online</title><path class="cls-1" d="M37.45,50.67h0a2.24,2.24,0,0,1-2.24-2.25V45.17H28.79v3.25a2.24,2.24,0,0,1-2.24,2.25h0A3.55,3.55,0,0,0,23,54.22h0A1.79,1.79,0,0,0,24.79,56H39.21A1.79,1.79,0,0,0,41,54.22h0A3.55,3.55,0,0,0,37.45,50.67Z"/><path class="cls-2" d="M37.45,50.67H26.55A3.55,3.55,0,0,0,23,54.22h0A1.79,1.79,0,0,0,24.79,56H39.21A1.79,1.79,0,0,0,41,54.22h0A3.55,3.55,0,0,0,37.45,50.67Z"/><rect class="cls-3" x="8" y="13.17" width="48" height="34" rx="4.04"/><path class="cls-2" d="M8,41.38v1.75a4,4,0,0,0,4,4H52a4,4,0,0,0,4-4V41.38Z"/><rect class="cls-4" x="8" y="39.31" width="48" height="2.06"/><rect class="cls-1" x="20.2" y="20.05" width="23.59" height="1.16"/><path class="cls-2" d="M23.44,16.61,27.36,8H24.5a1.17,1.17,0,0,0-1,.52L18.42,16a2.1,2.1,0,0,0-.36,1.17v1.66a1.18,1.18,0,0,0,1.18,1.18h4.05V17.28A1.56,1.56,0,0,1,23.44,16.61Z"/><path class="cls-2" d="M45.58,16l-5.1-7.52a1.17,1.17,0,0,0-1-.52H36.64l3.92,8.61a1.56,1.56,0,0,1,.15.67v2.77h4a1.18,1.18,0,0,0,1.18-1.18V17.21A2.1,2.1,0,0,0,45.58,16Z"/><rect class="cls-2" x="20.2" y="18.11" width="23.59" height="13.94"/><path class="cls-1" d="M23.44,16.61v0H18.16a2.19,2.19,0,0,0-.1.63v1.66a1.18,1.18,0,0,0,1.18,1.18h4.05V17.28A1.56,1.56,0,0,1,23.44,16.61Z"/><path class="cls-1" d="M45.84,16.58H40.55v0a1.56,1.56,0,0,1,.15.67v2.77h4a1.18,1.18,0,0,0,1.18-1.18V17.21A2.19,2.19,0,0,0,45.84,16.58Z"/><path class="cls-5" d="M36.64,8H27.36l-3.92,8.61a1.56,1.56,0,0,0-.15.67v2.77H40.71V17.28a1.56,1.56,0,0,0-.15-.67Z"/><path class="cls-3" d="M23.44,16.61a1.56,1.56,0,0,0-.15.67v2.77H40.71V17.28a1.56,1.56,0,0,0-.15-.67v0H23.45Z"/><path class="cls-2" d="M33.51,8h-3l-1.37,8.81a1.94,1.94,0,0,0,0,.24v3h5.8v-3a1.94,1.94,0,0,0,0-.24Z"/><path class="cls-1" d="M34.84,16.58H29.16l0,.23a1.94,1.94,0,0,0,0,.24v3h5.8v-3a1.94,1.94,0,0,0,0-.24Z"/><path class="cls-1" d="M34.91,32.05H29.09v-6.4A2.91,2.91,0,0,1,32,22.74h0a2.91,2.91,0,0,1,2.91,2.91Z"/><rect class="cls-5" x="18.06" y="32" width="27.88" height="1.25"/></svg>