<svg id="Layer_1" data-name="Layer 1" xmlns="http://www.w3.org/2000/svg" viewBox="0 0 64 64"><defs><style>.cls-1{fill:#156cdd;}.cls-2{fill:#fff;}.cls-3{fill:#dfe8f4;}.cls-4{fill:#0795ff;}</style></defs><title>mouth, dental, smile, teeth</title><path class="cls-1" d="M8,21.49a24,24,0,0,0,48,0Z"/><path class="cls-2" d="M15.56,27.93c0,4.59,7.36,8.31,16.44,8.31s16.44-3.72,16.44-8.31Z"/><path class="cls-3" d="M17,31.3a48,48,0,0,0,15,2.27A48,48,0,0,0,47,31.3a5.14,5.14,0,0,0,1.42-3.37H15.56A5.14,5.14,0,0,0,17,31.3Z"/><path class="cls-4" d="M55.15,20.38l-1.52.45a8.29,8.29,0,0,1-5.45-.24,26.54,26.54,0,0,0-8.49-2.08c-3.15,0-3.54,2.38-7.24,2.72a4.51,4.51,0,0,1-.9,0c-3.7-.34-4.09-2.72-7.24-2.72a26.54,26.54,0,0,0-8.49,2.08,8.29,8.29,0,0,1-5.45.24l-1.52-.45c-.72-.21-1.16,1-.59,1.68l2.1,2.34c3.33,4.4,9.38,7.34,16.29,7.34a24.94,24.94,0,0,0,3.27-.22,15.25,15.25,0,0,1,4.16,0,24.94,24.94,0,0,0,3.27.22c6.91,0,13-2.94,16.29-7.34l2.1-2.34C56.31,21.42,55.87,20.17,55.15,20.38Z"/></svg>