<svg id="Layer_1" data-name="Layer 1" xmlns="http://www.w3.org/2000/svg" viewBox="0 0 64 64"><defs><style>.cls-1{fill:#0795ff;}.cls-2{fill:#dfe8f4;}.cls-3{fill:#fff;}</style></defs><title>navigation, direction, road, street, driving</title><rect class="cls-1" x="8" y="24.75" width="48" height="31.25"/><polygon class="cls-2" points="56 56 8 56 24.25 24.75 39.75 24.75 56 56"/><rect class="cls-3" x="31.29" y="23.79" width="1.42" height="4.17"/><rect class="cls-3" x="31.29" y="31.04" width="1.42" height="4.17"/><rect class="cls-3" x="31.29" y="38.29" width="1.42" height="4.17"/><rect class="cls-3" x="31.29" y="45.54" width="1.42" height="4.17"/><rect class="cls-3" x="31.29" y="52.79" width="1.42" height="3.21"/><path class="cls-1" d="M41.48,17.48A9.48,9.48,0,0,0,31.53,8a9.92,9.92,0,0,0-9,8.82,9.47,9.47,0,0,0,3.52,8,20.7,20.7,0,0,1,5.47,6.49l.27.53a.23.23,0,0,0,.4,0l.16-.31a20.85,20.85,0,0,1,5.55-6.69A9.41,9.41,0,0,0,41.48,17.48Z"/><path class="cls-3" d="M35.2,17.72A3.2,3.2,0,1,1,32,14.53,3.2,3.2,0,0,1,35.2,17.72Z"/></svg>