<svg id="Layer_1" data-name="Layer 1" xmlns="http://www.w3.org/2000/svg" viewBox="0 0 64 64"><defs><style>.cls-1{fill:#ccd8e5;}.cls-2{fill:#cad0d8;}.cls-2,.cls-3,.cls-4{fill-rule:evenodd;}.cls-3{fill:#156cdd;}.cls-4{fill:#0795ff;}</style></defs><title>netflix, social, media, network</title><rect class="cls-1" x="8" y="8" width="48" height="48" rx="6.99"/><path class="cls-2" d="M56,49V39.72a24.1,24.1,0,0,0-7.15-17.14l-7.56-7.49H29L22.69,48.93h0A24.1,24.1,0,0,0,39.75,56H49A7,7,0,0,0,56,49Z"/><path class="cls-3" d="M22.66,15.07V32c0,9.31,0,16.93,0,16.94A12.83,12.83,0,0,0,24,48.81l2.13-.21c.73-.06,2.93-.2,3.18-.21.07,0,.08-.37.08-7.16l0-7.16h0l-6.71-19Z"/><polygon class="cls-3" points="29.37 37.94 29.38 34.07 29.37 34.06 29.37 34.07 22.66 15.07 29.37 37.94 29.37 37.94"/><path class="cls-3" d="M34.68,15.09l0,7.49v7.48L41.3,48.93h0s0-7.64,0-16.94V15.09Z"/><polygon class="cls-3" points="34.66 26.27 34.65 30.06 41.02 48.12 34.66 26.27 34.66 26.27"/><path class="cls-4" d="M22.66,15.07l6.71,19h0l.53,1.5c3,8.33,4.53,12.81,4.54,12.82l1,0c1.63.08,3.66.26,5.19.45a3.81,3.81,0,0,0,.68,0L34.65,30.06h0L34,28.32c-.61-1.69-1-2.83-3.43-9.66-.65-1.84-1.2-3.4-1.22-3.47l-.05-.13H22.66Z"/></svg>