<svg id="Layer_1" data-name="Layer 1" xmlns="http://www.w3.org/2000/svg" viewBox="0 0 64 64"><defs><style>.cls-1{fill:#dfe8f4;}.cls-2{fill:#ccd8e5;}.cls-3{fill:#fff;}.cls-4{fill:#0795ff;}.cls-5{fill:#156cdd;}</style></defs><title>package, box, confirm, arrival, parcel</title><rect class="cls-1" x="14.28" y="8" width="35.43" height="31" rx="3.13"/><path class="cls-2" d="M46.59,8H37.68L26.36,19.42l9.27,9.27A6,6,0,0,1,37.4,33h0a6,6,0,0,0,6,6h3.15a3.13,3.13,0,0,0,3.13-3.13V11.13A3.13,3.13,0,0,0,46.59,8Z"/><path class="cls-3" d="M26.16,8V18.89a.79.79,0,0,0,.79.8h10.1a.79.79,0,0,0,.79-.8V8Z"/><circle class="cls-4" cx="32" cy="44" r="12"/><path class="cls-5" d="M21.1,39H42.9a12,12,0,0,0-21.8,0Z"/><path class="cls-3" d="M29.84,48,27.36,45.5a1.81,1.81,0,0,1-.26-2.32A1.75,1.75,0,0,1,29.77,43l.84.84,3.54-3.54A1.83,1.83,0,0,1,36.47,40a1.75,1.75,0,0,1,.22,2.67L31.39,48A1.09,1.09,0,0,1,29.84,48Z"/></svg>