<svg id="Layer_1" data-name="Layer 1" xmlns="http://www.w3.org/2000/svg" viewBox="0 0 64 64"><defs><style>.cls-1{fill:#dfe8f4;}.cls-2{fill:#ccd8e5;}</style></defs><title>party, hat, celebration, holiday</title><path class="cls-1" d="M28.31,11.2a2,2,0,0,1,1.2.65,3.14,3.14,0,0,1,1.24,2h-.12a3.53,3.53,0,0,1-2-1,2.14,2.14,0,0,1-.79-1.07.38.38,0,0,1,.12-.39.39.39,0,0,1,.33-.18m0-1a1.43,1.43,0,0,0-1.09.52c-.6.68-.57,1.69.77,2.87a4.46,4.46,0,0,0,2.64,1.22,1.12,1.12,0,0,0,.88-.34c.6-.68,0-2.2-1.34-3.37a3,3,0,0,0-1.86-.9Z"/><path class="cls-1" d="M35.69,11.2a.39.39,0,0,1,.33.18.38.38,0,0,1,.12.39,2.14,2.14,0,0,1-.79,1.07,3.53,3.53,0,0,1-2,1h-.12a3.14,3.14,0,0,1,1.24-2,2,2,0,0,1,1.2-.65m0-1a3,3,0,0,0-1.86.9c-1.34,1.17-1.94,2.69-1.34,3.37a1.12,1.12,0,0,0,.88.34A4.46,4.46,0,0,0,36,13.59c1.34-1.18,1.37-2.19.77-2.87a1.43,1.43,0,0,0-1.09-.52Z"/><path class="cls-2" d="M46.28,53.55l-13-39.27a1.38,1.38,0,0,0-2.62,0l-13,39.27a.43.43,0,0,0-.07.23C17.65,55,24.07,56,32,56s14.35-1,14.35-2.22A.43.43,0,0,0,46.28,53.55Z"/><path class="cls-2" d="M46.28,53.55l-13-39.27a1.38,1.38,0,0,0-2.62,0l-13,39.27a.43.43,0,0,0-.07.23C17.65,55,24.07,56,32,56s14.35-1,14.35-2.22A.43.43,0,0,0,46.28,53.55Z"/><path class="cls-2" d="M32,8c-1.09,0-2,.73-2,2.65s.89,3.46,2,3.46,2-1.55,2-3.46S33.09,8,32,8Zm0,5.11c-.28,0-1-.86-1-2.46S31.73,9,32,9s1,0,1,1.65S32.28,13.11,32,13.11Z"/><path class="cls-1" d="M20.35,55.07a1.59,1.59,0,0,0,.16-.69,1.62,1.62,0,0,0-2.65-1.26l-.14.43a.43.43,0,0,0-.07.23C17.65,54.27,18.66,54.71,20.35,55.07Z"/><path class="cls-1" d="M25.76,54.38a1.63,1.63,0,1,0-3.25,0A1.58,1.58,0,0,0,23,55.5c.65.09,1.34.16,2.07.22A1.62,1.62,0,0,0,25.76,54.38Z"/><circle class="cls-1" cx="29.38" cy="54.38" r="1.62"/><circle class="cls-1" cx="34.62" cy="54.38" r="1.62"/><path class="cls-1" d="M39.87,52.75a1.62,1.62,0,0,0-.91,3c.73-.06,1.42-.13,2.07-.22a1.58,1.58,0,0,0,.46-1.12A1.63,1.63,0,0,0,39.87,52.75Z"/><path class="cls-1" d="M46.35,53.78a.43.43,0,0,0-.07-.23l-.14-.43a1.62,1.62,0,0,0-2.65,1.26,1.59,1.59,0,0,0,.16.69C45.34,54.71,46.35,54.27,46.35,53.78Z"/><circle class="cls-1" cx="21.51" cy="49.38" r="1.62"/><circle class="cls-1" cx="26.76" cy="49.38" r="1.62"/><circle class="cls-1" cx="32" cy="49.38" r="1.63"/><circle class="cls-1" cx="37.24" cy="49.38" r="1.62"/><circle class="cls-1" cx="42.49" cy="49.38" r="1.62"/><circle class="cls-1" cx="24.13" cy="44.38" r="1.62"/><circle class="cls-1" cx="29.38" cy="44.38" r="1.62"/><circle class="cls-1" cx="34.62" cy="44.38" r="1.62"/><circle class="cls-1" cx="39.87" cy="44.38" r="1.62"/><path class="cls-1" d="M23.14,39.38a1.64,1.64,0,0,0-.39-1.05L21.88,41A1.63,1.63,0,0,0,23.14,39.38Z"/><circle class="cls-1" cx="26.76" cy="39.38" r="1.62"/><circle class="cls-1" cx="32" cy="39.38" r="1.63"/><circle class="cls-1" cx="37.24" cy="39.38" r="1.62"/><path class="cls-1" d="M41.25,38.33A1.61,1.61,0,0,0,42.12,41Z"/><path class="cls-1" d="M24.13,36a1.62,1.62,0,0,0,.44-3.18l-1,3.07A1.62,1.62,0,0,0,24.13,36Z"/><circle class="cls-1" cx="29.38" cy="34.38" r="1.62"/><circle class="cls-1" cx="34.62" cy="34.38" r="1.62"/><path class="cls-1" d="M39.43,32.82a1.62,1.62,0,1,0,1,3.07Z"/><path class="cls-1" d="M26.76,31a1.63,1.63,0,1,0-.55-3.15l-.8,2.43A1.62,1.62,0,0,0,26.76,31Z"/><circle class="cls-1" cx="32" cy="29.38" r="1.63"/><path class="cls-1" d="M37.79,27.85a1.62,1.62,0,1,0,.8,2.43Z"/><circle class="cls-1" cx="29.38" cy="24.38" r="1.62"/><circle class="cls-1" cx="34.62" cy="24.38" r="1.62"/><circle class="cls-1" cx="32" cy="19.38" r="1.63"/><path class="cls-1" d="M30.69,14.28l-.49,1.49a1.61,1.61,0,0,0,.8-1.39,1.46,1.46,0,0,0-.09-.52A1.4,1.4,0,0,0,30.69,14.28Z"/><path class="cls-1" d="M33.31,14.28a1.4,1.4,0,0,0-.22-.42,1.46,1.46,0,0,0-.09.52,1.61,1.61,0,0,0,.8,1.39Z"/></svg>