<svg id="Layer_1" data-name="Layer 1" xmlns="http://www.w3.org/2000/svg" viewBox="0 0 64 64"><defs><style>.cls-1{fill:#dfe8f4;}.cls-2{fill:#ccd8e5;}.cls-3{fill:#fff;}.cls-4{fill:#0795ff;}.cls-5{fill:#156cdd;}</style></defs><title>payment, dental, credit, card, finance</title><path class="cls-1" d="M8.16,21.52a11.3,11.3,0,0,1,18.41-6.74,2.24,2.24,0,0,0,2.92,0,11.29,11.29,0,0,1,16.2,15.55,49.28,49.28,0,0,0-3.15,4.33L37.4,43a3.63,3.63,0,0,1-3.09,1.72h0A3.62,3.62,0,0,1,30.68,41l.1-3.21A2.73,2.73,0,0,0,28.05,35h0a2.72,2.72,0,0,0-2.72,2.81l.1,3.21a3.63,3.63,0,0,1-3.63,3.74h0A3.66,3.66,0,0,1,18.7,43c-1.3-2.13-3.54-5.77-5.09-8.29a52.43,52.43,0,0,0-3.16-4.28A11.26,11.26,0,0,1,8.16,21.52Z"/><path class="cls-2" d="M33.86,33.75A1.85,1.85,0,0,0,32,35.6v8.28a3.57,3.57,0,0,0,2.31.85A3.63,3.63,0,0,0,37.4,43l5.14-8.35c.19-.31.39-.61.6-.91Z"/><path class="cls-2" d="M36.06,17.87l-1.3.61a3.3,3.3,0,0,1-3.32-.29L27.08,15.1a2.23,2.23,0,0,0,2.41-.32,11,11,0,0,1,2.57-1.62,4.42,4.42,0,0,1,4.38.45h0A2.47,2.47,0,0,1,36.06,17.87Z"/><path class="cls-3" d="M14.78,20a1.41,1.41,0,0,1-1-2.42,7.78,7.78,0,0,1,5.46-2.22,1.41,1.41,0,0,1,0,2.82,4.92,4.92,0,0,0-3.49,1.42A1.41,1.41,0,0,1,14.78,20Z"/><path class="cls-3" d="M12.85,24.59a1.41,1.41,0,0,1-1.41-1.41h0a1.48,1.48,0,0,1,0-.21,1.41,1.41,0,0,1,2.82.16v.06A1.41,1.41,0,0,1,12.85,24.59Zm0-1.41h0Z"/><rect class="cls-4" x="28.03" y="34.87" width="27.97" height="17" rx="1.86"/><rect class="cls-5" x="28.03" y="38.56" width="27.97" height="4.31"/><path class="cls-5" d="M48.27,47.18A2.15,2.15,0,0,1,49,45.57,2.14,2.14,0,0,0,47.54,45a2.18,2.18,0,0,0,0,4.36A2.14,2.14,0,0,0,49,48.79,2.17,2.17,0,0,1,48.27,47.18Z"/><path class="cls-3" d="M50.45,45a2.18,2.18,0,0,0-1.46.57,2.14,2.14,0,0,1,0,3.22A2.18,2.18,0,1,0,50.45,45Z"/><path class="cls-1" d="M49.72,47.18A2.13,2.13,0,0,0,49,45.57a2.16,2.16,0,0,0,0,3.22A2.14,2.14,0,0,0,49.72,47.18Z"/></svg>