<svg id="Layer_1" data-name="Layer 1" xmlns="http://www.w3.org/2000/svg" viewBox="0 0 64 64"><defs><style>.cls-1{fill:#0795ff;}.cls-2{fill:#156cdd;}</style></defs><title>q, social, media, network</title><path class="cls-1" d="M51.38,45.67h0s-.23,3.44-3.37,3.44c-2.42,0-4.07-1.84-5.61-4.24l0,0c-1-1.78-3.55-5.68-3.55-5.68-1.61-2.29-3.53-4.24-6.28-4.86a13.3,13.3,0,0,0-9.54,1.59,1.17,1.17,0,0,0-.44,1.51l.33.68a1.21,1.21,0,0,0,1.29.76,9.07,9.07,0,0,1,3.6.24c2,.46,3.52,3.2,5.28,6.35a8.47,8.47,0,0,1-3.81.93c-6.53,0-11.83-7.82-11.83-17.46s5.3-17.46,11.83-17.46,11.82,7.81,11.82,17.46a25.7,25.7,0,0,1-.34,4.17,3.74,3.74,0,0,0,1,3.23,28.69,28.69,0,0,1,3.06,3.81.92.92,0,0,0,1.54,0,21.3,21.3,0,0,0,3.15-11.18C49.58,17.36,40.5,8,29.3,8S9,17.36,9,28.91,18.1,49.82,29.3,49.82a19.48,19.48,0,0,0,5.84-.89c2.35,3.72,5.32,7.07,10,7.07C54.59,56,55,45.67,55,45.67Z"/><path class="cls-2" d="M33.11,45.44a8.47,8.47,0,0,1-3.81.93c-3.24,0-6.17-1.92-8.3-5A1.87,1.87,0,0,0,18.17,41c-2,1.83-.32,4.36,2.4,6.76a19.75,19.75,0,0,0,8.73,2.06,19.48,19.48,0,0,0,5.84-.89Z"/><path class="cls-2" d="M32.52,44.4h0l0,0Z"/><path class="cls-2" d="M36,50.26v0Z"/></svg>