<svg id="Layer_1" data-name="Layer 1" xmlns="http://www.w3.org/2000/svg" viewBox="0 0 64 64"><defs><style>.cls-1{fill:#dfe8f4;}.cls-2{fill:#ccd8e5;}.cls-3{fill:#0795ff;}.cls-4{fill:#fff;}</style></defs><title>question, answer, forum, quiz, clipboard</title><rect class="cls-1" x="13.17" y="12.18" width="37.67" height="43.82" rx="2.73"/><path class="cls-2" d="M48.11,12.18H24.3v1.16a1.12,1.12,0,0,0,1.12,1.12H50.79A2.73,2.73,0,0,0,48.11,12.18Z"/><path class="cls-3" d="M38.47,11.08H36.36a1.49,1.49,0,0,1-1.41-1,3.13,3.13,0,0,0-5.9,0,1.49,1.49,0,0,1-1.41,1H25.53a1.24,1.24,0,0,0-1.23,1.24v1.62a.52.52,0,0,0,.52.52H39.18a.52.52,0,0,0,.52-.52V12.32A1.24,1.24,0,0,0,38.47,11.08ZM32,10a1.12,1.12,0,0,1,1.12,1.08H30.88A1.12,1.12,0,0,1,32,10Z"/><path class="cls-4" d="M28.62,21.27H22.16a.74.74,0,0,0-.54.23l-1.05,1.05a.74.74,0,0,0-.23.54V31.3a.73.73,0,0,0,.23.54l1.05,1.06a.77.77,0,0,0,.54.22h6.46a.77.77,0,0,0,.54-.22l1.05-1.06a.73.73,0,0,0,.23-.54V23.09a.74.74,0,0,0-.23-.54L29.16,21.5A.74.74,0,0,0,28.62,21.27Zm-4.52,3h2.58a.76.76,0,0,1,.76.76V29l-1.66-2.07a.5.5,0,0,0-.78.63l1.39,1.74a.53.53,0,0,1-.41.87H24.1a.76.76,0,0,1-.76-.76V25A.76.76,0,0,1,24.1,24.27Z"/><path class="cls-3" d="M31.24,46.38l-4-8.74a1.51,1.51,0,0,0-2.73,0l-4,8.85a1.5,1.5,0,0,0,.95,2.06,1.58,1.58,0,0,0,1.83-.92l2.44-5.35a.2.2,0,0,1,.37,0l1,2.12H25.88a.51.51,0,0,0-.5.5.5.5,0,0,0,.5.5H27a.78.78,0,0,1,.7.45l.86,1.89a1.5,1.5,0,0,0,2.09.68A1.58,1.58,0,0,0,31.24,46.38Z"/><rect class="cls-4" x="34.45" y="22.92" width="9.2" height="1.01"/><rect class="cls-4" x="34.45" y="25.44" width="9.2" height="1.01"/><rect class="cls-4" x="34.45" y="27.95" width="9.2" height="1.01"/><rect class="cls-4" x="34.45" y="30.47" width="4.87" height="1.01"/><rect class="cls-4" x="34.45" y="38.41" width="9.2" height="1.01"/><rect class="cls-4" x="34.45" y="40.93" width="9.2" height="1.01"/><rect class="cls-4" x="34.45" y="43.45" width="9.2" height="1.01"/><rect class="cls-4" x="34.45" y="45.96" width="4.87" height="1.01"/></svg>