<svg id="Layer_1" data-name="Layer 1" xmlns="http://www.w3.org/2000/svg" viewBox="0 0 64 64"><defs><style>.cls-1{fill:#0795ff;}.cls-2{fill:#156cdd;}.cls-3{fill:#dfe8f4;}.cls-4{fill:#ccd8e5;}.cls-5{fill:#fff;}</style></defs><title>security, shopping, shop, online, protection</title><path class="cls-1" d="M51.67,37v-23a3.13,3.13,0,0,0-2.47-3.06l-9.05-2a38.61,38.61,0,0,0-16.3,0l-9,2a3.13,3.13,0,0,0-2.47,3.06V37A14.72,14.72,0,0,0,19.68,49.7l9.64,5.56a5.35,5.35,0,0,0,5.36,0l9.64-5.56A14.72,14.72,0,0,0,51.67,37Z"/><path class="cls-2" d="M49.2,10.86l-9.05-2a38.61,38.61,0,0,0-16.3,0l-1.68.37,7.36,1.6A3.13,3.13,0,0,1,32,13.92V37A14.7,14.7,0,0,1,24.65,49.7l-2.48,1.43,7.15,4.13a5.35,5.35,0,0,0,5.36,0l9.64-5.56A14.72,14.72,0,0,0,51.67,37v-23A3.13,3.13,0,0,0,49.2,10.86Z"/><path class="cls-3" d="M32,12a34.49,34.49,0,0,1,7.3.78l8.37,1.82V37a10.74,10.74,0,0,1-5.35,9.27L32.68,51.8a1.37,1.37,0,0,1-1.36,0l-9.64-5.56A10.74,10.74,0,0,1,16.33,37V14.62L24.7,12.8A34.49,34.49,0,0,1,32,12m0-4a38.65,38.65,0,0,0-8.15.87l-9,2a3.13,3.13,0,0,0-2.47,3.06V37A14.72,14.72,0,0,0,19.68,49.7l9.64,5.56a5.35,5.35,0,0,0,5.36,0l9.64-5.56A14.72,14.72,0,0,0,51.67,37v-23a3.13,3.13,0,0,0-2.47-3.06l-9.05-2A38.65,38.65,0,0,0,32,8Z"/><path class="cls-4" d="M49.2,10.86l-9.05-2a37.67,37.67,0,0,0-4.06-.65A37.23,37.23,0,0,0,32,8a38,38,0,0,0-6.12.49c-.68.11-1.36.24-2,.38l-1.68.37,7.36,1.6A3.12,3.12,0,0,1,31.36,12H32a34.49,34.49,0,0,1,7.3.78l8.37,1.82V37a10.74,10.74,0,0,1-5.35,9.27L32.68,51.8a1.37,1.37,0,0,1-1.36,0l-5.26-3a13.29,13.29,0,0,1-1.41.94l-2.48,1.43,7.15,4.13a5.35,5.35,0,0,0,5.36,0l9.64-5.56A14.73,14.73,0,0,0,48,46.64a13.88,13.88,0,0,0,1-1.29c.23-.34.45-.68.66-1a15.05,15.05,0,0,0,.84-1.71,15.42,15.42,0,0,0,.62-1.81A14.8,14.8,0,0,0,51.67,37v-23A3.13,3.13,0,0,0,49.2,10.86Z"/><path class="cls-5" d="M37.23,36.53H26.78a1.12,1.12,0,0,1-1.08-.84l-1.88-7.53a1.11,1.11,0,0,1,1.08-1.38H39.11a1.11,1.11,0,0,1,1.08,1.38l-1.88,7.53A1.11,1.11,0,0,1,37.23,36.53Z"/><path class="cls-5" d="M29.08,40.16a1.67,1.67,0,1,1-1.67-1.67A1.67,1.67,0,0,1,29.08,40.16Z"/><path class="cls-5" d="M38.27,40.16a1.67,1.67,0,1,1-1.67-1.67A1.68,1.68,0,0,1,38.27,40.16Z"/><path class="cls-5" d="M27.18,31.35,25.3,23.83h0a1.08,1.08,0,0,0-1-.81H20.87a1.09,1.09,0,0,0,0,2.17h1.6a.78.78,0,0,1,.76.59l1.39,5.57a1.11,1.11,0,0,0,1.08.85h2.56A1.12,1.12,0,0,1,27.18,31.35Z"/></svg>