<svg id="Layer_1" data-name="Layer 1" xmlns="http://www.w3.org/2000/svg" viewBox="0 0 64 64"><defs><style>.cls-1{fill:#0795ff;}.cls-2{fill:#156cdd;}.cls-3{fill:#fff;}.cls-4{fill:#dfe8f4;}.cls-5{fill:#ccd8e5;}</style></defs><title>settings, options, preferences, robots</title><path class="cls-1" d="M46.52,28.28c0-.14,0-.28,0-.42a5.55,5.55,0,0,1,1.83-4.31h0a2.52,2.52,0,0,0,.49-3.12l-2.72-4.71a2.52,2.52,0,0,0-3-1.14l-.33.11a5,5,0,0,1-4.18-.58c-.32-.21-.66-.4-1-.58A5,5,0,0,1,35,10.19L35,10a2.57,2.57,0,0,0-2.49-2.17H27.07a2.5,2.5,0,0,0-2.45,2l-.08.34a5,5,0,0,1-2.61,3.34c-.34.18-.68.37-1,.58a5,5,0,0,1-4.18.58l-.15,0a2.56,2.56,0,0,0-3.12,1.08l-2.72,4.71a2.52,2.52,0,0,0,.49,3.12h0a5.55,5.55,0,0,1,1.83,4.31c0,.14,0,.28,0,.42s0,.28,0,.42A5.55,5.55,0,0,1,11.24,33h0a2.52,2.52,0,0,0-.49,3.12l2.72,4.71a2.5,2.5,0,0,0,3,1.13l.32-.1a5,5,0,0,1,4.18.59c.33.2.66.39,1,.57a5,5,0,0,1,2.63,3.36l.05.26a2.53,2.53,0,0,0,2.47,2h5.44a2.5,2.5,0,0,0,2.45-2l.08-.34A5,5,0,0,1,37.65,43c.34-.18.68-.37,1-.57a5,5,0,0,1,4.18-.59l.15.05a2.56,2.56,0,0,0,3.12-1.08l2.72-4.71A2.52,2.52,0,0,0,48.34,33h0a5.55,5.55,0,0,1-1.83-4.31C46.51,28.56,46.52,28.42,46.52,28.28Z"/><path class="cls-2" d="M35.75,28.28a6,6,0,1,1-6-6A6,6,0,0,1,35.75,28.28Z"/><path class="cls-3" d="M44.43,35.2a2.06,2.06,0,1,0-3.2,1.71,1.2,1.2,0,0,1,.54,1v1.17H43V37.92a1.2,1.2,0,0,1,.52-1A2,2,0,0,0,44.43,35.2Z"/><path class="cls-4" d="M38.86,38.16h7a5.7,5.7,0,0,1,5.7,5.7v8.83a3.45,3.45,0,0,1-3.45,3.45H36.62a3.45,3.45,0,0,1-3.45-3.45V43.85A5.7,5.7,0,0,1,38.86,38.16Z"/><path class="cls-5" d="M33.17,51.3h0a2,2,0,0,1-2-2v-2.8a2,2,0,0,1,2-2h0Z"/><path class="cls-5" d="M51.57,51.3h0a2,2,0,0,0,2-2v-2.8a2,2,0,0,0-2-2h0Z"/><path class="cls-1" d="M40.53,46.83a2.35,2.35,0,1,1-2.35-2.35A2.35,2.35,0,0,1,40.53,46.83Z"/><path class="cls-1" d="M48.91,46.83a2.35,2.35,0,1,1-2.35-2.35A2.35,2.35,0,0,1,48.91,46.83Z"/><path class="cls-2" d="M43.22,52.48h-1.7a1.63,1.63,0,0,1-1.63-1.64h0a.24.24,0,0,1,.24-.24H44.6a.25.25,0,0,1,.25.24h0A1.63,1.63,0,0,1,43.22,52.48Z"/></svg>