<svg id="Layer_1" data-name="Layer 1" xmlns="http://www.w3.org/2000/svg" viewBox="0 0 64 64"><defs><style>.cls-1{fill:#dfe8f4;}.cls-2{fill:#ccd8e5;}.cls-3{fill:#156cdd;}.cls-4{fill:#0795ff;}</style></defs><title>shop, store, shopping, building</title><rect class="cls-1" x="9.47" y="24.34" width="45.05" height="28.15"/><polygon class="cls-2" points="54.53 24.84 47.69 24.34 11.18 24.34 9.84 29.04 33.28 52.49 54.53 52.49 54.53 24.84"/><path class="cls-3" d="M9.4,11.51H54.6a1.4,1.4,0,0,1,1.4,1.4v5.71a0,0,0,0,1,0,0H8a0,0,0,0,1,0,0V12.91A1.4,1.4,0,0,1,9.4,11.51Z"/><path class="cls-3" d="M12.8,30.07h0A4.8,4.8,0,0,1,8,25.27V18.61h9.6v6.66A4.8,4.8,0,0,1,12.8,30.07Z"/><path class="cls-4" d="M22.4,30.07h0a4.8,4.8,0,0,1-4.8-4.8V11.51h9.6V25.27A4.8,4.8,0,0,1,22.4,30.07Z"/><path class="cls-3" d="M32,30.07h0a4.8,4.8,0,0,1-4.8-4.8V18.61h9.6v6.66A4.8,4.8,0,0,1,32,30.07Z"/><path class="cls-4" d="M41.6,30.07h0a4.8,4.8,0,0,1-4.8-4.8V11.51h9.6V25.27A4.8,4.8,0,0,1,41.6,30.07Z"/><path class="cls-3" d="M51.2,30.07h0a4.8,4.8,0,0,1-4.8-4.8V18.61H56v6.66A4.8,4.8,0,0,1,51.2,30.07Z"/><path class="cls-2" d="M55.17,52.49H8.83A.83.83,0,0,1,8,51.66H8a.84.84,0,0,1,.83-.84H55.17a.84.84,0,0,1,.83.84h0A.83.83,0,0,1,55.17,52.49Z"/><rect class="cls-4" x="12.8" y="34.49" width="23.3" height="10" rx="0.52"/><path class="cls-3" d="M36.1,44V35a.52.52,0,0,0-.52-.52H15.28l10,10h10.3A.52.52,0,0,0,36.1,44Z"/><path class="cls-3" d="M49.17,50.82H40.6v-12a4.28,4.28,0,0,1,4.28-4.28h0a4.29,4.29,0,0,1,4.29,4.28Z"/><circle class="cls-4" cx="46.67" cy="43.82" r="0.67"/></svg>