<svg id="Layer_1" data-name="Layer 1" xmlns="http://www.w3.org/2000/svg" viewBox="0 0 64 64"><defs><style>.cls-1{fill:#0795ff;}.cls-2{fill:#156cdd;}.cls-3{fill:#dfe8f4;}</style></defs><title>social, media, network, snapchat</title><rect class="cls-1" x="8" y="8" width="48" height="48" rx="11.9"/><path class="cls-2" d="M37.59,21.47,19.25,40l9.82,9.82A21.26,21.26,0,0,0,44.1,56h0A11.9,11.9,0,0,0,56,44.1h0a10.25,10.25,0,0,0-3-7.22Z"/><path class="cls-3" d="M32,19h0a7.88,7.88,0,0,0-3.14.65,8.12,8.12,0,0,0-4.3,4.32,7.92,7.92,0,0,0-.65,3.14c0,.38,0,.75,0,1.11a.37.37,0,0,1-.44.34h0a2,2,0,0,0-.48-.06,2.13,2.13,0,0,0-1.28.44,2,2,0,0,0-.75,1.18,2.29,2.29,0,0,0,1.43,2.64h0A1.31,1.31,0,0,1,23,34.65a4.5,4.5,0,0,1-2.79,2,6.35,6.35,0,0,0-.74.28,1.67,1.67,0,0,0-1,1.52A1.88,1.88,0,0,0,19.25,40a3.24,3.24,0,0,0,.95.48,10.61,10.61,0,0,0,1.65.39,3.25,3.25,0,0,0,.12.59,2,2,0,0,0,1.16,1.37,2.61,2.61,0,0,0,1,.18c.26,0,.52,0,.81,0s.62-.05.93-.05a2.62,2.62,0,0,1,1.09.18c.35.16.72.38,1.12.61A7.59,7.59,0,0,0,32,45a7.59,7.59,0,0,0,3.9-1.37c.4-.23.77-.45,1.12-.61a2.62,2.62,0,0,1,1.09-.18c.31,0,.63,0,.93.05s.55,0,.81,0a2.61,2.61,0,0,0,1-.18A2,2,0,0,0,42,41.41a3.25,3.25,0,0,0,.12-.59,10.61,10.61,0,0,0,1.65-.39,3.24,3.24,0,0,0,1-.48,1.88,1.88,0,0,0,.79-1.51,1.67,1.67,0,0,0-1-1.52,6.35,6.35,0,0,0-.74-.28,4.5,4.5,0,0,1-2.79-2,1.31,1.31,0,0,1,.63-1.92h0a2.29,2.29,0,0,0,1.43-2.64,2,2,0,0,0-.75-1.18A2.13,2.13,0,0,0,41,28.47a2,2,0,0,0-.48.06h0a.37.37,0,0,1-.44-.34c0-.36,0-.73,0-1.11a8,8,0,0,0-.65-3.15,8.15,8.15,0,0,0-1.75-2.57,8,8,0,0,0-2.57-1.74A7.92,7.92,0,0,0,32,19Z"/></svg>