<svg id="Layer_1" data-name="Layer 1" xmlns="http://www.w3.org/2000/svg" viewBox="0 0 64 64"><defs><style>.cls-1{fill:#0795ff;}.cls-2{fill:#156cdd;}.cls-3{fill:#dfe8f4;}</style></defs><title>spotify, social, media, network, multimedia</title><path class="cls-1" d="M32,8A24,24,0,1,0,56,32,24,24,0,0,0,32,8ZM47.38,30.73"/><path class="cls-2" d="M17.62,26.44V43.32A12.45,12.45,0,0,0,27.78,55.64,23.49,23.49,0,0,0,32,56a24.73,24.73,0,0,0,4-.32A12.55,12.55,0,0,0,46.45,43.3V28.54l-11.7-3Z"/><path class="cls-3" d="M40.35,40.55a1.36,1.36,0,0,1-1.18.67,1.45,1.45,0,0,1-.69-.18,20.13,20.13,0,0,0-10.6-2.35,25.76,25.76,0,0,0-5.5.72,1.37,1.37,0,0,1-.73-2.64A29,29,0,0,1,27.72,36a26.39,26.39,0,0,1,5.84.43,19.87,19.87,0,0,1,6.3,2.29,1.38,1.38,0,0,1,.49,1.88Z"/><path class="cls-3" d="M42.9,35.26a1.6,1.6,0,0,1-2.22.58,24,24,0,0,0-12.56-2.78,30.52,30.52,0,0,0-6.51.86,1.62,1.62,0,0,1-.86-3.13,34.32,34.32,0,0,1,7.18-1,31.74,31.74,0,0,1,6.92.5,23.13,23.13,0,0,1,7.46,2.73,1.61,1.61,0,0,1,.59,2.21Z"/><path class="cls-3" d="M44.46,30.46a2,2,0,0,1-1-.27c-10.13-5.92-23.26-2.4-23.39-2.37A2,2,0,1,1,19,24a41.81,41.81,0,0,1,8.81-1.19,39,39,0,0,1,8.49.61,28.68,28.68,0,0,1,9.15,3.34,2,2,0,0,1-1,3.71Z"/></svg>