<svg id="Layer_1" data-name="Layer 1" xmlns="http://www.w3.org/2000/svg" viewBox="0 0 64 64"><defs><style>.cls-1{fill:#ccd8e5;}.cls-2{fill:#0795ff;}.cls-3{fill:#156cdd;}.cls-4{fill:#fff;}</style></defs><title>star, favourite, map, pin, location</title><path class="cls-1" d="M42.25,51.54C42.25,54,37.66,56,32,56s-10.25-2-10.25-4.46S26.34,47.08,32,47.08,42.25,49.08,42.25,51.54Z"/><path class="cls-2" d="M49.43,25.43A17.44,17.44,0,0,0,31.14,8c-8.3.4-16,7.93-16.53,16.22A17.37,17.37,0,0,0,21.08,39,37.72,37.72,0,0,1,31.13,50.93l.5,1a.42.42,0,0,0,.74,0l.29-.57A38.33,38.33,0,0,1,42.87,39,17.36,17.36,0,0,0,49.43,25.43Z"/><path class="cls-3" d="M32,47.08a23.29,23.29,0,0,0-3.08.21,32.65,32.65,0,0,1,2.21,3.64l.5,1a.42.42,0,0,0,.74,0l.29-.57a37.42,37.42,0,0,1,2.45-4A23.63,23.63,0,0,0,32,47.08Z"/><path class="cls-4" d="M35.48,20.16l-2.59,3.06,0,.07,3.82-.77V25l-3.84-.68,0,.08,2.61,2.95-2.13,1.25L32,24.83l-.05,0-1.4,3.7L28.47,27.3l2.57-3v-.05l-3.77.7V22.52l3.72.74,0,0-2.55-3L30.61,19,32,22.64H32L33.37,19Z"/></svg>