<svg id="Layer_1" data-name="Layer 1" xmlns="http://www.w3.org/2000/svg" viewBox="0 0 64 64"><defs><style>.cls-1{fill:#0795ff;}.cls-2{fill:#156cdd;}.cls-3{fill:#ccd8e5;}.cls-4{fill:#dfe8f4;}</style></defs><title>switch, change, exchange, house, real estate_1</title><path class="cls-1" d="M33.1,56h6.48C48.67,56,56,51.94,56,42.85V35.5a.86.86,0,0,0-1.41-.65l-8.31,7.08a.52.52,0,0,0,.33.92h2.42c0,5.24-4.26,7-9.49,7H35.36c-2,0-3.64.81-3.64,2.82v1.95A1.38,1.38,0,0,0,33.1,56Z"/><path class="cls-1" d="M30.9,8H24.42C15.33,8,8,12.06,8,21.15V28.5a.86.86,0,0,0,1.41.65l8.31-7.08a.52.52,0,0,0-.33-.92H14.93c0-5.24,4.26-7,9.49-7h4.22c2,0,3.64-.81,3.64-2.82V9.34A1.38,1.38,0,0,0,30.9,8Z"/><path class="cls-1" d="M25,36.4h3.87a.24.24,0,0,1,.24.24v9.44a0,0,0,0,1,0,0H24.74a0,0,0,0,1,0,0V36.64A.24.24,0,0,1,25,36.4Z"/><path class="cls-1" d="M19.76,33.12,8.07,44.81a.39.39,0,0,0,.27.66H31.72a.39.39,0,0,0,.27-.66L20.3,33.12A.38.38,0,0,0,19.76,33.12Z"/><rect class="cls-1" x="10.97" y="44.44" width="18.13" height="11.6"/><path class="cls-2" d="M22.86,56H17.2V51.61A2.83,2.83,0,0,1,20,48.78h0a2.82,2.82,0,0,1,2.83,2.83Z"/><path class="cls-3" d="M48.92,11.35h3.87a.24.24,0,0,1,.24.24V21a0,0,0,0,1,0,0H48.68a0,0,0,0,1,0,0V11.59A.24.24,0,0,1,48.92,11.35Z"/><path class="cls-3" d="M43.7,8.07,32,19.76a.38.38,0,0,0,.27.65H55.66a.38.38,0,0,0,.27-.65L44.24,8.07A.38.38,0,0,0,43.7,8.07Z"/><rect class="cls-3" x="34.9" y="19.39" width="18.13" height="11.6"/><path class="cls-4" d="M46.8,31H41.14V26.56A2.83,2.83,0,0,1,44,23.72h0a2.84,2.84,0,0,1,2.83,2.84Z"/></svg>