<svg id="Layer_1" data-name="Layer 1" xmlns="http://www.w3.org/2000/svg" viewBox="0 0 64 64"><defs><style>.cls-1{fill:#0795ff;}.cls-2{fill:#156cdd;}</style></defs><title>switch, change, exchange, house, real estate</title><path class="cls-1" d="M33.1,56h6.48C48.67,56,56,51.94,56,42.85V35.5a.86.86,0,0,0-1.41-.65l-8.31,7.08a.52.52,0,0,0,.33.92h2.42c0,5.24-4.26,7-9.49,7H35.36c-2,0-3.64.81-3.64,2.82v1.95A1.38,1.38,0,0,0,33.1,56Z"/><path class="cls-1" d="M30.9,8H24.42C15.33,8,8,12.06,8,21.15V28.5a.86.86,0,0,0,1.41.65l8.31-7.08a.52.52,0,0,0-.33-.92H14.93c0-5.24,4.26-7,9.49-7h4.22c2,0,3.64-.81,3.64-2.82V9.34A1.38,1.38,0,0,0,30.9,8Z"/><path class="cls-2" d="M37.61,20.15H42a.27.27,0,0,1,.27.27v10.7a0,0,0,0,1,0,0H37.34a0,0,0,0,1,0,0V20.42A.27.27,0,0,1,37.61,20.15Z"/><path class="cls-1" d="M31.69,16.44,18.45,29.68a.43.43,0,0,0,.31.74H45.24a.43.43,0,0,0,.31-.74L32.31,16.44A.44.44,0,0,0,31.69,16.44Z"/><rect class="cls-1" x="21.73" y="29.26" width="20.54" height="13.14"/><path class="cls-2" d="M35.21,42.4H28.79v-5A3.21,3.21,0,0,1,32,34.17h0a3.21,3.21,0,0,1,3.21,3.21Z"/></svg>