<svg id="Layer_1" data-name="Layer 1" xmlns="http://www.w3.org/2000/svg" viewBox="0 0 64 64"><defs><style>.cls-1{fill:#156cdd;}.cls-2{fill:#0795ff;}.cls-3{fill:#dfe8f4;}.cls-4{fill:#ccd8e5;}</style></defs><title>taco, sandwich, food, meal</title><path class="cls-1" d="M21.7,33.62a12.07,12.07,0,0,0,.71-4.22c0-4-1.65-7.19-3.69-7.19-1.19,0-2.26,1.12-2.93,2.84-1.32-.69-2.57-.82-3.41-.21s-1.17,2.24-.69,4.05a2.23,2.23,0,0,1-1.32,2.69,2.74,2.74,0,0,0-1.84,1.66c-.58,2,2,4.45,5.85,5.57s7.36.44,7.94-1.51a2.73,2.73,0,0,0-.65-2.39A4.57,4.57,0,0,0,21.7,33.62Z"/><path class="cls-2" d="M36.74,19.08a3.73,3.73,0,0,0-4.34-1.76,3.68,3.68,0,0,0-2.3,2,6.37,6.37,0,1,0,1.38,9,7.11,7.11,0,1,0,5.26-9.22Z"/><circle class="cls-1" cx="46.57" cy="31.78" r="6.62"/><path class="cls-3" d="M32,22.71A24.14,24.14,0,0,0,8.06,43.81a2.69,2.69,0,0,0,2.67,3H53.27a2.69,2.69,0,0,0,2.67-3A24.14,24.14,0,0,0,32,22.71Z"/><path class="cls-4" d="M25.22,33.19a1.41,1.41,0,1,1-1.4-1.41A1.4,1.4,0,0,1,25.22,33.19Z"/><circle class="cls-4" cx="17.54" cy="38.53" r="1.13"/><path class="cls-4" d="M25.74,41.18a1,1,0,1,1-1-1A1,1,0,0,1,25.74,41.18Z"/><circle class="cls-4" cx="22.35" cy="37.97" r="0.56"/><circle class="cls-4" cx="20.91" cy="42.64" r="0.5"/><path class="cls-4" d="M34.6,37a1,1,0,1,1-1-1A1,1,0,0,1,34.6,37Z"/><circle class="cls-4" cx="39.22" cy="32.84" r="2.06"/><path class="cls-4" d="M31.72,28.87a.78.78,0,1,1-.78-.78A.78.78,0,0,1,31.72,28.87Z"/><path class="cls-4" d="M42,40.42a.76.76,0,0,1-.76.76.77.77,0,1,1,.76-.76Z"/><path class="cls-4" d="M29.24,40.8a.39.39,0,1,1-.38-.38A.38.38,0,0,1,29.24,40.8Z"/><path class="cls-4" d="M47.22,39.56a.66.66,0,0,1-.65.66.66.66,0,1,1,0-1.32A.66.66,0,0,1,47.22,39.56Z"/><circle class="cls-4" cx="42.66" cy="42.89" r="0.25"/><circle class="cls-4" cx="48.6" cy="35.03" r="0.94"/></svg>