<svg id="Layer_1" data-name="Layer 1" xmlns="http://www.w3.org/2000/svg" viewBox="0 0 64 64"><defs><style>.cls-1{fill:#156cdd;}.cls-2{fill:#0795ff;}.cls-3{fill:#dfe8f4;}.cls-4{fill:#ccd8e5;}</style></defs><title>telephone, phone, device, electronic</title><path class="cls-1" d="M51.61,12.21H36.89a4.36,4.36,0,0,0-3.4,1.62,4.91,4.91,0,0,1-3.85,1.71H12.09A4.09,4.09,0,0,0,8,19.63V47.51a6.7,6.7,0,0,0,6.7,6.7H49.3a6.7,6.7,0,0,0,6.7-6.7V16.6A4.38,4.38,0,0,0,51.61,12.21Z"/><path class="cls-2" d="M19.08,9.79h2.71A5.51,5.51,0,0,1,27.3,15.3V45A3.25,3.25,0,0,1,24,48.21H16.82A3.25,3.25,0,0,1,13.57,45V15.3A5.51,5.51,0,0,1,19.08,9.79Z"/><rect class="cls-3" x="36.25" y="16.67" width="16" height="4.63" rx="1.56"/><path class="cls-4" d="M37.2,18.46a.84.84,0,0,1,.84-.85H51.63a1.46,1.46,0,0,1,.52.1,1.54,1.54,0,0,0-1.46-1H37.81a1.56,1.56,0,0,0-1.56,1.56v1.5a1.57,1.57,0,0,0,1,1.44Z"/><path class="cls-2" d="M40.17,27.14a1.48,1.48,0,1,1-1.47-1.47A1.47,1.47,0,0,1,40.17,27.14Z"/><path class="cls-2" d="M45.72,27.14a1.47,1.47,0,1,1-1.47-1.47A1.47,1.47,0,0,1,45.72,27.14Z"/><path class="cls-2" d="M51.28,27.14a1.48,1.48,0,1,1-1.48-1.47A1.48,1.48,0,0,1,51.28,27.14Z"/><path class="cls-2" d="M40.17,32.31a1.48,1.48,0,1,1-1.47-1.47A1.47,1.47,0,0,1,40.17,32.31Z"/><path class="cls-2" d="M45.72,32.31a1.47,1.47,0,1,1-1.47-1.47A1.47,1.47,0,0,1,45.72,32.31Z"/><path class="cls-2" d="M51.28,32.31a1.48,1.48,0,1,1-1.48-1.47A1.48,1.48,0,0,1,51.28,32.31Z"/><path class="cls-2" d="M40.17,37.48A1.48,1.48,0,1,1,38.7,36,1.47,1.47,0,0,1,40.17,37.48Z"/><path class="cls-2" d="M45.72,37.48A1.47,1.47,0,1,1,44.25,36,1.47,1.47,0,0,1,45.72,37.48Z"/><path class="cls-2" d="M51.28,37.48A1.48,1.48,0,1,1,49.8,36,1.48,1.48,0,0,1,51.28,37.48Z"/><path class="cls-2" d="M40.17,42.65a1.48,1.48,0,1,1-1.47-1.47A1.47,1.47,0,0,1,40.17,42.65Z"/><path class="cls-2" d="M45.72,42.65a1.47,1.47,0,1,1-1.47-1.47A1.47,1.47,0,0,1,45.72,42.65Z"/><path class="cls-3" d="M51.28,42.65a1.48,1.48,0,1,1-1.48-1.47A1.48,1.48,0,0,1,51.28,42.65Z"/></svg>