<svg id="Layer_1" data-name="Layer 1" xmlns="http://www.w3.org/2000/svg" viewBox="0 0 64 64"><defs><style>.cls-1{fill:#ccd8e5;}.cls-2{fill:#dfe8f4;}.cls-3{fill:#0795ff;}.cls-4{fill:#156cdd;}</style></defs><title>thought, romance, valentine, heart, love</title><path class="cls-1" d="M52.1,24.17a18.41,18.41,0,0,0-36.68,2.24v0a11.28,11.28,0,0,1-1.55,5.92L12.08,35.3a2.18,2.18,0,0,0,.62,2.91l1.26.86a1.93,1.93,0,0,1,.77,1.14l1.54,6.92a3.93,3.93,0,0,0,3.43,3l3.72.39a2,2,0,0,1,1.79,2V56h24.7L48,42.88a9.65,9.65,0,0,1,1.33-6.6A18.28,18.28,0,0,0,52.1,24.17Z"/><circle class="cls-2" cx="33.83" cy="26.41" r="18.41"/><path class="cls-3" d="M26,20.11a5.51,5.51,0,0,1,7.33.52l.1.11a.58.58,0,0,0,.81,0l.11-.11a5.51,5.51,0,0,1,7.33-.52A5.34,5.34,0,0,1,42.06,28l-.68.68L35.06,35a1.75,1.75,0,0,1-2.47,0L26.27,28.7,25.6,28A5.34,5.34,0,0,1,26,20.11Z"/><path class="cls-4" d="M34.34,20.63l-.11.11a.57.57,0,0,1-.4.16V35.53A1.74,1.74,0,0,0,35.06,35l6.32-6.32.68-.68a5.34,5.34,0,0,0-.39-7.91A5.51,5.51,0,0,0,34.34,20.63Z"/></svg>