<svg id="Layer_1" data-name="Layer 1" xmlns="http://www.w3.org/2000/svg" viewBox="0 0 64 64"><defs><style>.cls-1{fill:#0795ff;}.cls-2{fill:#dfe8f4;}.cls-3{fill:#ccd8e5;}.cls-4{fill:#156cdd;}.cls-5{fill:#fff;}</style></defs><title>thought, idea, artificial, intelligence, lightbulb, electronic</title><path class="cls-1" d="M31.33,8c-10,.36-17.83,8.9-17.83,18.93V37.85c0,2.08.74,2.82,1.65,2.82h2a.58.58,0,0,1,.58.58v2.08A8.74,8.74,0,0,0,25.49,52a.72.72,0,0,1,.66.71V56H50.5V26.5A18.5,18.5,0,0,0,31.33,8Z"/><path class="cls-2" d="M25.56,31.63v1.76H23.68a.88.88,0,0,1-.88-.88h0a.88.88,0,0,1,.88-.88Z"/><rect class="cls-3" x="24.92" y="31.63" width="0.64" height="1.76"/><path class="cls-2" d="M25.56,28.83v1.76H23.68a.88.88,0,0,1-.88-.88h0a.88.88,0,0,1,.88-.88Z"/><rect class="cls-3" x="24.92" y="28.83" width="0.64" height="1.76"/><path class="cls-2" d="M25.56,26V27.8H23.68a.89.89,0,0,1-.88-.89h0a.89.89,0,0,1,.88-.88Z"/><rect class="cls-3" x="24.92" y="26.03" width="0.64" height="1.76"/><path class="cls-2" d="M25.56,23.23V25H23.68a.89.89,0,0,1-.88-.88h0a.89.89,0,0,1,.88-.89Z"/><rect class="cls-3" x="24.92" y="23.23" width="0.64" height="1.76"/><path class="cls-2" d="M38.44,25V23.23h1.88a.89.89,0,0,1,.88.89h0a.89.89,0,0,1-.88.88Z"/><rect class="cls-3" x="38.44" y="23.23" width="0.64" height="1.76"/><path class="cls-2" d="M38.44,27.8V26h1.88a.89.89,0,0,1,.88.88h0a.89.89,0,0,1-.88.89Z"/><rect class="cls-3" x="38.44" y="26.03" width="0.64" height="1.76"/><path class="cls-2" d="M38.44,30.59V28.83h1.88a.88.88,0,0,1,.88.88h0a.88.88,0,0,1-.88.88Z"/><rect class="cls-3" x="38.44" y="28.83" width="0.64" height="1.76"/><path class="cls-2" d="M38.44,33.39V31.63h1.88a.88.88,0,0,1,.88.88h0a.88.88,0,0,1-.88.88Z"/><rect class="cls-3" x="38.44" y="31.63" width="0.64" height="1.76"/><path class="cls-2" d="M28.69,21.87H26.92V20a.89.89,0,0,1,.88-.89h0a.89.89,0,0,1,.89.89Z"/><rect class="cls-3" x="26.92" y="21.23" width="1.76" height="0.64"/><path class="cls-2" d="M31.48,21.87H29.72V20a.88.88,0,0,1,.88-.89h0a.88.88,0,0,1,.88.89Z"/><rect class="cls-3" x="29.72" y="21.23" width="1.76" height="0.64"/><path class="cls-2" d="M34.28,21.87H32.52V20a.88.88,0,0,1,.88-.89h0a.88.88,0,0,1,.88.89Z"/><rect class="cls-3" x="32.52" y="21.23" width="1.76" height="0.64"/><path class="cls-2" d="M37.08,21.87H35.31V20a.89.89,0,0,1,.89-.89h0a.89.89,0,0,1,.88.89Z"/><rect class="cls-3" x="35.31" y="21.23" width="1.76" height="0.64"/><path class="cls-2" d="M35.31,34.75h1.77v1.88a.88.88,0,0,1-.88.88h0a.88.88,0,0,1-.89-.88Z"/><rect class="cls-3" x="35.31" y="34.75" width="1.76" height="0.64"/><path class="cls-2" d="M32.52,34.75h1.76v1.88a.87.87,0,0,1-.88.88h0a.87.87,0,0,1-.88-.88Z"/><rect class="cls-3" x="32.52" y="34.75" width="1.76" height="0.64"/><path class="cls-2" d="M29.72,34.75h1.76v1.88a.87.87,0,0,1-.88.88h0a.87.87,0,0,1-.88-.88Z"/><rect class="cls-3" x="29.72" y="34.75" width="1.76" height="0.64"/><path class="cls-2" d="M26.92,34.75h1.77v1.88a.88.88,0,0,1-.89.88h0a.88.88,0,0,1-.88-.88Z"/><rect class="cls-3" x="26.92" y="34.75" width="1.76" height="0.64"/><rect class="cls-4" x="25.55" y="21.85" width="12.89" height="12.89" rx="1.42"/><path class="cls-1" d="M32.69,31.54a.7.7,0,1,1-.7-.7A.69.69,0,0,1,32.69,31.54Z"/><path class="cls-5" d="M35,27.53a3,3,0,1,0-4.89,2.31,1.7,1.7,0,0,1,.63,1.33v.18a.43.43,0,0,0,.43.43h1.67a.43.43,0,0,0,.43-.43v-.18a1.7,1.7,0,0,1,.63-1.33A3,3,0,0,0,35,27.53Z"/><path class="cls-1" d="M30.55,31c0,.06,0,.13,0,.2v.21a.49.49,0,0,0,.48.49h1.9a.49.49,0,0,0,.49-.49v-.21a1.27,1.27,0,0,1,0-.2Z"/></svg>