<svg id="Layer_1" data-name="Layer 1" xmlns="http://www.w3.org/2000/svg" viewBox="0 0 64 64"><defs><style>.cls-1{fill:#dfe8f4;}.cls-2{fill:#ccd8e5;}.cls-3{fill:#0795ff;}.cls-4{fill:#156cdd;}.cls-5{fill:#fff;}</style></defs><title>tractor, farming, agriculture, transport</title><path class="cls-1" d="M43.09,10.48h0A1.24,1.24,0,0,1,42,9.88,4.31,4.31,0,0,0,38.27,8H35.86c-1.2,0-1.76.55-1.76,1.24v1a1.25,1.25,0,0,0,1.24,1.24h0a1.23,1.23,0,0,1,1.17.83A2.31,2.31,0,0,0,38.63,14h.21a1.91,1.91,0,0,1,1.95,1.91v3h3.54V11.72A1.23,1.23,0,0,0,43.09,10.48Z"/><path class="cls-2" d="M32,24V16.72a3.91,3.91,0,0,0-3.9-3.91H17.47a4.87,4.87,0,0,0-4.86,4.86V47.92H51.3v-21A2.94,2.94,0,0,0,48.36,24Z"/><rect class="cls-3" x="22.08" y="42.31" width="29.22" height="5.6"/><path class="cls-4" d="M31.69,45.31h0a1.18,1.18,0,0,1-.6-1.17,10.78,10.78,0,0,0,0-2.78,1.18,1.18,0,0,1,.6-1.17h0a2.17,2.17,0,0,0,.79-2.95L31.2,35a2.18,2.18,0,0,0-3-.79h0a1.2,1.2,0,0,1-1.32-.07,10.33,10.33,0,0,0-2.39-1.38,1.2,1.2,0,0,1-.71-1.11h0a2.17,2.17,0,0,0-2.17-2.16H19.08a2.16,2.16,0,0,0-2.16,2.16h0a1.21,1.21,0,0,1-.72,1.11,10.33,10.33,0,0,0-2.39,1.38,1.2,1.2,0,0,1-1.32.07h0a2.17,2.17,0,0,0-3,.79L8.25,37.24A2.16,2.16,0,0,0,9,40.19H9a1.2,1.2,0,0,1,.6,1.17,10.78,10.78,0,0,0,0,2.78A1.2,1.2,0,0,1,9,45.31H9a2.16,2.16,0,0,0-.79,2.95l1.28,2.23a2.17,2.17,0,0,0,3,.79h0a1.2,1.2,0,0,1,1.32.07,10.33,10.33,0,0,0,2.39,1.38,1.21,1.21,0,0,1,.72,1.11h0A2.16,2.16,0,0,0,19.08,56h2.56a2.17,2.17,0,0,0,2.17-2.16h0a1.2,1.2,0,0,1,.71-1.11,10.33,10.33,0,0,0,2.39-1.38,1.2,1.2,0,0,1,1.32-.07h0a2.18,2.18,0,0,0,3-.79l1.28-2.23A2.17,2.17,0,0,0,31.69,45.31Z"/><path class="cls-4" d="M51.14,53.63h0a.84.84,0,0,1,.28-.88,6.31,6.31,0,0,0,.73-.64,6.4,6.4,0,0,0,.65-.73.82.82,0,0,1,.87-.28h0A1.53,1.53,0,0,0,55.53,50L56,48.3a1.52,1.52,0,0,0-1.07-1.86h0a.82.82,0,0,1-.61-.68,8.07,8.07,0,0,0-.5-1.87A.82.82,0,0,1,54,43h0a1.51,1.51,0,0,0,0-2.14l-1.26-1.27a1.55,1.55,0,0,0-2.15,0h0a.83.83,0,0,1-.9.19,7.6,7.6,0,0,0-1.87-.5.82.82,0,0,1-.68-.61h0a1.52,1.52,0,0,0-1.86-1.07L43.54,38a1.52,1.52,0,0,0-1.07,1.86h0a.82.82,0,0,1-.28.87,7.43,7.43,0,0,0-.73.64,8.72,8.72,0,0,0-.65.73.83.83,0,0,1-.87.29h0a1.52,1.52,0,0,0-1.86,1.07l-.46,1.73a1.51,1.51,0,0,0,1.07,1.85h0a.84.84,0,0,1,.62.68,7.58,7.58,0,0,0,.49,1.87.82.82,0,0,1-.19.9h0a1.51,1.51,0,0,0,0,2.14L40.89,54A1.51,1.51,0,0,0,43,54h0a.84.84,0,0,1,.9-.2,7.19,7.19,0,0,0,1.87.5.84.84,0,0,1,.68.62h0A1.53,1.53,0,0,0,48.34,56l1.73-.47A1.51,1.51,0,0,0,51.14,53.63Z"/><path class="cls-3" d="M23.33,42.75a3,3,0,1,1-3-3A3,3,0,0,1,23.33,42.75Z"/><path class="cls-3" d="M49.77,46.76a3,3,0,1,1-3-3A3,3,0,0,1,49.77,46.76Z"/><path class="cls-3" d="M20.17,24H32V17.46H21a1.79,1.79,0,0,0-1.79,1.79V23A1,1,0,0,0,20.17,24Z"/><path class="cls-1" d="M46.31,30h5a0,0,0,0,1,0,0v4.81a0,0,0,0,1,0,0h-5a2,2,0,0,1-2-2V32A2,2,0,0,1,46.31,30Z"/><path class="cls-5" d="M46.31,30a2,2,0,0,0-2,2v.87a2,2,0,0,0,2,2h1.51V30Z"/><path class="cls-4" d="M41.77,16.09h1.59a1,1,0,0,1,1,1V24a0,0,0,0,1,0,0H40.79a0,0,0,0,1,0,0V17.06A1,1,0,0,1,41.77,16.09Z"/></svg>