<svg id="Layer_1" data-name="Layer 1" xmlns="http://www.w3.org/2000/svg" viewBox="0 0 64 64"><defs><style>.cls-1{fill:#0795ff;}.cls-2{fill:#156cdd;}.cls-3{fill:#dfe8f4;}.cls-4{fill:#ccd8e5;}.cls-5{fill:#fff;}</style></defs><title>truck, delivery, transport, transportation, lorry</title><path class="cls-1" d="M50.35,41.24A3.32,3.32,0,0,0,47,44.56a3.28,3.28,0,0,0,.45,1.64H47v1.68h3.31a3.32,3.32,0,1,0,0-6.64Z"/><path class="cls-2" d="M53.53,45.48a3.53,3.53,0,0,0,.14-.92,3.31,3.31,0,0,0-.18-1.05H47.22A3.31,3.31,0,0,0,47,44.56a3.1,3.1,0,0,0,.14.92Z"/><path class="cls-2" d="M50.35,44.56A3.32,3.32,0,1,0,47,47.88,3.32,3.32,0,0,0,50.35,44.56Z"/><path class="cls-3" d="M23.15,16.13H40.44a7.64,7.64,0,0,1,7.64,7.64v20.8a0,0,0,0,1,0,0H21.32a2,2,0,0,1-2-2V20A3.84,3.84,0,0,1,23.15,16.13Z"/><path class="cls-1" d="M39.59,23.9H49.88A6.12,6.12,0,0,1,56,30V43.3a1.26,1.26,0,0,1-1.26,1.26h-18a0,0,0,0,1,0,0V26.73A2.82,2.82,0,0,1,39.59,23.9Z"/><path class="cls-1" d="M40.33,41.19a3.33,3.33,0,0,0-2.89,5H37v1.69h3.34a3.35,3.35,0,1,0,0-6.69Z"/><path class="cls-2" d="M43.53,45.46a3.18,3.18,0,0,0,.15-.93,3.31,3.31,0,0,0-.19-1.05H37.17A3.31,3.31,0,0,0,37,44.53a3.22,3.22,0,0,0,.14.93Z"/><path class="cls-2" d="M56,37.81H48.7V30a6.13,6.13,0,0,0-6.13-6.13h-5.8V44.56H47.44A1.26,1.26,0,0,0,48.7,43.3V39.09a.75.75,0,0,1,.74-.75H56Z"/><path class="cls-1" d="M28.23,41.24a3.32,3.32,0,0,0-3.32,3.32,3.38,3.38,0,0,0,.45,1.64h-.45v1.68h3.32a3.32,3.32,0,1,0,0-6.64Z"/><path class="cls-2" d="M31.4,45.48a3.16,3.16,0,0,0,.15-.92,3.31,3.31,0,0,0-.19-1.05H25.1a3.31,3.31,0,0,0-.19,1.05,3.47,3.47,0,0,0,.14.92Z"/><path class="cls-2" d="M28.23,44.56a3.32,3.32,0,1,0-3.32,3.32A3.32,3.32,0,0,0,28.23,44.56Z"/><path class="cls-1" d="M18.25,41.19a3.33,3.33,0,0,0-2.89,5h-.45v1.69h3.34a3.35,3.35,0,1,0,0-6.69Z"/><path class="cls-2" d="M21.45,45.46a3.18,3.18,0,0,0,.15-.93,3.31,3.31,0,0,0-.19-1.05H15.09a3.31,3.31,0,0,0-.18,1.05,3.22,3.22,0,0,0,.14.93Z"/><path class="cls-4" d="M11.76,16.13H29.13a7.64,7.64,0,0,1,7.64,7.64v20.8a0,0,0,0,1,0,0H10a2,2,0,0,1-2-2V19.88A3.76,3.76,0,0,1,11.76,16.13Z"/><path class="cls-3" d="M42.34,43a1.31,1.31,0,0,1-1.17-.73,4.91,4.91,0,0,0-8.8,0A1.3,1.3,0,0,1,31.2,43H20.44a1.3,1.3,0,0,1-1.17-.73,4.91,4.91,0,0,0-8.8,0A1.31,1.31,0,0,1,9.3,43H8.07A2,2,0,0,0,10,44.56H36.77v0h3.15v0H54.74A1.25,1.25,0,0,0,56,43.3V43Z"/><path class="cls-2" d="M18.19,44.56a3.32,3.32,0,1,0-3.32,3.32A3.32,3.32,0,0,0,18.19,44.56Z"/><circle class="cls-3" cx="14.87" cy="44.56" r="0.83"/><path class="cls-3" d="M48.7,43.3V43H39.92v1.52h7.52A1.26,1.26,0,0,0,48.7,43.3Z"/><path class="cls-2" d="M40.09,44.56a3.32,3.32,0,1,0-3.32,3.32A3.32,3.32,0,0,0,40.09,44.56Z"/><circle class="cls-3" cx="36.77" cy="44.56" r="0.83"/><path class="cls-3" d="M56,30.62H44.7A1.39,1.39,0,0,0,43.31,32v4.42a1.38,1.38,0,0,0,1.39,1.38H56Z"/><path class="cls-4" d="M48.7,30.62H43.85a.55.55,0,0,0-.54.55v5.26a1.38,1.38,0,0,0,1.39,1.38h4Z"/><path class="cls-3" d="M56,40.05H46.8a.41.41,0,0,0-.41.41.41.41,0,0,0,.41.41H56Z"/><path class="cls-5" d="M48.7,40.05H46.8a.41.41,0,0,0-.41.41.41.41,0,0,0,.41.41h1.9Z"/><rect class="cls-5" x="54.91" y="40.05" width="1.09" height="0.82"/></svg>