<svg id="Layer_1" data-name="Layer 1" xmlns="http://www.w3.org/2000/svg" viewBox="0 0 64 64"><defs><style>.cls-1{fill:#0795ff;}.cls-2{fill:#156cdd;}</style></defs><title>twitter, social, media, network</title><path class="cls-1" d="M55.23,16.68a19,19,0,0,1-3.31,1.12,10.26,10.26,0,0,0,2.73-4.34.54.54,0,0,0-.79-.63,19.11,19.11,0,0,1-5.06,2.09,1.17,1.17,0,0,1-.32,0,1.36,1.36,0,0,1-.89-.34A10.32,10.32,0,0,0,40.75,12a11.17,11.17,0,0,0-3.22.48,10,10,0,0,0-6.9,7.61,10.84,10.84,0,0,0-.19,1.36,1.44,1.44,0,0,0,1,1.51,37.23,37.23,0,0,0,4.51.93,37,37,0,0,1-5.92.07l-.62-.07h0a27.08,27.08,0,0,1-18-9.87.56.56,0,0,0-.91,0A10.36,10.36,0,0,0,12.2,26.68a9.7,9.7,0,0,1-2.38-.92.53.53,0,0,0-.79.47,10.36,10.36,0,0,0,6.05,9.55h-.22a9.46,9.46,0,0,1-1.76-.17.53.53,0,0,0-.6.7,10.38,10.38,0,0,0,7.94,7,24.9,24.9,0,0,0,9-.23s-3.83,3-10.31,1.85a3.25,3.25,0,0,0-1.79.24A19.14,19.14,0,0,1,10,46.61H8.8a.8.8,0,0,0-.78.6.84.84,0,0,0,.39.91A28.52,28.52,0,0,0,22.69,52a28.86,28.86,0,0,0,12.19-2.58,27.13,27.13,0,0,0,8.93-6.69,29.32,29.32,0,0,0,5.46-9.15,28.82,28.82,0,0,0,1.86-10v-.16A1.76,1.76,0,0,1,51.79,22a20.2,20.2,0,0,0,4.12-4.53A.54.54,0,0,0,55.23,16.68Z"/><path class="cls-2" d="M29.41,43.08s-3.83,3-10.31,1.85a3.25,3.25,0,0,0-1.79.24A19.14,19.14,0,0,1,10,46.61H8.8a.8.8,0,0,0-.78.6.84.84,0,0,0,.39.91A28.52,28.52,0,0,0,22.69,52a28.86,28.86,0,0,0,12.19-2.58,27.13,27.13,0,0,0,8.93-6.69C38.49,48.5,29.41,43.08,29.41,43.08Z"/></svg>