<svg id="Layer_1" data-name="Layer 1" xmlns="http://www.w3.org/2000/svg" viewBox="0 0 64 64"><defs><style>.cls-1{fill:#dfe8f4;}.cls-2{fill:#0795ff;}.cls-3{fill:#156cdd;}</style></defs><title>view, vision, eye, visible</title><path class="cls-1" d="M55.57,31.28,55,31a13,13,0,0,1-4.15-3.67,23.59,23.59,0,0,0-37.76,0A13,13,0,0,1,9,31l-.54.29a.82.82,0,0,0,0,1.44L9,33a13,13,0,0,1,4.15,3.67,23.59,23.59,0,0,0,37.76,0A13,13,0,0,1,55,33l.54-.29A.82.82,0,0,0,55.57,31.28Z"/><circle class="cls-2" cx="32" cy="32" r="7.75"/><path class="cls-3" d="M32,24.25V32H24.25A7.75,7.75,0,1,0,32,24.25Z"/></svg>