<svg id="Layer_1" data-name="Layer 1" xmlns="http://www.w3.org/2000/svg" viewBox="0 0 64 64"><defs><style>.cls-1{fill:#0795ff;}.cls-2{fill:#156cdd;}</style></defs><title>vimeo, social, media, network</title><path class="cls-1" d="M54,13.34a6.79,6.79,0,0,0-5-2c-6.08-.2-10.39,3-12.79,9.62a1,1,0,0,0,1.18,1.28,7.66,7.66,0,0,1,2-.29,3.33,3.33,0,0,1,2.66.94,3,3,0,0,1,.18,2.66A37.29,37.29,0,0,1,38.79,32c-2.17,3.4-3.36,4.92-3.7,4.92-1.14,0-5.26-18.27-5.38-18.67-1.18-4.18-1.77-6.29-5.61-6.29-2.93,0-9.47,5.35-14.83,10l-.82.71a1.28,1.28,0,0,0-.18,1.76l1,1.23a1.34,1.34,0,0,0,1.84.27h0c1.74-1.23,3.38-2.4,4.61-2.46s2.52,2,3.91,7c2.65,9.71,7.34,22.17,11.47,22.17,4.32,0,8.8-4.54,15.46-13.2,6-7.85,9.25-14.07,9.46-18.59C56.13,17.44,55.47,14.91,54,13.34Z"/><path class="cls-2" d="M36.11,35.89c-.53.68-.87,1-1,1-1.14,0-5.26-18.27-5.38-18.67-1.18-4.18-1.77-6.29-5.61-6.29-2.93,0-9.47,5.35-14.83,10l-.82.71a1.28,1.28,0,0,0-.18,1.76l1,1.23a1.34,1.34,0,0,0,1.84.27c1.74-1.23,3.38-2.4,4.61-2.46s2.52,2,3.91,7c.46,1.72,1,3.51,1.58,5.32a7.56,7.56,0,0,0,12.72,2.81A25.84,25.84,0,0,0,36.11,35.89Z"/></svg>