<svg id="Layer_1" data-name="Layer 1" xmlns="http://www.w3.org/2000/svg" viewBox="0 0 64 64"><defs><style>.cls-1{fill:#ccd8e5;}.cls-2{fill:#dfe8f4;}.cls-3{fill:#0795ff;}</style></defs><title>virtual, reality, view, person</title><path class="cls-1" d="M13.83,37.06c4.4-1.5,10.91-2.46,18.17-2.46s13.77,1,18.17,2.46C53.8,35.82,56,34.21,56,32.44c0-3.91-10.75-7.09-24-7.09S8,28.53,8,32.44C8,34.21,10.2,35.82,13.83,37.06Z"/><path class="cls-1" d="M13.83,37.06c4.4-1.5,10.91-2.46,18.17-2.46s13.77,1,18.17,2.46C53.8,35.82,56,34.21,56,32.44c0-3.91-10.75-7.09-24-7.09S8,28.53,8,32.44C8,34.21,10.2,35.82,13.83,37.06Z"/><path class="cls-2" d="M20.57,41.59,14.35,34.1v3.13C10.41,36,8,34.29,8,32.44v9.25c0,1.85,2.41,3.53,6.35,4.79v2.29l6-5.09A1.49,1.49,0,0,0,20.57,41.59Z"/><path class="cls-2" d="M49.65,37.23V34.1l-6.22,7.49a1.49,1.49,0,0,0,.19,2.09l6,5.09V46.48C53.59,45.22,56,43.54,56,41.69V32.44C56,34.29,53.59,36,49.65,37.23Z"/><path class="cls-3" d="M37.18,13.18A5.18,5.18,0,1,1,32,8,5.18,5.18,0,0,1,37.18,13.18Z"/><path class="cls-3" d="M51.77,21.66a2.4,2.4,0,0,0-2.36-1.74H14.59a2.4,2.4,0,0,0-2.36,1.74,2.34,2.34,0,0,0,1.83,2.89l8.79,1.67a1.75,1.75,0,0,1,1.43,1.83L22.81,53.18a2.64,2.64,0,0,0,3,2.79,2.75,2.75,0,0,0,2.21-2.15l3-13.16a1,1,0,0,1,2,0l3,13.16A2.75,2.75,0,0,0,38.16,56a2.64,2.64,0,0,0,3-2.79L39.72,28.05a1.75,1.75,0,0,1,1.43-1.83l8.79-1.67A2.34,2.34,0,0,0,51.77,21.66Z"/></svg>