<svg id="Layer_1" data-name="Layer 1" xmlns="http://www.w3.org/2000/svg" viewBox="0 0 64 64"><defs><style>.cls-1{fill:#0795ff;}.cls-2{fill:#156cdd;}.cls-3{fill:#dfe8f4;}.cls-4{fill:#ccd8e5;}.cls-5{fill:#fff;}</style></defs><title>warehouse, storage, box, package</title><path class="cls-1" d="M8,23V56H56V23a2.82,2.82,0,0,0-1.42-2.45L33.42,8.36a2.88,2.88,0,0,0-2.84,0L9.43,20.58A2.82,2.82,0,0,0,8,23Z"/><rect class="cls-2" x="8.01" y="53.18" width="47.97" height="2.83"/><path class="cls-3" d="M17.17,28.27H46.83a1.1,1.1,0,0,1,1.1,1.1V56a0,0,0,0,1,0,0H16.06a0,0,0,0,1,0,0V29.37A1.1,1.1,0,0,1,17.17,28.27Z"/><path class="cls-4" d="M46.83,28.27H17.17a1.11,1.11,0,0,0-1.11,1.1V56H47.94V29.37A1.11,1.11,0,0,0,46.83,28.27ZM44.94,53H19.06V31.27H44.94Z"/><rect class="cls-2" x="21.79" y="46.76" width="10.21" height="9.26" rx="0.23"/><path class="cls-5" d="M25.43,46.76h2.94a0,0,0,0,1,0,0V48.9a.5.5,0,0,1-.5.5H25.92a.5.5,0,0,1-.5-.5V46.76A0,0,0,0,1,25.43,46.76Z"/><rect class="cls-1" x="32" y="46.76" width="10.21" height="9.26" rx="0.23"/><path class="cls-5" d="M35.64,46.76h2.94a0,0,0,0,1,0,0V48.9a.5.5,0,0,1-.5.5H36.14a.5.5,0,0,1-.5-.5V46.76A0,0,0,0,1,35.64,46.76Z"/><rect class="cls-2" x="26.89" y="37.51" width="10.21" height="9.26" rx="0.23"/><path class="cls-5" d="M30.53,37.51h2.94a0,0,0,0,1,0,0v2.14a.5.5,0,0,1-.5.5H31a.5.5,0,0,1-.5-.5V37.51A0,0,0,0,1,30.53,37.51Z"/></svg>