<svg id="Layer_1" data-name="Layer 1" xmlns="http://www.w3.org/2000/svg" viewBox="0 0 64 64"><defs><style>.cls-1{fill:#156cdd;}.cls-2{fill:#0795ff;}.cls-3{fill:#dfe8f4;}.cls-4{fill:#ccd8e5;}.cls-5{fill:#fff;}</style></defs><title>watch, wristwatch, clock, time</title><path class="cls-1" d="M49.67,28h2a1.93,1.93,0,0,1,1.93,1.93V34a1.93,1.93,0,0,1-1.93,1.93h-2a0,0,0,0,1,0,0V28A0,0,0,0,1,49.67,28Z"/><rect class="cls-2" x="15.92" y="7.97" width="29.5" height="48.07"/><path class="cls-1" d="M15.92,48.61a22.2,22.2,0,0,0,29.5,0V15.33a22.2,22.2,0,0,0-29.5,0ZM30.67,17.72A14.25,14.25,0,1,1,16.42,32,14.27,14.27,0,0,1,30.67,17.72Z"/><circle class="cls-3" cx="30.67" cy="31.97" r="18.25"/><path class="cls-4" d="M30.67,52.22A20.25,20.25,0,1,1,50.92,32,20.27,20.27,0,0,1,30.67,52.22Zm0-36.5A16.25,16.25,0,1,0,46.92,32,16.27,16.27,0,0,0,30.67,15.72Z"/><path class="cls-5" d="M38.17,33.47h-7.5a1.5,1.5,0,0,1-1.5-1.5V20.4a1.5,1.5,0,0,1,3,0V30.47h6a1.5,1.5,0,0,1,0,3Z"/></svg>