<svg id="Layer_1" data-name="Layer 1" xmlns="http://www.w3.org/2000/svg" viewBox="0 0 64 64"><defs><style>.cls-1{fill:#dfe8f4;}.cls-2{fill:#ccd8e5;}.cls-3{fill:#156cdd;}.cls-4{fill:#0795ff;}</style></defs><title>water, can, plant, agriculture</title><path class="cls-1" d="M46.48,30.29H33.7a3.34,3.34,0,0,1-2.48-1.11,3.29,3.29,0,0,1-.82-2.58l.87-7.82a8.88,8.88,0,0,1,17.65,0l.87,7.82a3.33,3.33,0,0,1-3.31,3.69ZM33.93,26.76H46.26l-.85-7.59a5.35,5.35,0,0,0-10.64,0Z"/><path class="cls-2" d="M45.41,19.17l.85,7.59H33.93l.84-7.59a5.57,5.57,0,0,1,.47-1.63H31.5a8.24,8.24,0,0,0-.23,1.24L30.4,26.6a3.29,3.29,0,0,0,.82,2.58,3.34,3.34,0,0,0,2.48,1.11H46.48a3.33,3.33,0,0,0,3.31-3.69l-.87-7.82a9.71,9.71,0,0,0-.23-1.24H45A5.27,5.27,0,0,1,45.41,19.17Z"/><path class="cls-3" d="M16.37,28.75,8.23,36.9a.76.76,0,0,0,.19,1.22,6.92,6.92,0,0,0,4.22.53,2,2,0,0,1,1.95.74L24.92,52l6.55-6.56L18.86,35.12a2.06,2.06,0,0,1-.74-1.95A6.83,6.83,0,0,0,17.59,29,.76.76,0,0,0,16.37,28.75Z"/><path class="cls-4" d="M52.87,53.12H27.32a3.12,3.12,0,0,1-3.11-3.47L27,24.52a3.57,3.57,0,0,1,3.54-3.17H49.65a3.57,3.57,0,0,1,3.54,3.17L56,49.65A3.12,3.12,0,0,1,52.87,53.12Z"/></svg>