<svg id="Layer_1" data-name="Layer 1" xmlns="http://www.w3.org/2000/svg" viewBox="0 0 64 64"><defs><style>.cls-1{fill:#dfe8f4;}.cls-2{fill:#ccd8e5;}.cls-3{fill:#0795ff;}.cls-4{fill:#156cdd;}.cls-5{fill:#fff;}</style></defs><title>web, browser, website, package, delivered, confirm</title><rect class="cls-1" x="8" y="8" width="48" height="41.13" rx="4.09"/><polygon class="cls-2" points="49.42 49.13 40.53 40.23 36.6 49.13 49.42 49.13"/><path class="cls-3" d="M51.91,8H12.09A4.09,4.09,0,0,0,8,12.09V14H56V12.09A4.09,4.09,0,0,0,51.91,8Z"/><rect class="cls-4" x="12.66" y="10.38" width="1.23" height="1.23"/><rect class="cls-4" x="15.19" y="10.38" width="1.23" height="1.23"/><rect class="cls-4" x="17.71" y="10.38" width="1.23" height="1.23"/><rect class="cls-4" x="8" y="14" width="48" height="1.65"/><path class="cls-2" d="M56,18.44H10.79A2.79,2.79,0,0,1,8,15.65H56Z"/><rect class="cls-3" x="23.1" y="39.87" width="17.8" height="16.13" rx="1.27"/><path class="cls-4" d="M33.69,44.46H30.31a.87.87,0,0,1-.87-.86V39.87h5.12V43.6A.87.87,0,0,1,33.69,44.46Z"/><path class="cls-5" d="M29.84,32.54l-2.48-2.47a1.83,1.83,0,0,1-.26-2.33,1.75,1.75,0,0,1,2.67-.22l.84.84,3.54-3.53a1.82,1.82,0,0,1,2.32-.26,1.75,1.75,0,0,1,.22,2.67l-5.3,5.3A1.09,1.09,0,0,1,29.84,32.54Z"/></svg>