<svg id="Layer_1" data-name="Layer 1" xmlns="http://www.w3.org/2000/svg" viewBox="0 0 64 64"><defs><style>.cls-1{fill:#0795ff;}.cls-2{fill:#156cdd;}.cls-3{fill:#dfe8f4;}</style></defs><title>whatsapp, social, media, network, communicaiton</title><path class="cls-1" d="M30.83,8A23.85,23.85,0,0,0,10,41a6.36,6.36,0,0,1,.34,3.71L8.23,54.91A.92.92,0,0,0,9.35,56l10-2.36a6.33,6.33,0,0,1,3.8.28A23.83,23.83,0,1,0,30.83,8ZM45.2,45"/><path class="cls-2" d="M44.36,37.49l-12,3.34L23.5,30.58l-3.5-4V49.33a4.93,4.93,0,0,0,3.11,4.59h0A23.75,23.75,0,0,0,48,49.41a5.65,5.65,0,0,0,.09-8.16Z"/><path class="cls-3" d="M43.57,37,39,35.65a1.7,1.7,0,0,0-1.7.45l-1.13,1.15a1.68,1.68,0,0,1-1.83.38c-2.18-.88-6.78-5-7.95-7a1.68,1.68,0,0,1,.13-1.86l1-1.28a1.73,1.73,0,0,0,.21-1.75l-1.94-4.39A1.72,1.72,0,0,0,23,20.73c-1.29,1.09-2.82,2.74-3,4.58-.33,3.23,1.06,7.31,6.3,12.2,6.06,5.66,10.91,6.41,14.07,5.64,1.8-.43,3.23-2.17,4.13-3.6a1.72,1.72,0,0,0-1-2.58Zm0,0"/></svg>