<svg id="Layer_1" data-name="Layer 1" xmlns="http://www.w3.org/2000/svg" viewBox="0 0 64 64"><defs><style>.cls-1{fill:#156cdd;}.cls-2{fill:#0795ff;}</style></defs><title>wordpress, social, media, network</title><path class="cls-1" d="M49,15A24,24,0,1,0,15,49,24,24,0,1,0,49,15ZM32,54.29"/><path class="cls-2" d="M21.43,22.82h-1a.48.48,0,0,0-.46.64L26.4,41.61a.61.61,0,0,0,1.15,0l3.21-9.19a2.18,2.18,0,0,0,0-1.47L28,23.14a.49.49,0,0,0-.46-.32H26.06a1,1,0,0,1-1-1h0a1,1,0,0,1,1-1H36.5a1,1,0,0,1,1,1h0a1,1,0,0,1-1,1H35.25a.48.48,0,0,0-.45.64l6.42,18.15a.6.6,0,0,0,1.14,0l2-5.79c3.4-9.51-2.79-12.47-2.79-14.59a3.84,3.84,0,0,1,3.84-3.84h.33a20.07,20.07,0,0,0-30,2.82.41.41,0,0,0,.33.65h5.35a1,1,0,0,1,1,1h0A1,1,0,0,1,21.43,22.82Zm1,0"/><path class="cls-2" d="M11.93,32a20.05,20.05,0,0,0,9.71,17.19.4.4,0,0,0,.59-.48L14,25.42a.51.51,0,0,0-1,0A20.13,20.13,0,0,0,11.93,32Zm0,0"/><path class="cls-2" d="M50.67,24.63a.54.54,0,0,0-1.05.17,16.36,16.36,0,0,1-.39,2.81l-.23.87a18.51,18.51,0,0,1-.66,1.89L41.79,48.71a.4.4,0,0,0,.59.47,20.08,20.08,0,0,0,8.29-24.55Z"/><path class="cls-2" d="M26.28,49.86a1.21,1.21,0,0,0,.85,1.61,20,20,0,0,0,4.87.6,20.55,20.55,0,0,0,4.61-.53A1.21,1.21,0,0,0,37.48,50l-5-14.26a.43.43,0,0,0-.8,0Zm-.47,1.24"/></svg>