<svg id="Layer_1" data-name="Layer 1" xmlns="http://www.w3.org/2000/svg" viewBox="0 0 64 64"><defs><style>.cls-1{fill:#0795ff;}.cls-2{fill:#156cdd;}.cls-3{fill:#ccd8e5;}.cls-4{fill:#dfe8f4;}</style></defs><title>youtube, social, media, network, multimedia</title><path class="cls-1" d="M13,14.49a5.54,5.54,0,0,0-4.09,4.57,96.67,96.67,0,0,0,0,25.88A5.54,5.54,0,0,0,13,49.51a74,74,0,0,0,19,2.38,74,74,0,0,0,19-2.38,5.54,5.54,0,0,0,4.09-4.57A96.26,96.26,0,0,0,56,32a96.26,96.26,0,0,0-.87-12.94A5.54,5.54,0,0,0,51,14.49a74,74,0,0,0-19-2.38A74,74,0,0,0,13,14.49Z"/><path class="cls-2" d="M31,26.13A3.27,3.27,0,0,0,26.09,29V51.67c1.93.14,3.9.22,5.91.22a74.7,74.7,0,0,0,18.18-2.17L54,47.53a5.54,5.54,0,0,0,1.11-2.59c.21-1.52.37-3.08.5-4.66Z"/><path class="cls-3" d="M26.09,25.81V38.19a1.41,1.41,0,0,0,2.1,1.21L39,33.21a1.39,1.39,0,0,0,0-2.42L28.19,24.6A1.41,1.41,0,0,0,26.09,25.81Z"/><path class="cls-4" d="M28.19,24.6h0a1.4,1.4,0,0,0-2.1,1.21v12.1L29.5,34.5A6.29,6.29,0,0,0,28.19,24.6Z"/></svg>